<?xml version="1.0" encoding="utf-8"?>
<!-- Generator: Adobe Illustrator 24.1.3, SVG Export Plug-In . SVG Version: 6.00 Build 0)  -->
<svg version="1.1" id="Layer_1" xmlns="http://www.w3.org/2000/svg" xmlns:xlink="http://www.w3.org/1999/xlink" x="0px" y="0px"
	 viewBox="0 0 1920 1080" style="enable-background:new 0 0 1920 1080;" xml:space="preserve">
<style type="text/css">
	.st0{fill:#231F20;}
	.st1{fill:#C8C8C8;}
</style>
<g>
	<g>
		<path class="st0" d="M859.27,583.51h-7.63v-29.02h7.63v11.02h32.65v-11.02h7.63v29.02h-7.63v-11.02h-32.65V583.51z"/>
		<path class="st0" d="M948.7,578.25h-30.88l-4.98,5.26h-10.05l26.18-29.11h4.28h4.28l26.18,29.11h-10.09L948.7,578.25z
			 M942.79,571.98l-9.53-10.09l-9.53,10.09C929.26,571.98,936.79,571.98,942.79,571.98z"/>
		<polygon class="st0" points="981.52,565.42 947.23,565.42 952.83,571.69 981.52,571.69 		"/>
		<polygon class="st0" points="943.02,560.63 991.8,560.63 991.79,554.4 937.45,554.4 		"/>
		<polygon class="st0" points="963.38,583.51 991.76,583.51 991.76,577.23 958.03,577.23 		"/>
		<path class="st0" d="M1006.81,583.51h-7.67v-29.02h9.12l17.77,17.72l17.77-17.72h9.12v29.02h-7.67v-20.14l-19.21,19.25
			l-19.21-19.25V583.51z"/>
		<path class="st0" d="M1067.02,563.28v20.23h-7.63v-29.02h7.95l32.09,20.23v-20.23h7.63v29.02h-7.67L1067.02,563.28z"/>
		<path class="st0" d="M1119.33,568.81c0,4.05,3.3,7.67,7.39,7.67c0.19,0,22.32,0,27.44,0v-4.88h-27.9v-6.28h35.53v11.16v5.49v1.53
			h-36.37c-7.58-0.19-13.72-7.07-13.72-14.7c0-7.49,5.81-14.19,13.16-14.7c0.28,0,20.88,0,31.07,0l5.86,6.98
			c-4,0-35.25,0-35.44,0.05C1122.45,561.33,1119.33,564.86,1119.33,568.81z"/>
	</g>
	<g>
		<path class="st0" d="M891.42,540.32c0,0-28.99-23.34-39.7-21.65c-5.62,0.88-7.39,3.22-7.26,9.22c0.13,6-1.16,17.76-23.67,29.41
			c-1.96,1.02,1.26,2.98,2.07,3.55c2.72,1.89,5.07,4.31,6.97,7.01c1.91,2.71,3.8,5.86,4.17,9.22c0.02,0.18,0.03,0.36,0.04,0.54
			c0.03,1.61-0.28,2.23-0.28,2.23s-0.9,0.28-1.75-0.66c-0.85-0.95-3.65-3.98-4.02-2.84c-0.38,1.14,4.44,9.64,4.02,16.66
			c-0.19,3.22,0.05,2.98-1.18,2.65c-1.23-0.33-3.03-2.65-3.6-1.89c-0.57,0.76,3.69,24.57,2.08,30.16s-7.01-5.02-7.01-5.02
			s-24.24-33.9-11.36-87.68c0,0,0.28-1.8-1.14-1.51c-1.42,0.28-19.41,1.8-25.66-14.82c0,0,6.53,0.99,9.52-0.47
			c0,0-21.6-2.82-26.65-28.2c0,0,0.11,0.01,0.94,0.82c0.83,0.8,3.98,2.55,6.3,2.46c0,0-15.2-15.84-16.71-39.13
			c0,0,36.61,9.47,51.76,30.8s20.77,22.22,26.35,22.12c5.59-0.09,15.15-5.68,19.41-2.18c4.26,3.5,5.68,7.64,5.49,12.56
			C860.55,513.68,888.96,536.09,891.42,540.32z"/>
		<circle class="st1" cx="852.79" cy="510.73" r="1.8"/>
	</g>
</g>
</svg>
