<?xml version="1.0" encoding="utf-8"?>
<!-- Generator: Adobe Illustrator 24.1.3, SVG Export Plug-In . SVG Version: 6.00 Build 0)  -->
<svg version="1.1" id="Layer_1" xmlns="http://www.w3.org/2000/svg" xmlns:xlink="http://www.w3.org/1999/xlink" x="0px" y="0px"
	 viewBox="910 540 470 60" style="enable-background:new 910 540 470 60;" xml:space="preserve">
<g>
	<path style="fill:#231F20;" d="M922.332,590.144h-11.438v-43.519h11.438v16.53h48.96v-16.53h11.438v43.519h-11.438v-16.53h-48.96
		V590.144z"/>
	<path style="fill:#231F20;" d="M1056.431,582.263h-46.309l-7.463,7.882h-15.064l39.265-43.659h6.417h6.416l39.266,43.659h-15.134
		L1056.431,582.263z M1047.573,572.848l-14.297-15.134l-14.298,15.134C1027.278,572.848,1038.576,572.848,1047.573,572.848z"/>
	<polygon style="fill:#231F20;" points="1105.654,563.01 1054.232,563.01 1062.63,572.424 1105.654,572.424 	"/>
	<polygon style="fill:#231F20;" points="1047.922,555.835 1121.078,555.835 1121.06,546.489 1039.572,546.489 	"/>
	<polygon style="fill:#231F20;" points="1078.448,590.144 1121.017,590.144 1121.017,580.73 1070.436,580.73 	"/>
	<path style="fill:#231F20;" d="M1143.583,590.144h-11.508v-43.519h13.67l26.642,26.571l26.642-26.571h13.67v43.519h-11.508v-30.2
		l-28.804,28.875l-28.804-28.875V590.144z"/>
	<path style="fill:#231F20;" d="M1233.879,559.805v30.339h-11.437v-43.519h11.927l48.123,30.337v-30.337h11.437v43.519h-11.506
		L1233.879,559.805z"/>
	<path style="fill:#231F20;" d="M1312.323,568.106c0,6.067,4.953,11.508,11.089,11.508c0.279,0,33.478,0,41.149,0v-7.323h-41.845
		v-9.415H1376v16.738v8.229v2.302h-54.54c-11.368-0.279-20.575-10.602-20.575-22.039c0-11.229,8.719-21.272,19.737-22.039
		c0.419,0,31.316,0,46.59,0l8.788,10.462c-5.999,0-52.865,0-53.144,0.069C1316.996,556.877,1312.323,562.178,1312.323,568.106z"/>
</g>
</svg>
