<?xml version="1.0" encoding="utf-8"?>
<!-- Generator: Adobe Illustrator 24.1.3, SVG Export Plug-In . SVG Version: 6.00 Build 0)  -->
<svg version="1.1" id="Layer_1" xmlns="http://www.w3.org/2000/svg" xmlns:xlink="http://www.w3.org/1999/xlink" x="0px" y="0px"
	 viewBox="810 210 170 290" style="enable-background:new 810 210 170 290;" xml:space="preserve">
<g>
	<path style="fill:#231F20;" d="M960.412,482.74c0,0-63.012-50.724-86.301-47.061c-12.211,1.921-16.053,6.997-15.778,20.032
		c0.274,13.034-2.519,38.603-51.452,63.937c-4.27,2.211,2.747,6.482,4.505,7.706c5.911,4.118,11.017,9.36,15.155,15.246
		c4.145,5.898,8.266,12.746,9.073,20.045c0.043,0.393,0.072,0.787,0.08,1.182c0.069,3.499-0.617,4.836-0.617,4.836
		s-1.955,0.617-3.807-1.441c-1.852-2.058-7.924-8.644-8.747-6.174s9.645,20.96,8.747,36.222c-0.412,6.997,0.103,6.483-2.573,5.763
		c-2.675-0.72-6.586-5.763-7.821-4.116c-1.235,1.646,8.026,53.407,4.528,65.549c-3.499,12.143-15.23-10.908-15.23-10.908
		s-52.686-73.679-24.697-190.576c0,0,0.617-3.91-2.47-3.293c-3.087,0.617-42.19,3.91-55.773-32.209c0,0,14.201,2.161,20.684-1.029
		c0,0-46.958-6.14-57.934-61.296c0,0,0.24,0.026,2.041,1.775c1.801,1.749,8.661,5.548,13.703,5.342c0,0-33.032-34.421-36.325-85.049
		c0,0,79.578,20.581,112.507,66.956s45.14,48.296,57.283,48.09c12.143-0.206,32.929-12.348,42.19-4.734
		c9.261,7.615,12.348,16.602,11.937,27.304C893.32,424.84,955.061,473.547,960.412,482.74z"/>
	<circle style="fill:#FFFFFF;" cx="876.443" cy="418.426" r="3.91"/>
</g>
</svg>
