<?xml version="1.0" encoding="utf-8"?>
<!-- Generator: Adobe Illustrator 24.1.3, SVG Export Plug-In . SVG Version: 6.00 Build 0)  -->
<svg version="1.1" id="Layer_1" xmlns="http://www.w3.org/2000/svg" xmlns:xlink="http://www.w3.org/1999/xlink" x="0px" y="0px"
	 viewBox="751 540 418 40" xml:space="preserve">
<style type="text/css">
	.st0{fill:#231F20;}
</style>
<g>
	<g>
		<g>
			<g>
				<path class="st0" d="M764.44,576.65h-8.66V543.9h10.29l20.05,20l20.05-20h10.29v32.75h-8.66v-22.72l-21.67,21.73l-21.67-21.73
					V576.65z"/>
				<path class="st0" d="M869.85,570.72h-34.84l-5.62,5.93h-11.33l29.55-32.85h4.83h4.83l29.55,32.85h-11.39L869.85,570.72z
					 M863.19,563.63l-10.76-11.39l-10.76,11.39C847.91,563.63,856.42,563.63,863.19,563.63z"/>
				<polygon class="st0" points="857.09,550.93 919.8,550.93 913.19,543.9 857.09,543.9 				"/>
				<rect x="877.38" y="569.56" class="st0" width="42.42" height="7.08"/>
				<rect x="865.84" y="556.34" class="st0" width="45.67" height="7.08"/>
				<path class="st0" d="M970.38,568.78l6.61,7.87h-52.74V543.9h8.66v24.88H970.38z"/>
				<path class="st0" d="M1030.4,570.72h-34.84l-5.61,5.93H978.6l29.55-32.85h4.83h4.83l29.55,32.85h-11.39L1030.4,570.72z
					 M1023.73,563.63l-10.76-11.39l-10.76,11.39C1008.46,563.63,1016.96,563.63,1023.73,563.63z"/>
				<path class="st0" d="M1057.93,576.65h-8.61V543.9h41.88c6.72,0.11,12.12,5.62,12.12,12.39c0,5.51-3.52,10.13-8.45,11.81
					l8.45,8.55h-12.02l-7.82-7.92c-4.57,0-25.56,0-25.56,0V576.65z M1057.93,560.85c4.36,0,28.76,0,32.54,0
					c2.52,0,4.57-2.05,4.57-4.56c0-2.47-1.99-4.57-4.62-4.57c-0.1,0-32.38,0-32.48,0V560.85z"/>
				<path class="st0" d="M1148.07,576.65h-41.04V543.9c0,0,40.83,0,41.67,0c8.34,0,14.85,7.93,14.85,16.32
					C1163.55,568.88,1156.62,576.44,1148.07,576.65z M1146.6,568.72c4.62,0,8.35-3.88,8.35-8.5c0-4.46-3.52-8.24-7.92-8.45
					c-0.26-0.06-26.87,0-31.43,0v16.95C1121.41,568.72,1146.23,568.72,1146.6,568.72z"/>
			</g>
		</g>
	</g>
</g>
</svg>
