<?xml version="1.0" encoding="utf-8"?>
<!-- Generator: Adobe Illustrator 24.1.3, SVG Export Plug-In . SVG Version: 6.00 Build 0)  -->
<svg version="1.1" id="Layer_1" xmlns="http://www.w3.org/2000/svg" xmlns:xlink="http://www.w3.org/1999/xlink" x="0px" y="0px"
	 viewBox="0 0 1920 1080" style="enable-background:new 0 0 1920 1080;" xml:space="preserve">
<style type="text/css">
	.st0{fill:#231F20;}
</style>
<g>
	<g>
		<g>
			<g>
				<path class="st0" d="M764.44,576.65h-8.66V543.9h10.29l20.05,20l20.05-20h10.29v32.75h-8.66v-22.72l-21.67,21.73l-21.67-21.73
					V576.65z"/>
				<path class="st0" d="M869.85,570.72h-34.84l-5.62,5.93h-11.33l29.55-32.85h4.83h4.83l29.55,32.85h-11.39L869.85,570.72z
					 M863.19,563.63l-10.76-11.39l-10.76,11.39C847.91,563.63,856.42,563.63,863.19,563.63z"/>
				<polygon class="st0" points="857.09,550.93 919.8,550.93 913.19,543.9 857.09,543.9 				"/>
				<rect x="877.38" y="569.56" class="st0" width="42.42" height="7.08"/>
				<rect x="865.84" y="556.34" class="st0" width="45.67" height="7.08"/>
				<path class="st0" d="M970.38,568.78l6.61,7.87h-52.74V543.9h8.66v24.88H970.38z"/>
				<path class="st0" d="M1030.4,570.72h-34.84l-5.61,5.93H978.6l29.55-32.85h4.83h4.83l29.55,32.85h-11.39L1030.4,570.72z
					 M1023.73,563.63l-10.76-11.39l-10.76,11.39C1008.46,563.63,1016.96,563.63,1023.73,563.63z"/>
				<path class="st0" d="M1057.93,576.65h-8.61V543.9h41.88c6.72,0.11,12.12,5.62,12.12,12.39c0,5.51-3.52,10.13-8.45,11.81
					l8.45,8.55h-12.02l-7.82-7.92c-4.57,0-25.56,0-25.56,0V576.65z M1057.93,560.85c4.36,0,28.76,0,32.54,0
					c2.52,0,4.57-2.05,4.57-4.56c0-2.47-1.99-4.57-4.62-4.57c-0.1,0-32.38,0-32.48,0V560.85z"/>
				<path class="st0" d="M1148.07,576.65h-41.04V543.9c0,0,40.83,0,41.67,0c8.34,0,14.85,7.93,14.85,16.32
					C1163.55,568.88,1156.62,576.44,1148.07,576.65z M1146.6,568.72c4.62,0,8.35-3.88,8.35-8.5c0-4.46-3.52-8.24-7.92-8.45
					c-0.26-0.06-26.87,0-31.43,0v16.95C1121.41,568.72,1146.23,568.72,1146.6,568.72z"/>
			</g>
			<path class="st0" d="M1026.19,526.53c-0.37-0.15-0.76-0.23-1.15-0.33c-2.27-0.58-4.17-1.52-5.55-3.65
				c-1.73-2.66-4.63-3.25-7.52-1.93c-2.02,0.93-3.78,2.29-5.5,3.68c0.01,0.01,0.02,0.01,0.04,0.02c-0.01-0.01-0.02-0.01-0.04-0.02
				c-0.08,0.01-0.14,0.04-0.18,0.11c-0.04,0.06-0.09,0.11-0.16,0.12c0,0-0.05,0.03-0.05,0.03c-1.09,0.65-2.18,1.28-3.26,1.94
				c-3.34,2.03-6.62,1.63-9.9-0.17c-1.79-0.98-2.77-2.46-3.08-4.47c-0.22-1.44-0.55-2.89-1.58-3.99c-2.26-2.41-4.64-4.68-7.18-6.8
				c0,0-0.06-0.05-0.06-0.05c-2.08-2.13-4.39-3.99-6.71-5.84c-0.79-0.63-1.6-1.25-2.5-1.72c-0.15-0.08-0.31-0.24-0.49-0.09
				c-0.18,0.15-0.05,0.32,0.01,0.49c0.1,0.29,0.55,0.66-0.18,0.75c-0.82,0.11-0.67,0.56-0.39,1.08c0.13,0.25,0.47,0.62-0.15,0.71
				c-0.71,0.11-0.49,0.48-0.24,0.83c0.29,0.41,0.63,0.8,0.94,1.2c-0.04,0.06-0.08,0.12-0.13,0.18c-0.68-0.19-0.85,0.11-0.64,0.7
				c0.14,0.39,0.28,0.81,0.74,0.96c0,0,0.08,0.04,0.08,0.04c0.12,0.38,0.75,0.55,0.6,0.98c-0.41,1.2,1.27,1.81,0.78,3
				c0.99,0.46,0.85,1.93,2.01,2.26c0.12,0.03,0.26,0.19,0.28,0.31c0.3,1.48,1.53,2.35,2.45,3.34c1.69,1.82,3.31,3.61,4.2,5.98
				c0.32,0.86,0.62,1.81,1.56,2.27c0.15,0.27,0.39,0.42,0.68,0.49c1.27,0.93,2.81,0.86,4.43,1.1c-0.25,0.16-0.33,0.25-0.42,0.26
				c-0.65,0.06-1.3,0.16-1.95,0.13c-4-0.21-6.83-2.33-8.94-5.57c-0.81-1.25-1.44-2.61-2.28-3.83c-2.88-4.19-6.85-7.14-11.19-9.63
				c-1.57-0.9-3.12-1.86-4.89-2.34c-0.08-0.07-0.17-0.13-0.25-0.2c-0.05-0.01-0.11-0.02-0.16-0.02l-0.01,0
				c-0.07-0.03-0.13-0.04-0.2-0.05c-0.09-0.1-0.18-0.22-0.29-0.27c-3.02-1.31-6.09-2.49-9.3-3.27c-0.42-0.16-0.83-0.36-1.3-0.34
				c-0.34-0.12-0.67-0.26-1.02-0.35c-0.44-0.11-1.02-0.51-1.32-0.16c-0.45,0.51,0.34,0.84,0.46,1.3c0.01,0.06-0.03,0.13-0.06,0.25
				c-0.28-0.02-0.56-0.05-0.85-0.06c-0.43-0.03-1.02-0.15-1.21,0.24c-0.2,0.43,0.38,0.67,0.66,0.96c0.31,0.31,0.61,0.63,0.96,0.88
				c0.43,0.31,0.2,0.6,0.04,0.91c-0.33-0.03-0.7-0.04-0.82,0.32c-0.12,0.37,0.27,0.52,0.47,0.76c0.34,0.41,1.12,0.09,1.26,0.79
				l0.02,0.06c0,0,0.07,0,0.07,0c0.01,0.07,0.05,0.1,0.12,0.11c0.02,0.18,0.07,0.43-0.12,0.49c-1.36,0.45-0.55,1.08-0.12,1.62
				c0.34,0.42,0.81,0.71,1.32,0.93c0.62,0.26,1.22,0.54,2.05,0.91c-1.33,0.48-0.76,0.99-0.25,1.45c0.35,0.31,0.75,0.56,1.12,0.84
				c0.2,0.15,0.56,0.26,0.48,0.53c-0.41,1.45,0.72,1.36,1.53,1.59l0.03,0.01c0.34,1.41,1.44,1.75,2.67,1.91
				c0.14,0.03,0.28,0.07,0.42,0.1c0.1,0.42-0.19,0.9,0.35,1.27c1.28,0.86,2.59,1.68,3.86,2.53c1.18,0.78,2.39,1.75,3.89,2.02
				c0,0,0.06,0.03,0.06,0.03c1.4,0.95,2.48,2.19,3.44,3.56c0.49,0.7,0.97,1.44,1.72,1.93c0,0,0,0,0-0.01
				c0.01,0.14,0.09,0.21,0.22,0.23c0,0,0,0,0,0c0.18,0.36,0.49,0.56,0.83,0.73c-0.02,0.09-0.04,0.18-0.06,0.27
				c-2.71,0.79-5.1,2.2-7.46,3.69c0,0,0,0,0-0.01c-1.86,0.44-3.73,0.86-5.58,1.33c-1.64,0.41-3.32,0.7-4.88,1.41c0,0-0.03,0-0.03,0
				c-0.58,0.18-1.18,0.35-1.75,0.56c-0.54,0.2-1.25,0.4-1.25,1.06c0,0.75,0.83,0.5,1.28,0.69c0.54,0.22,0.96,0.29,0.35,0.98
				c-0.55,0.62-0.3,1.13,0.6,1.22c2.49,0.26,4.91,1.27,7.49,0.51c0.85-0.25,1.83-0.13,2.57,0.55c0.89,0.83,1.94,1.1,3.11,1.03
				c1.56-0.08,3.12-0.14,4.67-0.27c1.71-0.15,3.28,0.62,4.92,0.71c4.84,0.28,9.53-0.53,13.97-2.54c0.9-0.41,1.94-0.65,2.55-1.56
				c0.08-0.01,0.17-0.01,0.25-0.02c3.51-1.87,6.2-4.61,8.41-7.86c0,0,0.05-0.02,0.05-0.02l0-0.06c1.23-1.28,2.26-2.72,3.25-4.18
				c0,0,0-0.02,0-0.02c0.36-0.18,0.55-0.51,0.74-0.83c0.06-0.08,0.12-0.16,0.19-0.25c1.3-1.48,2.59-2.96,3.89-4.44
				c-0.03-0.03-0.06-0.06-0.09-0.09c-0.01-0.19,0.1-0.41,0.14-0.61c-0.04,0.2-0.15,0.42-0.14,0.61c0.03,0.03,0.06,0.06,0.09,0.09
				c0.82-0.71,1.64-1.42,2.46-2.13c0.5-0.69,1.16-1.3,1.9-1.8c-0.74,0.5-1.4,1.11-1.9,1.8c0.03,0.08,0.07,0.16,0.1,0.24
				c-1.03,0.88-1.89,1.91-2.58,3.08c0,0,0.01,0.01,0.01,0.01c-0.42,0.28-0.67,0.68-0.8,1.17c0,0,0.01,0.06,0.01,0.06
				c-0.15-0.01-0.2,0.1-0.21,0.22c0,0,0,0,0,0c-0.96,0.76-1.36,1.85-1.75,2.94c0,0,0.01,0,0.01,0c-0.1,0.15-0.22,0.28-0.29,0.44
				c-0.2,0.43-0.52,0.99-0.23,1.32c0.38,0.43,0.87-0.1,1.23-0.3c2.95-1.63,5.8-3.45,9.01-4.57c0.09-0.03,0.14-0.16,0.2-0.25
				c0.15,0.01,0.3,0.01,0.46,0.02c0,0,0,0,0,0c3.28-0.74,6.54-0.73,9.79,0.19c0.63,0.18,1.31,0.15,1.94-0.03
				c0.42-0.12,0.89-0.33,0.89-0.84C1027.02,526.67,1026.51,526.66,1026.19,526.53z M1020.39,524.79
				C1020.39,524.79,1020.39,524.8,1020.39,524.79c-0.31,0.24-0.68,0.08-1.01,0.14C1019.71,524.88,1020.08,525.03,1020.39,524.79z
				 M1018.85,523.49c0.04-0.04,0.06-0.08,0.09-0.12C1018.91,523.41,1018.89,523.45,1018.85,523.49c-0.23,0.25-0.32,0.53-0.06,0.86
				c0.3-0.35,0.5-0.44,0.66-0.41c-0.16-0.02-0.36,0.07-0.66,0.41C1018.52,524.02,1018.62,523.74,1018.85,523.49z M1019.19,525.03
				c-0.04,0.02-0.08,0.02-0.12,0.06c0,0,0,0,0,0C1019.1,525.05,1019.15,525.05,1019.19,525.03z M1017.78,521.89
				c-0.35,0.19-0.27,0.63-0.21,1.02c0.08,0.53-0.2,0.8-0.64,0.87c0.44-0.07,0.73-0.34,0.64-0.87
				C1017.51,522.52,1017.43,522.08,1017.78,521.89z M1016.3,523.12c-0.35-0.04-0.47-0.3-0.44-0.62c0.03-0.35,0.26-0.49,0.59-0.47
				c0.33,0.02,0.53,0.2,0.52,0.59C1016.89,522.94,1016.68,523.16,1016.3,523.12z M1015.42,522.56c0.07-0.57,0.47-1.02,1.15-1.23
				c0.16-0.05,0.36-0.09,0.41-0.3c-0.98-0.63-2.15-0.74-3.31-0.5c1.17-0.24,2.34-0.13,3.31,0.5c-0.06,0.21-0.25,0.25-0.41,0.3
				C1015.89,521.54,1015.49,521.99,1015.42,522.56z M1022.44,527.03c-1.97-0.13-3.93-0.64-5.95-0.2c-0.23,0.05-0.45,0.11-0.66,0.18
				c0.21-0.07,0.42-0.13,0.66-0.18C1018.51,526.39,1020.46,526.89,1022.44,527.03c0.17,0.01,0.33,0.06,0.49,0.12
				C1022.76,527.09,1022.6,527.04,1022.44,527.03z M1024.75,527.75c-0.06,0-0.12,0-0.18-0.01
				C1024.62,527.75,1024.68,527.75,1024.75,527.75c0.36-0.03,0.7-0.02,1.06-0.19C1025.45,527.73,1025.1,527.72,1024.75,527.75z
				 M1020.14,525.52c1.98,0.61,4.19,0.39,5.95,1.75C1024.33,525.92,1022.12,526.13,1020.14,525.52z"/>
		</g>
	</g>
</g>
</svg>
