<svg width="3396" height="778" viewBox="0 0 3396 778" fill="none" xmlns="http://www.w3.org/2000/svg">
<g transform="translate(0, -49)">
<mask id="path-1-outside-1_524_21" maskUnits="userSpaceOnUse" x="1" y="270.094" width="2409" height="230" fill="black">
<rect fill="white" x="1" y="270.094" width="2409" height="230"/>
<path d="M117.812 494.094L10.9033 276.594H42.1973L135.938 471.013L224.297 276.594H256.016L344.375 471.013L429.053 276.594H460.347L362.5 494.094H326.25L240.156 303.923L154.062 494.094H117.812ZM498.438 494.094V276.594H711.973V299.25H525.625V371.75H704.185V394.406H525.625V471.438H715.938V494.094H498.438ZM752.188 494.094V276.594H779.375V471.438H951.562V494.094H752.188ZM987.812 494.094V276.594H1015V371.75H1051.11L1191.72 276.594H1232.5L1078.44 383.078L1237.03 494.094H1196.25L1051.25 394.406H1015V494.094H987.812ZM1273.28 494.094V276.594H1300.47V494.094H1273.28ZM1354.84 494.094V276.594H1383.16L1601.66 460.534H1601.94V276.594H1629.13V494.094H1600.81L1382.31 308.596H1382.03V494.094H1354.84ZM1684.21 276.594H1829.78C1851.02 276.594 1868.1 277.538 1881.04 279.426C1894.06 281.314 1903.93 284.571 1910.63 289.196C1917.33 293.822 1921.86 300.147 1924.22 308.171C1926.58 316.195 1927.76 326.343 1927.76 338.615V344.279C1927.76 355.607 1926.39 365.378 1923.66 373.591C1921.01 381.709 1915.87 388.317 1908.22 393.415C1900.58 398.418 1889.25 401.958 1874.24 404.035L1921.53 494.094H1894.35L1848.04 406.018C1846.15 406.112 1844.17 406.159 1842.09 406.159C1840.11 406.159 1838.04 406.159 1835.86 406.159H1711.4V494.094H1684.21V276.594ZM1711.4 382.653H1831.62C1847.76 382.653 1860.46 382.134 1869.71 381.096C1879.05 379.963 1885.9 378.028 1890.24 375.29C1894.68 372.552 1897.51 368.682 1898.74 363.679C1899.96 358.675 1900.58 352.209 1900.58 344.279V338.615C1900.58 329.647 1899.73 322.567 1898.03 317.375C1896.33 312.183 1892.93 308.36 1887.83 305.905C1882.73 303.451 1875.14 301.893 1865.03 301.232C1854.93 300.477 1841.43 300.1 1824.54 300.1H1711.4V382.653ZM1979.31 494.094V276.594H2006.49V494.094H1979.31ZM2061.44 494.094V276.594H2101.93L2233.48 454.021L2363.05 276.594H2403.54V494.094H2376.36V301.232L2246.51 479.792H2221.87L2088.62 301.232V494.094H2061.44Z"/>
</mask>
<path d="M117.812 494.094L10.9033 276.594H42.1973L135.938 471.013L224.297 276.594H256.016L344.375 471.013L429.053 276.594H460.347L362.5 494.094H326.25L240.156 303.923L154.062 494.094H117.812ZM498.438 494.094V276.594H711.973V299.25H525.625V371.75H704.185V394.406H525.625V471.438H715.938V494.094H498.438ZM752.188 494.094V276.594H779.375V471.438H951.562V494.094H752.188ZM987.812 494.094V276.594H1015V371.75H1051.11L1191.72 276.594H1232.5L1078.44 383.078L1237.03 494.094H1196.25L1051.25 394.406H1015V494.094H987.812ZM1273.28 494.094V276.594H1300.47V494.094H1273.28ZM1354.84 494.094V276.594H1383.16L1601.66 460.534H1601.94V276.594H1629.13V494.094H1600.81L1382.31 308.596H1382.03V494.094H1354.84ZM1684.21 276.594H1829.78C1851.02 276.594 1868.1 277.538 1881.04 279.426C1894.06 281.314 1903.93 284.571 1910.63 289.196C1917.33 293.822 1921.86 300.147 1924.22 308.171C1926.58 316.195 1927.76 326.343 1927.76 338.615V344.279C1927.76 355.607 1926.39 365.378 1923.66 373.591C1921.01 381.709 1915.87 388.317 1908.22 393.415C1900.58 398.418 1889.25 401.958 1874.24 404.035L1921.53 494.094H1894.35L1848.04 406.018C1846.15 406.112 1844.17 406.159 1842.09 406.159C1840.11 406.159 1838.04 406.159 1835.86 406.159H1711.4V494.094H1684.21V276.594ZM1711.4 382.653H1831.62C1847.76 382.653 1860.46 382.134 1869.71 381.096C1879.05 379.963 1885.9 378.028 1890.24 375.29C1894.68 372.552 1897.51 368.682 1898.74 363.679C1899.96 358.675 1900.58 352.209 1900.58 344.279V338.615C1900.58 329.647 1899.73 322.567 1898.03 317.375C1896.33 312.183 1892.93 308.36 1887.83 305.905C1882.73 303.451 1875.14 301.893 1865.03 301.232C1854.93 300.477 1841.43 300.1 1824.54 300.1H1711.4V382.653ZM1979.31 494.094V276.594H2006.49V494.094H1979.31ZM2061.44 494.094V276.594H2101.93L2233.48 454.021L2363.05 276.594H2403.54V494.094H2376.36V301.232L2246.51 479.792H2221.87L2088.62 301.232V494.094H2061.44Z" fill="#FFFFFF"/>
<path d="M117.812 494.094L112.428 496.741L114.076 500.094H117.812V494.094ZM10.9033 276.594V270.594H1.26845L5.51865 279.241L10.9033 276.594ZM42.1973 276.594L47.6018 273.988L45.9653 270.594H42.1973V276.594ZM135.938 471.013L130.533 473.619L136.098 485.161L141.4 473.495L135.938 471.013ZM224.297 276.594V270.594H220.433L218.835 274.111L224.297 276.594ZM256.016 276.594L261.478 274.111L259.879 270.594H256.016V276.594ZM344.375 471.013L338.913 473.495L344.492 485.771L349.876 473.409L344.375 471.013ZM429.053 276.594V270.594H425.122L423.552 274.198L429.053 276.594ZM460.347 276.594L465.818 279.055L469.625 270.594H460.347V276.594ZM362.5 494.094V500.094H366.38L367.972 496.555L362.5 494.094ZM326.25 494.094L320.784 496.568L322.38 500.094H326.25V494.094ZM240.156 303.923L245.622 301.448L240.156 289.375L234.69 301.448L240.156 303.923ZM154.062 494.094V500.094H157.932L159.528 496.568L154.062 494.094ZM117.812 494.094L123.197 491.447L16.288 273.947L10.9033 276.594L5.51865 279.241L112.428 496.741L117.812 494.094ZM10.9033 276.594V282.594H42.1973V276.594V270.594H10.9033V276.594ZM42.1973 276.594L36.7927 279.2L130.533 473.619L135.938 471.013L141.342 468.407L47.6018 273.988L42.1973 276.594ZM135.938 471.013L141.4 473.495L229.759 279.076L224.297 276.594L218.835 274.111L130.475 468.53L135.938 471.013ZM224.297 276.594V282.594H256.016V276.594V270.594H224.297V276.594ZM256.016 276.594L250.553 279.076L338.913 473.495L344.375 471.013L349.837 468.53L261.478 274.111L256.016 276.594ZM344.375 471.013L349.876 473.409L434.554 278.99L429.053 276.594L423.552 274.198L338.874 468.617L344.375 471.013ZM429.053 276.594V282.594H460.347V276.594V270.594H429.053V276.594ZM460.347 276.594L454.875 274.132L357.028 491.632L362.5 494.094L367.972 496.555L465.818 279.055L460.347 276.594ZM362.5 494.094V488.094H326.25V494.094V500.094H362.5V494.094ZM326.25 494.094L331.716 491.619L245.622 301.448L240.156 303.923L234.69 306.397L320.784 496.568L326.25 494.094ZM240.156 303.923L234.69 301.448L148.597 491.619L154.062 494.094L159.528 496.568L245.622 306.397L240.156 303.923ZM154.062 494.094V488.094H117.812V494.094V500.094H154.062V494.094ZM498.438 494.094H492.438V500.094H498.438V494.094ZM498.438 276.594V270.594H492.438V276.594H498.438ZM711.973 276.594H717.973V270.594H711.973V276.594ZM711.973 299.25V305.25H717.973V299.25H711.973ZM525.625 299.25V293.25H519.625V299.25H525.625ZM525.625 371.75H519.625V377.75H525.625V371.75ZM704.185 371.75H710.185V365.75H704.185V371.75ZM704.185 394.406V400.406H710.185V394.406H704.185ZM525.625 394.406V388.406H519.625V394.406H525.625ZM525.625 471.438H519.625V477.438H525.625V471.438ZM715.938 471.438H721.938V465.438H715.938V471.438ZM715.938 494.094V500.094H721.938V494.094H715.938ZM498.438 494.094H504.438V276.594H498.438H492.438V494.094H498.438ZM498.438 276.594V282.594H711.973V276.594V270.594H498.438V276.594ZM711.973 276.594H705.973V299.25H711.973H717.973V276.594H711.973ZM711.973 299.25V293.25H525.625V299.25V305.25H711.973V299.25ZM525.625 299.25H519.625V371.75H525.625H531.625V299.25H525.625ZM525.625 371.75V377.75H704.185V371.75V365.75H525.625V371.75ZM704.185 371.75H698.185V394.406H704.185H710.185V371.75H704.185ZM704.185 394.406V388.406H525.625V394.406V400.406H704.185V394.406ZM525.625 394.406H519.625V471.438H525.625H531.625V394.406H525.625ZM525.625 471.438V477.438H715.938V471.438V465.438H525.625V471.438ZM715.938 471.438H709.938V494.094H715.938H721.938V471.438H715.938ZM715.938 494.094V488.094H498.438V494.094V500.094H715.938V494.094ZM752.188 494.094H746.188V500.094H752.188V494.094ZM752.188 276.594V270.594H746.188V276.594H752.188ZM779.375 276.594H785.375V270.594H779.375V276.594ZM779.375 471.438H773.375V477.438H779.375V471.438ZM951.562 471.438H957.562V465.438H951.562V471.438ZM951.562 494.094V500.094H957.562V494.094H951.562ZM752.188 494.094H758.188V276.594H752.188H746.188V494.094H752.188ZM752.188 276.594V282.594H779.375V276.594V270.594H752.188V276.594ZM779.375 276.594H773.375V471.438H779.375H785.375V276.594H779.375ZM779.375 471.438V477.438H951.562V471.438V465.438H779.375V471.438ZM951.562 471.438H945.562V494.094H951.562H957.562V471.438H951.562ZM951.562 494.094V488.094H752.188V494.094V500.094H951.562V494.094ZM987.812 494.094H981.812V500.094H987.812V494.094ZM987.812 276.594V270.594H981.812V276.594H987.812ZM1015 276.594H1021V270.594H1015V276.594ZM1015 371.75H1009V377.75H1015V371.75ZM1051.11 371.75V377.75H1052.95L1054.47 376.719L1051.11 371.75ZM1191.72 276.594V270.594H1189.88L1188.36 271.625L1191.72 276.594ZM1232.5 276.594L1235.91 281.53L1251.73 270.594H1232.5V276.594ZM1078.44 383.078L1075.03 378.142L1067.93 383.047L1075 387.994L1078.44 383.078ZM1237.03 494.094V500.094H1256.07L1240.47 489.178L1237.03 494.094ZM1196.25 494.094L1192.85 499.038L1194.39 500.094H1196.25V494.094ZM1051.25 394.406L1054.65 389.462L1053.11 388.406H1051.25V394.406ZM1015 394.406V388.406H1009V394.406H1015ZM1015 494.094V500.094H1021V494.094H1015ZM987.812 494.094H993.812V276.594H987.812H981.812V494.094H987.812ZM987.812 276.594V282.594H1015V276.594V270.594H987.812V276.594ZM1015 276.594H1009V371.75H1015H1021V276.594H1015ZM1015 371.75V377.75H1051.11V371.75V365.75H1015V371.75ZM1051.11 371.75L1054.47 376.719L1195.08 281.563L1191.72 276.594L1188.36 271.625L1047.75 366.781L1051.11 371.75ZM1191.72 276.594V282.594H1232.5V276.594V270.594H1191.72V276.594ZM1232.5 276.594L1229.09 271.658L1075.03 378.142L1078.44 383.078L1081.85 388.014L1235.91 281.53L1232.5 276.594ZM1078.44 383.078L1075 387.994L1233.59 499.009L1237.03 494.094L1240.47 489.178L1081.88 378.163L1078.44 383.078ZM1237.03 494.094V488.094H1196.25V494.094V500.094H1237.03V494.094ZM1196.25 494.094L1199.65 489.15L1054.65 389.462L1051.25 394.406L1047.85 399.35L1192.85 499.038L1196.25 494.094ZM1051.25 394.406V388.406H1015V394.406V400.406H1051.25V394.406ZM1015 394.406H1009V494.094H1015H1021V394.406H1015ZM1015 494.094V488.094H987.812V494.094V500.094H1015V494.094ZM1273.28 494.094H1267.28V500.094H1273.28V494.094ZM1273.28 276.594V270.594H1267.28V276.594H1273.28ZM1300.47 276.594H1306.47V270.594H1300.47V276.594ZM1300.47 494.094V500.094H1306.47V494.094H1300.47ZM1273.28 494.094H1279.28V276.594H1273.28H1267.28V494.094H1273.28ZM1273.28 276.594V282.594H1300.47V276.594V270.594H1273.28V276.594ZM1300.47 276.594H1294.47V494.094H1300.47H1306.47V276.594H1300.47ZM1300.47 494.094V488.094H1273.28V494.094V500.094H1300.47V494.094ZM1354.84 494.094H1348.84V500.094H1354.84V494.094ZM1354.84 276.594V270.594H1348.84V276.594H1354.84ZM1383.16 276.594L1387.03 272.004L1385.35 270.594H1383.16V276.594ZM1601.66 460.534L1597.79 465.124L1599.47 466.534H1601.66V460.534ZM1601.94 460.534V466.534H1607.94V460.534H1601.94ZM1601.94 276.594V270.594H1595.94V276.594H1601.94ZM1629.13 276.594H1635.13V270.594H1629.13V276.594ZM1629.13 494.094V500.094H1635.13V494.094H1629.13ZM1600.81 494.094L1596.92 498.668L1598.6 500.094H1600.81V494.094ZM1382.31 308.596L1386.2 304.022L1384.52 302.596H1382.31V308.596ZM1382.03 308.596V302.596H1376.03V308.596H1382.03ZM1382.03 494.094V500.094H1388.03V494.094H1382.03ZM1354.84 494.094H1360.84V276.594H1354.84H1348.84V494.094H1354.84ZM1354.84 276.594V282.594H1383.16V276.594V270.594H1354.84V276.594ZM1383.16 276.594L1379.3 281.184L1597.79 465.124L1601.66 460.534L1605.52 455.944L1387.03 272.004L1383.16 276.594ZM1601.66 460.534V466.534H1601.94V460.534V454.534H1601.66V460.534ZM1601.94 460.534H1607.94V276.594H1601.94H1595.94V460.534H1601.94ZM1601.94 276.594V282.594H1629.13V276.594V270.594H1601.94V276.594ZM1629.13 276.594H1623.13V494.094H1629.13H1635.13V276.594H1629.13ZM1629.13 494.094V488.094H1600.81V494.094V500.094H1629.13V494.094ZM1600.81 494.094L1604.69 489.52L1386.2 304.022L1382.31 308.596L1378.43 313.17L1596.92 498.668L1600.81 494.094ZM1382.31 308.596V302.596H1382.03V308.596V314.596H1382.31V308.596ZM1382.03 308.596H1376.03V494.094H1382.03H1388.03V308.596H1382.03ZM1382.03 494.094V488.094H1354.84V494.094V500.094H1382.03V494.094ZM1684.21 276.594V270.594H1678.21V276.594H1684.21ZM1881.04 279.426L1880.17 285.363L1880.17 285.364L1881.04 279.426ZM1923.66 373.591L1917.97 371.693L1917.96 371.713L1917.95 371.733L1923.66 373.591ZM1908.22 393.415L1911.51 398.436L1911.53 398.422L1911.55 398.407L1908.22 393.415ZM1874.24 404.035L1873.42 398.092L1864.95 399.262L1868.93 406.825L1874.24 404.035ZM1921.53 494.094V500.094H1931.46L1926.85 491.304L1921.53 494.094ZM1894.35 494.094L1889.03 496.886L1890.72 500.094H1894.35V494.094ZM1848.04 406.018L1853.35 403.226L1851.57 399.834L1847.74 400.025L1848.04 406.018ZM1711.4 406.159V400.159H1705.4V406.159H1711.4ZM1711.4 494.094V500.094H1717.4V494.094H1711.4ZM1684.21 494.094H1678.21V500.094H1684.21V494.094ZM1711.4 382.653H1705.4V388.653H1711.4V382.653ZM1869.71 381.096L1870.38 387.058L1870.4 387.055L1870.43 387.052L1869.71 381.096ZM1890.24 375.29L1887.09 370.184L1887.06 370.199L1887.04 370.214L1890.24 375.29ZM1865.03 301.232L1864.59 307.216L1864.61 307.218L1864.64 307.22L1865.03 301.232ZM1711.4 300.1V294.1H1705.4V300.1H1711.4ZM1684.21 276.594V282.594H1829.78V276.594V270.594H1684.21V276.594ZM1829.78 276.594V282.594C1850.88 282.594 1867.64 283.534 1880.17 285.363L1881.04 279.426L1881.9 273.489C1868.56 271.541 1851.15 270.594 1829.78 270.594V276.594ZM1881.04 279.426L1880.17 285.364C1892.79 287.192 1901.61 290.261 1907.22 294.134L1910.63 289.196L1914.04 284.258C1906.25 278.881 1895.34 275.436 1881.9 273.488L1881.04 279.426ZM1910.63 289.196L1907.22 294.134C1912.76 297.957 1916.48 303.12 1918.47 309.864L1924.22 308.171L1929.98 306.478C1927.24 297.174 1921.9 289.687 1914.04 284.258L1910.63 289.196ZM1924.22 308.171L1918.47 309.864C1920.61 317.147 1921.76 326.675 1921.76 338.615H1927.76H1933.76C1933.76 326.011 1932.56 315.243 1929.98 306.478L1924.22 308.171ZM1927.76 338.615H1921.76V344.279H1927.76H1933.76V338.615H1927.76ZM1927.76 344.279H1921.76C1921.76 355.15 1920.45 364.248 1917.97 371.693L1923.66 373.591L1929.35 375.488C1932.34 366.508 1933.76 356.065 1933.76 344.279H1927.76ZM1923.66 373.591L1917.95 371.733C1915.76 378.469 1911.51 384.012 1904.89 388.423L1908.22 393.415L1911.55 398.407C1920.23 392.623 1926.27 384.95 1929.36 375.448L1923.66 373.591ZM1908.22 393.415L1904.94 388.394C1898.37 392.693 1888.05 396.066 1873.42 398.092L1874.24 404.035L1875.06 409.979C1890.44 407.85 1902.78 404.143 1911.51 398.436L1908.22 393.415ZM1874.24 404.035L1868.93 406.825L1916.22 496.883L1921.53 494.094L1926.85 491.304L1879.55 401.245L1874.24 404.035ZM1921.53 494.094V488.094H1894.35V494.094V500.094H1921.53V494.094ZM1894.35 494.094L1899.66 491.302L1853.35 403.226L1848.04 406.018L1842.73 408.81L1889.03 496.886L1894.35 494.094ZM1848.04 406.018L1847.74 400.025C1845.96 400.114 1844.08 400.159 1842.09 400.159V406.159V412.159C1844.26 412.159 1846.34 412.11 1848.34 412.01L1848.04 406.018ZM1842.09 406.159V400.159C1842.09 400.159 1842.09 400.159 1842.08 400.159C1842.08 400.159 1842.08 400.159 1842.07 400.159C1842.07 400.159 1842.06 400.159 1842.06 400.159C1842.06 400.159 1842.05 400.159 1842.05 400.159C1842.04 400.159 1842.04 400.159 1842.04 400.159C1842.03 400.159 1842.03 400.159 1842.03 400.159C1842.02 400.159 1842.02 400.159 1842.01 400.159C1842.01 400.159 1842.01 400.159 1842 400.159C1842 400.159 1841.99 400.159 1841.99 400.159C1841.99 400.159 1841.98 400.159 1841.98 400.159C1841.97 400.159 1841.97 400.159 1841.97 400.159C1841.96 400.159 1841.96 400.159 1841.96 400.159C1841.95 400.159 1841.95 400.159 1841.94 400.159C1841.94 400.159 1841.94 400.159 1841.93 400.159C1841.93 400.159 1841.92 400.159 1841.92 400.159C1841.92 400.159 1841.91 400.159 1841.91 400.159C1841.9 400.159 1841.9 400.159 1841.9 400.159C1841.89 400.159 1841.89 400.159 1841.89 400.159C1841.88 400.159 1841.88 400.159 1841.87 400.159C1841.87 400.159 1841.87 400.159 1841.86 400.159C1841.86 400.159 1841.85 400.159 1841.85 400.159C1841.85 400.159 1841.84 400.159 1841.84 400.159C1841.83 400.159 1841.83 400.159 1841.83 400.159C1841.82 400.159 1841.82 400.159 1841.82 400.159C1841.81 400.159 1841.81 400.159 1841.8 400.159C1841.8 400.159 1841.8 400.159 1841.79 400.159C1841.79 400.159 1841.78 400.159 1841.78 400.159C1841.78 400.159 1841.77 400.159 1841.77 400.159C1841.76 400.159 1841.76 400.159 1841.76 400.159C1841.75 400.159 1841.75 400.159 1841.75 400.159C1841.74 400.159 1841.74 400.159 1841.73 400.159C1841.73 400.159 1841.73 400.159 1841.72 400.159C1841.72 400.159 1841.71 400.159 1841.71 400.159C1841.71 400.159 1841.7 400.159 1841.7 400.159C1841.69 400.159 1841.69 400.159 1841.69 400.159C1841.68 400.159 1841.68 400.159 1841.68 400.159C1841.67 400.159 1841.67 400.159 1841.66 400.159C1841.66 400.159 1841.66 400.159 1841.65 400.159C1841.65 400.159 1841.64 400.159 1841.64 400.159C1841.64 400.159 1841.63 400.159 1841.63 400.159C1841.62 400.159 1841.62 400.159 1841.62 400.159C1841.61 400.159 1841.61 400.159 1841.6 400.159C1841.6 400.159 1841.6 400.159 1841.59 400.159C1841.59 400.159 1841.59 400.159 1841.58 400.159C1841.58 400.159 1841.57 400.159 1841.57 400.159C1841.57 400.159 1841.56 400.159 1841.56 400.159C1841.55 400.159 1841.55 400.159 1841.55 400.159C1841.54 400.159 1841.54 400.159 1841.53 400.159C1841.53 400.159 1841.53 400.159 1841.52 400.159C1841.52 400.159 1841.52 400.159 1841.51 400.159C1841.51 400.159 1841.5 400.159 1841.5 400.159C1841.5 400.159 1841.49 400.159 1841.49 400.159C1841.48 400.159 1841.48 400.159 1841.48 400.159C1841.47 400.159 1841.47 400.159 1841.46 400.159C1841.46 400.159 1841.46 400.159 1841.45 400.159C1841.45 400.159 1841.44 400.159 1841.44 400.159C1841.44 400.159 1841.43 400.159 1841.43 400.159C1841.43 400.159 1841.42 400.159 1841.42 400.159C1841.41 400.159 1841.41 400.159 1841.41 400.159C1841.4 400.159 1841.4 400.159 1841.39 400.159C1841.39 400.159 1841.39 400.159 1841.38 400.159C1841.38 400.159 1841.37 400.159 1841.37 400.159C1841.37 400.159 1841.36 400.159 1841.36 400.159C1841.35 400.159 1841.35 400.159 1841.35 400.159C1841.34 400.159 1841.34 400.159 1841.34 400.159C1841.33 400.159 1841.33 400.159 1841.32 400.159C1841.32 400.159 1841.32 400.159 1841.31 400.159C1841.31 400.159 1841.3 400.159 1841.3 400.159C1841.3 400.159 1841.29 400.159 1841.29 400.159C1841.28 400.159 1841.28 400.159 1841.28 400.159C1841.27 400.159 1841.27 400.159 1841.26 400.159C1841.26 400.159 1841.26 400.159 1841.25 400.159C1841.25 400.159 1841.24 400.159 1841.24 400.159C1841.24 400.159 1841.23 400.159 1841.23 400.159C1841.23 400.159 1841.22 400.159 1841.22 400.159C1841.21 400.159 1841.21 400.159 1841.21 400.159C1841.2 400.159 1841.2 400.159 1841.19 400.159C1841.19 400.159 1841.19 400.159 1841.18 400.159C1841.18 400.159 1841.17 400.159 1841.17 400.159C1841.17 400.159 1841.16 400.159 1841.16 400.159C1841.15 400.159 1841.15 400.159 1841.15 400.159C1841.14 400.159 1841.14 400.159 1841.14 400.159C1841.13 400.159 1841.13 400.159 1841.12 400.159C1841.12 400.159 1841.12 400.159 1841.11 400.159C1841.11 400.159 1841.1 400.159 1841.1 400.159C1841.1 400.159 1841.09 400.159 1841.09 400.159C1841.08 400.159 1841.08 400.159 1841.08 400.159C1841.07 400.159 1841.07 400.159 1841.06 400.159C1841.06 400.159 1841.06 400.159 1841.05 400.159C1841.05 400.159 1841.04 400.159 1841.04 400.159C1841.04 400.159 1841.03 400.159 1841.03 400.159C1841.02 400.159 1841.02 400.159 1841.02 400.159C1841.01 400.159 1841.01 400.159 1841.01 400.159C1841 400.159 1841 400.159 1840.99 400.159C1840.99 400.159 1840.99 400.159 1840.98 400.159C1840.98 400.159 1840.97 400.159 1840.97 400.159C1840.97 400.159 1840.96 400.159 1840.96 400.159C1840.95 400.159 1840.95 400.159 1840.95 400.159C1840.94 400.159 1840.94 400.159 1840.93 400.159C1840.93 400.159 1840.93 400.159 1840.92 400.159C1840.92 400.159 1840.91 400.159 1840.91 400.159C1840.91 400.159 1840.9 400.159 1840.9 400.159C1840.89 400.159 1840.89 400.159 1840.89 400.159C1840.88 400.159 1840.88 400.159 1840.88 400.159C1840.87 400.159 1840.87 400.159 1840.86 400.159C1840.86 400.159 1840.86 400.159 1840.85 400.159C1840.85 400.159 1840.84 400.159 1840.84 400.159C1840.84 400.159 1840.83 400.159 1840.83 400.159C1840.82 400.159 1840.82 400.159 1840.82 400.159C1840.81 400.159 1840.81 400.159 1840.8 400.159C1840.8 400.159 1840.8 400.159 1840.79 400.159C1840.79 400.159 1840.78 400.159 1840.78 400.159C1840.78 400.159 1840.77 400.159 1840.77 400.159C1840.76 400.159 1840.76 400.159 1840.76 400.159C1840.75 400.159 1840.75 400.159 1840.74 400.159C1840.74 400.159 1840.74 400.159 1840.73 400.159C1840.73 400.159 1840.72 400.159 1840.72 400.159C1840.72 400.159 1840.71 400.159 1840.71 400.159C1840.71 400.159 1840.7 400.159 1840.7 400.159C1840.69 400.159 1840.69 400.159 1840.69 400.159C1840.68 400.159 1840.68 400.159 1840.67 400.159C1840.67 400.159 1840.67 400.159 1840.66 400.159C1840.66 400.159 1840.65 400.159 1840.65 400.159C1840.65 400.159 1840.64 400.159 1840.64 400.159C1840.63 400.159 1840.63 400.159 1840.63 400.159C1840.62 400.159 1840.62 400.159 1840.61 400.159C1840.61 400.159 1840.61 400.159 1840.6 400.159C1840.6 400.159 1840.59 400.159 1840.59 400.159C1840.59 400.159 1840.58 400.159 1840.58 400.159C1840.57 400.159 1840.57 400.159 1840.57 400.159C1840.56 400.159 1840.56 400.159 1840.55 400.159C1840.55 400.159 1840.55 400.159 1840.54 400.159C1840.54 400.159 1840.53 400.159 1840.53 400.159C1840.53 400.159 1840.52 400.159 1840.52 400.159C1840.51 400.159 1840.51 400.159 1840.51 400.159C1840.5 400.159 1840.5 400.159 1840.49 400.159C1840.49 400.159 1840.49 400.159 1840.48 400.159C1840.48 400.159 1840.48 400.159 1840.47 400.159C1840.47 400.159 1840.46 400.159 1840.46 400.159C1840.46 400.159 1840.45 400.159 1840.45 400.159C1840.44 400.159 1840.44 400.159 1840.44 400.159C1840.43 400.159 1840.43 400.159 1840.42 400.159C1840.42 400.159 1840.42 400.159 1840.41 400.159C1840.41 400.159 1840.4 400.159 1840.4 400.159C1840.4 400.159 1840.39 400.159 1840.39 400.159C1840.38 400.159 1840.38 400.159 1840.38 400.159C1840.37 400.159 1840.37 400.159 1840.36 400.159C1840.36 400.159 1840.36 400.159 1840.35 400.159C1840.35 400.159 1840.34 400.159 1840.34 400.159C1840.34 400.159 1840.33 400.159 1840.33 400.159C1840.32 400.159 1840.32 400.159 1840.32 400.159C1840.31 400.159 1840.31 400.159 1840.3 400.159C1840.3 400.159 1840.3 400.159 1840.29 400.159C1840.29 400.159 1840.28 400.159 1840.28 400.159C1840.28 400.159 1840.27 400.159 1840.27 400.159C1840.26 400.159 1840.26 400.159 1840.26 400.159C1840.25 400.159 1840.25 400.159 1840.24 400.159C1840.24 400.159 1840.24 400.159 1840.23 400.159C1840.23 400.159 1840.22 400.159 1840.22 400.159C1840.22 400.159 1840.21 400.159 1840.21 400.159C1840.2 400.159 1840.2 400.159 1840.2 400.159C1840.19 400.159 1840.19 400.159 1840.18 400.159C1840.18 400.159 1840.18 400.159 1840.17 400.159C1840.17 400.159 1840.16 400.159 1840.16 400.159C1840.16 400.159 1840.15 400.159 1840.15 400.159C1840.14 400.159 1840.14 400.159 1840.14 400.159C1840.13 400.159 1840.13 400.159 1840.12 400.159C1840.12 400.159 1840.12 400.159 1840.11 400.159C1840.11 400.159 1840.1 400.159 1840.1 400.159C1840.1 400.159 1840.09 400.159 1840.09 400.159C1840.08 400.159 1840.08 400.159 1840.08 400.159C1840.07 400.159 1840.07 400.159 1840.06 400.159C1840.06 400.159 1840.06 400.159 1840.05 400.159C1840.05 400.159 1840.04 400.159 1840.04 400.159C1840.04 400.159 1840.03 400.159 1840.03 400.159C1840.02 400.159 1840.02 400.159 1840.02 400.159C1840.01 400.159 1840.01 400.159 1840 400.159C1840 400.159 1840 400.159 1839.99 400.159C1839.99 400.159 1839.98 400.159 1839.98 400.159C1839.98 400.159 1839.97 400.159 1839.97 400.159C1839.96 400.159 1839.96 400.159 1839.96 400.159C1839.95 400.159 1839.95 400.159 1839.94 400.159C1839.94 400.159 1839.94 400.159 1839.93 400.159C1839.93 400.159 1839.92 400.159 1839.92 400.159C1839.92 400.159 1839.91 400.159 1839.91 400.159C1839.9 400.159 1839.9 400.159 1839.9 400.159C1839.89 400.159 1839.89 400.159 1839.88 400.159C1839.88 400.159 1839.88 400.159 1839.87 400.159C1839.87 400.159 1839.86 400.159 1839.86 400.159C1839.86 400.159 1839.85 400.159 1839.85 400.159C1839.84 400.159 1839.84 400.159 1839.84 400.159C1839.83 400.159 1839.83 400.159 1839.82 400.159C1839.82 400.159 1839.82 400.159 1839.81 400.159C1839.81 400.159 1839.8 400.159 1839.8 400.159C1839.8 400.159 1839.79 400.159 1839.79 400.159C1839.78 400.159 1839.78 400.159 1839.78 400.159C1839.77 400.159 1839.77 400.159 1839.76 400.159C1839.76 400.159 1839.76 400.159 1839.75 400.159C1839.75 400.159 1839.74 400.159 1839.74 400.159C1839.74 400.159 1839.73 400.159 1839.73 400.159C1839.72 400.159 1839.72 400.159 1839.72 400.159C1839.71 400.159 1839.71 400.159 1839.7 400.159C1839.7 400.159 1839.7 400.159 1839.69 400.159C1839.69 400.159 1839.68 400.159 1839.68 400.159C1839.68 400.159 1839.67 400.159 1839.67 400.159C1839.66 400.159 1839.66 400.159 1839.66 400.159C1839.65 400.159 1839.65 400.159 1839.64 400.159C1839.64 400.159 1839.64 400.159 1839.63 400.159C1839.63 400.159 1839.62 400.159 1839.62 400.159C1839.62 400.159 1839.61 400.159 1839.61 400.159C1839.6 400.159 1839.6 400.159 1839.6 400.159C1839.59 400.159 1839.59 400.159 1839.58 400.159C1839.58 400.159 1839.58 400.159 1839.57 400.159C1839.57 400.159 1839.56 400.159 1839.56 400.159C1839.56 400.159 1839.55 400.159 1839.55 400.159C1839.54 400.159 1839.54 400.159 1839.54 400.159C1839.53 400.159 1839.53 400.159 1839.52 400.159C1839.52 400.159 1839.52 400.159 1839.51 400.159C1839.51 400.159 1839.5 400.159 1839.5 400.159C1839.49 400.159 1839.49 400.159 1839.49 400.159C1839.48 400.159 1839.48 400.159 1839.47 400.159C1839.47 400.159 1839.47 400.159 1839.46 400.159C1839.46 400.159 1839.45 400.159 1839.45 400.159C1839.45 400.159 1839.44 400.159 1839.44 400.159C1839.43 400.159 1839.43 400.159 1839.43 400.159C1839.42 400.159 1839.42 400.159 1839.41 400.159C1839.41 400.159 1839.41 400.159 1839.4 400.159C1839.4 400.159 1839.39 400.159 1839.39 400.159C1839.39 400.159 1839.38 400.159 1839.38 400.159C1839.37 400.159 1839.37 400.159 1839.37 400.159C1839.36 400.159 1839.36 400.159 1839.35 400.159C1839.35 400.159 1839.35 400.159 1839.34 400.159C1839.34 400.159 1839.33 400.159 1839.33 400.159C1839.33 400.159 1839.32 400.159 1839.32 400.159C1839.31 400.159 1839.31 400.159 1839.31 400.159C1839.3 400.159 1839.3 400.159 1839.29 400.159C1839.29 400.159 1839.29 400.159 1839.28 400.159C1839.28 400.159 1839.27 400.159 1839.27 400.159C1839.26 400.159 1839.26 400.159 1839.26 400.159C1839.25 400.159 1839.25 400.159 1839.24 400.159C1839.24 400.159 1839.24 400.159 1839.23 400.159C1839.23 400.159 1839.22 400.159 1839.22 400.159C1839.22 400.159 1839.21 400.159 1839.21 400.159C1839.2 400.159 1839.2 400.159 1839.2 400.159C1839.19 400.159 1839.19 400.159 1839.18 400.159C1839.18 400.159 1839.18 400.159 1839.17 400.159C1839.17 400.159 1839.16 400.159 1839.16 400.159C1839.16 400.159 1839.15 400.159 1839.15 400.159C1839.14 400.159 1839.14 400.159 1839.14 400.159C1839.13 400.159 1839.13 400.159 1839.12 400.159C1839.12 400.159 1839.12 400.159 1839.11 400.159C1839.11 400.159 1839.1 400.159 1839.1 400.159C1839.09 400.159 1839.09 400.159 1839.09 400.159C1839.08 400.159 1839.08 400.159 1839.07 400.159C1839.07 400.159 1839.07 400.159 1839.06 400.159C1839.06 400.159 1839.05 400.159 1839.05 400.159C1839.05 400.159 1839.04 400.159 1839.04 400.159C1839.03 400.159 1839.03 400.159 1839.03 400.159C1839.02 400.159 1839.02 400.159 1839.01 400.159C1839.01 400.159 1839.01 400.159 1839 400.159C1839 400.159 1838.99 400.159 1838.99 400.159C1838.99 400.159 1838.98 400.159 1838.98 400.159C1838.97 400.159 1838.97 400.159 1838.97 400.159C1838.96 400.159 1838.96 400.159 1838.95 400.159C1838.95 400.159 1838.94 400.159 1838.94 400.159C1838.94 400.159 1838.93 400.159 1838.93 400.159C1838.92 400.159 1838.92 400.159 1838.92 400.159C1838.91 400.159 1838.91 400.159 1838.9 400.159C1838.9 400.159 1838.9 400.159 1838.89 400.159C1838.89 400.159 1838.88 400.159 1838.88 400.159C1838.88 400.159 1838.87 400.159 1838.87 400.159C1838.86 400.159 1838.86 400.159 1838.86 400.159C1838.85 400.159 1838.85 400.159 1838.84 400.159C1838.84 400.159 1838.83 400.159 1838.83 400.159C1838.83 400.159 1838.82 400.159 1838.82 400.159C1838.81 400.159 1838.81 400.159 1838.81 400.159C1838.8 400.159 1838.8 400.159 1838.79 400.159C1838.79 400.159 1838.79 400.159 1838.78 400.159C1838.78 400.159 1838.77 400.159 1838.77 400.159C1838.77 400.159 1838.76 400.159 1838.76 400.159C1838.75 400.159 1838.75 400.159 1838.75 400.159C1838.74 400.159 1838.74 400.159 1838.73 400.159C1838.73 400.159 1838.72 400.159 1838.72 400.159C1838.72 400.159 1838.71 400.159 1838.71 400.159C1838.7 400.159 1838.7 400.159 1838.7 400.159C1838.69 400.159 1838.69 400.159 1838.68 400.159C1838.68 400.159 1838.68 400.159 1838.67 400.159C1838.67 400.159 1838.66 400.159 1838.66 400.159C1838.66 400.159 1838.65 400.159 1838.65 400.159C1838.64 400.159 1838.64 400.159 1838.64 400.159C1838.63 400.159 1838.63 400.159 1838.62 400.159C1838.62 400.159 1838.61 400.159 1838.61 400.159C1838.61 400.159 1838.6 400.159 1838.6 400.159C1838.59 400.159 1838.59 400.159 1838.59 400.159C1838.58 400.159 1838.58 400.159 1838.57 400.159C1838.57 400.159 1838.57 400.159 1838.56 400.159C1838.56 400.159 1838.55 400.159 1838.55 400.159C1838.55 400.159 1838.54 400.159 1838.54 400.159C1838.53 400.159 1838.53 400.159 1838.53 400.159C1838.52 400.159 1838.52 400.159 1838.51 400.159C1838.51 400.159 1838.5 400.159 1838.5 400.159C1838.5 400.159 1838.49 400.159 1838.49 400.159C1838.48 400.159 1838.48 400.159 1838.48 400.159C1838.47 400.159 1838.47 400.159 1838.46 400.159C1838.46 400.159 1838.46 400.159 1838.45 400.159C1838.45 400.159 1838.44 400.159 1838.44 400.159C1838.44 400.159 1838.43 400.159 1838.43 400.159C1838.42 400.159 1838.42 400.159 1838.41 400.159C1838.41 400.159 1838.41 400.159 1838.4 400.159C1838.4 400.159 1838.39 400.159 1838.39 400.159C1838.39 400.159 1838.38 400.159 1838.38 400.159C1838.37 400.159 1838.37 400.159 1838.37 400.159C1838.36 400.159 1838.36 400.159 1838.35 400.159C1838.35 400.159 1838.34 400.159 1838.34 400.159C1838.34 400.159 1838.33 400.159 1838.33 400.159C1838.32 400.159 1838.32 400.159 1838.32 400.159C1838.31 400.159 1838.31 400.159 1838.3 400.159C1838.3 400.159 1838.3 400.159 1838.29 400.159C1838.29 400.159 1838.28 400.159 1838.28 400.159C1838.28 400.159 1838.27 400.159 1838.27 400.159C1838.26 400.159 1838.26 400.159 1838.25 400.159C1838.25 400.159 1838.25 400.159 1838.24 400.159C1838.24 400.159 1838.23 400.159 1838.23 400.159C1838.23 400.159 1838.22 400.159 1838.22 400.159C1838.21 400.159 1838.21 400.159 1838.21 400.159C1838.2 400.159 1838.2 400.159 1838.19 400.159C1838.19 400.159 1838.18 400.159 1838.18 400.159C1838.18 400.159 1838.17 400.159 1838.17 400.159C1838.16 400.159 1838.16 400.159 1838.16 400.159C1838.15 400.159 1838.15 400.159 1838.14 400.159C1838.14 400.159 1838.14 400.159 1838.13 400.159C1838.13 400.159 1838.12 400.159 1838.12 400.159C1838.12 400.159 1838.11 400.159 1838.11 400.159C1838.1 400.159 1838.1 400.159 1838.09 400.159C1838.09 400.159 1838.09 400.159 1838.08 400.159C1838.08 400.159 1838.07 400.159 1838.07 400.159C1838.07 400.159 1838.06 400.159 1838.06 400.159C1838.05 400.159 1838.05 400.159 1838.05 400.159C1838.04 400.159 1838.04 400.159 1838.03 400.159C1838.03 400.159 1838.02 400.159 1838.02 400.159C1838.02 400.159 1838.01 400.159 1838.01 400.159C1838 400.159 1838 400.159 1838 400.159C1837.99 400.159 1837.99 400.159 1837.98 400.159C1837.98 400.159 1837.98 400.159 1837.97 400.159C1837.97 400.159 1837.96 400.159 1837.96 400.159C1837.95 400.159 1837.95 400.159 1837.95 400.159C1837.94 400.159 1837.94 400.159 1837.93 400.159C1837.93 400.159 1837.93 400.159 1837.92 400.159C1837.92 400.159 1837.91 400.159 1837.91 400.159C1837.91 400.159 1837.9 400.159 1837.9 400.159C1837.89 400.159 1837.89 400.159 1837.88 400.159C1837.88 400.159 1837.88 400.159 1837.87 400.159C1837.87 400.159 1837.86 400.159 1837.86 400.159C1837.86 400.159 1837.85 400.159 1837.85 400.159C1837.84 400.159 1837.84 400.159 1837.83 400.159C1837.83 400.159 1837.83 400.159 1837.82 400.159C1837.82 400.159 1837.81 400.159 1837.81 400.159C1837.81 400.159 1837.8 400.159 1837.8 400.159C1837.79 400.159 1837.79 400.159 1837.79 400.159C1837.78 400.159 1837.78 400.159 1837.77 400.159C1837.77 400.159 1837.76 400.159 1837.76 400.159C1837.76 400.159 1837.75 400.159 1837.75 400.159C1837.74 400.159 1837.74 400.159 1837.74 400.159C1837.73 400.159 1837.73 400.159 1837.72 400.159C1837.72 400.159 1837.72 400.159 1837.71 400.159C1837.71 400.159 1837.7 400.159 1837.7 400.159C1837.69 400.159 1837.69 400.159 1837.69 400.159C1837.68 400.159 1837.68 400.159 1837.67 400.159C1837.67 400.159 1837.67 400.159 1837.66 400.159C1837.66 400.159 1837.65 400.159 1837.65 400.159C1837.64 400.159 1837.64 400.159 1837.64 400.159C1837.63 400.159 1837.63 400.159 1837.62 400.159C1837.62 400.159 1837.62 400.159 1837.61 400.159C1837.61 400.159 1837.6 400.159 1837.6 400.159C1837.6 400.159 1837.59 400.159 1837.59 400.159C1837.58 400.159 1837.58 400.159 1837.57 400.159C1837.57 400.159 1837.57 400.159 1837.56 400.159C1837.56 400.159 1837.55 400.159 1837.55 400.159C1837.55 400.159 1837.54 400.159 1837.54 400.159C1837.53 400.159 1837.53 400.159 1837.52 400.159C1837.52 400.159 1837.52 400.159 1837.51 400.159C1837.51 400.159 1837.5 400.159 1837.5 400.159C1837.5 400.159 1837.49 400.159 1837.49 400.159C1837.48 400.159 1837.48 400.159 1837.47 400.159C1837.47 400.159 1837.47 400.159 1837.46 400.159C1837.46 400.159 1837.45 400.159 1837.45 400.159C1837.45 400.159 1837.44 400.159 1837.44 400.159C1837.43 400.159 1837.43 400.159 1837.43 400.159C1837.42 400.159 1837.42 400.159 1837.41 400.159C1837.41 400.159 1837.4 400.159 1837.4 400.159C1837.4 400.159 1837.39 400.159 1837.39 400.159C1837.38 400.159 1837.38 400.159 1837.38 400.159C1837.37 400.159 1837.37 400.159 1837.36 400.159C1837.36 400.159 1837.35 400.159 1837.35 400.159C1837.35 400.159 1837.34 400.159 1837.34 400.159C1837.33 400.159 1837.33 400.159 1837.33 400.159C1837.32 400.159 1837.32 400.159 1837.31 400.159C1837.31 400.159 1837.3 400.159 1837.3 400.159C1837.3 400.159 1837.29 400.159 1837.29 400.159C1837.28 400.159 1837.28 400.159 1837.28 400.159C1837.27 400.159 1837.27 400.159 1837.26 400.159C1837.26 400.159 1837.25 400.159 1837.25 400.159C1837.25 400.159 1837.24 400.159 1837.24 400.159C1837.23 400.159 1837.23 400.159 1837.23 400.159C1837.22 400.159 1837.22 400.159 1837.21 400.159C1837.21 400.159 1837.2 400.159 1837.2 400.159C1837.2 400.159 1837.19 400.159 1837.19 400.159C1837.18 400.159 1837.18 400.159 1837.18 400.159C1837.17 400.159 1837.17 400.159 1837.16 400.159C1837.16 400.159 1837.15 400.159 1837.15 400.159C1837.15 400.159 1837.14 400.159 1837.14 400.159C1837.13 400.159 1837.13 400.159 1837.13 400.159C1837.12 400.159 1837.12 400.159 1837.11 400.159C1837.11 400.159 1837.1 400.159 1837.1 400.159C1837.1 400.159 1837.09 400.159 1837.09 400.159C1837.08 400.159 1837.08 400.159 1837.08 400.159C1837.07 400.159 1837.07 400.159 1837.06 400.159C1837.06 400.159 1837.05 400.159 1837.05 400.159C1837.05 400.159 1837.04 400.159 1837.04 400.159C1837.03 400.159 1837.03 400.159 1837.03 400.159C1837.02 400.159 1837.02 400.159 1837.01 400.159C1837.01 400.159 1837 400.159 1837 400.159C1837 400.159 1836.99 400.159 1836.99 400.159C1836.98 400.159 1836.98 400.159 1836.98 400.159C1836.97 400.159 1836.97 400.159 1836.96 400.159C1836.96 400.159 1836.95 400.159 1836.95 400.159C1836.95 400.159 1836.94 400.159 1836.94 400.159C1836.93 400.159 1836.93 400.159 1836.93 400.159C1836.92 400.159 1836.92 400.159 1836.91 400.159C1836.91 400.159 1836.9 400.159 1836.9 400.159C1836.9 400.159 1836.89 400.159 1836.89 400.159C1836.88 400.159 1836.88 400.159 1836.88 400.159C1836.87 400.159 1836.87 400.159 1836.86 400.159C1836.86 400.159 1836.85 400.159 1836.85 400.159C1836.85 400.159 1836.84 400.159 1836.84 400.159C1836.83 400.159 1836.83 400.159 1836.82 400.159C1836.82 400.159 1836.82 400.159 1836.81 400.159C1836.81 400.159 1836.8 400.159 1836.8 400.159C1836.8 400.159 1836.79 400.159 1836.79 400.159C1836.78 400.159 1836.78 400.159 1836.77 400.159C1836.77 400.159 1836.77 400.159 1836.76 400.159C1836.76 400.159 1836.75 400.159 1836.75 400.159C1836.75 400.159 1836.74 400.159 1836.74 400.159C1836.73 400.159 1836.73 400.159 1836.72 400.159C1836.72 400.159 1836.72 400.159 1836.71 400.159C1836.71 400.159 1836.7 400.159 1836.7 400.159C1836.7 400.159 1836.69 400.159 1836.69 400.159C1836.68 400.159 1836.68 400.159 1836.67 400.159C1836.67 400.159 1836.67 400.159 1836.66 400.159C1836.66 400.159 1836.65 400.159 1836.65 400.159C1836.64 400.159 1836.64 400.159 1836.64 400.159C1836.63 400.159 1836.63 400.159 1836.62 400.159C1836.62 400.159 1836.62 400.159 1836.61 400.159C1836.61 400.159 1836.6 400.159 1836.6 400.159C1836.59 400.159 1836.59 400.159 1836.59 400.159C1836.58 400.159 1836.58 400.159 1836.57 400.159C1836.57 400.159 1836.56 400.159 1836.56 400.159C1836.56 400.159 1836.55 400.159 1836.55 400.159C1836.54 400.159 1836.54 400.159 1836.54 400.159C1836.53 400.159 1836.53 400.159 1836.52 400.159C1836.52 400.159 1836.51 400.159 1836.51 400.159C1836.51 400.159 1836.5 400.159 1836.5 400.159C1836.49 400.159 1836.49 400.159 1836.49 400.159C1836.48 400.159 1836.48 400.159 1836.47 400.159C1836.47 400.159 1836.46 400.159 1836.46 400.159C1836.46 400.159 1836.45 400.159 1836.45 400.159C1836.44 400.159 1836.44 400.159 1836.43 400.159C1836.43 400.159 1836.43 400.159 1836.42 400.159C1836.42 400.159 1836.41 400.159 1836.41 400.159C1836.41 400.159 1836.4 400.159 1836.4 400.159C1836.39 400.159 1836.39 400.159 1836.38 400.159C1836.38 400.159 1836.38 400.159 1836.37 400.159C1836.37 400.159 1836.36 400.159 1836.36 400.159C1836.35 400.159 1836.35 400.159 1836.35 400.159C1836.34 400.159 1836.34 400.159 1836.33 400.159C1836.33 400.159 1836.33 400.159 1836.32 400.159C1836.32 400.159 1836.31 400.159 1836.31 400.159C1836.3 400.159 1836.3 400.159 1836.3 400.159C1836.29 400.159 1836.29 400.159 1836.28 400.159C1836.28 400.159 1836.27 400.159 1836.27 400.159C1836.27 400.159 1836.26 400.159 1836.26 400.159C1836.25 400.159 1836.25 400.159 1836.24 400.159C1836.24 400.159 1836.24 400.159 1836.23 400.159C1836.23 400.159 1836.22 400.159 1836.22 400.159C1836.22 400.159 1836.21 400.159 1836.21 400.159C1836.2 400.159 1836.2 400.159 1836.19 400.159C1836.19 400.159 1836.19 400.159 1836.18 400.159C1836.18 400.159 1836.17 400.159 1836.17 400.159C1836.16 400.159 1836.16 400.159 1836.16 400.159C1836.15 400.159 1836.15 400.159 1836.14 400.159C1836.14 400.159 1836.14 400.159 1836.13 400.159C1836.13 400.159 1836.12 400.159 1836.12 400.159C1836.11 400.159 1836.11 400.159 1836.11 400.159C1836.1 400.159 1836.1 400.159 1836.09 400.159C1836.09 400.159 1836.08 400.159 1836.08 400.159C1836.08 400.159 1836.07 400.159 1836.07 400.159C1836.06 400.159 1836.06 400.159 1836.05 400.159C1836.05 400.159 1836.05 400.159 1836.04 400.159C1836.04 400.159 1836.03 400.159 1836.03 400.159C1836.03 400.159 1836.02 400.159 1836.02 400.159C1836.01 400.159 1836.01 400.159 1836 400.159C1836 400.159 1836 400.159 1835.99 400.159C1835.99 400.159 1835.98 400.159 1835.98 400.159C1835.97 400.159 1835.97 400.159 1835.97 400.159C1835.96 400.159 1835.96 400.159 1835.95 400.159C1835.95 400.159 1835.94 400.159 1835.94 400.159C1835.94 400.159 1835.93 400.159 1835.93 400.159C1835.92 400.159 1835.92 400.159 1835.92 400.159C1835.91 400.159 1835.91 400.159 1835.9 400.159C1835.9 400.159 1835.89 400.159 1835.89 400.159C1835.89 400.159 1835.88 400.159 1835.88 400.159C1835.87 400.159 1835.87 400.159 1835.86 400.159V406.159V412.159C1835.87 412.159 1835.87 412.159 1835.88 412.159C1835.88 412.159 1835.89 412.159 1835.89 412.159C1835.89 412.159 1835.9 412.159 1835.9 412.159C1835.91 412.159 1835.91 412.159 1835.92 412.159C1835.92 412.159 1835.92 412.159 1835.93 412.159C1835.93 412.159 1835.94 412.159 1835.94 412.159C1835.94 412.159 1835.95 412.159 1835.95 412.159C1835.96 412.159 1835.96 412.159 1835.97 412.159C1835.97 412.159 1835.97 412.159 1835.98 412.159C1835.98 412.159 1835.99 412.159 1835.99 412.159C1836 412.159 1836 412.159 1836 412.159C1836.01 412.159 1836.01 412.159 1836.02 412.159C1836.02 412.159 1836.03 412.159 1836.03 412.159C1836.03 412.159 1836.04 412.159 1836.04 412.159C1836.05 412.159 1836.05 412.159 1836.05 412.159C1836.06 412.159 1836.06 412.159 1836.07 412.159C1836.07 412.159 1836.08 412.159 1836.08 412.159C1836.08 412.159 1836.09 412.159 1836.09 412.159C1836.1 412.159 1836.1 412.159 1836.11 412.159C1836.11 412.159 1836.11 412.159 1836.12 412.159C1836.12 412.159 1836.13 412.159 1836.13 412.159C1836.14 412.159 1836.14 412.159 1836.14 412.159C1836.15 412.159 1836.15 412.159 1836.16 412.159C1836.16 412.159 1836.16 412.159 1836.17 412.159C1836.17 412.159 1836.18 412.159 1836.18 412.159C1836.19 412.159 1836.19 412.159 1836.19 412.159C1836.2 412.159 1836.2 412.159 1836.21 412.159C1836.21 412.159 1836.22 412.159 1836.22 412.159C1836.22 412.159 1836.23 412.159 1836.23 412.159C1836.24 412.159 1836.24 412.159 1836.24 412.159C1836.25 412.159 1836.25 412.159 1836.26 412.159C1836.26 412.159 1836.27 412.159 1836.27 412.159C1836.27 412.159 1836.28 412.159 1836.28 412.159C1836.29 412.159 1836.29 412.159 1836.3 412.159C1836.3 412.159 1836.3 412.159 1836.31 412.159C1836.31 412.159 1836.32 412.159 1836.32 412.159C1836.33 412.159 1836.33 412.159 1836.33 412.159C1836.34 412.159 1836.34 412.159 1836.35 412.159C1836.35 412.159 1836.35 412.159 1836.36 412.159C1836.36 412.159 1836.37 412.159 1836.37 412.159C1836.38 412.159 1836.38 412.159 1836.38 412.159C1836.39 412.159 1836.39 412.159 1836.4 412.159C1836.4 412.159 1836.41 412.159 1836.41 412.159C1836.41 412.159 1836.42 412.159 1836.42 412.159C1836.43 412.159 1836.43 412.159 1836.43 412.159C1836.44 412.159 1836.44 412.159 1836.45 412.159C1836.45 412.159 1836.46 412.159 1836.46 412.159C1836.46 412.159 1836.47 412.159 1836.47 412.159C1836.48 412.159 1836.48 412.159 1836.49 412.159C1836.49 412.159 1836.49 412.159 1836.5 412.159C1836.5 412.159 1836.51 412.159 1836.51 412.159C1836.51 412.159 1836.52 412.159 1836.52 412.159C1836.53 412.159 1836.53 412.159 1836.54 412.159C1836.54 412.159 1836.54 412.159 1836.55 412.159C1836.55 412.159 1836.56 412.159 1836.56 412.159C1836.56 412.159 1836.57 412.159 1836.57 412.159C1836.58 412.159 1836.58 412.159 1836.59 412.159C1836.59 412.159 1836.59 412.159 1836.6 412.159C1836.6 412.159 1836.61 412.159 1836.61 412.159C1836.62 412.159 1836.62 412.159 1836.62 412.159C1836.63 412.159 1836.63 412.159 1836.64 412.159C1836.64 412.159 1836.64 412.159 1836.65 412.159C1836.65 412.159 1836.66 412.159 1836.66 412.159C1836.67 412.159 1836.67 412.159 1836.67 412.159C1836.68 412.159 1836.68 412.159 1836.69 412.159C1836.69 412.159 1836.7 412.159 1836.7 412.159C1836.7 412.159 1836.71 412.159 1836.71 412.159C1836.72 412.159 1836.72 412.159 1836.72 412.159C1836.73 412.159 1836.73 412.159 1836.74 412.159C1836.74 412.159 1836.75 412.159 1836.75 412.159C1836.75 412.159 1836.76 412.159 1836.76 412.159C1836.77 412.159 1836.77 412.159 1836.77 412.159C1836.78 412.159 1836.78 412.159 1836.79 412.159C1836.79 412.159 1836.8 412.159 1836.8 412.159C1836.8 412.159 1836.81 412.159 1836.81 412.159C1836.82 412.159 1836.82 412.159 1836.82 412.159C1836.83 412.159 1836.83 412.159 1836.84 412.159C1836.84 412.159 1836.85 412.159 1836.85 412.159C1836.85 412.159 1836.86 412.159 1836.86 412.159C1836.87 412.159 1836.87 412.159 1836.88 412.159C1836.88 412.159 1836.88 412.159 1836.89 412.159C1836.89 412.159 1836.9 412.159 1836.9 412.159C1836.9 412.159 1836.91 412.159 1836.91 412.159C1836.92 412.159 1836.92 412.159 1836.93 412.159C1836.93 412.159 1836.93 412.159 1836.94 412.159C1836.94 412.159 1836.95 412.159 1836.95 412.159C1836.95 412.159 1836.96 412.159 1836.96 412.159C1836.97 412.159 1836.97 412.159 1836.98 412.159C1836.98 412.159 1836.98 412.159 1836.99 412.159C1836.99 412.159 1837 412.159 1837 412.159C1837 412.159 1837.01 412.159 1837.01 412.159C1837.02 412.159 1837.02 412.159 1837.03 412.159C1837.03 412.159 1837.03 412.159 1837.04 412.159C1837.04 412.159 1837.05 412.159 1837.05 412.159C1837.05 412.159 1837.06 412.159 1837.06 412.159C1837.07 412.159 1837.07 412.159 1837.08 412.159C1837.08 412.159 1837.08 412.159 1837.09 412.159C1837.09 412.159 1837.1 412.159 1837.1 412.159C1837.1 412.159 1837.11 412.159 1837.11 412.159C1837.12 412.159 1837.12 412.159 1837.13 412.159C1837.13 412.159 1837.13 412.159 1837.14 412.159C1837.14 412.159 1837.15 412.159 1837.15 412.159C1837.15 412.159 1837.16 412.159 1837.16 412.159C1837.17 412.159 1837.17 412.159 1837.18 412.159C1837.18 412.159 1837.18 412.159 1837.19 412.159C1837.19 412.159 1837.2 412.159 1837.2 412.159C1837.2 412.159 1837.21 412.159 1837.21 412.159C1837.22 412.159 1837.22 412.159 1837.23 412.159C1837.23 412.159 1837.23 412.159 1837.24 412.159C1837.24 412.159 1837.25 412.159 1837.25 412.159C1837.25 412.159 1837.26 412.159 1837.26 412.159C1837.27 412.159 1837.27 412.159 1837.28 412.159C1837.28 412.159 1837.28 412.159 1837.29 412.159C1837.29 412.159 1837.3 412.159 1837.3 412.159C1837.3 412.159 1837.31 412.159 1837.31 412.159C1837.32 412.159 1837.32 412.159 1837.33 412.159C1837.33 412.159 1837.33 412.159 1837.34 412.159C1837.34 412.159 1837.35 412.159 1837.35 412.159C1837.35 412.159 1837.36 412.159 1837.36 412.159C1837.37 412.159 1837.37 412.159 1837.38 412.159C1837.38 412.159 1837.38 412.159 1837.39 412.159C1837.39 412.159 1837.4 412.159 1837.4 412.159C1837.4 412.159 1837.41 412.159 1837.41 412.159C1837.42 412.159 1837.42 412.159 1837.43 412.159C1837.43 412.159 1837.43 412.159 1837.44 412.159C1837.44 412.159 1837.45 412.159 1837.45 412.159C1837.45 412.159 1837.46 412.159 1837.46 412.159C1837.47 412.159 1837.47 412.159 1837.47 412.159C1837.48 412.159 1837.48 412.159 1837.49 412.159C1837.49 412.159 1837.5 412.159 1837.5 412.159C1837.5 412.159 1837.51 412.159 1837.51 412.159C1837.52 412.159 1837.52 412.159 1837.52 412.159C1837.53 412.159 1837.53 412.159 1837.54 412.159C1837.54 412.159 1837.55 412.159 1837.55 412.159C1837.55 412.159 1837.56 412.159 1837.56 412.159C1837.57 412.159 1837.57 412.159 1837.57 412.159C1837.58 412.159 1837.58 412.159 1837.59 412.159C1837.59 412.159 1837.6 412.159 1837.6 412.159C1837.6 412.159 1837.61 412.159 1837.61 412.159C1837.62 412.159 1837.62 412.159 1837.62 412.159C1837.63 412.159 1837.63 412.159 1837.64 412.159C1837.64 412.159 1837.64 412.159 1837.65 412.159C1837.65 412.159 1837.66 412.159 1837.66 412.159C1837.67 412.159 1837.67 412.159 1837.67 412.159C1837.68 412.159 1837.68 412.159 1837.69 412.159C1837.69 412.159 1837.69 412.159 1837.7 412.159C1837.7 412.159 1837.71 412.159 1837.71 412.159C1837.72 412.159 1837.72 412.159 1837.72 412.159C1837.73 412.159 1837.73 412.159 1837.74 412.159C1837.74 412.159 1837.74 412.159 1837.75 412.159C1837.75 412.159 1837.76 412.159 1837.76 412.159C1837.76 412.159 1837.77 412.159 1837.77 412.159C1837.78 412.159 1837.78 412.159 1837.79 412.159C1837.79 412.159 1837.79 412.159 1837.8 412.159C1837.8 412.159 1837.81 412.159 1837.81 412.159C1837.81 412.159 1837.82 412.159 1837.82 412.159C1837.83 412.159 1837.83 412.159 1837.83 412.159C1837.84 412.159 1837.84 412.159 1837.85 412.159C1837.85 412.159 1837.86 412.159 1837.86 412.159C1837.86 412.159 1837.87 412.159 1837.87 412.159C1837.88 412.159 1837.88 412.159 1837.88 412.159C1837.89 412.159 1837.89 412.159 1837.9 412.159C1837.9 412.159 1837.91 412.159 1837.91 412.159C1837.91 412.159 1837.92 412.159 1837.92 412.159C1837.93 412.159 1837.93 412.159 1837.93 412.159C1837.94 412.159 1837.94 412.159 1837.95 412.159C1837.95 412.159 1837.95 412.159 1837.96 412.159C1837.96 412.159 1837.97 412.159 1837.97 412.159C1837.98 412.159 1837.98 412.159 1837.98 412.159C1837.99 412.159 1837.99 412.159 1838 412.159C1838 412.159 1838 412.159 1838.01 412.159C1838.01 412.159 1838.02 412.159 1838.02 412.159C1838.02 412.159 1838.03 412.159 1838.03 412.159C1838.04 412.159 1838.04 412.159 1838.05 412.159C1838.05 412.159 1838.05 412.159 1838.06 412.159C1838.06 412.159 1838.07 412.159 1838.07 412.159C1838.07 412.159 1838.08 412.159 1838.08 412.159C1838.09 412.159 1838.09 412.159 1838.09 412.159C1838.1 412.159 1838.1 412.159 1838.11 412.159C1838.11 412.159 1838.12 412.159 1838.12 412.159C1838.12 412.159 1838.13 412.159 1838.13 412.159C1838.14 412.159 1838.14 412.159 1838.14 412.159C1838.15 412.159 1838.15 412.159 1838.16 412.159C1838.16 412.159 1838.16 412.159 1838.17 412.159C1838.17 412.159 1838.18 412.159 1838.18 412.159C1838.18 412.159 1838.19 412.159 1838.19 412.159C1838.2 412.159 1838.2 412.159 1838.21 412.159C1838.21 412.159 1838.21 412.159 1838.22 412.159C1838.22 412.159 1838.23 412.159 1838.23 412.159C1838.23 412.159 1838.24 412.159 1838.24 412.159C1838.25 412.159 1838.25 412.159 1838.25 412.159C1838.26 412.159 1838.26 412.159 1838.27 412.159C1838.27 412.159 1838.28 412.159 1838.28 412.159C1838.28 412.159 1838.29 412.159 1838.29 412.159C1838.3 412.159 1838.3 412.159 1838.3 412.159C1838.31 412.159 1838.31 412.159 1838.32 412.159C1838.32 412.159 1838.32 412.159 1838.33 412.159C1838.33 412.159 1838.34 412.159 1838.34 412.159C1838.34 412.159 1838.35 412.159 1838.35 412.159C1838.36 412.159 1838.36 412.159 1838.37 412.159C1838.37 412.159 1838.37 412.159 1838.38 412.159C1838.38 412.159 1838.39 412.159 1838.39 412.159C1838.39 412.159 1838.4 412.159 1838.4 412.159C1838.41 412.159 1838.41 412.159 1838.41 412.159C1838.42 412.159 1838.42 412.159 1838.43 412.159C1838.43 412.159 1838.44 412.159 1838.44 412.159C1838.44 412.159 1838.45 412.159 1838.45 412.159C1838.46 412.159 1838.46 412.159 1838.46 412.159C1838.47 412.159 1838.47 412.159 1838.48 412.159C1838.48 412.159 1838.48 412.159 1838.49 412.159C1838.49 412.159 1838.5 412.159 1838.5 412.159C1838.5 412.159 1838.51 412.159 1838.51 412.159C1838.52 412.159 1838.52 412.159 1838.53 412.159C1838.53 412.159 1838.53 412.159 1838.54 412.159C1838.54 412.159 1838.55 412.159 1838.55 412.159C1838.55 412.159 1838.56 412.159 1838.56 412.159C1838.57 412.159 1838.57 412.159 1838.57 412.159C1838.58 412.159 1838.58 412.159 1838.59 412.159C1838.59 412.159 1838.59 412.159 1838.6 412.159C1838.6 412.159 1838.61 412.159 1838.61 412.159C1838.61 412.159 1838.62 412.159 1838.62 412.159C1838.63 412.159 1838.63 412.159 1838.64 412.159C1838.64 412.159 1838.64 412.159 1838.65 412.159C1838.65 412.159 1838.66 412.159 1838.66 412.159C1838.66 412.159 1838.67 412.159 1838.67 412.159C1838.68 412.159 1838.68 412.159 1838.68 412.159C1838.69 412.159 1838.69 412.159 1838.7 412.159C1838.7 412.159 1838.7 412.159 1838.71 412.159C1838.71 412.159 1838.72 412.159 1838.72 412.159C1838.72 412.159 1838.73 412.159 1838.73 412.159C1838.74 412.159 1838.74 412.159 1838.75 412.159C1838.75 412.159 1838.75 412.159 1838.76 412.159C1838.76 412.159 1838.77 412.159 1838.77 412.159C1838.77 412.159 1838.78 412.159 1838.78 412.159C1838.79 412.159 1838.79 412.159 1838.79 412.159C1838.8 412.159 1838.8 412.159 1838.81 412.159C1838.81 412.159 1838.81 412.159 1838.82 412.159C1838.82 412.159 1838.83 412.159 1838.83 412.159C1838.83 412.159 1838.84 412.159 1838.84 412.159C1838.85 412.159 1838.85 412.159 1838.86 412.159C1838.86 412.159 1838.86 412.159 1838.87 412.159C1838.87 412.159 1838.88 412.159 1838.88 412.159C1838.88 412.159 1838.89 412.159 1838.89 412.159C1838.9 412.159 1838.9 412.159 1838.9 412.159C1838.91 412.159 1838.91 412.159 1838.92 412.159C1838.92 412.159 1838.92 412.159 1838.93 412.159C1838.93 412.159 1838.94 412.159 1838.94 412.159C1838.94 412.159 1838.95 412.159 1838.95 412.159C1838.96 412.159 1838.96 412.159 1838.97 412.159C1838.97 412.159 1838.97 412.159 1838.98 412.159C1838.98 412.159 1838.99 412.159 1838.99 412.159C1838.99 412.159 1839 412.159 1839 412.159C1839.01 412.159 1839.01 412.159 1839.01 412.159C1839.02 412.159 1839.02 412.159 1839.03 412.159C1839.03 412.159 1839.03 412.159 1839.04 412.159C1839.04 412.159 1839.05 412.159 1839.05 412.159C1839.05 412.159 1839.06 412.159 1839.06 412.159C1839.07 412.159 1839.07 412.159 1839.07 412.159C1839.08 412.159 1839.08 412.159 1839.09 412.159C1839.09 412.159 1839.09 412.159 1839.1 412.159C1839.1 412.159 1839.11 412.159 1839.11 412.159C1839.12 412.159 1839.12 412.159 1839.12 412.159C1839.13 412.159 1839.13 412.159 1839.14 412.159C1839.14 412.159 1839.14 412.159 1839.15 412.159C1839.15 412.159 1839.16 412.159 1839.16 412.159C1839.16 412.159 1839.17 412.159 1839.17 412.159C1839.18 412.159 1839.18 412.159 1839.18 412.159C1839.19 412.159 1839.19 412.159 1839.2 412.159C1839.2 412.159 1839.2 412.159 1839.21 412.159C1839.21 412.159 1839.22 412.159 1839.22 412.159C1839.22 412.159 1839.23 412.159 1839.23 412.159C1839.24 412.159 1839.24 412.159 1839.24 412.159C1839.25 412.159 1839.25 412.159 1839.26 412.159C1839.26 412.159 1839.26 412.159 1839.27 412.159C1839.27 412.159 1839.28 412.159 1839.28 412.159C1839.29 412.159 1839.29 412.159 1839.29 412.159C1839.3 412.159 1839.3 412.159 1839.31 412.159C1839.31 412.159 1839.31 412.159 1839.32 412.159C1839.32 412.159 1839.33 412.159 1839.33 412.159C1839.33 412.159 1839.34 412.159 1839.34 412.159C1839.35 412.159 1839.35 412.159 1839.35 412.159C1839.36 412.159 1839.36 412.159 1839.37 412.159C1839.37 412.159 1839.37 412.159 1839.38 412.159C1839.38 412.159 1839.39 412.159 1839.39 412.159C1839.39 412.159 1839.4 412.159 1839.4 412.159C1839.41 412.159 1839.41 412.159 1839.41 412.159C1839.42 412.159 1839.42 412.159 1839.43 412.159C1839.43 412.159 1839.43 412.159 1839.44 412.159C1839.44 412.159 1839.45 412.159 1839.45 412.159C1839.45 412.159 1839.46 412.159 1839.46 412.159C1839.47 412.159 1839.47 412.159 1839.47 412.159C1839.48 412.159 1839.48 412.159 1839.49 412.159C1839.49 412.159 1839.49 412.159 1839.5 412.159C1839.5 412.159 1839.51 412.159 1839.51 412.159C1839.52 412.159 1839.52 412.159 1839.52 412.159C1839.53 412.159 1839.53 412.159 1839.54 412.159C1839.54 412.159 1839.54 412.159 1839.55 412.159C1839.55 412.159 1839.56 412.159 1839.56 412.159C1839.56 412.159 1839.57 412.159 1839.57 412.159C1839.58 412.159 1839.58 412.159 1839.58 412.159C1839.59 412.159 1839.59 412.159 1839.6 412.159C1839.6 412.159 1839.6 412.159 1839.61 412.159C1839.61 412.159 1839.62 412.159 1839.62 412.159C1839.62 412.159 1839.63 412.159 1839.63 412.159C1839.64 412.159 1839.64 412.159 1839.64 412.159C1839.65 412.159 1839.65 412.159 1839.66 412.159C1839.66 412.159 1839.66 412.159 1839.67 412.159C1839.67 412.159 1839.68 412.159 1839.68 412.159C1839.68 412.159 1839.69 412.159 1839.69 412.159C1839.7 412.159 1839.7 412.159 1839.7 412.159C1839.71 412.159 1839.71 412.159 1839.72 412.159C1839.72 412.159 1839.72 412.159 1839.73 412.159C1839.73 412.159 1839.74 412.159 1839.74 412.159C1839.74 412.159 1839.75 412.159 1839.75 412.159C1839.76 412.159 1839.76 412.159 1839.76 412.159C1839.77 412.159 1839.77 412.159 1839.78 412.159C1839.78 412.159 1839.78 412.159 1839.79 412.159C1839.79 412.159 1839.8 412.159 1839.8 412.159C1839.8 412.159 1839.81 412.159 1839.81 412.159C1839.82 412.159 1839.82 412.159 1839.82 412.159C1839.83 412.159 1839.83 412.159 1839.84 412.159C1839.84 412.159 1839.84 412.159 1839.85 412.159C1839.85 412.159 1839.86 412.159 1839.86 412.159C1839.86 412.159 1839.87 412.159 1839.87 412.159C1839.88 412.159 1839.88 412.159 1839.88 412.159C1839.89 412.159 1839.89 412.159 1839.9 412.159C1839.9 412.159 1839.9 412.159 1839.91 412.159C1839.91 412.159 1839.92 412.159 1839.92 412.159C1839.92 412.159 1839.93 412.159 1839.93 412.159C1839.94 412.159 1839.94 412.159 1839.94 412.159C1839.95 412.159 1839.95 412.159 1839.96 412.159C1839.96 412.159 1839.96 412.159 1839.97 412.159C1839.97 412.159 1839.98 412.159 1839.98 412.159C1839.98 412.159 1839.99 412.159 1839.99 412.159C1840 412.159 1840 412.159 1840 412.159C1840.01 412.159 1840.01 412.159 1840.02 412.159C1840.02 412.159 1840.02 412.159 1840.03 412.159C1840.03 412.159 1840.04 412.159 1840.04 412.159C1840.04 412.159 1840.05 412.159 1840.05 412.159C1840.06 412.159 1840.06 412.159 1840.06 412.159C1840.07 412.159 1840.07 412.159 1840.08 412.159C1840.08 412.159 1840.08 412.159 1840.09 412.159C1840.09 412.159 1840.1 412.159 1840.1 412.159C1840.1 412.159 1840.11 412.159 1840.11 412.159C1840.12 412.159 1840.12 412.159 1840.12 412.159C1840.13 412.159 1840.13 412.159 1840.14 412.159C1840.14 412.159 1840.14 412.159 1840.15 412.159C1840.15 412.159 1840.16 412.159 1840.16 412.159C1840.16 412.159 1840.17 412.159 1840.17 412.159C1840.18 412.159 1840.18 412.159 1840.18 412.159C1840.19 412.159 1840.19 412.159 1840.2 412.159C1840.2 412.159 1840.2 412.159 1840.21 412.159C1840.21 412.159 1840.22 412.159 1840.22 412.159C1840.22 412.159 1840.23 412.159 1840.23 412.159C1840.24 412.159 1840.24 412.159 1840.24 412.159C1840.25 412.159 1840.25 412.159 1840.26 412.159C1840.26 412.159 1840.26 412.159 1840.27 412.159C1840.27 412.159 1840.28 412.159 1840.28 412.159C1840.28 412.159 1840.29 412.159 1840.29 412.159C1840.3 412.159 1840.3 412.159 1840.3 412.159C1840.31 412.159 1840.31 412.159 1840.32 412.159C1840.32 412.159 1840.32 412.159 1840.33 412.159C1840.33 412.159 1840.34 412.159 1840.34 412.159C1840.34 412.159 1840.35 412.159 1840.35 412.159C1840.36 412.159 1840.36 412.159 1840.36 412.159C1840.37 412.159 1840.37 412.159 1840.38 412.159C1840.38 412.159 1840.38 412.159 1840.39 412.159C1840.39 412.159 1840.4 412.159 1840.4 412.159C1840.4 412.159 1840.41 412.159 1840.41 412.159C1840.42 412.159 1840.42 412.159 1840.42 412.159C1840.43 412.159 1840.43 412.159 1840.44 412.159C1840.44 412.159 1840.44 412.159 1840.45 412.159C1840.45 412.159 1840.46 412.159 1840.46 412.159C1840.46 412.159 1840.47 412.159 1840.47 412.159C1840.48 412.159 1840.48 412.159 1840.48 412.159C1840.49 412.159 1840.49 412.159 1840.49 412.159C1840.5 412.159 1840.5 412.159 1840.51 412.159C1840.51 412.159 1840.51 412.159 1840.52 412.159C1840.52 412.159 1840.53 412.159 1840.53 412.159C1840.53 412.159 1840.54 412.159 1840.54 412.159C1840.55 412.159 1840.55 412.159 1840.55 412.159C1840.56 412.159 1840.56 412.159 1840.57 412.159C1840.57 412.159 1840.57 412.159 1840.58 412.159C1840.58 412.159 1840.59 412.159 1840.59 412.159C1840.59 412.159 1840.6 412.159 1840.6 412.159C1840.61 412.159 1840.61 412.159 1840.61 412.159C1840.62 412.159 1840.62 412.159 1840.63 412.159C1840.63 412.159 1840.63 412.159 1840.64 412.159C1840.64 412.159 1840.65 412.159 1840.65 412.159C1840.65 412.159 1840.66 412.159 1840.66 412.159C1840.67 412.159 1840.67 412.159 1840.67 412.159C1840.68 412.159 1840.68 412.159 1840.69 412.159C1840.69 412.159 1840.69 412.159 1840.7 412.159C1840.7 412.159 1840.71 412.159 1840.71 412.159C1840.71 412.159 1840.72 412.159 1840.72 412.159C1840.72 412.159 1840.73 412.159 1840.73 412.159C1840.74 412.159 1840.74 412.159 1840.74 412.159C1840.75 412.159 1840.75 412.159 1840.76 412.159C1840.76 412.159 1840.76 412.159 1840.77 412.159C1840.77 412.159 1840.78 412.159 1840.78 412.159C1840.78 412.159 1840.79 412.159 1840.79 412.159C1840.8 412.159 1840.8 412.159 1840.8 412.159C1840.81 412.159 1840.81 412.159 1840.82 412.159C1840.82 412.159 1840.82 412.159 1840.83 412.159C1840.83 412.159 1840.84 412.159 1840.84 412.159C1840.84 412.159 1840.85 412.159 1840.85 412.159C1840.86 412.159 1840.86 412.159 1840.86 412.159C1840.87 412.159 1840.87 412.159 1840.88 412.159C1840.88 412.159 1840.88 412.159 1840.89 412.159C1840.89 412.159 1840.89 412.159 1840.9 412.159C1840.9 412.159 1840.91 412.159 1840.91 412.159C1840.91 412.159 1840.92 412.159 1840.92 412.159C1840.93 412.159 1840.93 412.159 1840.93 412.159C1840.94 412.159 1840.94 412.159 1840.95 412.159C1840.95 412.159 1840.95 412.159 1840.96 412.159C1840.96 412.159 1840.97 412.159 1840.97 412.159C1840.97 412.159 1840.98 412.159 1840.98 412.159C1840.99 412.159 1840.99 412.159 1840.99 412.159C1841 412.159 1841 412.159 1841.01 412.159C1841.01 412.159 1841.01 412.159 1841.02 412.159C1841.02 412.159 1841.02 412.159 1841.03 412.159C1841.03 412.159 1841.04 412.159 1841.04 412.159C1841.04 412.159 1841.05 412.159 1841.05 412.159C1841.06 412.159 1841.06 412.159 1841.06 412.159C1841.07 412.159 1841.07 412.159 1841.08 412.159C1841.08 412.159 1841.08 412.159 1841.09 412.159C1841.09 412.159 1841.1 412.159 1841.1 412.159C1841.1 412.159 1841.11 412.159 1841.11 412.159C1841.12 412.159 1841.12 412.159 1841.12 412.159C1841.13 412.159 1841.13 412.159 1841.14 412.159C1841.14 412.159 1841.14 412.159 1841.15 412.159C1841.15 412.159 1841.15 412.159 1841.16 412.159C1841.16 412.159 1841.17 412.159 1841.17 412.159C1841.17 412.159 1841.18 412.159 1841.18 412.159C1841.19 412.159 1841.19 412.159 1841.19 412.159C1841.2 412.159 1841.2 412.159 1841.21 412.159C1841.21 412.159 1841.21 412.159 1841.22 412.159C1841.22 412.159 1841.23 412.159 1841.23 412.159C1841.23 412.159 1841.24 412.159 1841.24 412.159C1841.24 412.159 1841.25 412.159 1841.25 412.159C1841.26 412.159 1841.26 412.159 1841.26 412.159C1841.27 412.159 1841.27 412.159 1841.28 412.159C1841.28 412.159 1841.28 412.159 1841.29 412.159C1841.29 412.159 1841.3 412.159 1841.3 412.159C1841.3 412.159 1841.31 412.159 1841.31 412.159C1841.32 412.159 1841.32 412.159 1841.32 412.159C1841.33 412.159 1841.33 412.159 1841.34 412.159C1841.34 412.159 1841.34 412.159 1841.35 412.159C1841.35 412.159 1841.35 412.159 1841.36 412.159C1841.36 412.159 1841.37 412.159 1841.37 412.159C1841.37 412.159 1841.38 412.159 1841.38 412.159C1841.39 412.159 1841.39 412.159 1841.39 412.159C1841.4 412.159 1841.4 412.159 1841.41 412.159C1841.41 412.159 1841.41 412.159 1841.42 412.159C1841.42 412.159 1841.43 412.159 1841.43 412.159C1841.43 412.159 1841.44 412.159 1841.44 412.159C1841.44 412.159 1841.45 412.159 1841.45 412.159C1841.46 412.159 1841.46 412.159 1841.46 412.159C1841.47 412.159 1841.47 412.159 1841.48 412.159C1841.48 412.159 1841.48 412.159 1841.49 412.159C1841.49 412.159 1841.5 412.159 1841.5 412.159C1841.5 412.159 1841.51 412.159 1841.51 412.159C1841.52 412.159 1841.52 412.159 1841.52 412.159C1841.53 412.159 1841.53 412.159 1841.53 412.159C1841.54 412.159 1841.54 412.159 1841.55 412.159C1841.55 412.159 1841.55 412.159 1841.56 412.159C1841.56 412.159 1841.57 412.159 1841.57 412.159C1841.57 412.159 1841.58 412.159 1841.58 412.159C1841.59 412.159 1841.59 412.159 1841.59 412.159C1841.6 412.159 1841.6 412.159 1841.6 412.159C1841.61 412.159 1841.61 412.159 1841.62 412.159C1841.62 412.159 1841.62 412.159 1841.63 412.159C1841.63 412.159 1841.64 412.159 1841.64 412.159C1841.64 412.159 1841.65 412.159 1841.65 412.159C1841.66 412.159 1841.66 412.159 1841.66 412.159C1841.67 412.159 1841.67 412.159 1841.68 412.159C1841.68 412.159 1841.68 412.159 1841.69 412.159C1841.69 412.159 1841.69 412.159 1841.7 412.159C1841.7 412.159 1841.71 412.159 1841.71 412.159C1841.71 412.159 1841.72 412.159 1841.72 412.159C1841.73 412.159 1841.73 412.159 1841.73 412.159C1841.74 412.159 1841.74 412.159 1841.75 412.159C1841.75 412.159 1841.75 412.159 1841.76 412.159C1841.76 412.159 1841.76 412.159 1841.77 412.159C1841.77 412.159 1841.78 412.159 1841.78 412.159C1841.78 412.159 1841.79 412.159 1841.79 412.159C1841.8 412.159 1841.8 412.159 1841.8 412.159C1841.81 412.159 1841.81 412.159 1841.82 412.159C1841.82 412.159 1841.82 412.159 1841.83 412.159C1841.83 412.159 1841.83 412.159 1841.84 412.159C1841.84 412.159 1841.85 412.159 1841.85 412.159C1841.85 412.159 1841.86 412.159 1841.86 412.159C1841.87 412.159 1841.87 412.159 1841.87 412.159C1841.88 412.159 1841.88 412.159 1841.89 412.159C1841.89 412.159 1841.89 412.159 1841.9 412.159C1841.9 412.159 1841.9 412.159 1841.91 412.159C1841.91 412.159 1841.92 412.159 1841.92 412.159C1841.92 412.159 1841.93 412.159 1841.93 412.159C1841.94 412.159 1841.94 412.159 1841.94 412.159C1841.95 412.159 1841.95 412.159 1841.96 412.159C1841.96 412.159 1841.96 412.159 1841.97 412.159C1841.97 412.159 1841.97 412.159 1841.98 412.159C1841.98 412.159 1841.99 412.159 1841.99 412.159C1841.99 412.159 1842 412.159 1842 412.159C1842.01 412.159 1842.01 412.159 1842.01 412.159C1842.02 412.159 1842.02 412.159 1842.03 412.159C1842.03 412.159 1842.03 412.159 1842.04 412.159C1842.04 412.159 1842.04 412.159 1842.05 412.159C1842.05 412.159 1842.06 412.159 1842.06 412.159C1842.06 412.159 1842.07 412.159 1842.07 412.159C1842.08 412.159 1842.08 412.159 1842.08 412.159C1842.09 412.159 1842.09 412.159 1842.09 412.159V406.159ZM1835.86 406.159V400.159H1711.4V406.159V412.159H1835.86V406.159ZM1711.4 406.159H1705.4V494.094H1711.4H1717.4V406.159H1711.4ZM1711.4 494.094V488.094H1684.21V494.094V500.094H1711.4V494.094ZM1684.21 494.094H1690.21V276.594H1684.21H1678.21V494.094H1684.21ZM1711.4 382.653V388.653H1831.62V382.653V376.653H1711.4V382.653ZM1831.62 382.653V388.653C1847.85 388.653 1860.8 388.133 1870.38 387.058L1869.71 381.096L1869.04 375.133C1860.11 376.135 1847.67 376.653 1831.62 376.653V382.653ZM1869.71 381.096L1870.43 387.052C1880.04 385.887 1887.96 383.822 1893.44 380.366L1890.24 375.29L1887.04 370.214C1883.84 372.233 1878.07 374.039 1868.99 375.139L1869.71 381.096ZM1890.24 375.29L1893.39 380.396C1899.15 376.843 1902.96 371.661 1904.56 365.108L1898.74 363.679L1892.91 362.249C1892.06 365.703 1890.2 368.262 1887.09 370.184L1890.24 375.29ZM1898.74 363.679L1904.56 365.108C1905.95 359.458 1906.58 352.462 1906.58 344.279H1900.58H1894.58C1894.58 351.956 1893.98 357.893 1892.91 362.249L1898.74 363.679ZM1900.58 344.279H1906.58V338.615H1900.58H1894.58V344.279H1900.58ZM1900.58 338.615H1906.58C1906.58 329.365 1905.71 321.565 1903.73 315.509L1898.03 317.375L1892.32 319.241C1893.74 323.569 1894.58 329.929 1894.58 338.615H1900.58ZM1898.03 317.375L1903.73 315.509C1901.5 308.703 1896.95 303.634 1890.43 300.499L1887.83 305.905L1885.23 311.311C1888.91 313.085 1891.15 315.663 1892.32 319.241L1898.03 317.375ZM1887.83 305.905L1890.43 300.499C1884.3 297.545 1875.79 295.923 1865.43 295.245L1865.03 301.232L1864.64 307.22C1874.48 307.864 1881.17 309.357 1885.23 311.311L1887.83 305.905ZM1865.03 301.232L1865.48 295.249C1855.17 294.478 1841.5 294.1 1824.54 294.1V300.1V306.1C1841.37 306.1 1854.7 306.477 1864.59 307.216L1865.03 301.232ZM1824.54 300.1V294.1H1711.4V300.1V306.1H1824.54V300.1ZM1711.4 300.1H1705.4V382.653H1711.4H1717.4V300.1H1711.4ZM1979.31 494.094H1973.31V500.094H1979.31V494.094ZM1979.31 276.594V270.594H1973.31V276.594H1979.31ZM2006.49 276.594H2012.49V270.594H2006.49V276.594ZM2006.49 494.094V500.094H2012.49V494.094H2006.49ZM1979.31 494.094H1985.31V276.594H1979.31H1973.31V494.094H1979.31ZM1979.31 276.594V282.594H2006.49V276.594V270.594H1979.31V276.594ZM2006.49 276.594H2000.49V494.094H2006.49H2012.49V276.594H2006.49ZM2006.49 494.094V488.094H1979.31V494.094V500.094H2006.49V494.094ZM2061.44 494.094H2055.44V500.094H2061.44V494.094ZM2061.44 276.594V270.594H2055.44V276.594H2061.44ZM2101.93 276.594L2106.75 273.02L2104.95 270.594H2101.93V276.594ZM2233.48 454.021L2228.66 457.594L2233.52 464.144L2238.33 457.559L2233.48 454.021ZM2363.05 276.594V270.594H2360L2358.2 273.055L2363.05 276.594ZM2403.54 276.594H2409.54V270.594H2403.54V276.594ZM2403.54 494.094V500.094H2409.54V494.094H2403.54ZM2376.36 494.094H2370.36V500.094H2376.36V494.094ZM2376.36 301.232H2382.36V282.78L2371.5 297.704L2376.36 301.232ZM2246.51 479.792V485.792H2249.56L2251.36 483.321L2246.51 479.792ZM2221.87 479.792L2217.06 483.38L2218.86 485.792H2221.87V479.792ZM2088.62 301.232L2093.43 297.644L2082.62 283.16V301.232H2088.62ZM2088.62 494.094V500.094H2094.62V494.094H2088.62ZM2061.44 494.094H2067.44V276.594H2061.44H2055.44V494.094H2061.44ZM2061.44 276.594V282.594H2101.93V276.594V270.594H2061.44V276.594ZM2101.93 276.594L2097.11 280.167L2228.66 457.594L2233.48 454.021L2238.3 450.447L2106.75 273.02L2101.93 276.594ZM2233.48 454.021L2238.33 457.559L2367.89 280.132L2363.05 276.594L2358.2 273.055L2228.64 450.482L2233.48 454.021ZM2363.05 276.594V282.594H2403.54V276.594V270.594H2363.05V276.594ZM2403.54 276.594H2397.54V494.094H2403.54H2409.54V276.594H2403.54ZM2403.54 494.094V488.094H2376.36V494.094V500.094H2403.54V494.094ZM2376.36 494.094H2382.36V301.232H2376.36H2370.36V494.094H2376.36ZM2376.36 301.232L2371.5 297.704L2241.66 476.263L2246.51 479.792L2251.36 483.321L2381.21 304.761L2376.36 301.232ZM2246.51 479.792V473.792H2221.87V479.792V485.792H2246.51V479.792ZM2221.87 479.792L2226.68 476.204L2093.43 297.644L2088.62 301.232L2083.81 304.821L2217.06 483.38L2221.87 479.792ZM2088.62 301.232H2082.62V494.094H2088.62H2094.62V301.232H2088.62ZM2088.62 494.094V488.094H2061.44V494.094V500.094H2088.62V494.094Z" fill="black" mask="url(#path-1-outside-1_524_21)"/>
<path d="M98.6152 714.094V642.875H58.8652V634.594H148.303V642.875H108.553V714.094H98.6152ZM270.165 714.094V634.594H348.216V642.875H280.103V669.375H345.37V677.656H280.103V705.812H349.665V714.094H270.165ZM466.663 675.379V673.309C466.663 666.27 467.008 660.369 467.698 655.607C468.388 650.811 469.579 646.912 471.269 643.91C472.96 640.908 475.255 638.614 478.153 637.026C481.086 635.439 484.761 634.369 489.178 633.817C493.594 633.231 498.908 632.938 505.119 632.938H525.977C533.085 632.938 539.072 633.283 543.937 633.973C548.837 634.628 552.771 635.957 555.738 637.958C558.74 639.925 560.914 642.84 562.26 646.705C563.605 650.535 564.278 655.625 564.278 661.974H554.341C554.341 656.97 553.892 653.089 552.995 650.328C552.098 647.533 550.58 645.515 548.44 644.272C546.335 643.03 543.454 642.271 539.797 641.995C536.139 641.685 531.533 641.529 525.977 641.529H505.119C500.185 641.529 496.027 641.685 492.645 641.995C489.264 642.271 486.503 642.944 484.364 644.014C482.259 645.049 480.638 646.705 479.499 648.982C478.395 651.26 477.636 654.365 477.222 658.299C476.807 662.232 476.6 667.236 476.6 673.309V675.379C476.6 681.245 476.807 686.11 477.222 689.975C477.636 693.839 478.395 696.927 479.499 699.239C480.638 701.551 482.259 703.276 484.364 704.415C486.503 705.554 489.264 706.296 492.645 706.641C496.027 706.986 500.185 707.158 505.119 707.158H525.977C531.533 707.158 536.139 707.037 539.797 706.796C543.454 706.554 546.335 705.847 548.44 704.674C550.58 703.501 552.098 701.551 552.995 698.825C553.892 696.065 554.341 692.2 554.341 687.231H564.278C564.278 693.58 563.605 698.653 562.26 702.448C560.914 706.244 558.74 709.108 555.738 711.04C552.771 712.938 548.837 714.197 543.937 714.818C539.072 715.439 533.085 715.75 525.977 715.75H505.119C497.355 715.75 490.972 715.215 485.969 714.146C480.965 713.11 477.049 711.178 474.22 708.349C471.425 705.519 469.458 701.448 468.319 696.134C467.215 690.82 466.663 683.902 466.663 675.379ZM688.315 714.094V634.594H698.252V669.375H771.127V634.594H781.065V714.094H771.127V677.656H698.252V714.094H688.315ZM908.207 714.094V634.594H918.558L998.421 701.827H998.524V634.594H1008.46V714.094H998.11L918.248 646.291H918.144V714.094H908.207ZM1170.59 715.75C1162.83 715.75 1156.44 715.215 1151.44 714.146C1146.44 713.11 1142.52 711.178 1139.69 708.349C1136.9 705.519 1134.93 701.448 1133.79 696.134C1132.69 690.82 1132.14 683.902 1132.14 675.379V673.309C1132.14 666.27 1132.48 660.369 1133.17 655.607C1133.86 650.811 1135.05 646.912 1136.74 643.91C1138.43 640.908 1140.73 638.614 1143.63 637.026C1146.56 635.439 1150.23 634.369 1154.65 633.817C1159.07 633.231 1164.38 632.938 1170.59 632.938H1191.45C1197.66 632.938 1202.98 633.231 1207.39 633.817C1211.81 634.369 1215.47 635.439 1218.36 637.026C1221.3 638.614 1223.61 640.908 1225.3 643.91C1226.99 646.912 1228.18 650.811 1228.87 655.607C1229.56 660.369 1229.91 666.27 1229.91 673.309V675.379C1229.91 683.902 1229.34 690.82 1228.2 696.134C1227.09 701.448 1225.13 705.519 1222.3 708.349C1219.5 711.178 1215.6 713.11 1210.6 714.146C1205.6 715.215 1199.21 715.75 1191.45 715.75H1170.59ZM1170.59 707.158H1191.45C1196.38 707.158 1200.54 706.986 1203.92 706.641C1207.31 706.296 1210.05 705.554 1212.15 704.415C1214.29 703.276 1215.91 701.551 1217.02 699.239C1218.16 696.927 1218.93 693.839 1219.35 689.975C1219.76 686.11 1219.97 681.245 1219.97 675.379V673.309C1219.97 667.236 1219.76 662.232 1219.35 658.299C1218.93 654.365 1218.16 651.26 1217.02 648.982C1215.91 646.705 1214.29 645.049 1212.15 644.014C1210.05 642.944 1207.31 642.271 1203.92 641.995C1200.54 641.685 1196.38 641.529 1191.45 641.529H1170.59C1165.66 641.529 1161.5 641.685 1158.12 641.995C1154.74 642.271 1151.98 642.944 1149.84 644.014C1147.73 645.049 1146.11 646.705 1144.97 648.982C1143.87 651.26 1143.11 654.365 1142.69 658.299C1142.28 662.232 1142.07 667.236 1142.07 673.309V675.379C1142.07 681.245 1142.28 686.11 1142.69 689.975C1143.11 693.839 1143.87 696.927 1144.97 699.239C1146.11 701.551 1147.73 703.276 1149.84 704.415C1151.98 705.554 1154.74 706.296 1158.12 706.641C1161.5 706.986 1165.66 707.158 1170.59 707.158ZM1353.58 714.094V634.594H1363.52V705.812H1426.46V714.094H1353.58ZM1581.91 715.75C1574.15 715.75 1567.76 715.215 1562.76 714.146C1557.76 713.11 1553.84 711.178 1551.01 708.349C1548.21 705.519 1546.25 701.448 1545.11 696.134C1544.01 690.82 1543.45 683.902 1543.45 675.379V673.309C1543.45 666.27 1543.8 660.369 1544.49 655.607C1545.18 650.811 1546.37 646.912 1548.06 643.91C1549.75 640.908 1552.04 638.614 1554.94 637.026C1557.88 635.439 1561.55 634.369 1565.97 633.817C1570.38 633.231 1575.7 632.938 1581.91 632.938H1602.77C1608.98 632.938 1614.29 633.231 1618.71 633.817C1623.13 634.369 1626.78 635.439 1629.68 637.026C1632.61 638.614 1634.93 640.908 1636.62 643.91C1638.31 646.912 1639.5 650.811 1640.19 655.607C1640.88 660.369 1641.22 666.27 1641.22 673.309V675.379C1641.22 683.902 1640.65 690.82 1639.52 696.134C1638.41 701.448 1636.44 705.519 1633.62 708.349C1630.82 711.178 1626.92 713.11 1621.92 714.146C1616.91 715.215 1610.53 715.75 1602.77 715.75H1581.91ZM1581.91 707.158H1602.77C1607.7 707.158 1611.86 706.986 1615.24 706.641C1618.62 706.296 1621.37 705.554 1623.47 704.415C1625.61 703.276 1627.23 701.551 1628.34 699.239C1629.47 696.927 1630.25 693.839 1630.67 689.975C1631.08 686.11 1631.29 681.245 1631.29 675.379V673.309C1631.29 667.236 1631.08 662.232 1630.67 658.299C1630.25 654.365 1629.47 651.26 1628.34 648.982C1627.23 646.705 1625.61 645.049 1623.47 644.014C1621.37 642.944 1618.62 642.271 1615.24 641.995C1611.86 641.685 1607.7 641.529 1602.77 641.529H1581.91C1576.97 641.529 1572.82 641.685 1569.44 641.995C1566.05 642.271 1563.29 642.944 1561.15 644.014C1559.05 645.049 1557.43 646.705 1556.29 648.982C1555.18 651.26 1554.43 654.365 1554.01 658.299C1553.6 662.232 1553.39 667.236 1553.39 673.309V675.379C1553.39 681.245 1553.6 686.11 1554.01 689.975C1554.43 693.839 1555.18 696.927 1556.29 699.239C1557.43 701.551 1559.05 703.276 1561.15 704.415C1563.29 705.554 1566.05 706.296 1569.44 706.641C1572.82 706.986 1576.97 707.158 1581.91 707.158ZM1761.59 675.379V673.309C1761.59 666.27 1761.93 660.369 1762.62 655.607C1763.31 650.811 1764.5 646.912 1766.19 643.91C1767.88 640.908 1770.18 638.614 1773.08 637.026C1776.01 635.439 1779.68 634.369 1784.1 633.817C1788.52 633.231 1793.83 632.938 1800.04 632.938H1819.5C1827.65 632.938 1834.25 633.248 1839.33 633.869C1844.43 634.49 1848.35 635.681 1851.07 637.44C1853.84 639.2 1855.73 641.771 1856.77 645.152C1857.8 648.499 1858.32 652.899 1858.32 658.351H1848.38C1848.38 654.244 1848.02 651.053 1847.3 648.775C1846.57 646.464 1845.21 644.807 1843.21 643.807C1841.21 642.771 1838.29 642.133 1834.46 641.892C1830.66 641.65 1825.68 641.529 1819.5 641.529H1800.04C1795.11 641.529 1790.95 641.685 1787.57 641.995C1784.19 642.271 1781.43 642.944 1779.29 644.014C1777.18 645.049 1775.56 646.705 1774.42 648.982C1773.32 651.26 1772.56 654.365 1772.14 658.299C1771.73 662.232 1771.52 667.236 1771.52 673.309V675.379C1771.52 681.245 1771.73 686.11 1772.14 689.975C1772.56 693.839 1773.32 696.927 1774.42 699.239C1775.56 701.551 1777.18 703.276 1779.29 704.415C1781.43 705.554 1784.19 706.296 1787.57 706.641C1790.95 706.986 1795.11 707.158 1800.04 707.158H1822.97C1828.66 707.158 1833.25 706.934 1836.74 706.485C1840.22 706.002 1842.86 705.002 1844.66 703.483C1846.49 701.931 1847.71 699.584 1848.33 696.444C1848.95 693.27 1849.26 688.991 1849.26 683.608V680.555H1811.22V672.273H1859.2V683.608C1859.2 690.337 1858.63 695.806 1857.49 700.016C1856.35 704.225 1854.42 707.486 1851.7 709.798C1849 712.075 1845.31 713.628 1840.62 714.456C1835.96 715.319 1830.08 715.75 1822.97 715.75H1800.04C1792.28 715.75 1785.89 715.215 1780.89 714.146C1775.89 713.11 1771.97 711.178 1769.14 708.349C1766.35 705.519 1764.38 701.448 1763.24 696.134C1762.14 690.82 1761.59 683.902 1761.59 675.379ZM1984.69 714.094V634.594H1994.62V714.094H1984.69ZM2121.56 714.094V634.594H2199.61V642.875H2131.5V669.375H2196.76V677.656H2131.5V705.812H2201.06V714.094H2121.56ZM2405.99 691.113C2405.99 688.042 2405.75 685.627 2405.27 683.867C2404.79 682.107 2403.7 680.813 2402.01 679.985C2400.32 679.123 2397.69 678.571 2394.14 678.329C2390.59 678.053 2385.72 677.863 2379.54 677.76L2350.77 677.346C2343.66 677.242 2337.95 676.811 2333.64 676.052C2329.32 675.293 2326.06 674.102 2323.85 672.48C2321.64 670.824 2320.16 668.616 2319.4 665.855C2318.68 663.095 2318.32 659.645 2318.32 655.504C2318.32 650.984 2318.82 647.257 2319.82 644.324C2320.85 641.391 2322.7 639.097 2325.35 637.44C2328.05 635.784 2331.84 634.628 2336.74 633.973C2341.64 633.283 2347.97 632.938 2355.74 632.938H2377.89C2384.93 632.938 2390.79 633.162 2395.49 633.61C2400.18 634.059 2403.91 635.094 2406.67 636.716C2409.43 638.338 2411.39 640.856 2412.57 644.272C2413.77 647.688 2414.38 652.381 2414.38 658.351H2404.44C2404.44 653.727 2403.99 650.242 2403.09 647.896C2402.23 645.515 2400.78 643.893 2398.75 643.03C2396.75 642.168 2394.04 641.702 2390.62 641.633C2387.2 641.564 2382.96 641.529 2377.89 641.529H2356.25C2350.08 641.529 2345.13 641.65 2341.4 641.892C2337.71 642.133 2334.91 642.685 2333.01 643.548C2331.12 644.41 2329.84 645.791 2329.18 647.688C2328.56 649.586 2328.25 652.191 2328.25 655.504C2328.25 658.299 2328.48 660.542 2328.93 662.232C2329.37 663.923 2330.37 665.217 2331.93 666.114C2333.51 666.977 2335.95 667.581 2339.23 667.926C2342.5 668.236 2346.97 668.426 2352.63 668.495L2383.48 668.909C2390.72 669.013 2396.5 669.444 2400.82 670.203C2405.16 670.928 2408.41 672.118 2410.55 673.774C2412.72 675.431 2414.15 677.674 2414.84 680.503C2415.57 683.298 2415.93 686.835 2415.93 691.113C2415.93 695.771 2415.48 699.688 2414.58 702.862C2413.72 706.002 2412.03 708.521 2409.51 710.419C2406.99 712.317 2403.35 713.68 2398.59 714.508C2393.83 715.336 2387.57 715.75 2379.8 715.75H2355.58C2348.51 715.75 2342.57 715.439 2337.78 714.818C2332.98 714.197 2329.15 712.955 2326.29 711.092C2323.46 709.194 2321.42 706.382 2320.18 702.655C2318.94 698.929 2318.32 693.96 2318.32 687.749H2328.25C2328.25 692.614 2328.65 696.375 2329.44 699.032C2330.24 701.689 2331.62 703.604 2333.58 704.777C2335.59 705.916 2338.36 706.606 2341.92 706.848C2345.51 707.055 2350.06 707.158 2355.58 707.158H2379.29C2385.46 707.158 2390.34 706.968 2393.93 706.589C2397.52 706.175 2400.18 705.416 2401.9 704.312C2403.63 703.173 2404.73 701.551 2405.22 699.446C2405.73 697.341 2405.99 694.564 2405.99 691.113Z" fill="#7E7E7E"/>
</g>
<path d="M2527 667.094L2670.95 160.094H3076L2950.52 667.094H2527Z" fill="#FFC70F"/>
<path d="M2741.38 257.094H2662.96L2578 571.094H2963.58L3042 257.094H2957.04L2898.23 486.052H2832.87L2891.69 257.094H2813.27L2747.92 486.052H2676.03L2741.38 257.094Z" fill="#FFFFFF"/>
<path d="M3396 271.094H3088.93L3004 578.094H3075.87L3141.2 349.477H3369.87L3396 271.094Z" fill="#FFFFFF"/>
<path d="M3118 2.09375L2949 667.094" stroke="#FFC70F" stroke-width="17"/>
<path d="M3088 270.094L2956 775.094" stroke="#FFC70F" stroke-width="17"/>
</svg>
