<svg width="3423" height="778" viewBox="0 0 3423 778" fill="none" xmlns="http://www.w3.org/2000/svg">
<mask id="path-1-outside-1_438_166" maskUnits="userSpaceOnUse" x="939" y="270.094" width="2409" height="230" fill="black">
<rect fill="white" x="939" y="270.094" width="2409" height="230"/>
<path d="M1055.81 494.094L948.903 276.594H980.197L1073.94 471.013L1162.3 276.594H1194.02L1282.38 471.013L1367.05 276.594H1398.35L1300.5 494.094H1264.25L1178.16 303.923L1092.06 494.094H1055.81ZM1436.44 494.094V276.594H1649.97V299.25H1463.62V371.75H1642.18V394.406H1463.62V471.438H1653.94V494.094H1436.44ZM1690.19 494.094V276.594H1717.38V471.438H1889.56V494.094H1690.19ZM1925.81 494.094V276.594H1953V371.75H1989.11L2129.72 276.594H2170.5L2016.44 383.078L2175.03 494.094H2134.25L1989.25 394.406H1953V494.094H1925.81ZM2211.28 494.094V276.594H2238.47V494.094H2211.28ZM2292.84 494.094V276.594H2321.16L2539.66 460.534H2539.94V276.594H2567.13V494.094H2538.81L2320.31 308.596H2320.03V494.094H2292.84ZM2622.21 276.594H2767.78C2789.02 276.594 2806.1 277.538 2819.04 279.426C2832.06 281.314 2841.93 284.571 2848.63 289.196C2855.33 293.822 2859.86 300.147 2862.22 308.171C2864.58 316.195 2865.76 326.343 2865.76 338.615V344.279C2865.76 355.607 2864.39 365.378 2861.66 373.591C2859.01 381.709 2853.87 388.317 2846.22 393.415C2838.58 398.418 2827.25 401.958 2812.24 404.035L2859.53 494.094H2832.35L2786.04 406.018C2784.15 406.112 2782.17 406.159 2780.09 406.159C2778.11 406.159 2776.04 406.159 2773.86 406.159H2649.4V494.094H2622.21V276.594ZM2649.4 382.653H2769.62C2785.76 382.653 2798.46 382.134 2807.71 381.096C2817.05 379.963 2823.9 378.028 2828.24 375.29C2832.68 372.552 2835.51 368.682 2836.74 363.679C2837.96 358.675 2838.58 352.209 2838.58 344.279V338.615C2838.58 329.647 2837.73 322.567 2836.03 317.375C2834.33 312.183 2830.93 308.36 2825.83 305.905C2820.73 303.451 2813.14 301.893 2803.03 301.232C2792.93 300.477 2779.43 300.1 2762.54 300.1H2649.4V382.653ZM2917.31 494.094V276.594H2944.49V494.094H2917.31ZM2999.44 494.094V276.594H3039.93L3171.48 454.021L3301.05 276.594H3341.54V494.094H3314.36V301.232L3184.51 479.792H3159.87L3026.62 301.232V494.094H2999.44Z"/>
</mask>
<path d="M1055.81 494.094L948.903 276.594H980.197L1073.94 471.013L1162.3 276.594H1194.02L1282.38 471.013L1367.05 276.594H1398.35L1300.5 494.094H1264.25L1178.16 303.923L1092.06 494.094H1055.81ZM1436.44 494.094V276.594H1649.97V299.25H1463.62V371.75H1642.18V394.406H1463.62V471.438H1653.94V494.094H1436.44ZM1690.19 494.094V276.594H1717.38V471.438H1889.56V494.094H1690.19ZM1925.81 494.094V276.594H1953V371.75H1989.11L2129.72 276.594H2170.5L2016.44 383.078L2175.03 494.094H2134.25L1989.25 394.406H1953V494.094H1925.81ZM2211.28 494.094V276.594H2238.47V494.094H2211.28ZM2292.84 494.094V276.594H2321.16L2539.66 460.534H2539.94V276.594H2567.13V494.094H2538.81L2320.31 308.596H2320.03V494.094H2292.84ZM2622.21 276.594H2767.78C2789.02 276.594 2806.1 277.538 2819.04 279.426C2832.06 281.314 2841.93 284.571 2848.63 289.196C2855.33 293.822 2859.86 300.147 2862.22 308.171C2864.58 316.195 2865.76 326.343 2865.76 338.615V344.279C2865.76 355.607 2864.39 365.378 2861.66 373.591C2859.01 381.709 2853.87 388.317 2846.22 393.415C2838.58 398.418 2827.25 401.958 2812.24 404.035L2859.53 494.094H2832.35L2786.04 406.018C2784.15 406.112 2782.17 406.159 2780.09 406.159C2778.11 406.159 2776.04 406.159 2773.86 406.159H2649.4V494.094H2622.21V276.594ZM2649.4 382.653H2769.62C2785.76 382.653 2798.46 382.134 2807.71 381.096C2817.05 379.963 2823.9 378.028 2828.24 375.29C2832.68 372.552 2835.51 368.682 2836.74 363.679C2837.96 358.675 2838.58 352.209 2838.58 344.279V338.615C2838.58 329.647 2837.73 322.567 2836.03 317.375C2834.33 312.183 2830.93 308.36 2825.83 305.905C2820.73 303.451 2813.14 301.893 2803.03 301.232C2792.93 300.477 2779.43 300.1 2762.54 300.1H2649.4V382.653ZM2917.31 494.094V276.594H2944.49V494.094H2917.31ZM2999.44 494.094V276.594H3039.93L3171.48 454.021L3301.05 276.594H3341.54V494.094H3314.36V301.232L3184.51 479.792H3159.87L3026.62 301.232V494.094H2999.44Z" fill="#FFFFFF"/>
<path d="M1055.81 494.094L1050.43 496.741L1052.08 500.094H1055.81V494.094ZM948.903 276.594V270.594H939.268L943.519 279.241L948.903 276.594ZM980.197 276.594L985.602 273.988L983.965 270.594H980.197V276.594ZM1073.94 471.013L1068.53 473.619L1074.1 485.161L1079.4 473.495L1073.94 471.013ZM1162.3 276.594V270.594H1158.43L1156.83 274.111L1162.3 276.594ZM1194.02 276.594L1199.48 274.111L1197.88 270.594H1194.02V276.594ZM1282.38 471.013L1276.91 473.495L1282.49 485.771L1287.88 473.409L1282.38 471.013ZM1367.05 276.594V270.594H1363.12L1361.55 274.198L1367.05 276.594ZM1398.35 276.594L1403.82 279.055L1407.63 270.594H1398.35V276.594ZM1300.5 494.094V500.094H1304.38L1305.97 496.555L1300.5 494.094ZM1264.25 494.094L1258.78 496.568L1260.38 500.094H1264.25V494.094ZM1178.16 303.923L1183.62 301.448L1178.16 289.375L1172.69 301.448L1178.16 303.923ZM1092.06 494.094V500.094H1095.93L1097.53 496.568L1092.06 494.094ZM1055.81 494.094L1061.2 491.447L954.288 273.947L948.903 276.594L943.519 279.241L1050.43 496.741L1055.81 494.094ZM948.903 276.594V282.594H980.197V276.594V270.594H948.903V276.594ZM980.197 276.594L974.793 279.2L1068.53 473.619L1073.94 471.013L1079.34 468.407L985.602 273.988L980.197 276.594ZM1073.94 471.013L1079.4 473.495L1167.76 279.076L1162.3 276.594L1156.83 274.111L1068.48 468.53L1073.94 471.013ZM1162.3 276.594V282.594H1194.02V276.594V270.594H1162.3V276.594ZM1194.02 276.594L1188.55 279.076L1276.91 473.495L1282.38 471.013L1287.84 468.53L1199.48 274.111L1194.02 276.594ZM1282.38 471.013L1287.88 473.409L1372.55 278.99L1367.05 276.594L1361.55 274.198L1276.87 468.617L1282.38 471.013ZM1367.05 276.594V282.594H1398.35V276.594V270.594H1367.05V276.594ZM1398.35 276.594L1392.87 274.132L1295.03 491.632L1300.5 494.094L1305.97 496.555L1403.82 279.055L1398.35 276.594ZM1300.5 494.094V488.094H1264.25V494.094V500.094H1300.5V494.094ZM1264.25 494.094L1269.72 491.619L1183.62 301.448L1178.16 303.923L1172.69 306.397L1258.78 496.568L1264.25 494.094ZM1178.16 303.923L1172.69 301.448L1086.6 491.619L1092.06 494.094L1097.53 496.568L1183.62 306.397L1178.16 303.923ZM1092.06 494.094V488.094H1055.81V494.094V500.094H1092.06V494.094ZM1436.44 494.094H1430.44V500.094H1436.44V494.094ZM1436.44 276.594V270.594H1430.44V276.594H1436.44ZM1649.97 276.594H1655.97V270.594H1649.97V276.594ZM1649.97 299.25V305.25H1655.97V299.25H1649.97ZM1463.62 299.25V293.25H1457.62V299.25H1463.62ZM1463.62 371.75H1457.62V377.75H1463.62V371.75ZM1642.18 371.75H1648.18V365.75H1642.18V371.75ZM1642.18 394.406V400.406H1648.18V394.406H1642.18ZM1463.62 394.406V388.406H1457.62V394.406H1463.62ZM1463.62 471.438H1457.62V477.438H1463.62V471.438ZM1653.94 471.438H1659.94V465.438H1653.94V471.438ZM1653.94 494.094V500.094H1659.94V494.094H1653.94ZM1436.44 494.094H1442.44V276.594H1436.44H1430.44V494.094H1436.44ZM1436.44 276.594V282.594H1649.97V276.594V270.594H1436.44V276.594ZM1649.97 276.594H1643.97V299.25H1649.97H1655.97V276.594H1649.97ZM1649.97 299.25V293.25H1463.62V299.25V305.25H1649.97V299.25ZM1463.62 299.25H1457.62V371.75H1463.62H1469.62V299.25H1463.62ZM1463.62 371.75V377.75H1642.18V371.75V365.75H1463.62V371.75ZM1642.18 371.75H1636.18V394.406H1642.18H1648.18V371.75H1642.18ZM1642.18 394.406V388.406H1463.62V394.406V400.406H1642.18V394.406ZM1463.62 394.406H1457.62V471.438H1463.62H1469.62V394.406H1463.62ZM1463.62 471.438V477.438H1653.94V471.438V465.438H1463.62V471.438ZM1653.94 471.438H1647.94V494.094H1653.94H1659.94V471.438H1653.94ZM1653.94 494.094V488.094H1436.44V494.094V500.094H1653.94V494.094ZM1690.19 494.094H1684.19V500.094H1690.19V494.094ZM1690.19 276.594V270.594H1684.19V276.594H1690.19ZM1717.38 276.594H1723.38V270.594H1717.38V276.594ZM1717.38 471.438H1711.38V477.438H1717.38V471.438ZM1889.56 471.438H1895.56V465.438H1889.56V471.438ZM1889.56 494.094V500.094H1895.56V494.094H1889.56ZM1690.19 494.094H1696.19V276.594H1690.19H1684.19V494.094H1690.19ZM1690.19 276.594V282.594H1717.38V276.594V270.594H1690.19V276.594ZM1717.38 276.594H1711.38V471.438H1717.38H1723.38V276.594H1717.38ZM1717.38 471.438V477.438H1889.56V471.438V465.438H1717.38V471.438ZM1889.56 471.438H1883.56V494.094H1889.56H1895.56V471.438H1889.56ZM1889.56 494.094V488.094H1690.19V494.094V500.094H1889.56V494.094ZM1925.81 494.094H1919.81V500.094H1925.81V494.094ZM1925.81 276.594V270.594H1919.81V276.594H1925.81ZM1953 276.594H1959V270.594H1953V276.594ZM1953 371.75H1947V377.75H1953V371.75ZM1989.11 371.75V377.75H1990.95L1992.47 376.719L1989.11 371.75ZM2129.72 276.594V270.594H2127.88L2126.36 271.625L2129.72 276.594ZM2170.5 276.594L2173.91 281.53L2189.73 270.594H2170.5V276.594ZM2016.44 383.078L2013.03 378.142L2005.93 383.047L2013 387.994L2016.44 383.078ZM2175.03 494.094V500.094H2194.07L2178.47 489.178L2175.03 494.094ZM2134.25 494.094L2130.85 499.038L2132.39 500.094H2134.25V494.094ZM1989.25 394.406L1992.65 389.462L1991.11 388.406H1989.25V394.406ZM1953 394.406V388.406H1947V394.406H1953ZM1953 494.094V500.094H1959V494.094H1953ZM1925.81 494.094H1931.81V276.594H1925.81H1919.81V494.094H1925.81ZM1925.81 276.594V282.594H1953V276.594V270.594H1925.81V276.594ZM1953 276.594H1947V371.75H1953H1959V276.594H1953ZM1953 371.75V377.75H1989.11V371.75V365.75H1953V371.75ZM1989.11 371.75L1992.47 376.719L2133.08 281.563L2129.72 276.594L2126.36 271.625L1985.75 366.781L1989.11 371.75ZM2129.72 276.594V282.594H2170.5V276.594V270.594H2129.72V276.594ZM2170.5 276.594L2167.09 271.658L2013.03 378.142L2016.44 383.078L2019.85 388.014L2173.91 281.53L2170.5 276.594ZM2016.44 383.078L2013 387.994L2171.59 499.009L2175.03 494.094L2178.47 489.178L2019.88 378.163L2016.44 383.078ZM2175.03 494.094V488.094H2134.25V494.094V500.094H2175.03V494.094ZM2134.25 494.094L2137.65 489.15L1992.65 389.462L1989.25 394.406L1985.85 399.35L2130.85 499.038L2134.25 494.094ZM1989.25 394.406V388.406H1953V394.406V400.406H1989.25V394.406ZM1953 394.406H1947V494.094H1953H1959V394.406H1953ZM1953 494.094V488.094H1925.81V494.094V500.094H1953V494.094ZM2211.28 494.094H2205.28V500.094H2211.28V494.094ZM2211.28 276.594V270.594H2205.28V276.594H2211.28ZM2238.47 276.594H2244.47V270.594H2238.47V276.594ZM2238.47 494.094V500.094H2244.47V494.094H2238.47ZM2211.28 494.094H2217.28V276.594H2211.28H2205.28V494.094H2211.28ZM2211.28 276.594V282.594H2238.47V276.594V270.594H2211.28V276.594ZM2238.47 276.594H2232.47V494.094H2238.47H2244.47V276.594H2238.47ZM2238.47 494.094V488.094H2211.28V494.094V500.094H2238.47V494.094ZM2292.84 494.094H2286.84V500.094H2292.84V494.094ZM2292.84 276.594V270.594H2286.84V276.594H2292.84ZM2321.16 276.594L2325.03 272.004L2323.35 270.594H2321.16V276.594ZM2539.66 460.534L2535.79 465.124L2537.47 466.534H2539.66V460.534ZM2539.94 460.534V466.534H2545.94V460.534H2539.94ZM2539.94 276.594V270.594H2533.94V276.594H2539.94ZM2567.13 276.594H2573.13V270.594H2567.13V276.594ZM2567.13 494.094V500.094H2573.13V494.094H2567.13ZM2538.81 494.094L2534.92 498.668L2536.6 500.094H2538.81V494.094ZM2320.31 308.596L2324.2 304.022L2322.52 302.596H2320.31V308.596ZM2320.03 308.596V302.596H2314.03V308.596H2320.03ZM2320.03 494.094V500.094H2326.03V494.094H2320.03ZM2292.84 494.094H2298.84V276.594H2292.84H2286.84V494.094H2292.84ZM2292.84 276.594V282.594H2321.16V276.594V270.594H2292.84V276.594ZM2321.16 276.594L2317.3 281.184L2535.79 465.124L2539.66 460.534L2543.52 455.944L2325.03 272.004L2321.16 276.594ZM2539.66 460.534V466.534H2539.94V460.534V454.534H2539.66V460.534ZM2539.94 460.534H2545.94V276.594H2539.94H2533.94V460.534H2539.94ZM2539.94 276.594V282.594H2567.13V276.594V270.594H2539.94V276.594ZM2567.13 276.594H2561.13V494.094H2567.13H2573.13V276.594H2567.13ZM2567.13 494.094V488.094H2538.81V494.094V500.094H2567.13V494.094ZM2538.81 494.094L2542.69 489.52L2324.2 304.022L2320.31 308.596L2316.43 313.17L2534.92 498.668L2538.81 494.094ZM2320.31 308.596V302.596H2320.03V308.596V314.596H2320.31V308.596ZM2320.03 308.596H2314.03V494.094H2320.03H2326.03V308.596H2320.03ZM2320.03 494.094V488.094H2292.84V494.094V500.094H2320.03V494.094ZM2622.21 276.594V270.594H2616.21V276.594H2622.21ZM2819.04 279.426L2818.17 285.363L2818.17 285.364L2819.04 279.426ZM2861.66 373.591L2855.97 371.693L2855.96 371.713L2855.95 371.733L2861.66 373.591ZM2846.22 393.415L2849.51 398.436L2849.53 398.422L2849.55 398.407L2846.22 393.415ZM2812.24 404.035L2811.42 398.092L2802.95 399.262L2806.93 406.825L2812.24 404.035ZM2859.53 494.094V500.094H2869.46L2864.85 491.304L2859.53 494.094ZM2832.35 494.094L2827.03 496.886L2828.72 500.094H2832.35V494.094ZM2786.04 406.018L2791.35 403.226L2789.57 399.834L2785.74 400.025L2786.04 406.018ZM2649.4 406.159V400.159H2643.4V406.159H2649.4ZM2649.4 494.094V500.094H2655.4V494.094H2649.4ZM2622.21 494.094H2616.21V500.094H2622.21V494.094ZM2649.4 382.653H2643.4V388.653H2649.4V382.653ZM2807.71 381.096L2808.38 387.058L2808.4 387.055L2808.43 387.052L2807.71 381.096ZM2828.24 375.29L2825.09 370.184L2825.06 370.199L2825.04 370.214L2828.24 375.29ZM2803.03 301.232L2802.59 307.216L2802.61 307.218L2802.64 307.22L2803.03 301.232ZM2649.4 300.1V294.1H2643.4V300.1H2649.4ZM2622.21 276.594V282.594H2767.78V276.594V270.594H2622.21V276.594ZM2767.78 276.594V282.594C2788.88 282.594 2805.64 283.534 2818.17 285.363L2819.04 279.426L2819.9 273.489C2806.56 271.541 2789.15 270.594 2767.78 270.594V276.594ZM2819.04 279.426L2818.17 285.364C2830.79 287.192 2839.61 290.261 2845.22 294.134L2848.63 289.196L2852.04 284.258C2844.25 278.881 2833.34 275.436 2819.9 273.488L2819.04 279.426ZM2848.63 289.196L2845.22 294.134C2850.76 297.957 2854.48 303.12 2856.47 309.864L2862.22 308.171L2867.98 306.478C2865.24 297.174 2859.9 289.687 2852.04 284.258L2848.63 289.196ZM2862.22 308.171L2856.47 309.864C2858.61 317.147 2859.76 326.675 2859.76 338.615H2865.76H2871.76C2871.76 326.011 2870.56 315.243 2867.98 306.478L2862.22 308.171ZM2865.76 338.615H2859.76V344.279H2865.76H2871.76V338.615H2865.76ZM2865.76 344.279H2859.76C2859.76 355.15 2858.45 364.248 2855.97 371.693L2861.66 373.591L2867.35 375.488C2870.34 366.508 2871.76 356.065 2871.76 344.279H2865.76ZM2861.66 373.591L2855.95 371.733C2853.76 378.469 2849.51 384.012 2842.89 388.423L2846.22 393.415L2849.55 398.407C2858.23 392.623 2864.27 384.95 2867.36 375.448L2861.66 373.591ZM2846.22 393.415L2842.94 388.394C2836.37 392.693 2826.05 396.066 2811.42 398.092L2812.24 404.035L2813.06 409.979C2828.44 407.85 2840.78 404.143 2849.51 398.436L2846.22 393.415ZM2812.24 404.035L2806.93 406.825L2854.22 496.883L2859.53 494.094L2864.85 491.304L2817.55 401.245L2812.24 404.035ZM2859.53 494.094V488.094H2832.35V494.094V500.094H2859.53V494.094ZM2832.35 494.094L2837.66 491.302L2791.35 403.226L2786.04 406.018L2780.73 408.81L2827.03 496.886L2832.35 494.094ZM2786.04 406.018L2785.74 400.025C2783.96 400.114 2782.08 400.159 2780.09 400.159V406.159V412.159C2782.26 412.159 2784.34 412.11 2786.34 412.01L2786.04 406.018ZM2780.09 406.159V400.159C2780.09 400.159 2780.09 400.159 2780.08 400.159C2780.08 400.159 2780.08 400.159 2780.07 400.159C2780.07 400.159 2780.06 400.159 2780.06 400.159C2780.06 400.159 2780.05 400.159 2780.05 400.159C2780.04 400.159 2780.04 400.159 2780.04 400.159C2780.03 400.159 2780.03 400.159 2780.03 400.159C2780.02 400.159 2780.02 400.159 2780.01 400.159C2780.01 400.159 2780.01 400.159 2780 400.159C2780 400.159 2779.99 400.159 2779.99 400.159C2779.99 400.159 2779.98 400.159 2779.98 400.159C2779.97 400.159 2779.97 400.159 2779.97 400.159C2779.96 400.159 2779.96 400.159 2779.96 400.159C2779.95 400.159 2779.95 400.159 2779.94 400.159C2779.94 400.159 2779.94 400.159 2779.93 400.159C2779.93 400.159 2779.92 400.159 2779.92 400.159C2779.92 400.159 2779.91 400.159 2779.91 400.159C2779.9 400.159 2779.9 400.159 2779.9 400.159C2779.89 400.159 2779.89 400.159 2779.89 400.159C2779.88 400.159 2779.88 400.159 2779.87 400.159C2779.87 400.159 2779.87 400.159 2779.86 400.159C2779.86 400.159 2779.85 400.159 2779.85 400.159C2779.85 400.159 2779.84 400.159 2779.84 400.159C2779.83 400.159 2779.83 400.159 2779.83 400.159C2779.82 400.159 2779.82 400.159 2779.82 400.159C2779.81 400.159 2779.81 400.159 2779.8 400.159C2779.8 400.159 2779.8 400.159 2779.79 400.159C2779.79 400.159 2779.78 400.159 2779.78 400.159C2779.78 400.159 2779.77 400.159 2779.77 400.159C2779.76 400.159 2779.76 400.159 2779.76 400.159C2779.75 400.159 2779.75 400.159 2779.75 400.159C2779.74 400.159 2779.74 400.159 2779.73 400.159C2779.73 400.159 2779.73 400.159 2779.72 400.159C2779.72 400.159 2779.71 400.159 2779.71 400.159C2779.71 400.159 2779.7 400.159 2779.7 400.159C2779.69 400.159 2779.69 400.159 2779.69 400.159C2779.68 400.159 2779.68 400.159 2779.68 400.159C2779.67 400.159 2779.67 400.159 2779.66 400.159C2779.66 400.159 2779.66 400.159 2779.65 400.159C2779.65 400.159 2779.64 400.159 2779.64 400.159C2779.64 400.159 2779.63 400.159 2779.63 400.159C2779.62 400.159 2779.62 400.159 2779.62 400.159C2779.61 400.159 2779.61 400.159 2779.6 400.159C2779.6 400.159 2779.6 400.159 2779.59 400.159C2779.59 400.159 2779.59 400.159 2779.58 400.159C2779.58 400.159 2779.57 400.159 2779.57 400.159C2779.57 400.159 2779.56 400.159 2779.56 400.159C2779.55 400.159 2779.55 400.159 2779.55 400.159C2779.54 400.159 2779.54 400.159 2779.53 400.159C2779.53 400.159 2779.53 400.159 2779.52 400.159C2779.52 400.159 2779.52 400.159 2779.51 400.159C2779.51 400.159 2779.5 400.159 2779.5 400.159C2779.5 400.159 2779.49 400.159 2779.49 400.159C2779.48 400.159 2779.48 400.159 2779.48 400.159C2779.47 400.159 2779.47 400.159 2779.46 400.159C2779.46 400.159 2779.46 400.159 2779.45 400.159C2779.45 400.159 2779.44 400.159 2779.44 400.159C2779.44 400.159 2779.43 400.159 2779.43 400.159C2779.43 400.159 2779.42 400.159 2779.42 400.159C2779.41 400.159 2779.41 400.159 2779.41 400.159C2779.4 400.159 2779.4 400.159 2779.39 400.159C2779.39 400.159 2779.39 400.159 2779.38 400.159C2779.38 400.159 2779.37 400.159 2779.37 400.159C2779.37 400.159 2779.36 400.159 2779.36 400.159C2779.35 400.159 2779.35 400.159 2779.35 400.159C2779.34 400.159 2779.34 400.159 2779.34 400.159C2779.33 400.159 2779.33 400.159 2779.32 400.159C2779.32 400.159 2779.32 400.159 2779.31 400.159C2779.31 400.159 2779.3 400.159 2779.3 400.159C2779.3 400.159 2779.29 400.159 2779.29 400.159C2779.28 400.159 2779.28 400.159 2779.28 400.159C2779.27 400.159 2779.27 400.159 2779.26 400.159C2779.26 400.159 2779.26 400.159 2779.25 400.159C2779.25 400.159 2779.24 400.159 2779.24 400.159C2779.24 400.159 2779.23 400.159 2779.23 400.159C2779.23 400.159 2779.22 400.159 2779.22 400.159C2779.21 400.159 2779.21 400.159 2779.21 400.159C2779.2 400.159 2779.2 400.159 2779.19 400.159C2779.19 400.159 2779.19 400.159 2779.18 400.159C2779.18 400.159 2779.17 400.159 2779.17 400.159C2779.17 400.159 2779.16 400.159 2779.16 400.159C2779.15 400.159 2779.15 400.159 2779.15 400.159C2779.14 400.159 2779.14 400.159 2779.14 400.159C2779.13 400.159 2779.13 400.159 2779.12 400.159C2779.12 400.159 2779.12 400.159 2779.11 400.159C2779.11 400.159 2779.1 400.159 2779.1 400.159C2779.1 400.159 2779.09 400.159 2779.09 400.159C2779.08 400.159 2779.08 400.159 2779.08 400.159C2779.07 400.159 2779.07 400.159 2779.06 400.159C2779.06 400.159 2779.06 400.159 2779.05 400.159C2779.05 400.159 2779.04 400.159 2779.04 400.159C2779.04 400.159 2779.03 400.159 2779.03 400.159C2779.02 400.159 2779.02 400.159 2779.02 400.159C2779.01 400.159 2779.01 400.159 2779.01 400.159C2779 400.159 2779 400.159 2778.99 400.159C2778.99 400.159 2778.99 400.159 2778.98 400.159C2778.98 400.159 2778.97 400.159 2778.97 400.159C2778.97 400.159 2778.96 400.159 2778.96 400.159C2778.95 400.159 2778.95 400.159 2778.95 400.159C2778.94 400.159 2778.94 400.159 2778.93 400.159C2778.93 400.159 2778.93 400.159 2778.92 400.159C2778.92 400.159 2778.91 400.159 2778.91 400.159C2778.91 400.159 2778.9 400.159 2778.9 400.159C2778.89 400.159 2778.89 400.159 2778.89 400.159C2778.88 400.159 2778.88 400.159 2778.88 400.159C2778.87 400.159 2778.87 400.159 2778.86 400.159C2778.86 400.159 2778.86 400.159 2778.85 400.159C2778.85 400.159 2778.84 400.159 2778.84 400.159C2778.84 400.159 2778.83 400.159 2778.83 400.159C2778.82 400.159 2778.82 400.159 2778.82 400.159C2778.81 400.159 2778.81 400.159 2778.8 400.159C2778.8 400.159 2778.8 400.159 2778.79 400.159C2778.79 400.159 2778.78 400.159 2778.78 400.159C2778.78 400.159 2778.77 400.159 2778.77 400.159C2778.76 400.159 2778.76 400.159 2778.76 400.159C2778.75 400.159 2778.75 400.159 2778.74 400.159C2778.74 400.159 2778.74 400.159 2778.73 400.159C2778.73 400.159 2778.72 400.159 2778.72 400.159C2778.72 400.159 2778.71 400.159 2778.71 400.159C2778.71 400.159 2778.7 400.159 2778.7 400.159C2778.69 400.159 2778.69 400.159 2778.69 400.159C2778.68 400.159 2778.68 400.159 2778.67 400.159C2778.67 400.159 2778.67 400.159 2778.66 400.159C2778.66 400.159 2778.65 400.159 2778.65 400.159C2778.65 400.159 2778.64 400.159 2778.64 400.159C2778.63 400.159 2778.63 400.159 2778.63 400.159C2778.62 400.159 2778.62 400.159 2778.61 400.159C2778.61 400.159 2778.61 400.159 2778.6 400.159C2778.6 400.159 2778.59 400.159 2778.59 400.159C2778.59 400.159 2778.58 400.159 2778.58 400.159C2778.57 400.159 2778.57 400.159 2778.57 400.159C2778.56 400.159 2778.56 400.159 2778.55 400.159C2778.55 400.159 2778.55 400.159 2778.54 400.159C2778.54 400.159 2778.53 400.159 2778.53 400.159C2778.53 400.159 2778.52 400.159 2778.52 400.159C2778.51 400.159 2778.51 400.159 2778.51 400.159C2778.5 400.159 2778.5 400.159 2778.49 400.159C2778.49 400.159 2778.49 400.159 2778.48 400.159C2778.48 400.159 2778.48 400.159 2778.47 400.159C2778.47 400.159 2778.46 400.159 2778.46 400.159C2778.46 400.159 2778.45 400.159 2778.45 400.159C2778.44 400.159 2778.44 400.159 2778.44 400.159C2778.43 400.159 2778.43 400.159 2778.42 400.159C2778.42 400.159 2778.42 400.159 2778.41 400.159C2778.41 400.159 2778.4 400.159 2778.4 400.159C2778.4 400.159 2778.39 400.159 2778.39 400.159C2778.38 400.159 2778.38 400.159 2778.38 400.159C2778.37 400.159 2778.37 400.159 2778.36 400.159C2778.36 400.159 2778.36 400.159 2778.35 400.159C2778.35 400.159 2778.34 400.159 2778.34 400.159C2778.34 400.159 2778.33 400.159 2778.33 400.159C2778.32 400.159 2778.32 400.159 2778.32 400.159C2778.31 400.159 2778.31 400.159 2778.3 400.159C2778.3 400.159 2778.3 400.159 2778.29 400.159C2778.29 400.159 2778.28 400.159 2778.28 400.159C2778.28 400.159 2778.27 400.159 2778.27 400.159C2778.26 400.159 2778.26 400.159 2778.26 400.159C2778.25 400.159 2778.25 400.159 2778.24 400.159C2778.24 400.159 2778.24 400.159 2778.23 400.159C2778.23 400.159 2778.22 400.159 2778.22 400.159C2778.22 400.159 2778.21 400.159 2778.21 400.159C2778.2 400.159 2778.2 400.159 2778.2 400.159C2778.19 400.159 2778.19 400.159 2778.18 400.159C2778.18 400.159 2778.18 400.159 2778.17 400.159C2778.17 400.159 2778.16 400.159 2778.16 400.159C2778.16 400.159 2778.15 400.159 2778.15 400.159C2778.14 400.159 2778.14 400.159 2778.14 400.159C2778.13 400.159 2778.13 400.159 2778.12 400.159C2778.12 400.159 2778.12 400.159 2778.11 400.159C2778.11 400.159 2778.1 400.159 2778.1 400.159C2778.1 400.159 2778.09 400.159 2778.09 400.159C2778.08 400.159 2778.08 400.159 2778.08 400.159C2778.07 400.159 2778.07 400.159 2778.06 400.159C2778.06 400.159 2778.06 400.159 2778.05 400.159C2778.05 400.159 2778.04 400.159 2778.04 400.159C2778.04 400.159 2778.03 400.159 2778.03 400.159C2778.02 400.159 2778.02 400.159 2778.02 400.159C2778.01 400.159 2778.01 400.159 2778 400.159C2778 400.159 2778 400.159 2777.99 400.159C2777.99 400.159 2777.98 400.159 2777.98 400.159C2777.98 400.159 2777.97 400.159 2777.97 400.159C2777.96 400.159 2777.96 400.159 2777.96 400.159C2777.95 400.159 2777.95 400.159 2777.94 400.159C2777.94 400.159 2777.94 400.159 2777.93 400.159C2777.93 400.159 2777.92 400.159 2777.92 400.159C2777.92 400.159 2777.91 400.159 2777.91 400.159C2777.9 400.159 2777.9 400.159 2777.9 400.159C2777.89 400.159 2777.89 400.159 2777.88 400.159C2777.88 400.159 2777.88 400.159 2777.87 400.159C2777.87 400.159 2777.86 400.159 2777.86 400.159C2777.86 400.159 2777.85 400.159 2777.85 400.159C2777.84 400.159 2777.84 400.159 2777.84 400.159C2777.83 400.159 2777.83 400.159 2777.82 400.159C2777.82 400.159 2777.82 400.159 2777.81 400.159C2777.81 400.159 2777.8 400.159 2777.8 400.159C2777.8 400.159 2777.79 400.159 2777.79 400.159C2777.78 400.159 2777.78 400.159 2777.78 400.159C2777.77 400.159 2777.77 400.159 2777.76 400.159C2777.76 400.159 2777.76 400.159 2777.75 400.159C2777.75 400.159 2777.74 400.159 2777.74 400.159C2777.74 400.159 2777.73 400.159 2777.73 400.159C2777.72 400.159 2777.72 400.159 2777.72 400.159C2777.71 400.159 2777.71 400.159 2777.7 400.159C2777.7 400.159 2777.7 400.159 2777.69 400.159C2777.69 400.159 2777.68 400.159 2777.68 400.159C2777.68 400.159 2777.67 400.159 2777.67 400.159C2777.66 400.159 2777.66 400.159 2777.66 400.159C2777.65 400.159 2777.65 400.159 2777.64 400.159C2777.64 400.159 2777.64 400.159 2777.63 400.159C2777.63 400.159 2777.62 400.159 2777.62 400.159C2777.62 400.159 2777.61 400.159 2777.61 400.159C2777.6 400.159 2777.6 400.159 2777.6 400.159C2777.59 400.159 2777.59 400.159 2777.58 400.159C2777.58 400.159 2777.58 400.159 2777.57 400.159C2777.57 400.159 2777.56 400.159 2777.56 400.159C2777.56 400.159 2777.55 400.159 2777.55 400.159C2777.54 400.159 2777.54 400.159 2777.54 400.159C2777.53 400.159 2777.53 400.159 2777.52 400.159C2777.52 400.159 2777.52 400.159 2777.51 400.159C2777.51 400.159 2777.5 400.159 2777.5 400.159C2777.49 400.159 2777.49 400.159 2777.49 400.159C2777.48 400.159 2777.48 400.159 2777.47 400.159C2777.47 400.159 2777.47 400.159 2777.46 400.159C2777.46 400.159 2777.45 400.159 2777.45 400.159C2777.45 400.159 2777.44 400.159 2777.44 400.159C2777.43 400.159 2777.43 400.159 2777.43 400.159C2777.42 400.159 2777.42 400.159 2777.41 400.159C2777.41 400.159 2777.41 400.159 2777.4 400.159C2777.4 400.159 2777.39 400.159 2777.39 400.159C2777.39 400.159 2777.38 400.159 2777.38 400.159C2777.37 400.159 2777.37 400.159 2777.37 400.159C2777.36 400.159 2777.36 400.159 2777.35 400.159C2777.35 400.159 2777.35 400.159 2777.34 400.159C2777.34 400.159 2777.33 400.159 2777.33 400.159C2777.33 400.159 2777.32 400.159 2777.32 400.159C2777.31 400.159 2777.31 400.159 2777.31 400.159C2777.3 400.159 2777.3 400.159 2777.29 400.159C2777.29 400.159 2777.29 400.159 2777.28 400.159C2777.28 400.159 2777.27 400.159 2777.27 400.159C2777.26 400.159 2777.26 400.159 2777.26 400.159C2777.25 400.159 2777.25 400.159 2777.24 400.159C2777.24 400.159 2777.24 400.159 2777.23 400.159C2777.23 400.159 2777.22 400.159 2777.22 400.159C2777.22 400.159 2777.21 400.159 2777.21 400.159C2777.2 400.159 2777.2 400.159 2777.2 400.159C2777.19 400.159 2777.19 400.159 2777.18 400.159C2777.18 400.159 2777.18 400.159 2777.17 400.159C2777.17 400.159 2777.16 400.159 2777.16 400.159C2777.16 400.159 2777.15 400.159 2777.15 400.159C2777.14 400.159 2777.14 400.159 2777.14 400.159C2777.13 400.159 2777.13 400.159 2777.12 400.159C2777.12 400.159 2777.12 400.159 2777.11 400.159C2777.11 400.159 2777.1 400.159 2777.1 400.159C2777.09 400.159 2777.09 400.159 2777.09 400.159C2777.08 400.159 2777.08 400.159 2777.07 400.159C2777.07 400.159 2777.07 400.159 2777.06 400.159C2777.06 400.159 2777.05 400.159 2777.05 400.159C2777.05 400.159 2777.04 400.159 2777.04 400.159C2777.03 400.159 2777.03 400.159 2777.03 400.159C2777.02 400.159 2777.02 400.159 2777.01 400.159C2777.01 400.159 2777.01 400.159 2777 400.159C2777 400.159 2776.99 400.159 2776.99 400.159C2776.99 400.159 2776.98 400.159 2776.98 400.159C2776.97 400.159 2776.97 400.159 2776.97 400.159C2776.96 400.159 2776.96 400.159 2776.95 400.159C2776.95 400.159 2776.94 400.159 2776.94 400.159C2776.94 400.159 2776.93 400.159 2776.93 400.159C2776.92 400.159 2776.92 400.159 2776.92 400.159C2776.91 400.159 2776.91 400.159 2776.9 400.159C2776.9 400.159 2776.9 400.159 2776.89 400.159C2776.89 400.159 2776.88 400.159 2776.88 400.159C2776.88 400.159 2776.87 400.159 2776.87 400.159C2776.86 400.159 2776.86 400.159 2776.86 400.159C2776.85 400.159 2776.85 400.159 2776.84 400.159C2776.84 400.159 2776.83 400.159 2776.83 400.159C2776.83 400.159 2776.82 400.159 2776.82 400.159C2776.81 400.159 2776.81 400.159 2776.81 400.159C2776.8 400.159 2776.8 400.159 2776.79 400.159C2776.79 400.159 2776.79 400.159 2776.78 400.159C2776.78 400.159 2776.77 400.159 2776.77 400.159C2776.77 400.159 2776.76 400.159 2776.76 400.159C2776.75 400.159 2776.75 400.159 2776.75 400.159C2776.74 400.159 2776.74 400.159 2776.73 400.159C2776.73 400.159 2776.72 400.159 2776.72 400.159C2776.72 400.159 2776.71 400.159 2776.71 400.159C2776.7 400.159 2776.7 400.159 2776.7 400.159C2776.69 400.159 2776.69 400.159 2776.68 400.159C2776.68 400.159 2776.68 400.159 2776.67 400.159C2776.67 400.159 2776.66 400.159 2776.66 400.159C2776.66 400.159 2776.65 400.159 2776.65 400.159C2776.64 400.159 2776.64 400.159 2776.64 400.159C2776.63 400.159 2776.63 400.159 2776.62 400.159C2776.62 400.159 2776.61 400.159 2776.61 400.159C2776.61 400.159 2776.6 400.159 2776.6 400.159C2776.59 400.159 2776.59 400.159 2776.59 400.159C2776.58 400.159 2776.58 400.159 2776.57 400.159C2776.57 400.159 2776.57 400.159 2776.56 400.159C2776.56 400.159 2776.55 400.159 2776.55 400.159C2776.55 400.159 2776.54 400.159 2776.54 400.159C2776.53 400.159 2776.53 400.159 2776.53 400.159C2776.52 400.159 2776.52 400.159 2776.51 400.159C2776.51 400.159 2776.5 400.159 2776.5 400.159C2776.5 400.159 2776.49 400.159 2776.49 400.159C2776.48 400.159 2776.48 400.159 2776.48 400.159C2776.47 400.159 2776.47 400.159 2776.46 400.159C2776.46 400.159 2776.46 400.159 2776.45 400.159C2776.45 400.159 2776.44 400.159 2776.44 400.159C2776.44 400.159 2776.43 400.159 2776.43 400.159C2776.42 400.159 2776.42 400.159 2776.41 400.159C2776.41 400.159 2776.41 400.159 2776.4 400.159C2776.4 400.159 2776.39 400.159 2776.39 400.159C2776.39 400.159 2776.38 400.159 2776.38 400.159C2776.37 400.159 2776.37 400.159 2776.37 400.159C2776.36 400.159 2776.36 400.159 2776.35 400.159C2776.35 400.159 2776.34 400.159 2776.34 400.159C2776.34 400.159 2776.33 400.159 2776.33 400.159C2776.32 400.159 2776.32 400.159 2776.32 400.159C2776.31 400.159 2776.31 400.159 2776.3 400.159C2776.3 400.159 2776.3 400.159 2776.29 400.159C2776.29 400.159 2776.28 400.159 2776.28 400.159C2776.28 400.159 2776.27 400.159 2776.27 400.159C2776.26 400.159 2776.26 400.159 2776.25 400.159C2776.25 400.159 2776.25 400.159 2776.24 400.159C2776.24 400.159 2776.23 400.159 2776.23 400.159C2776.23 400.159 2776.22 400.159 2776.22 400.159C2776.21 400.159 2776.21 400.159 2776.21 400.159C2776.2 400.159 2776.2 400.159 2776.19 400.159C2776.19 400.159 2776.18 400.159 2776.18 400.159C2776.18 400.159 2776.17 400.159 2776.17 400.159C2776.16 400.159 2776.16 400.159 2776.16 400.159C2776.15 400.159 2776.15 400.159 2776.14 400.159C2776.14 400.159 2776.14 400.159 2776.13 400.159C2776.13 400.159 2776.12 400.159 2776.12 400.159C2776.12 400.159 2776.11 400.159 2776.11 400.159C2776.1 400.159 2776.1 400.159 2776.09 400.159C2776.09 400.159 2776.09 400.159 2776.08 400.159C2776.08 400.159 2776.07 400.159 2776.07 400.159C2776.07 400.159 2776.06 400.159 2776.06 400.159C2776.05 400.159 2776.05 400.159 2776.05 400.159C2776.04 400.159 2776.04 400.159 2776.03 400.159C2776.03 400.159 2776.02 400.159 2776.02 400.159C2776.02 400.159 2776.01 400.159 2776.01 400.159C2776 400.159 2776 400.159 2776 400.159C2775.99 400.159 2775.99 400.159 2775.98 400.159C2775.98 400.159 2775.98 400.159 2775.97 400.159C2775.97 400.159 2775.96 400.159 2775.96 400.159C2775.95 400.159 2775.95 400.159 2775.95 400.159C2775.94 400.159 2775.94 400.159 2775.93 400.159C2775.93 400.159 2775.93 400.159 2775.92 400.159C2775.92 400.159 2775.91 400.159 2775.91 400.159C2775.91 400.159 2775.9 400.159 2775.9 400.159C2775.89 400.159 2775.89 400.159 2775.88 400.159C2775.88 400.159 2775.88 400.159 2775.87 400.159C2775.87 400.159 2775.86 400.159 2775.86 400.159C2775.86 400.159 2775.85 400.159 2775.85 400.159C2775.84 400.159 2775.84 400.159 2775.83 400.159C2775.83 400.159 2775.83 400.159 2775.82 400.159C2775.82 400.159 2775.81 400.159 2775.81 400.159C2775.81 400.159 2775.8 400.159 2775.8 400.159C2775.79 400.159 2775.79 400.159 2775.79 400.159C2775.78 400.159 2775.78 400.159 2775.77 400.159C2775.77 400.159 2775.76 400.159 2775.76 400.159C2775.76 400.159 2775.75 400.159 2775.75 400.159C2775.74 400.159 2775.74 400.159 2775.74 400.159C2775.73 400.159 2775.73 400.159 2775.72 400.159C2775.72 400.159 2775.72 400.159 2775.71 400.159C2775.71 400.159 2775.7 400.159 2775.7 400.159C2775.69 400.159 2775.69 400.159 2775.69 400.159C2775.68 400.159 2775.68 400.159 2775.67 400.159C2775.67 400.159 2775.67 400.159 2775.66 400.159C2775.66 400.159 2775.65 400.159 2775.65 400.159C2775.64 400.159 2775.64 400.159 2775.64 400.159C2775.63 400.159 2775.63 400.159 2775.62 400.159C2775.62 400.159 2775.62 400.159 2775.61 400.159C2775.61 400.159 2775.6 400.159 2775.6 400.159C2775.6 400.159 2775.59 400.159 2775.59 400.159C2775.58 400.159 2775.58 400.159 2775.57 400.159C2775.57 400.159 2775.57 400.159 2775.56 400.159C2775.56 400.159 2775.55 400.159 2775.55 400.159C2775.55 400.159 2775.54 400.159 2775.54 400.159C2775.53 400.159 2775.53 400.159 2775.52 400.159C2775.52 400.159 2775.52 400.159 2775.51 400.159C2775.51 400.159 2775.5 400.159 2775.5 400.159C2775.5 400.159 2775.49 400.159 2775.49 400.159C2775.48 400.159 2775.48 400.159 2775.47 400.159C2775.47 400.159 2775.47 400.159 2775.46 400.159C2775.46 400.159 2775.45 400.159 2775.45 400.159C2775.45 400.159 2775.44 400.159 2775.44 400.159C2775.43 400.159 2775.43 400.159 2775.43 400.159C2775.42 400.159 2775.42 400.159 2775.41 400.159C2775.41 400.159 2775.4 400.159 2775.4 400.159C2775.4 400.159 2775.39 400.159 2775.39 400.159C2775.38 400.159 2775.38 400.159 2775.38 400.159C2775.37 400.159 2775.37 400.159 2775.36 400.159C2775.36 400.159 2775.35 400.159 2775.35 400.159C2775.35 400.159 2775.34 400.159 2775.34 400.159C2775.33 400.159 2775.33 400.159 2775.33 400.159C2775.32 400.159 2775.32 400.159 2775.31 400.159C2775.31 400.159 2775.3 400.159 2775.3 400.159C2775.3 400.159 2775.29 400.159 2775.29 400.159C2775.28 400.159 2775.28 400.159 2775.28 400.159C2775.27 400.159 2775.27 400.159 2775.26 400.159C2775.26 400.159 2775.25 400.159 2775.25 400.159C2775.25 400.159 2775.24 400.159 2775.24 400.159C2775.23 400.159 2775.23 400.159 2775.23 400.159C2775.22 400.159 2775.22 400.159 2775.21 400.159C2775.21 400.159 2775.2 400.159 2775.2 400.159C2775.2 400.159 2775.19 400.159 2775.19 400.159C2775.18 400.159 2775.18 400.159 2775.18 400.159C2775.17 400.159 2775.17 400.159 2775.16 400.159C2775.16 400.159 2775.15 400.159 2775.15 400.159C2775.15 400.159 2775.14 400.159 2775.14 400.159C2775.13 400.159 2775.13 400.159 2775.13 400.159C2775.12 400.159 2775.12 400.159 2775.11 400.159C2775.11 400.159 2775.1 400.159 2775.1 400.159C2775.1 400.159 2775.09 400.159 2775.09 400.159C2775.08 400.159 2775.08 400.159 2775.08 400.159C2775.07 400.159 2775.07 400.159 2775.06 400.159C2775.06 400.159 2775.05 400.159 2775.05 400.159C2775.05 400.159 2775.04 400.159 2775.04 400.159C2775.03 400.159 2775.03 400.159 2775.03 400.159C2775.02 400.159 2775.02 400.159 2775.01 400.159C2775.01 400.159 2775 400.159 2775 400.159C2775 400.159 2774.99 400.159 2774.99 400.159C2774.98 400.159 2774.98 400.159 2774.98 400.159C2774.97 400.159 2774.97 400.159 2774.96 400.159C2774.96 400.159 2774.95 400.159 2774.95 400.159C2774.95 400.159 2774.94 400.159 2774.94 400.159C2774.93 400.159 2774.93 400.159 2774.93 400.159C2774.92 400.159 2774.92 400.159 2774.91 400.159C2774.91 400.159 2774.9 400.159 2774.9 400.159C2774.9 400.159 2774.89 400.159 2774.89 400.159C2774.88 400.159 2774.88 400.159 2774.88 400.159C2774.87 400.159 2774.87 400.159 2774.86 400.159C2774.86 400.159 2774.85 400.159 2774.85 400.159C2774.85 400.159 2774.84 400.159 2774.84 400.159C2774.83 400.159 2774.83 400.159 2774.82 400.159C2774.82 400.159 2774.82 400.159 2774.81 400.159C2774.81 400.159 2774.8 400.159 2774.8 400.159C2774.8 400.159 2774.79 400.159 2774.79 400.159C2774.78 400.159 2774.78 400.159 2774.77 400.159C2774.77 400.159 2774.77 400.159 2774.76 400.159C2774.76 400.159 2774.75 400.159 2774.75 400.159C2774.75 400.159 2774.74 400.159 2774.74 400.159C2774.73 400.159 2774.73 400.159 2774.72 400.159C2774.72 400.159 2774.72 400.159 2774.71 400.159C2774.71 400.159 2774.7 400.159 2774.7 400.159C2774.7 400.159 2774.69 400.159 2774.69 400.159C2774.68 400.159 2774.68 400.159 2774.67 400.159C2774.67 400.159 2774.67 400.159 2774.66 400.159C2774.66 400.159 2774.65 400.159 2774.65 400.159C2774.64 400.159 2774.64 400.159 2774.64 400.159C2774.63 400.159 2774.63 400.159 2774.62 400.159C2774.62 400.159 2774.62 400.159 2774.61 400.159C2774.61 400.159 2774.6 400.159 2774.6 400.159C2774.59 400.159 2774.59 400.159 2774.59 400.159C2774.58 400.159 2774.58 400.159 2774.57 400.159C2774.57 400.159 2774.56 400.159 2774.56 400.159C2774.56 400.159 2774.55 400.159 2774.55 400.159C2774.54 400.159 2774.54 400.159 2774.54 400.159C2774.53 400.159 2774.53 400.159 2774.52 400.159C2774.52 400.159 2774.51 400.159 2774.51 400.159C2774.51 400.159 2774.5 400.159 2774.5 400.159C2774.49 400.159 2774.49 400.159 2774.49 400.159C2774.48 400.159 2774.48 400.159 2774.47 400.159C2774.47 400.159 2774.46 400.159 2774.46 400.159C2774.46 400.159 2774.45 400.159 2774.45 400.159C2774.44 400.159 2774.44 400.159 2774.43 400.159C2774.43 400.159 2774.43 400.159 2774.42 400.159C2774.42 400.159 2774.41 400.159 2774.41 400.159C2774.41 400.159 2774.4 400.159 2774.4 400.159C2774.39 400.159 2774.39 400.159 2774.38 400.159C2774.38 400.159 2774.38 400.159 2774.37 400.159C2774.37 400.159 2774.36 400.159 2774.36 400.159C2774.35 400.159 2774.35 400.159 2774.35 400.159C2774.34 400.159 2774.34 400.159 2774.33 400.159C2774.33 400.159 2774.33 400.159 2774.32 400.159C2774.32 400.159 2774.31 400.159 2774.31 400.159C2774.3 400.159 2774.3 400.159 2774.3 400.159C2774.29 400.159 2774.29 400.159 2774.28 400.159C2774.28 400.159 2774.27 400.159 2774.27 400.159C2774.27 400.159 2774.26 400.159 2774.26 400.159C2774.25 400.159 2774.25 400.159 2774.24 400.159C2774.24 400.159 2774.24 400.159 2774.23 400.159C2774.23 400.159 2774.22 400.159 2774.22 400.159C2774.22 400.159 2774.21 400.159 2774.21 400.159C2774.2 400.159 2774.2 400.159 2774.19 400.159C2774.19 400.159 2774.19 400.159 2774.18 400.159C2774.18 400.159 2774.17 400.159 2774.17 400.159C2774.16 400.159 2774.16 400.159 2774.16 400.159C2774.15 400.159 2774.15 400.159 2774.14 400.159C2774.14 400.159 2774.14 400.159 2774.13 400.159C2774.13 400.159 2774.12 400.159 2774.12 400.159C2774.11 400.159 2774.11 400.159 2774.11 400.159C2774.1 400.159 2774.1 400.159 2774.09 400.159C2774.09 400.159 2774.08 400.159 2774.08 400.159C2774.08 400.159 2774.07 400.159 2774.07 400.159C2774.06 400.159 2774.06 400.159 2774.05 400.159C2774.05 400.159 2774.05 400.159 2774.04 400.159C2774.04 400.159 2774.03 400.159 2774.03 400.159C2774.03 400.159 2774.02 400.159 2774.02 400.159C2774.01 400.159 2774.01 400.159 2774 400.159C2774 400.159 2774 400.159 2773.99 400.159C2773.99 400.159 2773.98 400.159 2773.98 400.159C2773.97 400.159 2773.97 400.159 2773.97 400.159C2773.96 400.159 2773.96 400.159 2773.95 400.159C2773.95 400.159 2773.94 400.159 2773.94 400.159C2773.94 400.159 2773.93 400.159 2773.93 400.159C2773.92 400.159 2773.92 400.159 2773.92 400.159C2773.91 400.159 2773.91 400.159 2773.9 400.159C2773.9 400.159 2773.89 400.159 2773.89 400.159C2773.89 400.159 2773.88 400.159 2773.88 400.159C2773.87 400.159 2773.87 400.159 2773.86 400.159V406.159V412.159C2773.87 412.159 2773.87 412.159 2773.88 412.159C2773.88 412.159 2773.89 412.159 2773.89 412.159C2773.89 412.159 2773.9 412.159 2773.9 412.159C2773.91 412.159 2773.91 412.159 2773.92 412.159C2773.92 412.159 2773.92 412.159 2773.93 412.159C2773.93 412.159 2773.94 412.159 2773.94 412.159C2773.94 412.159 2773.95 412.159 2773.95 412.159C2773.96 412.159 2773.96 412.159 2773.97 412.159C2773.97 412.159 2773.97 412.159 2773.98 412.159C2773.98 412.159 2773.99 412.159 2773.99 412.159C2774 412.159 2774 412.159 2774 412.159C2774.01 412.159 2774.01 412.159 2774.02 412.159C2774.02 412.159 2774.03 412.159 2774.03 412.159C2774.03 412.159 2774.04 412.159 2774.04 412.159C2774.05 412.159 2774.05 412.159 2774.05 412.159C2774.06 412.159 2774.06 412.159 2774.07 412.159C2774.07 412.159 2774.08 412.159 2774.08 412.159C2774.08 412.159 2774.09 412.159 2774.09 412.159C2774.1 412.159 2774.1 412.159 2774.11 412.159C2774.11 412.159 2774.11 412.159 2774.12 412.159C2774.12 412.159 2774.13 412.159 2774.13 412.159C2774.14 412.159 2774.14 412.159 2774.14 412.159C2774.15 412.159 2774.15 412.159 2774.16 412.159C2774.16 412.159 2774.16 412.159 2774.17 412.159C2774.17 412.159 2774.18 412.159 2774.18 412.159C2774.19 412.159 2774.19 412.159 2774.19 412.159C2774.2 412.159 2774.2 412.159 2774.21 412.159C2774.21 412.159 2774.22 412.159 2774.22 412.159C2774.22 412.159 2774.23 412.159 2774.23 412.159C2774.24 412.159 2774.24 412.159 2774.24 412.159C2774.25 412.159 2774.25 412.159 2774.26 412.159C2774.26 412.159 2774.27 412.159 2774.27 412.159C2774.27 412.159 2774.28 412.159 2774.28 412.159C2774.29 412.159 2774.29 412.159 2774.3 412.159C2774.3 412.159 2774.3 412.159 2774.31 412.159C2774.31 412.159 2774.32 412.159 2774.32 412.159C2774.33 412.159 2774.33 412.159 2774.33 412.159C2774.34 412.159 2774.34 412.159 2774.35 412.159C2774.35 412.159 2774.35 412.159 2774.36 412.159C2774.36 412.159 2774.37 412.159 2774.37 412.159C2774.38 412.159 2774.38 412.159 2774.38 412.159C2774.39 412.159 2774.39 412.159 2774.4 412.159C2774.4 412.159 2774.41 412.159 2774.41 412.159C2774.41 412.159 2774.42 412.159 2774.42 412.159C2774.43 412.159 2774.43 412.159 2774.43 412.159C2774.44 412.159 2774.44 412.159 2774.45 412.159C2774.45 412.159 2774.46 412.159 2774.46 412.159C2774.46 412.159 2774.47 412.159 2774.47 412.159C2774.48 412.159 2774.48 412.159 2774.49 412.159C2774.49 412.159 2774.49 412.159 2774.5 412.159C2774.5 412.159 2774.51 412.159 2774.51 412.159C2774.51 412.159 2774.52 412.159 2774.52 412.159C2774.53 412.159 2774.53 412.159 2774.54 412.159C2774.54 412.159 2774.54 412.159 2774.55 412.159C2774.55 412.159 2774.56 412.159 2774.56 412.159C2774.56 412.159 2774.57 412.159 2774.57 412.159C2774.58 412.159 2774.58 412.159 2774.59 412.159C2774.59 412.159 2774.59 412.159 2774.6 412.159C2774.6 412.159 2774.61 412.159 2774.61 412.159C2774.62 412.159 2774.62 412.159 2774.62 412.159C2774.63 412.159 2774.63 412.159 2774.64 412.159C2774.64 412.159 2774.64 412.159 2774.65 412.159C2774.65 412.159 2774.66 412.159 2774.66 412.159C2774.67 412.159 2774.67 412.159 2774.67 412.159C2774.68 412.159 2774.68 412.159 2774.69 412.159C2774.69 412.159 2774.7 412.159 2774.7 412.159C2774.7 412.159 2774.71 412.159 2774.71 412.159C2774.72 412.159 2774.72 412.159 2774.72 412.159C2774.73 412.159 2774.73 412.159 2774.74 412.159C2774.74 412.159 2774.75 412.159 2774.75 412.159C2774.75 412.159 2774.76 412.159 2774.76 412.159C2774.77 412.159 2774.77 412.159 2774.77 412.159C2774.78 412.159 2774.78 412.159 2774.79 412.159C2774.79 412.159 2774.8 412.159 2774.8 412.159C2774.8 412.159 2774.81 412.159 2774.81 412.159C2774.82 412.159 2774.82 412.159 2774.82 412.159C2774.83 412.159 2774.83 412.159 2774.84 412.159C2774.84 412.159 2774.85 412.159 2774.85 412.159C2774.85 412.159 2774.86 412.159 2774.86 412.159C2774.87 412.159 2774.87 412.159 2774.88 412.159C2774.88 412.159 2774.88 412.159 2774.89 412.159C2774.89 412.159 2774.9 412.159 2774.9 412.159C2774.9 412.159 2774.91 412.159 2774.91 412.159C2774.92 412.159 2774.92 412.159 2774.93 412.159C2774.93 412.159 2774.93 412.159 2774.94 412.159C2774.94 412.159 2774.95 412.159 2774.95 412.159C2774.95 412.159 2774.96 412.159 2774.96 412.159C2774.97 412.159 2774.97 412.159 2774.98 412.159C2774.98 412.159 2774.98 412.159 2774.99 412.159C2774.99 412.159 2775 412.159 2775 412.159C2775 412.159 2775.01 412.159 2775.01 412.159C2775.02 412.159 2775.02 412.159 2775.03 412.159C2775.03 412.159 2775.03 412.159 2775.04 412.159C2775.04 412.159 2775.05 412.159 2775.05 412.159C2775.05 412.159 2775.06 412.159 2775.06 412.159C2775.07 412.159 2775.07 412.159 2775.08 412.159C2775.08 412.159 2775.08 412.159 2775.09 412.159C2775.09 412.159 2775.1 412.159 2775.1 412.159C2775.1 412.159 2775.11 412.159 2775.11 412.159C2775.12 412.159 2775.12 412.159 2775.13 412.159C2775.13 412.159 2775.13 412.159 2775.14 412.159C2775.14 412.159 2775.15 412.159 2775.15 412.159C2775.15 412.159 2775.16 412.159 2775.16 412.159C2775.17 412.159 2775.17 412.159 2775.18 412.159C2775.18 412.159 2775.18 412.159 2775.19 412.159C2775.19 412.159 2775.2 412.159 2775.2 412.159C2775.2 412.159 2775.21 412.159 2775.21 412.159C2775.22 412.159 2775.22 412.159 2775.23 412.159C2775.23 412.159 2775.23 412.159 2775.24 412.159C2775.24 412.159 2775.25 412.159 2775.25 412.159C2775.25 412.159 2775.26 412.159 2775.26 412.159C2775.27 412.159 2775.27 412.159 2775.28 412.159C2775.28 412.159 2775.28 412.159 2775.29 412.159C2775.29 412.159 2775.3 412.159 2775.3 412.159C2775.3 412.159 2775.31 412.159 2775.31 412.159C2775.32 412.159 2775.32 412.159 2775.33 412.159C2775.33 412.159 2775.33 412.159 2775.34 412.159C2775.34 412.159 2775.35 412.159 2775.35 412.159C2775.35 412.159 2775.36 412.159 2775.36 412.159C2775.37 412.159 2775.37 412.159 2775.38 412.159C2775.38 412.159 2775.38 412.159 2775.39 412.159C2775.39 412.159 2775.4 412.159 2775.4 412.159C2775.4 412.159 2775.41 412.159 2775.41 412.159C2775.42 412.159 2775.42 412.159 2775.43 412.159C2775.43 412.159 2775.43 412.159 2775.44 412.159C2775.44 412.159 2775.45 412.159 2775.45 412.159C2775.45 412.159 2775.46 412.159 2775.46 412.159C2775.47 412.159 2775.47 412.159 2775.47 412.159C2775.48 412.159 2775.48 412.159 2775.49 412.159C2775.49 412.159 2775.5 412.159 2775.5 412.159C2775.5 412.159 2775.51 412.159 2775.51 412.159C2775.52 412.159 2775.52 412.159 2775.52 412.159C2775.53 412.159 2775.53 412.159 2775.54 412.159C2775.54 412.159 2775.55 412.159 2775.55 412.159C2775.55 412.159 2775.56 412.159 2775.56 412.159C2775.57 412.159 2775.57 412.159 2775.57 412.159C2775.58 412.159 2775.58 412.159 2775.59 412.159C2775.59 412.159 2775.6 412.159 2775.6 412.159C2775.6 412.159 2775.61 412.159 2775.61 412.159C2775.62 412.159 2775.62 412.159 2775.62 412.159C2775.63 412.159 2775.63 412.159 2775.64 412.159C2775.64 412.159 2775.64 412.159 2775.65 412.159C2775.65 412.159 2775.66 412.159 2775.66 412.159C2775.67 412.159 2775.67 412.159 2775.67 412.159C2775.68 412.159 2775.68 412.159 2775.69 412.159C2775.69 412.159 2775.69 412.159 2775.7 412.159C2775.7 412.159 2775.71 412.159 2775.71 412.159C2775.72 412.159 2775.72 412.159 2775.72 412.159C2775.73 412.159 2775.73 412.159 2775.74 412.159C2775.74 412.159 2775.74 412.159 2775.75 412.159C2775.75 412.159 2775.76 412.159 2775.76 412.159C2775.76 412.159 2775.77 412.159 2775.77 412.159C2775.78 412.159 2775.78 412.159 2775.79 412.159C2775.79 412.159 2775.79 412.159 2775.8 412.159C2775.8 412.159 2775.81 412.159 2775.81 412.159C2775.81 412.159 2775.82 412.159 2775.82 412.159C2775.83 412.159 2775.83 412.159 2775.83 412.159C2775.84 412.159 2775.84 412.159 2775.85 412.159C2775.85 412.159 2775.86 412.159 2775.86 412.159C2775.86 412.159 2775.87 412.159 2775.87 412.159C2775.88 412.159 2775.88 412.159 2775.88 412.159C2775.89 412.159 2775.89 412.159 2775.9 412.159C2775.9 412.159 2775.91 412.159 2775.91 412.159C2775.91 412.159 2775.92 412.159 2775.92 412.159C2775.93 412.159 2775.93 412.159 2775.93 412.159C2775.94 412.159 2775.94 412.159 2775.95 412.159C2775.95 412.159 2775.95 412.159 2775.96 412.159C2775.96 412.159 2775.97 412.159 2775.97 412.159C2775.98 412.159 2775.98 412.159 2775.98 412.159C2775.99 412.159 2775.99 412.159 2776 412.159C2776 412.159 2776 412.159 2776.01 412.159C2776.01 412.159 2776.02 412.159 2776.02 412.159C2776.02 412.159 2776.03 412.159 2776.03 412.159C2776.04 412.159 2776.04 412.159 2776.05 412.159C2776.05 412.159 2776.05 412.159 2776.06 412.159C2776.06 412.159 2776.07 412.159 2776.07 412.159C2776.07 412.159 2776.08 412.159 2776.08 412.159C2776.09 412.159 2776.09 412.159 2776.09 412.159C2776.1 412.159 2776.1 412.159 2776.11 412.159C2776.11 412.159 2776.12 412.159 2776.12 412.159C2776.12 412.159 2776.13 412.159 2776.13 412.159C2776.14 412.159 2776.14 412.159 2776.14 412.159C2776.15 412.159 2776.15 412.159 2776.16 412.159C2776.16 412.159 2776.16 412.159 2776.17 412.159C2776.17 412.159 2776.18 412.159 2776.18 412.159C2776.18 412.159 2776.19 412.159 2776.19 412.159C2776.2 412.159 2776.2 412.159 2776.21 412.159C2776.21 412.159 2776.21 412.159 2776.22 412.159C2776.22 412.159 2776.23 412.159 2776.23 412.159C2776.23 412.159 2776.24 412.159 2776.24 412.159C2776.25 412.159 2776.25 412.159 2776.25 412.159C2776.26 412.159 2776.26 412.159 2776.27 412.159C2776.27 412.159 2776.28 412.159 2776.28 412.159C2776.28 412.159 2776.29 412.159 2776.29 412.159C2776.3 412.159 2776.3 412.159 2776.3 412.159C2776.31 412.159 2776.31 412.159 2776.32 412.159C2776.32 412.159 2776.32 412.159 2776.33 412.159C2776.33 412.159 2776.34 412.159 2776.34 412.159C2776.34 412.159 2776.35 412.159 2776.35 412.159C2776.36 412.159 2776.36 412.159 2776.37 412.159C2776.37 412.159 2776.37 412.159 2776.38 412.159C2776.38 412.159 2776.39 412.159 2776.39 412.159C2776.39 412.159 2776.4 412.159 2776.4 412.159C2776.41 412.159 2776.41 412.159 2776.41 412.159C2776.42 412.159 2776.42 412.159 2776.43 412.159C2776.43 412.159 2776.44 412.159 2776.44 412.159C2776.44 412.159 2776.45 412.159 2776.45 412.159C2776.46 412.159 2776.46 412.159 2776.46 412.159C2776.47 412.159 2776.47 412.159 2776.48 412.159C2776.48 412.159 2776.48 412.159 2776.49 412.159C2776.49 412.159 2776.5 412.159 2776.5 412.159C2776.5 412.159 2776.51 412.159 2776.51 412.159C2776.52 412.159 2776.52 412.159 2776.53 412.159C2776.53 412.159 2776.53 412.159 2776.54 412.159C2776.54 412.159 2776.55 412.159 2776.55 412.159C2776.55 412.159 2776.56 412.159 2776.56 412.159C2776.57 412.159 2776.57 412.159 2776.57 412.159C2776.58 412.159 2776.58 412.159 2776.59 412.159C2776.59 412.159 2776.59 412.159 2776.6 412.159C2776.6 412.159 2776.61 412.159 2776.61 412.159C2776.61 412.159 2776.62 412.159 2776.62 412.159C2776.63 412.159 2776.63 412.159 2776.64 412.159C2776.64 412.159 2776.64 412.159 2776.65 412.159C2776.65 412.159 2776.66 412.159 2776.66 412.159C2776.66 412.159 2776.67 412.159 2776.67 412.159C2776.68 412.159 2776.68 412.159 2776.68 412.159C2776.69 412.159 2776.69 412.159 2776.7 412.159C2776.7 412.159 2776.7 412.159 2776.71 412.159C2776.71 412.159 2776.72 412.159 2776.72 412.159C2776.72 412.159 2776.73 412.159 2776.73 412.159C2776.74 412.159 2776.74 412.159 2776.75 412.159C2776.75 412.159 2776.75 412.159 2776.76 412.159C2776.76 412.159 2776.77 412.159 2776.77 412.159C2776.77 412.159 2776.78 412.159 2776.78 412.159C2776.79 412.159 2776.79 412.159 2776.79 412.159C2776.8 412.159 2776.8 412.159 2776.81 412.159C2776.81 412.159 2776.81 412.159 2776.82 412.159C2776.82 412.159 2776.83 412.159 2776.83 412.159C2776.83 412.159 2776.84 412.159 2776.84 412.159C2776.85 412.159 2776.85 412.159 2776.86 412.159C2776.86 412.159 2776.86 412.159 2776.87 412.159C2776.87 412.159 2776.88 412.159 2776.88 412.159C2776.88 412.159 2776.89 412.159 2776.89 412.159C2776.9 412.159 2776.9 412.159 2776.9 412.159C2776.91 412.159 2776.91 412.159 2776.92 412.159C2776.92 412.159 2776.92 412.159 2776.93 412.159C2776.93 412.159 2776.94 412.159 2776.94 412.159C2776.94 412.159 2776.95 412.159 2776.95 412.159C2776.96 412.159 2776.96 412.159 2776.97 412.159C2776.97 412.159 2776.97 412.159 2776.98 412.159C2776.98 412.159 2776.99 412.159 2776.99 412.159C2776.99 412.159 2777 412.159 2777 412.159C2777.01 412.159 2777.01 412.159 2777.01 412.159C2777.02 412.159 2777.02 412.159 2777.03 412.159C2777.03 412.159 2777.03 412.159 2777.04 412.159C2777.04 412.159 2777.05 412.159 2777.05 412.159C2777.05 412.159 2777.06 412.159 2777.06 412.159C2777.07 412.159 2777.07 412.159 2777.07 412.159C2777.08 412.159 2777.08 412.159 2777.09 412.159C2777.09 412.159 2777.09 412.159 2777.1 412.159C2777.1 412.159 2777.11 412.159 2777.11 412.159C2777.12 412.159 2777.12 412.159 2777.12 412.159C2777.13 412.159 2777.13 412.159 2777.14 412.159C2777.14 412.159 2777.14 412.159 2777.15 412.159C2777.15 412.159 2777.16 412.159 2777.16 412.159C2777.16 412.159 2777.17 412.159 2777.17 412.159C2777.18 412.159 2777.18 412.159 2777.18 412.159C2777.19 412.159 2777.19 412.159 2777.2 412.159C2777.2 412.159 2777.2 412.159 2777.21 412.159C2777.21 412.159 2777.22 412.159 2777.22 412.159C2777.22 412.159 2777.23 412.159 2777.23 412.159C2777.24 412.159 2777.24 412.159 2777.24 412.159C2777.25 412.159 2777.25 412.159 2777.26 412.159C2777.26 412.159 2777.26 412.159 2777.27 412.159C2777.27 412.159 2777.28 412.159 2777.28 412.159C2777.29 412.159 2777.29 412.159 2777.29 412.159C2777.3 412.159 2777.3 412.159 2777.31 412.159C2777.31 412.159 2777.31 412.159 2777.32 412.159C2777.32 412.159 2777.33 412.159 2777.33 412.159C2777.33 412.159 2777.34 412.159 2777.34 412.159C2777.35 412.159 2777.35 412.159 2777.35 412.159C2777.36 412.159 2777.36 412.159 2777.37 412.159C2777.37 412.159 2777.37 412.159 2777.38 412.159C2777.38 412.159 2777.39 412.159 2777.39 412.159C2777.39 412.159 2777.4 412.159 2777.4 412.159C2777.41 412.159 2777.41 412.159 2777.41 412.159C2777.42 412.159 2777.42 412.159 2777.43 412.159C2777.43 412.159 2777.43 412.159 2777.44 412.159C2777.44 412.159 2777.45 412.159 2777.45 412.159C2777.45 412.159 2777.46 412.159 2777.46 412.159C2777.47 412.159 2777.47 412.159 2777.47 412.159C2777.48 412.159 2777.48 412.159 2777.49 412.159C2777.49 412.159 2777.49 412.159 2777.5 412.159C2777.5 412.159 2777.51 412.159 2777.51 412.159C2777.52 412.159 2777.52 412.159 2777.52 412.159C2777.53 412.159 2777.53 412.159 2777.54 412.159C2777.54 412.159 2777.54 412.159 2777.55 412.159C2777.55 412.159 2777.56 412.159 2777.56 412.159C2777.56 412.159 2777.57 412.159 2777.57 412.159C2777.58 412.159 2777.58 412.159 2777.58 412.159C2777.59 412.159 2777.59 412.159 2777.6 412.159C2777.6 412.159 2777.6 412.159 2777.61 412.159C2777.61 412.159 2777.62 412.159 2777.62 412.159C2777.62 412.159 2777.63 412.159 2777.63 412.159C2777.64 412.159 2777.64 412.159 2777.64 412.159C2777.65 412.159 2777.65 412.159 2777.66 412.159C2777.66 412.159 2777.66 412.159 2777.67 412.159C2777.67 412.159 2777.68 412.159 2777.68 412.159C2777.68 412.159 2777.69 412.159 2777.69 412.159C2777.7 412.159 2777.7 412.159 2777.7 412.159C2777.71 412.159 2777.71 412.159 2777.72 412.159C2777.72 412.159 2777.72 412.159 2777.73 412.159C2777.73 412.159 2777.74 412.159 2777.74 412.159C2777.74 412.159 2777.75 412.159 2777.75 412.159C2777.76 412.159 2777.76 412.159 2777.76 412.159C2777.77 412.159 2777.77 412.159 2777.78 412.159C2777.78 412.159 2777.78 412.159 2777.79 412.159C2777.79 412.159 2777.8 412.159 2777.8 412.159C2777.8 412.159 2777.81 412.159 2777.81 412.159C2777.82 412.159 2777.82 412.159 2777.82 412.159C2777.83 412.159 2777.83 412.159 2777.84 412.159C2777.84 412.159 2777.84 412.159 2777.85 412.159C2777.85 412.159 2777.86 412.159 2777.86 412.159C2777.86 412.159 2777.87 412.159 2777.87 412.159C2777.88 412.159 2777.88 412.159 2777.88 412.159C2777.89 412.159 2777.89 412.159 2777.9 412.159C2777.9 412.159 2777.9 412.159 2777.91 412.159C2777.91 412.159 2777.92 412.159 2777.92 412.159C2777.92 412.159 2777.93 412.159 2777.93 412.159C2777.94 412.159 2777.94 412.159 2777.94 412.159C2777.95 412.159 2777.95 412.159 2777.96 412.159C2777.96 412.159 2777.96 412.159 2777.97 412.159C2777.97 412.159 2777.98 412.159 2777.98 412.159C2777.98 412.159 2777.99 412.159 2777.99 412.159C2778 412.159 2778 412.159 2778 412.159C2778.01 412.159 2778.01 412.159 2778.02 412.159C2778.02 412.159 2778.02 412.159 2778.03 412.159C2778.03 412.159 2778.04 412.159 2778.04 412.159C2778.04 412.159 2778.05 412.159 2778.05 412.159C2778.06 412.159 2778.06 412.159 2778.06 412.159C2778.07 412.159 2778.07 412.159 2778.08 412.159C2778.08 412.159 2778.08 412.159 2778.09 412.159C2778.09 412.159 2778.1 412.159 2778.1 412.159C2778.1 412.159 2778.11 412.159 2778.11 412.159C2778.12 412.159 2778.12 412.159 2778.12 412.159C2778.13 412.159 2778.13 412.159 2778.14 412.159C2778.14 412.159 2778.14 412.159 2778.15 412.159C2778.15 412.159 2778.16 412.159 2778.16 412.159C2778.16 412.159 2778.17 412.159 2778.17 412.159C2778.18 412.159 2778.18 412.159 2778.18 412.159C2778.19 412.159 2778.19 412.159 2778.2 412.159C2778.2 412.159 2778.2 412.159 2778.21 412.159C2778.21 412.159 2778.22 412.159 2778.22 412.159C2778.22 412.159 2778.23 412.159 2778.23 412.159C2778.24 412.159 2778.24 412.159 2778.24 412.159C2778.25 412.159 2778.25 412.159 2778.26 412.159C2778.26 412.159 2778.26 412.159 2778.27 412.159C2778.27 412.159 2778.28 412.159 2778.28 412.159C2778.28 412.159 2778.29 412.159 2778.29 412.159C2778.3 412.159 2778.3 412.159 2778.3 412.159C2778.31 412.159 2778.31 412.159 2778.32 412.159C2778.32 412.159 2778.32 412.159 2778.33 412.159C2778.33 412.159 2778.34 412.159 2778.34 412.159C2778.34 412.159 2778.35 412.159 2778.35 412.159C2778.36 412.159 2778.36 412.159 2778.36 412.159C2778.37 412.159 2778.37 412.159 2778.38 412.159C2778.38 412.159 2778.38 412.159 2778.39 412.159C2778.39 412.159 2778.4 412.159 2778.4 412.159C2778.4 412.159 2778.41 412.159 2778.41 412.159C2778.42 412.159 2778.42 412.159 2778.42 412.159C2778.43 412.159 2778.43 412.159 2778.44 412.159C2778.44 412.159 2778.44 412.159 2778.45 412.159C2778.45 412.159 2778.46 412.159 2778.46 412.159C2778.46 412.159 2778.47 412.159 2778.47 412.159C2778.48 412.159 2778.48 412.159 2778.48 412.159C2778.49 412.159 2778.49 412.159 2778.49 412.159C2778.5 412.159 2778.5 412.159 2778.51 412.159C2778.51 412.159 2778.51 412.159 2778.52 412.159C2778.52 412.159 2778.53 412.159 2778.53 412.159C2778.53 412.159 2778.54 412.159 2778.54 412.159C2778.55 412.159 2778.55 412.159 2778.55 412.159C2778.56 412.159 2778.56 412.159 2778.57 412.159C2778.57 412.159 2778.57 412.159 2778.58 412.159C2778.58 412.159 2778.59 412.159 2778.59 412.159C2778.59 412.159 2778.6 412.159 2778.6 412.159C2778.61 412.159 2778.61 412.159 2778.61 412.159C2778.62 412.159 2778.62 412.159 2778.63 412.159C2778.63 412.159 2778.63 412.159 2778.64 412.159C2778.64 412.159 2778.65 412.159 2778.65 412.159C2778.65 412.159 2778.66 412.159 2778.66 412.159C2778.67 412.159 2778.67 412.159 2778.67 412.159C2778.68 412.159 2778.68 412.159 2778.69 412.159C2778.69 412.159 2778.69 412.159 2778.7 412.159C2778.7 412.159 2778.71 412.159 2778.71 412.159C2778.71 412.159 2778.72 412.159 2778.72 412.159C2778.72 412.159 2778.73 412.159 2778.73 412.159C2778.74 412.159 2778.74 412.159 2778.74 412.159C2778.75 412.159 2778.75 412.159 2778.76 412.159C2778.76 412.159 2778.76 412.159 2778.77 412.159C2778.77 412.159 2778.78 412.159 2778.78 412.159C2778.78 412.159 2778.79 412.159 2778.79 412.159C2778.8 412.159 2778.8 412.159 2778.8 412.159C2778.81 412.159 2778.81 412.159 2778.82 412.159C2778.82 412.159 2778.82 412.159 2778.83 412.159C2778.83 412.159 2778.84 412.159 2778.84 412.159C2778.84 412.159 2778.85 412.159 2778.85 412.159C2778.86 412.159 2778.86 412.159 2778.86 412.159C2778.87 412.159 2778.87 412.159 2778.88 412.159C2778.88 412.159 2778.88 412.159 2778.89 412.159C2778.89 412.159 2778.89 412.159 2778.9 412.159C2778.9 412.159 2778.91 412.159 2778.91 412.159C2778.91 412.159 2778.92 412.159 2778.92 412.159C2778.93 412.159 2778.93 412.159 2778.93 412.159C2778.94 412.159 2778.94 412.159 2778.95 412.159C2778.95 412.159 2778.95 412.159 2778.96 412.159C2778.96 412.159 2778.97 412.159 2778.97 412.159C2778.97 412.159 2778.98 412.159 2778.98 412.159C2778.99 412.159 2778.99 412.159 2778.99 412.159C2779 412.159 2779 412.159 2779.01 412.159C2779.01 412.159 2779.01 412.159 2779.02 412.159C2779.02 412.159 2779.02 412.159 2779.03 412.159C2779.03 412.159 2779.04 412.159 2779.04 412.159C2779.04 412.159 2779.05 412.159 2779.05 412.159C2779.06 412.159 2779.06 412.159 2779.06 412.159C2779.07 412.159 2779.07 412.159 2779.08 412.159C2779.08 412.159 2779.08 412.159 2779.09 412.159C2779.09 412.159 2779.1 412.159 2779.1 412.159C2779.1 412.159 2779.11 412.159 2779.11 412.159C2779.12 412.159 2779.12 412.159 2779.12 412.159C2779.13 412.159 2779.13 412.159 2779.14 412.159C2779.14 412.159 2779.14 412.159 2779.15 412.159C2779.15 412.159 2779.15 412.159 2779.16 412.159C2779.16 412.159 2779.17 412.159 2779.17 412.159C2779.17 412.159 2779.18 412.159 2779.18 412.159C2779.19 412.159 2779.19 412.159 2779.19 412.159C2779.2 412.159 2779.2 412.159 2779.21 412.159C2779.21 412.159 2779.21 412.159 2779.22 412.159C2779.22 412.159 2779.23 412.159 2779.23 412.159C2779.23 412.159 2779.24 412.159 2779.24 412.159C2779.24 412.159 2779.25 412.159 2779.25 412.159C2779.26 412.159 2779.26 412.159 2779.26 412.159C2779.27 412.159 2779.27 412.159 2779.28 412.159C2779.28 412.159 2779.28 412.159 2779.29 412.159C2779.29 412.159 2779.3 412.159 2779.3 412.159C2779.3 412.159 2779.31 412.159 2779.31 412.159C2779.32 412.159 2779.32 412.159 2779.32 412.159C2779.33 412.159 2779.33 412.159 2779.34 412.159C2779.34 412.159 2779.34 412.159 2779.35 412.159C2779.35 412.159 2779.35 412.159 2779.36 412.159C2779.36 412.159 2779.37 412.159 2779.37 412.159C2779.37 412.159 2779.38 412.159 2779.38 412.159C2779.39 412.159 2779.39 412.159 2779.39 412.159C2779.4 412.159 2779.4 412.159 2779.41 412.159C2779.41 412.159 2779.41 412.159 2779.42 412.159C2779.42 412.159 2779.43 412.159 2779.43 412.159C2779.43 412.159 2779.44 412.159 2779.44 412.159C2779.44 412.159 2779.45 412.159 2779.45 412.159C2779.46 412.159 2779.46 412.159 2779.46 412.159C2779.47 412.159 2779.47 412.159 2779.48 412.159C2779.48 412.159 2779.48 412.159 2779.49 412.159C2779.49 412.159 2779.5 412.159 2779.5 412.159C2779.5 412.159 2779.51 412.159 2779.51 412.159C2779.52 412.159 2779.52 412.159 2779.52 412.159C2779.53 412.159 2779.53 412.159 2779.53 412.159C2779.54 412.159 2779.54 412.159 2779.55 412.159C2779.55 412.159 2779.55 412.159 2779.56 412.159C2779.56 412.159 2779.57 412.159 2779.57 412.159C2779.57 412.159 2779.58 412.159 2779.58 412.159C2779.59 412.159 2779.59 412.159 2779.59 412.159C2779.6 412.159 2779.6 412.159 2779.6 412.159C2779.61 412.159 2779.61 412.159 2779.62 412.159C2779.62 412.159 2779.62 412.159 2779.63 412.159C2779.63 412.159 2779.64 412.159 2779.64 412.159C2779.64 412.159 2779.65 412.159 2779.65 412.159C2779.66 412.159 2779.66 412.159 2779.66 412.159C2779.67 412.159 2779.67 412.159 2779.68 412.159C2779.68 412.159 2779.68 412.159 2779.69 412.159C2779.69 412.159 2779.69 412.159 2779.7 412.159C2779.7 412.159 2779.71 412.159 2779.71 412.159C2779.71 412.159 2779.72 412.159 2779.72 412.159C2779.73 412.159 2779.73 412.159 2779.73 412.159C2779.74 412.159 2779.74 412.159 2779.75 412.159C2779.75 412.159 2779.75 412.159 2779.76 412.159C2779.76 412.159 2779.76 412.159 2779.77 412.159C2779.77 412.159 2779.78 412.159 2779.78 412.159C2779.78 412.159 2779.79 412.159 2779.79 412.159C2779.8 412.159 2779.8 412.159 2779.8 412.159C2779.81 412.159 2779.81 412.159 2779.82 412.159C2779.82 412.159 2779.82 412.159 2779.83 412.159C2779.83 412.159 2779.83 412.159 2779.84 412.159C2779.84 412.159 2779.85 412.159 2779.85 412.159C2779.85 412.159 2779.86 412.159 2779.86 412.159C2779.87 412.159 2779.87 412.159 2779.87 412.159C2779.88 412.159 2779.88 412.159 2779.89 412.159C2779.89 412.159 2779.89 412.159 2779.9 412.159C2779.9 412.159 2779.9 412.159 2779.91 412.159C2779.91 412.159 2779.92 412.159 2779.92 412.159C2779.92 412.159 2779.93 412.159 2779.93 412.159C2779.94 412.159 2779.94 412.159 2779.94 412.159C2779.95 412.159 2779.95 412.159 2779.96 412.159C2779.96 412.159 2779.96 412.159 2779.97 412.159C2779.97 412.159 2779.97 412.159 2779.98 412.159C2779.98 412.159 2779.99 412.159 2779.99 412.159C2779.99 412.159 2780 412.159 2780 412.159C2780.01 412.159 2780.01 412.159 2780.01 412.159C2780.02 412.159 2780.02 412.159 2780.03 412.159C2780.03 412.159 2780.03 412.159 2780.04 412.159C2780.04 412.159 2780.04 412.159 2780.05 412.159C2780.05 412.159 2780.06 412.159 2780.06 412.159C2780.06 412.159 2780.07 412.159 2780.07 412.159C2780.08 412.159 2780.08 412.159 2780.08 412.159C2780.09 412.159 2780.09 412.159 2780.09 412.159V406.159ZM2773.86 406.159V400.159H2649.4V406.159V412.159H2773.86V406.159ZM2649.4 406.159H2643.4V494.094H2649.4H2655.4V406.159H2649.4ZM2649.4 494.094V488.094H2622.21V494.094V500.094H2649.4V494.094ZM2622.21 494.094H2628.21V276.594H2622.21H2616.21V494.094H2622.21ZM2649.4 382.653V388.653H2769.62V382.653V376.653H2649.4V382.653ZM2769.62 382.653V388.653C2785.85 388.653 2798.8 388.133 2808.38 387.058L2807.71 381.096L2807.04 375.133C2798.11 376.135 2785.67 376.653 2769.62 376.653V382.653ZM2807.71 381.096L2808.43 387.052C2818.04 385.887 2825.96 383.822 2831.44 380.366L2828.24 375.29L2825.04 370.214C2821.84 372.233 2816.07 374.039 2806.99 375.139L2807.71 381.096ZM2828.24 375.29L2831.39 380.396C2837.15 376.843 2840.96 371.661 2842.56 365.108L2836.74 363.679L2830.91 362.249C2830.06 365.703 2828.2 368.262 2825.09 370.184L2828.24 375.29ZM2836.74 363.679L2842.56 365.108C2843.95 359.458 2844.58 352.462 2844.58 344.279H2838.58H2832.58C2832.58 351.956 2831.98 357.893 2830.91 362.249L2836.74 363.679ZM2838.58 344.279H2844.58V338.615H2838.58H2832.58V344.279H2838.58ZM2838.58 338.615H2844.58C2844.58 329.365 2843.71 321.565 2841.73 315.509L2836.03 317.375L2830.32 319.241C2831.74 323.569 2832.58 329.929 2832.58 338.615H2838.58ZM2836.03 317.375L2841.73 315.509C2839.5 308.703 2834.95 303.634 2828.43 300.499L2825.83 305.905L2823.23 311.311C2826.91 313.085 2829.15 315.663 2830.32 319.241L2836.03 317.375ZM2825.83 305.905L2828.43 300.499C2822.3 297.545 2813.79 295.923 2803.43 295.245L2803.03 301.232L2802.64 307.22C2812.48 307.864 2819.17 309.357 2823.23 311.311L2825.83 305.905ZM2803.03 301.232L2803.48 295.249C2793.17 294.478 2779.5 294.1 2762.54 294.1V300.1V306.1C2779.37 306.1 2792.7 306.477 2802.59 307.216L2803.03 301.232ZM2762.54 300.1V294.1H2649.4V300.1V306.1H2762.54V300.1ZM2649.4 300.1H2643.4V382.653H2649.4H2655.4V300.1H2649.4ZM2917.31 494.094H2911.31V500.094H2917.31V494.094ZM2917.31 276.594V270.594H2911.31V276.594H2917.31ZM2944.49 276.594H2950.49V270.594H2944.49V276.594ZM2944.49 494.094V500.094H2950.49V494.094H2944.49ZM2917.31 494.094H2923.31V276.594H2917.31H2911.31V494.094H2917.31ZM2917.31 276.594V282.594H2944.49V276.594V270.594H2917.31V276.594ZM2944.49 276.594H2938.49V494.094H2944.49H2950.49V276.594H2944.49ZM2944.49 494.094V488.094H2917.31V494.094V500.094H2944.49V494.094ZM2999.44 494.094H2993.44V500.094H2999.44V494.094ZM2999.44 276.594V270.594H2993.44V276.594H2999.44ZM3039.93 276.594L3044.75 273.02L3042.95 270.594H3039.93V276.594ZM3171.48 454.021L3166.66 457.594L3171.52 464.144L3176.33 457.559L3171.48 454.021ZM3301.05 276.594V270.594H3298L3296.2 273.055L3301.05 276.594ZM3341.54 276.594H3347.54V270.594H3341.54V276.594ZM3341.54 494.094V500.094H3347.54V494.094H3341.54ZM3314.36 494.094H3308.36V500.094H3314.36V494.094ZM3314.36 301.232H3320.36V282.78L3309.5 297.704L3314.36 301.232ZM3184.51 479.792V485.792H3187.56L3189.36 483.321L3184.51 479.792ZM3159.87 479.792L3155.06 483.38L3156.86 485.792H3159.87V479.792ZM3026.62 301.232L3031.43 297.644L3020.62 283.16V301.232H3026.62ZM3026.62 494.094V500.094H3032.62V494.094H3026.62ZM2999.44 494.094H3005.44V276.594H2999.44H2993.44V494.094H2999.44ZM2999.44 276.594V282.594H3039.93V276.594V270.594H2999.44V276.594ZM3039.93 276.594L3035.11 280.167L3166.66 457.594L3171.48 454.021L3176.3 450.447L3044.75 273.02L3039.93 276.594ZM3171.48 454.021L3176.33 457.559L3305.89 280.132L3301.05 276.594L3296.2 273.055L3166.64 450.482L3171.48 454.021ZM3301.05 276.594V282.594H3341.54V276.594V270.594H3301.05V276.594ZM3341.54 276.594H3335.54V494.094H3341.54H3347.54V276.594H3341.54ZM3341.54 494.094V488.094H3314.36V494.094V500.094H3341.54V494.094ZM3314.36 494.094H3320.36V301.232H3314.36H3308.36V494.094H3314.36ZM3314.36 301.232L3309.5 297.704L3179.66 476.263L3184.51 479.792L3189.36 483.321L3319.21 304.761L3314.36 301.232ZM3184.51 479.792V473.792H3159.87V479.792V485.792H3184.51V479.792ZM3159.87 479.792L3164.68 476.204L3031.43 297.644L3026.62 301.232L3021.81 304.821L3155.06 483.38L3159.87 479.792ZM3026.62 301.232H3020.62V494.094H3026.62H3032.62V301.232H3026.62ZM3026.62 494.094V488.094H2999.44V494.094V500.094H3026.62V494.094Z" fill="black" mask="url(#path-1-outside-1_438_166)"/>
<path d="M1036.62 714.094V642.875H996.865V634.594H1086.3V642.875H1046.55V714.094H1036.62ZM1208.17 714.094V634.594H1286.22V642.875H1218.1V669.375H1283.37V677.656H1218.1V705.812H1287.67V714.094H1208.17ZM1404.66 675.379V673.309C1404.66 666.27 1405.01 660.369 1405.7 655.607C1406.39 650.811 1407.58 646.912 1409.27 643.91C1410.96 640.908 1413.25 638.614 1416.15 637.026C1419.09 635.439 1422.76 634.369 1427.18 633.817C1431.59 633.231 1436.91 632.938 1443.12 632.938H1463.98C1471.09 632.938 1477.07 633.283 1481.94 633.973C1486.84 634.628 1490.77 635.957 1493.74 637.958C1496.74 639.925 1498.91 642.84 1500.26 646.705C1501.61 650.535 1502.28 655.625 1502.28 661.974H1492.34C1492.34 656.97 1491.89 653.089 1490.99 650.328C1490.1 647.533 1488.58 645.515 1486.44 644.272C1484.34 643.03 1481.45 642.271 1477.8 641.995C1474.14 641.685 1469.53 641.529 1463.98 641.529H1443.12C1438.18 641.529 1434.03 641.685 1430.65 641.995C1427.26 642.271 1424.5 642.944 1422.36 644.014C1420.26 645.049 1418.64 646.705 1417.5 648.982C1416.39 651.26 1415.64 654.365 1415.22 658.299C1414.81 662.232 1414.6 667.236 1414.6 673.309V675.379C1414.6 681.245 1414.81 686.11 1415.22 689.975C1415.64 693.839 1416.39 696.927 1417.5 699.239C1418.64 701.551 1420.26 703.276 1422.36 704.415C1424.5 705.554 1427.26 706.296 1430.65 706.641C1434.03 706.986 1438.18 707.158 1443.12 707.158H1463.98C1469.53 707.158 1474.14 707.037 1477.8 706.796C1481.45 706.554 1484.34 705.847 1486.44 704.674C1488.58 703.501 1490.1 701.551 1490.99 698.825C1491.89 696.065 1492.34 692.2 1492.34 687.231H1502.28C1502.28 693.58 1501.61 698.653 1500.26 702.448C1498.91 706.244 1496.74 709.108 1493.74 711.04C1490.77 712.938 1486.84 714.197 1481.94 714.818C1477.07 715.439 1471.09 715.75 1463.98 715.75H1443.12C1435.36 715.75 1428.97 715.215 1423.97 714.146C1418.97 713.11 1415.05 711.178 1412.22 708.349C1409.42 705.519 1407.46 701.448 1406.32 696.134C1405.22 690.82 1404.66 683.902 1404.66 675.379ZM1626.31 714.094V634.594H1636.25V669.375H1709.13V634.594H1719.06V714.094H1709.13V677.656H1636.25V714.094H1626.31ZM1846.21 714.094V634.594H1856.56L1936.42 701.827H1936.52V634.594H1946.46V714.094H1936.11L1856.25 646.291H1856.14V714.094H1846.21ZM2108.59 715.75C2100.83 715.75 2094.44 715.215 2089.44 714.146C2084.44 713.11 2080.52 711.178 2077.69 708.349C2074.9 705.519 2072.93 701.448 2071.79 696.134C2070.69 690.82 2070.14 683.902 2070.14 675.379V673.309C2070.14 666.27 2070.48 660.369 2071.17 655.607C2071.86 650.811 2073.05 646.912 2074.74 643.91C2076.43 640.908 2078.73 638.614 2081.63 637.026C2084.56 635.439 2088.23 634.369 2092.65 633.817C2097.07 633.231 2102.38 632.938 2108.59 632.938H2129.45C2135.66 632.938 2140.98 633.231 2145.39 633.817C2149.81 634.369 2153.47 635.439 2156.36 637.026C2159.3 638.614 2161.61 640.908 2163.3 643.91C2164.99 646.912 2166.18 650.811 2166.87 655.607C2167.56 660.369 2167.91 666.27 2167.91 673.309V675.379C2167.91 683.902 2167.34 690.82 2166.2 696.134C2165.09 701.448 2163.13 705.519 2160.3 708.349C2157.5 711.178 2153.6 713.11 2148.6 714.146C2143.6 715.215 2137.21 715.75 2129.45 715.75H2108.59ZM2108.59 707.158H2129.45C2134.38 707.158 2138.54 706.986 2141.92 706.641C2145.31 706.296 2148.05 705.554 2150.15 704.415C2152.29 703.276 2153.91 701.551 2155.02 699.239C2156.16 696.927 2156.93 693.839 2157.35 689.975C2157.76 686.11 2157.97 681.245 2157.97 675.379V673.309C2157.97 667.236 2157.76 662.232 2157.35 658.299C2156.93 654.365 2156.16 651.26 2155.02 648.982C2153.91 646.705 2152.29 645.049 2150.15 644.014C2148.05 642.944 2145.31 642.271 2141.92 641.995C2138.54 641.685 2134.38 641.529 2129.45 641.529H2108.59C2103.66 641.529 2099.5 641.685 2096.12 641.995C2092.74 642.271 2089.98 642.944 2087.84 644.014C2085.73 645.049 2084.11 646.705 2082.97 648.982C2081.87 651.26 2081.11 654.365 2080.69 658.299C2080.28 662.232 2080.07 667.236 2080.07 673.309V675.379C2080.07 681.245 2080.28 686.11 2080.69 689.975C2081.11 693.839 2081.87 696.927 2082.97 699.239C2084.11 701.551 2085.73 703.276 2087.84 704.415C2089.98 705.554 2092.74 706.296 2096.12 706.641C2099.5 706.986 2103.66 707.158 2108.59 707.158ZM2291.58 714.094V634.594H2301.52V705.812H2364.46V714.094H2291.58ZM2519.91 715.75C2512.15 715.75 2505.76 715.215 2500.76 714.146C2495.76 713.11 2491.84 711.178 2489.01 708.349C2486.21 705.519 2484.25 701.448 2483.11 696.134C2482.01 690.82 2481.45 683.902 2481.45 675.379V673.309C2481.45 666.27 2481.8 660.369 2482.49 655.607C2483.18 650.811 2484.37 646.912 2486.06 643.91C2487.75 640.908 2490.04 638.614 2492.94 637.026C2495.88 635.439 2499.55 634.369 2503.97 633.817C2508.38 633.231 2513.7 632.938 2519.91 632.938H2540.77C2546.98 632.938 2552.29 633.231 2556.71 633.817C2561.13 634.369 2564.78 635.439 2567.68 637.026C2570.61 638.614 2572.93 640.908 2574.62 643.91C2576.31 646.912 2577.5 650.811 2578.19 655.607C2578.88 660.369 2579.22 666.27 2579.22 673.309V675.379C2579.22 683.902 2578.65 690.82 2577.52 696.134C2576.41 701.448 2574.44 705.519 2571.62 708.349C2568.82 711.178 2564.92 713.11 2559.92 714.146C2554.91 715.215 2548.53 715.75 2540.77 715.75H2519.91ZM2519.91 707.158H2540.77C2545.7 707.158 2549.86 706.986 2553.24 706.641C2556.62 706.296 2559.37 705.554 2561.47 704.415C2563.61 703.276 2565.23 701.551 2566.34 699.239C2567.47 696.927 2568.25 693.839 2568.67 689.975C2569.08 686.11 2569.29 681.245 2569.29 675.379V673.309C2569.29 667.236 2569.08 662.232 2568.67 658.299C2568.25 654.365 2567.47 651.26 2566.34 648.982C2565.23 646.705 2563.61 645.049 2561.47 644.014C2559.37 642.944 2556.62 642.271 2553.24 641.995C2549.86 641.685 2545.7 641.529 2540.77 641.529H2519.91C2514.97 641.529 2510.82 641.685 2507.44 641.995C2504.05 642.271 2501.29 642.944 2499.15 644.014C2497.05 645.049 2495.43 646.705 2494.29 648.982C2493.18 651.26 2492.43 654.365 2492.01 658.299C2491.6 662.232 2491.39 667.236 2491.39 673.309V675.379C2491.39 681.245 2491.6 686.11 2492.01 689.975C2492.43 693.839 2493.18 696.927 2494.29 699.239C2495.43 701.551 2497.05 703.276 2499.15 704.415C2501.29 705.554 2504.05 706.296 2507.44 706.641C2510.82 706.986 2514.97 707.158 2519.91 707.158ZM2699.59 675.379V673.309C2699.59 666.27 2699.93 660.369 2700.62 655.607C2701.31 650.811 2702.5 646.912 2704.19 643.91C2705.88 640.908 2708.18 638.614 2711.08 637.026C2714.01 635.439 2717.68 634.369 2722.1 633.817C2726.52 633.231 2731.83 632.938 2738.04 632.938H2757.5C2765.65 632.938 2772.25 633.248 2777.33 633.869C2782.43 634.49 2786.35 635.681 2789.07 637.44C2791.84 639.2 2793.73 641.771 2794.77 645.152C2795.8 648.499 2796.32 652.899 2796.32 658.351H2786.38C2786.38 654.244 2786.02 651.053 2785.3 648.775C2784.57 646.464 2783.21 644.807 2781.21 643.807C2779.21 642.771 2776.29 642.133 2772.46 641.892C2768.66 641.65 2763.68 641.529 2757.5 641.529H2738.04C2733.11 641.529 2728.95 641.685 2725.57 641.995C2722.19 642.271 2719.43 642.944 2717.29 644.014C2715.18 645.049 2713.56 646.705 2712.42 648.982C2711.32 651.26 2710.56 654.365 2710.14 658.299C2709.73 662.232 2709.52 667.236 2709.52 673.309V675.379C2709.52 681.245 2709.73 686.11 2710.14 689.975C2710.56 693.839 2711.32 696.927 2712.42 699.239C2713.56 701.551 2715.18 703.276 2717.29 704.415C2719.43 705.554 2722.19 706.296 2725.57 706.641C2728.95 706.986 2733.11 707.158 2738.04 707.158H2760.97C2766.66 707.158 2771.25 706.934 2774.74 706.485C2778.22 706.002 2780.86 705.002 2782.66 703.483C2784.49 701.931 2785.71 699.584 2786.33 696.444C2786.95 693.27 2787.26 688.991 2787.26 683.608V680.555H2749.22V672.273H2797.2V683.608C2797.2 690.337 2796.63 695.806 2795.49 700.016C2794.35 704.225 2792.42 707.486 2789.7 709.798C2787 712.075 2783.31 713.628 2778.62 714.456C2773.96 715.319 2768.08 715.75 2760.97 715.75H2738.04C2730.28 715.75 2723.89 715.215 2718.89 714.146C2713.89 713.11 2709.97 711.178 2707.14 708.349C2704.35 705.519 2702.38 701.448 2701.24 696.134C2700.14 690.82 2699.59 683.902 2699.59 675.379ZM2922.69 714.094V634.594H2932.62V714.094H2922.69ZM3059.56 714.094V634.594H3137.61V642.875H3069.5V669.375H3134.76V677.656H3069.5V705.812H3139.06V714.094H3059.56ZM3343.99 691.113C3343.99 688.042 3343.75 685.627 3343.27 683.867C3342.79 682.107 3341.7 680.813 3340.01 679.985C3338.32 679.123 3335.69 678.571 3332.14 678.329C3328.59 678.053 3323.72 677.863 3317.54 677.76L3288.77 677.346C3281.66 677.242 3275.95 676.811 3271.64 676.052C3267.32 675.293 3264.06 674.102 3261.85 672.48C3259.64 670.824 3258.16 668.616 3257.4 665.855C3256.68 663.095 3256.32 659.645 3256.32 655.504C3256.32 650.984 3256.82 647.257 3257.82 644.324C3258.85 641.391 3260.7 639.097 3263.35 637.44C3266.05 635.784 3269.84 634.628 3274.74 633.973C3279.64 633.283 3285.97 632.938 3293.74 632.938H3315.89C3322.93 632.938 3328.79 633.162 3333.49 633.61C3338.18 634.059 3341.91 635.094 3344.67 636.716C3347.43 638.338 3349.39 640.856 3350.57 644.272C3351.77 647.688 3352.38 652.381 3352.38 658.351H3342.44C3342.44 653.727 3341.99 650.242 3341.09 647.896C3340.23 645.515 3338.78 643.893 3336.75 643.03C3334.75 642.168 3332.04 641.702 3328.62 641.633C3325.2 641.564 3320.96 641.529 3315.89 641.529H3294.25C3288.08 641.529 3283.13 641.65 3279.4 641.892C3275.71 642.133 3272.91 642.685 3271.01 643.548C3269.12 644.41 3267.84 645.791 3267.18 647.688C3266.56 649.586 3266.25 652.191 3266.25 655.504C3266.25 658.299 3266.48 660.542 3266.93 662.232C3267.37 663.923 3268.37 665.217 3269.93 666.114C3271.51 666.977 3273.95 667.581 3277.23 667.926C3280.5 668.236 3284.97 668.426 3290.63 668.495L3321.48 668.909C3328.72 669.013 3334.5 669.444 3338.82 670.203C3343.16 670.928 3346.41 672.118 3348.55 673.774C3350.72 675.431 3352.15 677.674 3352.84 680.503C3353.57 683.298 3353.93 686.835 3353.93 691.113C3353.93 695.771 3353.48 699.688 3352.58 702.862C3351.72 706.002 3350.03 708.521 3347.51 710.419C3344.99 712.317 3341.35 713.68 3336.59 714.508C3331.83 715.336 3325.57 715.75 3317.8 715.75H3293.58C3286.51 715.75 3280.57 715.439 3275.78 714.818C3270.98 714.197 3267.15 712.955 3264.29 711.092C3261.46 709.194 3259.42 706.382 3258.18 702.655C3256.94 698.929 3256.32 693.96 3256.32 687.749H3266.25C3266.25 692.614 3266.65 696.375 3267.44 699.032C3268.24 701.689 3269.62 703.604 3271.58 704.777C3273.59 705.916 3276.36 706.606 3279.92 706.848C3283.51 707.055 3288.06 707.158 3293.58 707.158H3317.29C3323.46 707.158 3328.34 706.968 3331.93 706.589C3335.52 706.175 3338.18 705.416 3339.9 704.312C3341.63 703.173 3342.73 701.551 3343.22 699.446C3343.73 697.341 3343.99 694.564 3343.99 691.113Z" fill="#CCCCCC"/>
<path d="M0 667.094L143.951 160.094H549L423.519 667.094H0Z" fill="#FFC70F"/>
<path d="M214.38 257.094H135.958L51 571.094H436.577L515 257.094H430.042L371.225 486.052H305.873L364.69 257.094H286.268L220.915 486.052H149.028L214.38 257.094Z" fill="#FFFFFF"/>
<path d="M869 271.094H561.933L477 578.094H548.867L614.2 349.477H842.867L869 271.094Z" fill="#FFFFFF"/>
<path d="M591 2.09375L422 667.094" stroke="#FFC70F" stroke-width="17"/>
<path d="M561 270.094L429 775.094" stroke="#FFC70F" stroke-width="17"/>
</svg>
