<?xml version="1.0" encoding="UTF-8"?>
<svg version="1.1" xmlns="http://www.w3.org/2000/svg" width="1101" height="1162">
<path d="M0 0 C0.8161528 0.30040695 1.6323056 0.6008139 2.47319031 0.9103241 C5.18142685 1.91093841 7.88146727 2.93200318 10.58203125 3.953125 C12.52114136 4.67396945 14.46077096 5.39341775 16.40087891 6.11157227 C20.55878354 7.65332744 24.71338072 9.20358032 28.86572266 10.76025391 C35.46588552 13.23316072 42.07564466 15.67964989 48.6875 18.12109375 C57.81901463 21.49430051 66.94798086 24.87426098 76.07421875 28.26171875 C87.24708103 32.40835525 98.42407633 36.54369112 109.60357666 40.6723938 C127.20430508 47.17254253 144.80047961 53.68492735 162.39453125 60.203125 C179.22556849 66.43851378 196.05822059 72.66948829 212.89453125 78.890625 C213.82444885 79.23427094 214.75436646 79.57791687 215.71246338 79.93197632 C227.25996652 84.19924804 238.80864657 88.46332008 250.35813904 92.72520447 C258.04361787 95.56179086 265.72682371 98.40448712 273.40895081 101.25013733 C278.57255505 103.1619878 283.73927296 105.06501836 288.90942383 106.95909119 C291.93713207 108.0697673 294.96242491 109.18690753 297.98712158 110.30575562 C299.36636527 110.81426709 300.74667456 111.31989909 302.12811279 111.82241821 C303.9944296 112.50165005 305.85671795 113.19192108 307.71875 113.8828125 C309.26695435 114.45104736 309.26695435 114.45104736 310.84643555 115.03076172 C313.32761195 116.17233584 314.74246217 117.04886544 316.39453125 119.203125 C317.21879288 124.45043343 315.36030448 127.52376572 312.39453125 131.640625 C311.95810303 132.2704126 311.5216748 132.9002002 311.07202148 133.54907227 C310.08261842 134.97318491 309.08665778 136.39275596 308.08544922 137.80859375 C306.22698806 140.44038513 304.3896476 143.08614751 302.5546875 145.734375 C299.80077161 149.70639458 297.04012366 153.67358385 294.2734375 157.63671875 C291.12771211 162.14571861 288.00202463 166.66771967 284.89453125 171.203125 C279.73275845 178.73313613 274.51457083 186.2235151 269.296875 193.71484375 C265.47881601 199.1992283 261.67300842 204.69140142 257.89453125 210.203125 C252.73254661 217.7329925 247.51457228 225.22351302 242.296875 232.71484375 C238.47881601 238.1992283 234.67300842 243.69140142 230.89453125 249.203125 C225.73254661 256.7329925 220.51457228 264.22351302 215.296875 271.71484375 C211.47881601 277.1992283 207.67300842 282.69140142 203.89453125 288.203125 C198.73254661 295.7329925 193.51457228 303.22351302 188.296875 310.71484375 C184.47881601 316.1992283 180.67300842 321.69140142 176.89453125 327.203125 C171.73254661 334.7329925 166.51457228 342.22351302 161.296875 349.71484375 C157.47881601 355.1992283 153.67300842 360.69140142 149.89453125 366.203125 C144.73254661 373.7329925 139.51457228 381.22351302 134.296875 388.71484375 C130.47881601 394.1992283 126.67300842 399.69140142 122.89453125 405.203125 C117.73254661 412.7329925 112.51457228 420.22351302 107.296875 427.71484375 C103.47881601 433.1992283 99.67300842 438.69140142 95.89453125 444.203125 C90.74058842 451.72126179 85.53114958 459.20039915 80.32104492 466.6796875 C75.8330429 473.12565091 71.36498858 479.58467285 66.93164062 486.06835938 C65.75729846 487.78324153 64.57701107 489.49384625 63.39453125 491.203125 C62.73203369 492.16992188 62.73203369 492.16992188 62.05615234 493.15625 C58.62392926 498.08842599 58.62392926 498.08842599 56.39453125 499.203125 C47.27959342 500.50525898 41.22101728 496.20789116 33.76953125 491.578125 C32.47510131 490.79381816 31.1795931 490.01128839 29.88305664 489.23046875 C26.63868545 487.2707987 23.40821662 485.28944999 20.18133545 483.30114746 C17.58475324 481.70550224 14.97620617 480.1298941 12.3671875 478.5546875 C7.69167692 475.72732108 3.02914382 472.8793316 -1.62988281 470.02490234 C-7.09507296 466.67888586 -12.56748393 463.34475941 -18.04296875 460.015625 C-18.62297638 459.66290527 -19.20298401 459.31018555 -19.80056763 458.94677734 C-30.03684586 452.72583672 -40.32939051 446.60240716 -50.63696289 440.5005188 C-61.30765454 434.18216873 -71.92816418 427.78622922 -82.51953125 421.3359375 C-90.03063473 416.76207228 -97.5598128 412.21976467 -105.10546875 407.703125 C-113.2316226 402.83901391 -121.33612405 397.94076887 -129.42480469 393.01464844 C-140.1107591 386.50729133 -150.83909583 380.07655623 -161.60546875 373.703125 C-173.09779447 366.89934949 -184.56254584 360.05319293 -195.95239258 353.07885742 C-201.04131205 349.96457657 -206.13614942 346.87732249 -211.3125 343.91015625 C-212.16408691 343.41451172 -213.01567383 342.91886719 -213.89306641 342.40820312 C-215.4340299 341.51403672 -216.9839313 340.63500369 -218.54443359 339.77539062 C-221.77978216 337.87991801 -223.41347387 336.68839361 -224.8125 333.15234375 C-224.60546875 330.203125 -224.60546875 330.203125 -222.94702148 328.23120117 C-220.40329983 326.02802155 -217.8688477 324.45026602 -214.93359375 322.8046875 C-213.80679199 322.16781006 -212.67999023 321.53093262 -211.51904297 320.87475586 C-210.92250916 320.54152313 -210.32597534 320.20829041 -209.71136475 319.86495972 C-207.17838337 318.44985724 -204.65358424 317.0204389 -202.12826538 315.59172058 C-200.833113 314.85908924 -199.53755764 314.12716987 -198.24160767 313.39595032 C-192.28787919 310.03425183 -186.37906352 306.59809679 -180.48046875 303.140625 C-166.79493229 295.13293663 -153.05445263 287.22136764 -139.31445312 279.30761719 C-126.73782955 272.06279452 -114.17509918 264.7957969 -101.64404297 257.47241211 C-93.21977536 252.55261218 -84.76992979 247.67790362 -76.31640625 242.80859375 C-69.06595385 238.62963372 -61.83058606 234.42571994 -54.60546875 230.203125 C-45.19556545 224.70366964 -35.76076312 219.24863304 -26.31640625 213.80859375 C-19.06595334 209.62963342 -11.83063012 205.42564511 -4.60546875 201.203125 C9.12499942 193.18030822 22.90531211 185.24454172 36.68554688 177.30761719 C49.40852 169.97848917 62.12138765 162.63326749 74.79541016 155.21972656 C79.55911483 152.43429924 84.32905421 149.66123024 89.1171875 146.91796875 C90.00929932 146.40588867 90.90141113 145.89380859 91.82055664 145.36621094 C93.49891793 144.40405447 95.17901692 143.44492098 96.86108398 142.48925781 C98.72174007 141.42158443 100.56096129 140.3166728 102.39453125 139.203125 C102.39453125 138.873125 102.39453125 138.543125 102.39453125 138.203125 C100.53063987 137.86712674 100.53063987 137.86712674 98.62909412 137.52434063 C69.137937 132.20758862 39.64868816 126.88038877 10.16174849 121.5403011 C6.53305786 120.8831543 2.90435125 120.22609577 -0.72436523 119.5690918 C-1.44678246 119.43829168 -2.16919968 119.30749156 -2.91350833 119.1727278 C-14.61352742 117.05455181 -26.31482648 114.94352998 -38.01661351 112.83514544 C-50.02212105 110.67187343 -62.02622251 108.50092787 -74.02905113 106.32284051 C-81.43652881 104.97889651 -88.84504044 103.64096218 -96.2549831 102.310675 C-101.93512811 101.29027182 -107.61329574 100.25920048 -113.29078102 99.22411156 C-115.62140823 98.80093744 -117.95267057 98.38124451 -120.28459167 97.96525955 C-123.46381836 97.39759339 -126.64054048 96.81754359 -129.81694031 96.23429871 C-131.20750823 95.99060391 -131.20750823 95.99060391 -132.62616843 95.74198598 C-137.19775254 94.88847541 -140.76326231 93.99705596 -144.60546875 91.203125 C-144.26778888 88.35709523 -144.04451023 86.66296283 -142.03344727 84.55664062 C-141.01915649 83.84024414 -141.01915649 83.84024414 -139.984375 83.109375 C-139.22310303 82.56079834 -138.46183105 82.01222168 -137.67749023 81.44702148 C-136.4352771 80.58379272 -136.4352771 80.58379272 -135.16796875 79.703125 C-134.31340088 79.09218994 -133.45883301 78.48125488 -132.57836914 77.85180664 C-130.79877545 76.58062149 -129.01509759 75.31513605 -127.22753906 74.05517578 C-124.04838578 71.80963977 -120.8974522 69.52686675 -117.74780273 67.24023438 C-115.52546005 65.62792242 -113.29865938 64.02197021 -111.0703125 62.41796875 C-106.57851688 59.18454441 -102.09163669 55.94435095 -97.60546875 52.703125 C-96.10549021 51.61976196 -94.60549021 50.53642862 -93.10546875 49.453125 C-91.99171875 48.64875 -91.99171875 48.64875 -90.85546875 47.828125 C-84.10546875 42.953125 -84.10546875 42.953125 -81.85571289 41.32836914 C-80.35481325 40.24434084 -78.85399953 39.16019358 -77.35327148 38.07592773 C-73.61772908 35.37724845 -69.88074621 32.68061188 -66.140625 29.98828125 C-58.26176982 24.31309714 -50.41477386 18.59871771 -42.60546875 12.828125 C-40.28035919 11.1143327 -37.95441216 9.40169393 -35.62744141 7.69042969 C-33.88313647 6.40736935 -32.14061696 5.12188239 -30.3984375 3.8359375 C-20.20956029 -3.52693929 -11.67798531 -4.49338004 0 0 Z " fill="#A9A9A9" transform="translate(504.60546875,82.796875)"/>
<path d="M0 0 C0.84607315 -0.00845947 1.6921463 -0.01691895 2.56385803 -0.02563477 C3.47915787 -0.01956207 4.3944577 -0.01348938 5.3374939 -0.00723267 C6.7997364 -0.0151181 6.7997364 -0.0151181 8.29151917 -0.02316284 C11.51713069 -0.03637068 14.74224831 -0.02761215 17.96786499 -0.01748657 C20.22448826 -0.01950936 22.48111089 -0.0224225 24.73773193 -0.02618408 C29.47726642 -0.03061041 34.21663146 -0.02417475 38.95614624 -0.01016235 C44.97966097 0.0067925 51.00277059 -0.0028221 57.02626991 -0.02087975 C61.69540338 -0.03182696 66.3644442 -0.02821933 71.03358078 -0.02049637 C73.25074691 -0.01851723 75.4679219 -0.02087165 77.68507767 -0.02793503 C106.11223424 -0.09852798 132.24016739 3.40055827 153.55380249 23.75595093 C168.41732736 39.42703882 175.05407756 59.37540843 174.83114624 80.75204468 C173.68776969 100.06471406 166.5154241 117.51936945 152.43270874 131.02157593 C145.56485915 136.77494784 137.88449021 140.98007371 129.61630249 144.38095093 C131.22747606 148.65880624 133.23583879 152.69450492 135.32723999 156.75204468 C135.69117355 157.46176926 136.05510712 158.17149384 136.43006897 158.90272522 C137.61439543 161.20939379 138.80255858 163.51405613 139.99130249 165.81845093 C140.60254471 167.00600983 140.60254471 167.00600983 141.22613525 168.21755981 C146.37300793 178.21319204 151.60467221 188.14889618 157.05160522 197.98495483 C162.49557344 207.87062302 167.60856378 217.92862007 172.74349976 227.97714233 C173.09252853 228.6590564 173.44155731 229.34097046 173.80116272 230.04354858 C174.47961455 231.36963591 175.15666274 232.69644244 175.8321991 234.02401733 C178.02590136 238.31209667 180.35860556 242.48401134 182.90365601 246.5730896 C183.81768185 248.89181565 183.47680364 250.08044 182.61630249 252.38095093 C181.01312289 253.98413052 179.30357909 253.52432101 177.08407593 253.54208374 C176.11927307 253.55169128 175.15447021 253.56129883 174.16043091 253.57119751 C173.10946228 253.57544739 172.05849365 253.57969727 170.97567749 253.58407593 C169.9013446 253.589776 168.82701172 253.59547607 167.72012329 253.60134888 C165.44024648 253.61081718 163.16035587 253.61734009 160.88046265 253.6211853 C157.39502936 253.6308711 153.91019046 253.66186961 150.42489624 253.69345093 C148.21266017 253.69998261 146.00041987 253.70523243 143.78817749 253.70907593 C142.74530579 253.72142273 141.70243408 253.73376953 140.62796021 253.74649048 C139.65054871 253.74348938 138.67313721 253.74048828 137.66610718 253.73739624 C136.8097467 253.74104187 135.95338623 253.7446875 135.07107544 253.7484436 C131.80794645 253.25993569 130.2058207 252.46336997 127.61630249 250.38095093 C125.83914263 247.82298553 124.49041684 245.09097499 123.11679077 242.30014038 C122.47993693 241.04846179 122.47993693 241.04846179 121.83021736 239.77149677 C120.90303544 237.94493529 119.98217632 236.11515395 119.06684113 234.28262711 C117.59402575 231.33638824 116.10290774 228.40007167 114.60696411 225.46551514 C111.25399078 218.87842448 107.92864779 212.27760061 104.60848999 205.67391968 C104.31134551 205.08292803 104.01420102 204.49193638 103.70805216 203.8830359 C100.89692509 198.29141669 98.08740376 192.69899314 95.28166008 187.10467052 C91.72557705 180.0145483 88.16138155 172.92863059 84.58657157 165.84793109 C82.05146881 160.82493654 79.52555572 155.7973874 77.00641167 150.76637059 C75.50902885 147.7765453 74.0065422 144.78957737 72.49642563 141.80614281 C70.82183846 138.4956852 69.16239348 135.178054 67.50643921 131.85824585 C67.00785904 130.88108612 66.50927887 129.90392639 65.99559021 128.89715576 C61.92679949 120.67160417 61.92679949 120.67160417 62.61630249 115.38095093 C65.57653076 113.90083679 68.27203195 114.23384436 71.57333374 114.20516968 C73.01149868 114.1819255 74.44964969 114.15780647 75.88778687 114.13290405 C78.14072354 114.09816875 80.39316323 114.06866673 82.64633179 114.05502319 C98.05888175 113.94357412 110.55461405 111.37884852 122.38973999 100.79501343 C129.91995974 92.95899795 133.00625432 81.58308476 132.82723999 70.93173218 C131.88802244 59.57415698 127.68354649 50.00839756 119.49130249 42.06845093 C103.98025842 29.25047628 83.1250871 31.1050401 64.24130249 31.25595093 C62.04078574 31.26600339 59.84026454 31.27512522 57.63973999 31.28329468 C52.29849538 31.30512251 46.9574203 31.3384195 41.61630249 31.38095093 C41.61906787 32.50685292 41.62183325 33.63275492 41.62468243 34.79277515 C41.69120923 62.15772475 41.74054557 89.52266388 41.77173901 116.88767719 C41.78722392 130.12106 41.80834444 143.35438946 41.84262085 156.58773804 C41.87247351 168.11864846 41.89186566 179.64952027 41.89856797 191.18046826 C41.90248724 197.28897867 41.91173174 203.39737858 41.93349266 209.50585365 C41.95379252 215.25051436 41.96014948 220.9950186 41.95562553 226.73971176 C41.95645365 228.8525229 41.96245781 230.96533906 41.97391891 233.07811928 C41.98876128 235.95430782 41.98528637 238.8298992 41.97706604 241.70610046 C41.98580456 242.54947962 41.99454309 243.39285877 42.00354642 244.26179487 C41.9592775 249.95989332 41.9592775 249.95989332 40.22129041 252.09355515 C38.11882494 253.77998851 36.86918087 253.76655014 34.19247437 253.78500366 C32.85593811 253.80402992 32.85593811 253.80402992 31.49240112 253.82344055 C30.05326355 253.81903709 30.05326355 253.81903709 28.58505249 253.81454468 C27.59759033 253.81978653 26.61012817 253.82502838 25.59274292 253.83042908 C23.50473979 253.83685329 21.4167005 253.83550714 19.32870483 253.82699585 C16.12834487 253.81848296 12.9297674 253.84724702 9.72958374 253.8789978 C7.70224053 253.88060976 5.67489414 253.88003239 3.64755249 253.87704468 C2.68812744 253.88827866 1.72870239 253.89951263 0.74020386 253.91108704 C-0.15082031 253.90170609 -1.04184448 253.89232513 -1.95986938 253.88265991 C-2.7435791 253.88249374 -3.52728882 253.88232758 -4.33474731 253.88215637 C-6.38369751 253.38095093 -6.38369751 253.38095093 -7.98710632 251.96212196 C-10.15630402 247.95302444 -9.80345886 244.07040259 -9.77810669 239.58100891 C-9.78724334 238.07222659 -9.78724334 238.07222659 -9.79656458 236.53296381 C-9.81325259 233.15267058 -9.80841045 229.77275164 -9.80361938 226.39242554 C-9.81095621 223.97308458 -9.8195413 221.55374713 -9.82928467 219.13441467 C-9.84923347 213.23972089 -9.85487926 207.3451188 -9.85309678 201.450401 C-9.85178976 196.66074978 -9.8555902 191.87112928 -9.86302185 187.08148384 C-9.865121 185.70248956 -9.8672186 184.32349527 -9.86931467 182.94450098 C-9.8703582 182.25817631 -9.87140173 181.57185163 -9.87247688 180.86472923 C-9.89138076 167.88357694 -9.89032824 154.90248116 -9.88350755 141.9213208 C-9.87792863 130.0380376 -9.89877199 118.15496977 -9.93186802 106.27173691 C-9.9655732 94.07535335 -9.98077755 81.87907307 -9.97615099 69.68264204 C-9.9739035 62.83304075 -9.97919036 55.98363865 -10.00404358 49.13407707 C-10.02720267 42.69656204 -10.0245128 36.25938281 -10.00411606 29.82185555 C-10.00068926 27.45426208 -10.00586623 25.08663885 -10.02009964 22.71908569 C-10.03814056 19.49682636 -10.02565556 16.27611948 -10.00515747 13.0539093 C-10.01767532 12.10820302 -10.03019317 11.16249675 -10.04309034 10.1881327 C-10.01052003 7.81427458 -9.93808022 5.6888287 -9.38369751 3.38095093 C-6.44477039 0.68092817 -3.9296017 0.00608635 0 0 Z " fill="#898989" transform="translate(453.3836975097656,682.6190490722656)"/>
<path d="M0 0 C0.9178125 0.44085937 1.835625 0.88171875 2.78125 1.3359375 C23.83262252 12.03902297 37.1789774 30.51982705 44.80859375 52.34375 C48.49702057 63.66298772 48.49702057 63.66298772 48 70 C45.63541942 72.36458058 45.17285793 72.25448521 41.96508789 72.2746582 C41.13405045 72.28419022 40.303013 72.29372223 39.4467926 72.30354309 C38.54782761 72.30263168 37.64886261 72.30172028 36.72265625 72.30078125 C35.80036728 72.30506638 34.87807831 72.3093515 33.92784119 72.31376648 C31.97509584 72.31951559 30.02232908 72.32000578 28.06958008 72.31567383 C25.07791665 72.31251627 22.08724401 72.3359573 19.09570312 72.36132812 C17.20052208 72.36360126 15.30533838 72.36430455 13.41015625 72.36328125 C12.51321548 72.372491 11.61627472 72.38170074 10.69215393 72.39118958 C9.44086952 72.38184639 9.44086952 72.38184639 8.16430664 72.37231445 C7.4308754 72.37294388 6.69744415 72.3735733 5.94178772 72.3742218 C3.40569266 71.88546495 2.54699004 71.0421937 1 69 C0.39919352 66.30652941 -0.06115264 63.72371426 -0.4375 61 C-2.29414438 49.2229643 -5.22318188 38.2957998 -14.8203125 30.44921875 C-26.61040836 22.61028405 -41.19867465 20.21603917 -55.02734375 22.5 C-63.97275176 24.70812315 -74.15125373 29.15560752 -79.37109375 37.08203125 C-99.51919691 74.08997147 -94.07710938 151.07478577 -83.078125 190.58984375 C-81.76744607 194.7355782 -80.17004259 198.23859285 -78 202 C-77.66742187 202.70640625 -77.33484375 203.4128125 -76.9921875 204.140625 C-75.69336778 206.57463361 -74.50377611 206.88721062 -72 208 C-70.7625 208.928125 -70.7625 208.928125 -69.5 209.875 C-58.22510107 217.28024226 -44.12607055 217.75754397 -31.20703125 215.26953125 C-20.95348274 212.32449094 -12.00144709 208.11969244 -6 199 C1.27580888 184.63554131 2.05012236 166.73080918 2.125 150.9375 C2.12975342 150.09082764 2.13450684 149.24415527 2.1394043 148.37182617 C2.25479955 144.05020454 2.25479955 144.05020454 1 140 C-0.22106445 139.98541748 -1.44212891 139.97083496 -2.70019531 139.95581055 C-7.23288172 139.89781435 -11.76507204 139.82058143 -16.29736328 139.73754883 C-18.25854436 139.70430572 -20.21982098 139.67627185 -22.18115234 139.65356445 C-25.00139047 139.62000719 -27.82075365 139.56769101 -30.640625 139.51171875 C-31.51680481 139.50532883 -32.39298462 139.4989389 -33.29571533 139.49235535 C-36.77297895 139.40847305 -39.37078149 139.29058915 -42.55175781 137.8215332 C-44.57040202 135.28257426 -44.51688616 133.56740532 -44.53125 130.34375 C-44.53898438 128.68666016 -44.53898438 128.68666016 -44.546875 126.99609375 C-44.53140625 125.84238281 -44.5159375 124.68867187 -44.5 123.5 C-44.52320313 121.76943359 -44.52320313 121.76943359 -44.546875 120.00390625 C-44.54171875 118.89917969 -44.5365625 117.79445313 -44.53125 116.65625 C-44.52673828 115.64369141 -44.52222656 114.63113281 -44.51757812 113.58789062 C-44 111 -44 111 -42.48646545 109.36152649 C-38.95723316 107.42900688 -35.62006215 107.58950832 -31.69897461 107.62768555 C-30.44711617 107.62220955 -30.44711617 107.62220955 -29.16996765 107.61662292 C-26.41388545 107.60852294 -23.65839214 107.62212173 -20.90234375 107.63671875 C-18.98710633 107.63723737 -17.07186837 107.63671958 -15.15663147 107.63520813 C-11.14429775 107.63529783 -7.13216507 107.64572278 -3.11987305 107.66381836 C2.02744756 107.68652069 7.17447479 107.68704656 12.3218317 107.68030071 C16.27573767 107.67696231 20.22957653 107.68358814 24.18346977 107.69342995 C26.08171678 107.69728331 27.97997125 107.6984296 29.87822151 107.6968441 C32.52841595 107.69647398 35.17823152 107.70907817 37.82836914 107.7253418 C38.61546265 107.72286438 39.40255615 107.72038696 40.21350098 107.71783447 C44.01025058 107.75509308 45.76269613 107.84179742 49 110 C49.50716972 112.37925434 49.50716972 112.37925434 49.67941284 115.34089661 C49.77584894 116.96653251 49.77584894 116.96653251 49.87423325 118.62500954 C50.07208146 123.93432862 50.13920617 129.23287141 50.12939453 134.5456543 C50.13202301 136.33077675 50.13202301 136.33077675 50.13470459 138.15196228 C50.13906763 142.04272973 50.1362069 145.93345092 50.1328125 149.82421875 C50.13303565 152.53994279 50.13445613 155.25566604 50.13571167 157.97138977 C50.13752193 163.63905329 50.13515434 169.30670371 50.13037109 174.97436523 C50.1249017 181.53089203 50.12671499 188.08738785 50.1321975 194.64391392 C50.13672689 200.28659032 50.13738091 205.92925737 50.13475883 211.571935 C50.1331988 214.93701201 50.13299541 218.30207442 50.13629532 221.6671505 C50.13881848 225.40401732 50.13498741 229.14082329 50.12939453 232.87768555 C50.13141876 233.99602783 50.13344299 235.11437012 50.13552856 236.26660156 C50.13270874 237.2771611 50.12988892 238.28772064 50.12698364 239.3289032 C50.1264181 240.6536467 50.1264181 240.6536467 50.12584114 242.0051527 C50 244 50 244 49 245 C46.29949337 245.55133217 44.57112018 245.3355004 42.18798828 243.93554688 C40.09935148 242.42653922 38.07602906 240.85783193 36.0625 239.25 C28.26443114 232.4240732 28.26443114 232.4240732 19.0546875 228.4921875 C15.11822924 229.14658593 12.37142264 230.94221763 9.125 233.125 C-6.05738804 242.74196323 -23.0783174 247.19339825 -41 248 C-42.17369141 248.061875 -42.17369141 248.061875 -43.37109375 248.125 C-67.26592137 248.7697171 -90.82678722 241.77933874 -109 226 C-109.80824219 225.33484375 -110.61648438 224.6696875 -111.44921875 223.984375 C-131.65859332 206.77700554 -137.36519674 184.99083083 -139.57885742 159.55737305 C-140.47118053 147.43127837 -140.2973388 135.24121988 -140.26074219 123.08935547 C-140.24934845 119.2674678 -140.25612324 115.44585869 -140.26762199 111.62398052 C-140.44206109 43.34446197 -140.44206109 43.34446197 -115.45654297 17.45556641 C-111.88714929 13.88856588 -108.16566739 10.84266573 -104 8 C-103.47100098 7.63567871 -102.94200195 7.27135742 -102.39697266 6.89599609 C-73.40715041 -12.73484241 -31.43234768 -15.80862192 0 0 Z " fill="#898989" transform="translate(791,690)"/>
<path d="M0 0 C0.99445633 0.00273422 0.99445633 0.00273422 2.00900269 0.00552368 C27.51300921 0.1236958 49.23516197 8.2518786 68.25 25.3125 C68.90613281 25.89773438 69.56226563 26.48296875 70.23828125 27.0859375 C89.19081023 44.98788284 94.62295783 71.17604281 95.36587524 96.21844482 C95.55167646 105.6022308 95.53667386 114.98812465 95.51074219 124.37329102 C95.49934058 128.54006989 95.50593693 132.70659111 95.51788712 136.87336063 C95.52520494 140.14328359 95.52277315 143.41314807 95.51763153 146.68307304 C95.51632275 148.21724925 95.51784203 149.75143125 95.52259064 151.28560066 C95.54256964 159.54649406 95.24319477 167.68348792 94.34667969 175.90014648 C94.26766544 176.62599725 94.1886512 177.35184801 94.10724258 178.09969425 C91.34174642 201.28823585 81.04241967 221.88590407 62.68603516 236.56298828 C44.10188006 250.72315273 24.33864788 256.72010925 1.1875 256.6875 C0.50468964 256.68662384 -0.17812073 256.68574768 -0.88162231 256.68484497 C-27.09263358 256.574098 -49.3453279 248.3982806 -68.703125 230.3828125 C-95.03024508 203.75423684 -94.27243615 167.70290737 -94.14111328 132.71728516 C-94.12399923 128.1079016 -94.13391443 123.49904167 -94.15183067 118.88967705 C-94.16280698 115.27052042 -94.15916017 111.65148266 -94.1514473 108.03232193 C-94.14948459 106.33512429 -94.1517613 104.63791487 -94.15888596 102.94073105 C-94.25208744 74.53135359 -89.37650802 48.18009126 -69.30957031 26.88085938 C-50.67287609 8.13913682 -26.05382038 -0.11321328 0 0 Z M-31.55859375 43.0859375 C-54.54443648 70.25623539 -44.90412962 136.84535081 -42.46826172 170.16650391 C-40.50254676 195.93576527 -40.50254676 195.93576527 -26.9375 217.0625 C-16.77972949 225.42884381 -5.5685033 227.2329273 7.28417969 226.50341797 C17.15345744 225.54492626 26.4268405 220.6242123 33.0625 213.31640625 C45.4565004 196.4295807 44.40856565 171.25206917 44.41796875 151.25390625 C44.42119414 149.61742628 44.4245591 147.98094658 44.42805481 146.34446716 C44.43400768 142.92633397 44.43589887 139.5082259 44.43530273 136.09008789 C44.43522175 132.62942243 44.44212501 129.16889011 44.45581055 125.70825195 C46.82989544 80.29876739 46.82989544 80.29876739 29.80078125 40.42578125 C11.70693186 25.43531797 -14.83206454 26.68454601 -31.55859375 43.0859375 Z " fill="#898989" transform="translate(323.75,681.6875)"/>
<path d="M0 0 C15.58550154 -0.13201191 31.1703817 -0.19610581 46.75641632 -0.20846558 C52.90223863 -0.2141197 59.04785768 -0.23861712 65.19361401 -0.26643753 C69.99837147 -0.28494405 74.80307617 -0.29026137 79.60786629 -0.29180145 C81.8801348 -0.29481751 84.15240262 -0.30281042 86.42463493 -0.31598663 C89.5459842 -0.33291334 92.666779 -0.33120908 95.7881546 -0.32467651 C96.71176285 -0.3338913 97.63537109 -0.34310608 98.58696747 -0.3526001 C99.43019562 -0.34703094 100.27342377 -0.34146179 101.14220428 -0.33572388 C101.87310618 -0.33719044 102.60400808 -0.338657 103.35705853 -0.340168 C105.85218618 0.14303035 106.74176522 1.04054827 108.27765656 3.0317688 C108.64997101 5.63552856 108.64997101 5.63552856 108.64093781 8.72317505 C108.63997101 10.38703247 108.63997101 10.38703247 108.63898468 12.08450317 C108.6228714 13.24272583 108.60675812 14.40094849 108.59015656 15.5942688 C108.59337921 16.75635864 108.59660187 17.91844849 108.59992218 19.11575317 C108.54457602 27.76484934 108.54457602 27.76484934 106.27765656 30.0317688 C93.74763078 31.93267013 80.57512147 31.24861657 67.93781281 31.34817505 C65.71722316 31.36879217 63.49663702 31.38978971 61.27605438 31.41114807 C55.48122781 31.46587819 49.68636877 31.51550011 43.89148712 31.56399536 C37.95833253 31.61457274 32.02522406 31.67006806 26.09210968 31.72512817 C14.48733154 31.832108 2.88251304 31.93368204 -8.72234344 32.0317688 C-8.79180012 41.75869617 -8.84513262 51.48556471 -8.87777996 61.2126894 C-8.89344768 65.72921306 -8.91470601 70.24556728 -8.9486618 74.76199341 C-8.98121599 79.11917477 -8.99918812 83.47619298 -9.00697517 87.83348656 C-9.01252579 89.49731198 -9.02336462 91.1611283 -9.03953362 92.82488441 C-9.06125595 95.15226283 -9.06431262 97.47896381 -9.06291962 99.806427 C-9.07370544 100.49694656 -9.08449127 101.18746613 -9.09560394 101.89891052 C-9.1006572 105.55887018 -9.1006572 105.55887018 -7.44132614 108.71098614 C-4.40634948 111.04291453 -0.58147173 110.39151722 3.09186554 110.32473755 C4.443508 110.31816635 4.443508 110.31816635 5.82245636 110.3114624 C7.78028978 110.3000404 9.7380921 110.28168624 11.6958065 110.25726318 C14.7930635 110.2190304 17.88993593 110.19944135 20.98738861 110.18484497 C28.6806594 110.14469011 36.37356493 110.07209318 44.06659698 110.00064087 C50.56505571 109.94150568 57.06337891 109.89455824 63.56203651 109.86395264 C66.61563744 109.84447996 69.66868248 109.80695528 72.7220993 109.76882935 C74.59274559 109.75793209 76.46339703 109.74787685 78.33405304 109.73880005 C79.60983971 109.71555161 79.60983971 109.71555161 80.91139984 109.6918335 C84.42361566 109.69088568 86.67050867 109.70578592 89.80428314 111.38833618 C91.94428904 113.77534511 91.79478607 115.51897919 91.80890656 118.6880188 C91.81664093 120.34510864 91.81664093 120.34510864 91.82453156 122.03567505 C91.80906281 123.18938599 91.79359406 124.34309692 91.77765656 125.5317688 C91.80085968 127.26233521 91.80085968 127.26233521 91.82453156 129.02786255 C91.81937531 130.13258911 91.81421906 131.23731567 91.80890656 132.3755188 C91.80439484 133.38807739 91.79988312 134.40063599 91.79523468 135.44387817 C91.27765656 138.0317688 91.27765656 138.0317688 89.81101227 139.66946411 C86.00829448 141.71436457 82.48075754 141.44689827 78.22638702 141.41653442 C77.31217987 141.4219072 76.39797272 141.42727997 75.45606232 141.43281555 C73.47321308 141.44259234 71.49032106 141.445538 69.5074501 141.44245911 C66.37271115 141.43798722 63.23853851 141.45196212 60.10385895 141.47085571 C52.32148816 141.51391568 44.53912953 141.52491001 36.75666046 141.53707886 C30.17657341 141.54858168 23.59674473 141.5720637 17.01676559 141.61177063 C13.92221426 141.62539827 10.82800644 141.62116023 7.73343658 141.61636353 C5.84566552 141.62569871 3.95789832 141.63586615 2.07013702 141.64700317 C0.77189499 141.63778084 0.77189499 141.63778084 -0.55257416 141.62837219 C-3.17765622 141.62019305 -3.17765622 141.62019305 -6.72234344 142.0317688 C-8.91475817 145.32039088 -8.97125454 146.27435803 -8.96526337 150.08792114 C-8.96834 151.12105438 -8.97141663 152.15418762 -8.97458649 153.21862793 C-8.96740097 154.34032379 -8.96021545 155.46201965 -8.95281219 156.6177063 C-8.95235397 157.78443878 -8.95189575 158.95117126 -8.95142365 160.15325928 C-8.94839649 162.63653574 -8.9404965 165.11981023 -8.92815399 167.60305786 C-8.91021605 171.32936671 -8.90764229 175.05542184 -8.90789032 178.7817688 C-8.88631003 192.89245094 -8.55540873 206.94539215 -7.72234344 221.0317688 C-5.34691981 222.21948061 -3.90077671 222.16153892 -1.25006866 222.1697998 C-0.30926956 222.17525314 0.63152954 222.18070648 1.60083771 222.18632507 C3.15390625 222.18788857 3.15390625 222.18788857 4.73834991 222.18948364 C5.82622299 222.19456436 6.91409607 222.19964508 8.034935 222.20487976 C10.40306982 222.21559978 12.77121488 222.22421353 15.13936424 222.23099899 C18.88315313 222.24275545 22.62682496 222.26219893 26.37056732 222.28411865 C37.0168909 222.34585135 47.66318815 222.40008005 58.30963898 222.43313599 C64.81536662 222.45342427 71.32091065 222.48929191 77.82651711 222.53389359 C80.31087051 222.54809462 82.79526157 222.55678521 85.27965355 222.55994797 C88.74918657 222.56483298 92.21815045 222.58792871 95.68756866 222.61526489 C96.72092346 222.61225876 97.75427826 222.60925262 98.81894684 222.6061554 C99.76256577 222.61724838 100.70618469 222.62834137 101.67839813 222.63977051 C102.49896163 222.64308065 103.31952513 222.6463908 104.16495419 222.64980125 C106.79161458 223.12469021 107.68101808 223.92560069 109.27765656 226.0317688 C109.66584015 228.52786255 109.66584015 228.52786255 109.67609406 231.4692688 C109.67996124 232.52887817 109.68382843 233.58848755 109.68781281 234.6802063 C109.67041046 236.33922974 109.67041046 236.33922974 109.65265656 238.0317688 C109.66425812 239.13778442 109.67585968 240.24380005 109.68781281 241.3833313 C109.68394562 242.44294067 109.68007843 243.50255005 109.67609406 244.5942688 C109.67271027 245.56493286 109.66932648 246.53559692 109.66584015 247.53567505 C109.27765656 250.0317688 109.27765656 250.0317688 108.1642313 251.6643858 C105.36525251 253.69307617 103.13616003 253.40646872 99.70427704 253.4059906 C99.03342231 253.40996501 98.36256758 253.41393941 97.67138392 253.41803426 C95.41875211 253.42767495 93.16674557 253.41582908 90.91413116 253.40408325 C89.30118831 253.40651062 87.68824695 253.4102294 86.07530975 253.41514587 C81.69111534 253.42456533 77.30714375 253.41512105 72.92296672 253.40181375 C68.34080255 253.39051489 63.75864961 253.39460549 59.17647552 253.39656067 C51.48189391 253.39744405 43.78740033 253.38635326 36.0928421 253.36795044 C27.18766333 253.34677462 18.28261349 253.34327426 9.37741464 253.3495124 C0.82107392 253.35520002 -7.73522125 253.349568 -16.2915554 253.33833885 C-19.9378614 253.33368564 -23.5841396 253.33282212 -27.23044777 253.3349247 C-31.520743 253.33680347 -35.81090634 253.32873553 -40.10117149 253.3128643 C-41.67902201 253.3086092 -43.25688587 253.30777909 -44.83473969 253.3105545 C-46.98195541 253.31375937 -49.12877282 253.30473801 -51.27594757 253.29246521 C-52.47959992 253.29041234 -53.68325228 253.28835947 -54.92337894 253.28624439 C-57.72234344 253.0317688 -57.72234344 253.0317688 -59.72234344 251.0317688 C-59.98405647 248.64037609 -59.98405647 248.64037609 -60.00081635 245.57063293 C-60.01198109 244.40669038 -60.02314583 243.24274782 -60.0346489 242.04353428 C-60.03680782 240.75663165 -60.03896675 239.46972902 -60.0411911 238.14382935 C-60.05048383 236.77550385 -60.06064165 235.407184 -60.07159805 234.03887081 C-60.09907277 230.28827388 -60.11409062 226.53771463 -60.12700987 222.78704309 C-60.14283617 218.79756091 -60.16994778 214.80815418 -60.19564056 210.81872559 C-60.24335384 203.11443474 -60.28021605 195.41012988 -60.31276619 187.70576143 C-60.33901626 181.51598104 -60.36873076 175.32622683 -60.40093231 169.13647461 C-60.49633073 150.74448578 -60.58137099 132.35248964 -60.65317822 113.96039331 C-60.69658176 102.8627085 -60.74755227 91.76510905 -60.80925751 80.66751099 C-60.87163601 69.44305859 -60.91990112 58.21865765 -60.95250702 46.99407959 C-60.96429817 43.06903635 -60.98258081 39.14410484 -61.00634003 35.21911621 C-61.03313352 30.71302939 -61.04587111 26.2071418 -61.04654312 21.70097733 C-61.04911893 20.09554004 -61.05674466 18.49010126 -61.06992722 16.88471603 C-61.08673696 14.74475629 -61.0852923 12.6056031 -61.07878876 10.46560669 C-61.08243439 9.28462906 -61.08608002 8.10365143 -61.08983612 6.8868866 C-60.72234344 4.0317688 -60.72234344 4.0317688 -59.47325993 2.3800993 C-57.2783498 0.68986205 -56.09207032 0.63993844 -53.34018707 0.60336304 C-52.44318022 0.58437202 -51.54617336 0.56538101 -50.62198448 0.54581451 C-49.63956339 0.54021263 -48.6571423 0.53461075 -47.64495087 0.52883911 C-46.60821795 0.51151482 -45.57148502 0.49419052 -44.50333595 0.47634125 C-41.04902829 0.4228 -37.59488935 0.39101942 -34.14031219 0.3598938 C-31.70460521 0.32790128 -29.26891069 0.29494624 -26.83322906 0.26107788 C-17.88903983 0.14436878 -8.94459613 0.07633876 0 0 Z " fill="#898989" transform="translate(931.7223434448242,681.9682312011719)"/>
<path d="M0 0 C0.66283648 -0.00482883 1.32567297 -0.00965766 2.00859541 -0.01463282 C4.22833554 -0.0258994 6.44692243 -0.00858974 8.66661072 0.00863647 C10.25837516 0.0064905 11.85013808 0.00261263 13.44189453 -0.00286865 C17.76418954 -0.01256583 22.08607176 0.00274522 26.40831685 0.02303743 C30.92860909 0.0405968 35.44888837 0.03708359 39.96920776 0.03631592 C47.55949314 0.03818918 55.14961863 0.05555747 62.73985291 0.08285522 C71.52063713 0.11431762 80.30124629 0.12485104 89.08208281 0.12338412 C97.52363332 0.12216424 105.96512672 0.13236817 114.40666008 0.14896774 C118.00189599 0.15603633 121.59711168 0.15969465 125.1923542 0.16075516 C129.42358133 0.16276146 133.65466098 0.1749499 137.88583946 0.19508743 C139.44069135 0.20093815 140.99556021 0.20338802 142.55042267 0.20223236 C144.66878261 0.20125354 146.78672714 0.21253603 148.9050293 0.22705078 C150.09171235 0.23040247 151.2783954 0.23375416 152.50103855 0.23720741 C155.38902283 0.49447632 155.38902283 0.49447632 158.38902283 2.49447632 C158.76133728 5.07650757 158.76133728 5.07650757 158.75230408 8.30697632 C158.75133728 10.04334351 158.75133728 10.04334351 158.75035095 11.81478882 C158.73423767 13.02908569 158.71812439 14.24338257 158.70152283 15.49447632 C158.70474548 16.70877319 158.70796814 17.92307007 158.71128845 19.17416382 C158.6558383 28.22766084 158.6558383 28.22766084 156.38902283 30.49447632 C154.4021616 30.75060272 154.4021616 30.75060272 151.91674805 30.75949097 C150.97594894 30.76776413 150.03514984 30.77603729 149.06584167 30.78456116 C148.03046265 30.78357925 146.99508362 30.78259735 145.92832947 30.78158569 C144.84045639 30.78841873 143.75258331 30.79525177 142.63174438 30.80229187 C140.26362243 30.81590799 137.89547083 30.82494315 135.52731514 30.83000183 C131.7834754 30.83826096 128.03988312 30.85873803 124.29611206 30.88253784 C116.34795172 30.93086158 108.39976513 30.96383775 100.45152283 30.99447632 C91.24766376 31.0299662 82.04391231 31.07193637 72.84016228 31.13041687 C69.144687 31.15054652 65.44930297 31.15881768 61.75378418 31.16671753 C59.49555628 31.17968593 57.23733145 31.19320565 54.97911072 31.20736694 C53.94575592 31.20638504 52.91240112 31.20540314 51.84773254 31.20439148 C50.43230415 31.21680122 50.43230415 31.21680122 48.98828125 31.22946167 C48.16771775 31.23239479 47.34715425 31.23532791 46.5017252 31.23834991 C44.08758969 31.37004847 44.08758969 31.37004847 41.38902283 33.49447632 C41.09173041 35.99713905 40.98972929 38.25330588 41.01670837 40.75814819 C41.01305771 41.50625259 41.00940704 42.25435699 41.00564575 43.02513123 C40.99752171 45.50472524 41.01116524 47.98366953 41.02574158 50.46322632 C41.02625996 52.18193562 41.0257431 53.90064553 41.02423096 55.61935425 C41.02432076 59.22413974 41.03476716 62.82870197 41.05284119 66.43344116 C41.07552872 71.06078212 41.07607339 75.68779666 41.06932354 80.31517792 C41.06598662 83.86500972 41.0726084 87.41476672 41.08245277 90.96458435 C41.08630985 92.67107248 41.0874509 94.37756892 41.08586693 96.08406067 C41.08549725 98.46647071 41.09808881 100.84845776 41.11436462 103.23080444 C41.11188721 103.94047867 41.10940979 104.65015289 41.1068573 105.3813324 C41.04448436 109.38393696 41.04448436 109.38393696 43.38902283 112.49447632 C46.3855109 112.69671617 49.29120085 112.77444945 52.28916931 112.76571655 C53.67226288 112.77355667 53.67226288 112.77355667 55.08329773 112.78155518 C57.08964772 112.79181339 59.09602447 112.79757874 61.10239983 112.79943657 C64.27497778 112.80308717 67.44723946 112.81977736 70.61975098 112.8401947 C79.64117057 112.89573631 88.66263715 112.92632388 97.68418884 112.95077515 C103.19789831 112.96662257 108.7113838 112.99681259 114.22497749 113.03553963 C116.32974437 113.04721553 118.43455126 113.0531202 120.53935051 113.05322075 C123.47963307 113.05341213 126.41929525 113.07162957 129.35948181 113.09384155 C130.23387405 113.08926437 131.1082663 113.08468719 132.00915527 113.07997131 C137.95729495 113.15165278 137.95729495 113.15165278 140.1118784 114.86254978 C141.94966242 117.21085781 141.7771645 118.97854543 141.78746033 121.93197632 C141.79132751 122.99158569 141.7951947 124.05119507 141.79917908 125.14291382 C141.78177673 126.80193726 141.78177673 126.80193726 141.76402283 128.49447632 C141.77562439 129.60049194 141.78722595 130.70650757 141.79917908 131.84603882 C141.79531189 132.90564819 141.7914447 133.96525757 141.78746033 135.05697632 C141.78407654 136.02764038 141.78069275 136.99830444 141.77720642 137.99838257 C141.3159844 140.96412716 140.70055023 141.65653869 138.38902283 143.49447632 C135.34773654 143.78897509 132.50948694 143.9009045 129.46714783 143.87924194 C128.09846558 143.8873011 128.09846558 143.8873011 126.70213318 143.89552307 C124.71981424 143.9053115 122.73745241 143.90824201 120.75511169 143.90516663 C117.62017767 143.90069946 114.48581138 143.91465714 111.35093689 143.93356323 C103.56564674 143.97665382 95.78036835 143.98760596 87.99497986 143.99978638 C81.41718055 144.01129681 74.83963921 144.0348088 68.26194763 144.07447815 C65.16910626 144.08809388 62.07660921 144.08386928 58.98374939 144.07907104 C57.09279434 144.08840834 55.20184315 144.09857631 53.31089783 144.10971069 C52.44742737 144.10356247 51.58395691 144.09741425 50.69432068 144.09107971 C46.42649008 144.01848746 46.42649008 144.01848746 42.66835785 145.74966335 C41.07164632 147.92732826 41.01299433 149.10555005 41.01048279 151.7900238 C41.00228012 152.6663295 40.99407745 153.54263519 40.98562622 154.44549561 C40.99177444 155.40404449 40.99792267 156.36259338 41.0042572 157.35018921 C40.99888443 158.36178604 40.99351166 159.37338287 40.98797607 160.41563416 C40.9781848 162.61404063 40.97525798 164.81248581 40.97833252 167.01091194 C40.98279681 170.48580115 40.96885038 173.9601774 40.94993591 177.43501282 C40.90683015 186.06383703 40.8958841 194.6926507 40.88371277 203.32156372 C40.87221164 210.61268893 40.84872949 217.90358089 40.809021 225.19460869 C40.79538673 228.62596608 40.79963303 232.05701392 40.8044281 235.48838806 C40.79509284 237.58164879 40.78492538 239.67490604 40.77378845 241.76815796 C40.77993668 242.72873108 40.7860849 243.6893042 40.79241943 244.6789856 C40.78421677 245.55247147 40.7760141 246.42595734 40.76756287 247.32591248 C40.76685036 248.0871042 40.76613785 248.84829592 40.76540375 249.63255405 C40.38902283 251.49447632 40.38902283 251.49447632 37.38902283 253.49447632 C35.3780365 253.75517273 35.3780365 253.75517273 33.05699158 253.76913452 C31.75048645 253.78343254 31.75048645 253.78343254 30.41758728 253.79801941 C29.48003601 253.797108 28.54248474 253.79619659 27.57652283 253.79525757 C26.61125671 253.79954269 25.6459906 253.80382782 24.651474 253.8082428 C22.61054774 253.81398605 20.569601 253.8144864 18.52867126 253.81015015 C15.40103895 253.80698847 12.27435077 253.83045552 9.14683533 253.85580444 C7.16506569 253.85807721 5.1832935 253.85878104 3.20152283 253.85775757 C1.79519592 253.87157219 1.79519592 253.87157219 0.36045837 253.88566589 C-0.51054504 253.8794371 -1.38154846 253.87320831 -2.27894592 253.86679077 C-3.04489075 253.8674202 -3.81083557 253.86804962 -4.59999084 253.86869812 C-6.61097717 253.49447632 -6.61097717 253.49447632 -8.35470581 252.38777161 C-10.23723504 249.55065869 -10.01267484 247.21538717 -10.04335022 243.82943726 C-10.05352771 243.14179637 -10.0637052 242.45415548 -10.07419109 241.74567699 C-10.10482507 239.4066562 -10.11370707 237.06804898 -10.12269592 234.72885132 C-10.13992331 233.01607607 -10.15832197 231.30331227 -10.17778015 229.59056091 C-10.22738665 224.81958236 -10.25671888 220.04866482 -10.28154373 215.27750015 C-10.29846607 212.24646471 -10.32014409 209.21550164 -10.3434906 206.18450928 C-10.44112288 193.45855045 -10.50839578 180.73261485 -10.55913448 168.00638676 C-10.58822062 160.71473366 -10.62047949 153.423113 -10.65846252 146.13150024 C-10.75596017 127.36371001 -10.83771213 108.59601451 -10.88258457 89.82801628 C-10.8867334 88.10188672 -10.89089364 86.37575719 -10.89506531 84.64962769 C-10.89711666 83.79648802 -10.89916802 82.94334835 -10.90128154 82.06435597 C-10.9167346 76.01745827 -10.94184849 69.97064482 -10.97068787 63.92379761 C-11.00594349 56.47242935 -11.02659974 49.02118597 -11.02910495 41.56973213 C-11.03076476 37.70929265 -11.0390179 33.84915011 -11.06427383 29.9887867 C-11.08739503 26.41840504 -11.09190786 22.84849867 -11.08165801 19.27806139 C-11.08096799 17.35830978 -11.10007547 15.43858298 -11.11977673 13.51893234 C-11.11282945 12.38037922 -11.10588217 11.2418261 -11.09872437 10.06877136 C-11.10111272 9.08232038 -11.10350107 8.09586939 -11.1059618 7.07952595 C-9.89426015 0.75143264 -5.8057645 -0.00532878 0 0 Z " fill="#898989" transform="translate(70.61097717285156,683.5055236816406)"/>
<path d="M0 0 C3.82973935 3.70142334 6.14191733 6.95340094 6.25 12.3125 C6.27578125 13.07175781 6.3015625 13.83101562 6.328125 14.61328125 C5.60230162 19.89278226 2.20931468 22.98044107 -1.6875 26.3125 C-2.49574219 27.00988281 -3.30398438 27.70726562 -4.13671875 28.42578125 C-5.05904297 29.20501953 -5.05904297 29.20501953 -6 30 C-3.91922439 32.41887917 -1.83492724 34.83469885 0.25 37.25 C1.12978516 38.27287109 1.12978516 38.27287109 2.02734375 39.31640625 C4.91681307 42.66039884 7.80913074 45.9355018 11 49 C13.22893187 44.3935408 13.54877602 40.03866777 14 35 C18.455 34.505 18.455 34.505 23 34 C22.74937089 41.29330707 21.96153934 47.18973327 18.64453125 53.74609375 C17.75419826 56.85956125 18.47800468 58.18674917 20 61 C21.69797427 63.19277488 21.69797427 63.19277488 23.625 65.1875 C27 68.78979592 27 68.78979592 27 71 C17.26995516 71.92017937 17.26995516 71.92017937 14.15625 69.6640625 C12.8125 68 12.8125 68 11 65 C7.54470286 66.32814266 7.54470286 66.32814266 4.26171875 68.0234375 C-3.68645491 72.37564133 -14.04836441 72.58993694 -22.734375 70.26953125 C-28.40031934 67.66021478 -31.40765845 63.71639595 -33.75 58.125 C-35.8345123 52.00890346 -35.42140647 46.82443759 -32.9765625 40.91796875 C-30.1675021 35.40097413 -26.15189987 32.11510225 -21 29 C-21.97547296 27.0139019 -22.96617987 25.05875322 -24.0703125 23.140625 C-26.86334276 18.13385965 -27.64674432 14.72830687 -27 9 C-25.14231853 3.73656918 -22.43208258 1.16577327 -18 -2 C-11.91906123 -4.5500711 -5.5550889 -3.0861605 0 0 Z M-15.875 7.125 C-18.16488891 9.81208606 -18.16488891 9.81208606 -18.625 12.875 C-17.78326183 17.08369087 -15.70158294 19.73880346 -13 23 C-8.60984183 22.11434987 -6.17955449 20.17955449 -3 17 C-1.94274204 13.7621475 -1.67334143 11.97997572 -2.75 8.75 C-4.05104872 6.70982835 -4.05104872 6.70982835 -7 5 C-11.0745864 4.37995424 -12.52063935 4.64568996 -15.875 7.125 Z M-15 34 C-16.46512126 35.24203695 -17.92185645 36.49397056 -19.375 37.75 C-20.59316406 38.79414062 -20.59316406 38.79414062 -21.8359375 39.859375 C-25.18282446 43.17001409 -25.92051164 45.17862023 -26.375 49.875 C-26.25402647 54.20585221 -24.84802823 56.69012935 -22 60 C-18.12762095 63.11941646 -13.92796888 64.158399 -9 64 C-4.13705784 62.96022618 0.27659076 61.39963452 4 58 C3.4057807 54.76416548 2.40097808 52.96110926 0.234375 50.50390625 C-0.60673828 49.54194336 -0.60673828 49.54194336 -1.46484375 48.56054688 C-2.05394531 47.90119141 -2.64304687 47.24183594 -3.25 46.5625 C-3.82363281 45.90701172 -4.39726563 45.25152344 -4.98828125 44.57617188 C-8.20808483 40.91997123 -11.51290183 37.40188712 -15 34 Z " fill="#323232" transform="translate(586,1009)"/>
<path d="M0 0 C3.3 0 6.6 0 10 0 C12.42872444 7.1873829 14.84959345 14.37734491 17.26318359 21.56982422 C18.08556565 24.01684101 18.91009917 26.46313584 19.73681641 28.90869141 C20.92394747 32.42163028 22.10334668 35.93708296 23.28125 39.453125 C23.65310425 40.5480426 24.0249585 41.64296021 24.40808105 42.77105713 C24.74843384 43.79181335 25.08878662 44.81256958 25.43945312 45.86425781 C25.7414563 46.76138489 26.04345947 47.65851196 26.35461426 48.58282471 C27 51 27 51 27 55 C27.66 55 28.32 55 29 55 C29.2582959 53.7406665 29.5165918 52.48133301 29.78271484 51.18383789 C31.00611524 45.69005868 32.70866646 40.39783029 34.4765625 35.05859375 C34.80667328 34.05031021 35.13678406 33.04202667 35.47689819 32.00318909 C36.52227218 28.8132991 37.5735347 25.62538667 38.625 22.4375 C39.33893311 20.26249824 40.05247867 18.08736923 40.765625 15.91210938 C42.50593889 10.60659099 44.25153307 5.30283681 46 0 C49.3 0 52.6 0 56 0 C48.13742263 24.3798889 40.14315144 48.71237443 32 73 C29.36 73 26.72 73 24 73 C20.86903287 63.63022221 17.73966555 54.25991183 14.61236572 44.88890934 C13.16033968 40.53806001 11.70775359 36.18739931 10.25390625 31.8371582 C8.85208857 27.64253418 7.45171764 23.44742978 6.05236816 19.25198174 C5.51700842 17.64775672 4.9811188 16.04370843 4.44470215 14.4398365 C3.69612544 12.20131695 2.94939917 9.96218843 2.203125 7.72290039 C1.97870728 7.05324249 1.75428955 6.38358459 1.52307129 5.69363403 C0 1.11405216 0 1.11405216 0 0 Z " fill="#323232" transform="translate(645,1007)"/>
<path d="M0 0 C4.37154844 4.59573041 5.21772023 7.97489357 5.5625 14.125 C5.6049585 14.85259521 5.64741699 15.58019043 5.69116211 16.32983398 C6.23304432 26.8763664 6.08664874 37.44351707 6 48 C3.03 48 0.06 48 -3 48 C-3.33 47.34 -3.66 46.68 -4 46 C-4.9075 46.495 -5.815 46.99 -6.75 47.5 C-12.94304497 50.14337285 -20.72072047 50.21299326 -27 47.75 C-30.55299922 45.67741712 -33.14444897 43.71110206 -35 40 C-35.14851844 38.06640414 -35.22130833 36.12657903 -35.25 34.1875 C-35.27578125 33.14980469 -35.3015625 32.11210938 -35.328125 31.04296875 C-34.9361371 27.40774759 -34.35685796 25.80688792 -32 23 C-26.071461 18.5717703 -20.15569187 18.49338208 -13 18.75 C-11.55173828 18.77707031 -11.55173828 18.77707031 -10.07421875 18.8046875 C-7.71570963 18.85139065 -5.3577183 18.92311788 -3 19 C-3.66 15.04 -4.32 11.08 -5 7 C-10.8273975 4.84639658 -15.91544982 4.53025224 -22 6 C-25.06607274 7.86159111 -25.06607274 7.86159111 -27 10 C-29.49361571 8.79618552 -31.68143083 7.54571278 -34 6 C-32.49235345 1.77858966 -29.78707131 0.19650136 -26 -2 C-17.86098579 -4.74288364 -7.50560693 -4.03078891 0 0 Z M-27 30 C-27.41372967 33.72356701 -27.52472629 36.09365459 -25.625 39.375 C-21.15524499 42.14199119 -16.03044688 42.68720171 -10.8984375 41.5234375 C-7.17391195 40.08117441 -5.02059513 38.38957822 -3 35 C-2.63965477 32.41118198 -2.63965477 32.41118198 -2.8125 29.75 C-2.83957031 28.85796875 -2.86664063 27.9659375 -2.89453125 27.046875 C-2.94673828 26.03367187 -2.94673828 26.03367187 -3 25 C-16.00591709 24.05733646 -16.00591709 24.05733646 -27 30 Z " fill="#323232" transform="translate(333,1032)"/>
<path d="M0 0 C3.91307937 3.70712783 5.5481723 7.84601167 7 13 C7 16.96 7 20.92 7 25 C-4.22 25 -15.44 25 -27 25 C-24.27584077 35.6126912 -24.27584077 35.6126912 -19 39 C-13.84198923 40.46494524 -9.40977861 40.5892932 -4.625 38.0625 C-3.71621094 37.49208984 -3.71621094 37.49208984 -2.7890625 36.91015625 C-1 36 -1 36 3 36 C4.75 37.5 4.75 37.5 6 39 C4.49235345 43.22141034 1.78707131 44.80349864 -2 47 C-8.82409648 49.24030813 -17.34384744 49.05521378 -24 46.4375 C-29.53570291 43.55284014 -32.12748699 39.55896042 -34.10546875 33.7578125 C-36.23047205 24.83094275 -36.33625315 14.45930872 -32.33203125 6.0546875 C-29.43415407 1.58464821 -25.887593 -1.09723813 -21.125 -3.375 C-13.2251076 -4.95497848 -6.95941116 -4.270866 0 0 Z M-22 6 C-25.57379964 10.23213115 -26.0538131 12.32287858 -27 18 C-18.42 18 -9.84 18 -1 18 C-2.10882829 9.47057198 -2.10882829 9.47057198 -5.75 6 C-11.88621956 2.22386489 -15.72611224 2.39832369 -22 6 Z " fill="#323232" transform="translate(738,1032)"/>
<path d="M0 0 C5.1704585 3.10881999 8.15351583 7.56898239 9.8125 13.3125 C10.5 17.4375 10.5 17.4375 10.5 26.4375 C-0.72 26.4375 -11.94 26.4375 -23.5 26.4375 C-21.94005521 34.65891441 -21.94005521 34.65891441 -16.69921875 40.546875 C-12.72567175 42.15605567 -8.70583487 42.00130221 -4.5 41.4375 C-2.43036673 40.55771645 -2.43036673 40.55771645 -0.625 39.375 C2.5 37.4375 2.5 37.4375 4.75 37.4375 C6.99832059 38.72225462 8.10800629 40.27990975 9.5 42.4375 C4.02291051 47.6337131 -1.04230175 50.25176257 -8.6875 50.5703125 C-15.59447631 50.29851019 -21.5143946 49.52918211 -26.5 44.4375 C-32.45791503 36.55334177 -33.09254663 27.11711655 -32.2421875 17.53125 C-30.88127564 9.31629115 -27.06942083 4.32962189 -20.5 -0.5625 C-14.17221115 -2.67176295 -6.15097941 -2.75206345 0 0 Z M-21.25 10.125 C-23.08461477 13.18483372 -23.08461477 13.18483372 -23.5 20.4375 C-15.25 20.4375 -7 20.4375 1.5 20.4375 C1.5 14.22720327 1.24553082 12.99287532 -2.5 8.4375 C-5.47106942 6.02852479 -7.1745346 5.47237129 -11 5.0625 C-15.59314952 5.55462316 -17.96825773 6.96046281 -21.25 10.125 Z " fill="#323232" transform="translate(978.5,1029.5625)"/>
<path d="M0 0 C6.25431657 6.42335215 7.41006735 14.69150604 7.3125 23.375 C6.62617508 32.08604704 4.97343016 38.28155887 -1.75 44.1875 C-7.50626409 48.47407964 -13.76806599 47.84425878 -20.6875 47.375 C-26.74677208 45.31917555 -30.54657098 41.61611057 -33.4375 35.9375 C-36.64561187 26.79438118 -36.82107728 16.59869357 -33.6875 7.375 C-30.78105849 2.06322758 -27.46846487 -1.36092506 -21.9375 -3.875 C-13.48063441 -5.82658437 -7.4635614 -4.51285108 0 0 Z M-24.6875 8.375 C-28.17523431 15.08679112 -27.77167493 24.85652244 -26.03515625 32.09375 C-24.39144846 35.87498337 -22.93563397 37.22050149 -19.375 39.4375 C-15.20612771 40.49738279 -12.81135691 40.59688353 -8.6875 39.375 C-4.98820495 36.41556396 -3.10444548 33.85154458 -1.6875 29.375 C-1.04439434 21.84147656 -0.46950512 13.92016447 -4.6875 7.375 C-6.90689871 4.82921912 -8.46643922 3.61424666 -11.80078125 2.9609375 C-17.82692091 2.5760748 -20.64905257 3.94255769 -24.6875 8.375 Z " fill="#323232" transform="translate(235.6875,1033.625)"/>
<path d="M0 0 C5.31631466 3.20773416 8.24888012 7.67246087 9.8125 13.625 C11.54381705 23.41360026 11.52307897 33.79503316 6.24609375 42.5078125 C2.30927497 47.63533124 -2.16373652 49.83852197 -8.5078125 50.71484375 C-14.79755163 51.0231643 -19.90596466 48.97033907 -25.25 45.8125 C-31.04695327 39.69349377 -32.13062537 32.51741467 -31.9375 24.375 C-31.94458984 23.52873047 -31.95167969 22.68246094 -31.95898438 21.81054688 C-31.89248122 15.17557831 -30.95818189 9.32685493 -26.5625 4.16015625 C-25.5415625 3.33837891 -25.5415625 3.33837891 -24.5 2.5 C-23.819375 1.93410156 -23.13875 1.36820313 -22.4375 0.78515625 C-16.50157947 -3.34365944 -6.42928813 -2.87658398 0 0 Z M-19.5 8.4375 C-24.48947824 14.92382171 -24.03403222 22.58628944 -23.5 30.4375 C-22.50794404 34.85728036 -20.99586467 38.45090944 -17.5 41.4375 C-12.7193756 43.03104147 -8.36545946 43.14222913 -3.6875 41.375 C-0.35408154 38.42254365 1.18140591 34.72937437 1.78735352 30.37036133 C1.90098967 28.19728838 1.90980926 26.05057858 1.875 23.875 C1.88660156 23.14603516 1.89820313 22.41707031 1.91015625 21.66601562 C1.88002069 16.08591512 0.75422252 11.77223047 -3.25 7.625 C-9.16127744 4.50515913 -13.82974731 5.16620037 -19.5 8.4375 Z " fill="#323232" transform="translate(444.5,1030.5625)"/>
<path d="M0 0 C3.62710227 3.25026048 6.01707977 6.19757455 7 11 C7.08378506 13.90959378 7.11617895 16.79421241 7.09765625 19.703125 C7.0962413 20.54091492 7.09482635 21.37870483 7.09336853 22.24188232 C7.08778197 24.91129157 7.07523194 27.5806162 7.0625 30.25 C7.05748326 32.06249879 7.05292066 33.87499889 7.04882812 35.6875 C7.03781694 40.12503248 7.02056155 44.56250191 7 49 C4.36 49 1.72 49 -1 49 C-1.01458252 48.00669678 -1.02916504 47.01339355 -1.04418945 45.98999023 C-1.10248162 42.27902539 -1.1797103 38.56864785 -1.26245117 34.8581543 C-1.29555592 33.25701481 -1.32363221 31.65576268 -1.34643555 30.05444336 C-1.38024982 27.74284183 -1.43257451 25.43225922 -1.48828125 23.12109375 C-1.49467117 22.41351425 -1.5010611 21.70593475 -1.50764465 20.97691345 C-1.65506202 15.91128372 -2.73231402 12.44213118 -5 8 C-7.91666328 5.51543499 -11.28385188 5.64130871 -15.03515625 5.74609375 C-17.95627792 6.12357468 -19.74314524 7.14141372 -22 9 C-24.60259969 12.74489642 -24.34791904 16.87478343 -24.4140625 21.265625 C-24.43342865 22.05902283 -24.4527948 22.85242065 -24.4727478 23.66986084 C-24.53238361 26.19646557 -24.57886443 28.72311625 -24.625 31.25 C-24.66319455 32.96616537 -24.70224715 34.68231187 -24.7421875 36.3984375 C-24.83807186 40.59880456 -24.92216167 44.79926134 -25 49 C-27.97 49 -30.94 49 -34 49 C-34 32.17 -34 15.34 -34 -2 C-31.03 -2 -28.06 -2 -25 -2 C-24.67 -1.01 -24.34 -0.02 -24 1 C-23.2575 0.525625 -22.515 0.05125 -21.75 -0.4375 C-14.80810117 -4.3817607 -6.88268163 -3.98471042 0 0 Z " fill="#323232" transform="translate(179,1032)"/>
<path d="M0 0 C2.97 0 5.94 0 9 0 C9 16.83 9 33.66 9 51 C6.03 51 3.06 51 0 51 C0 50.01 0 49.02 0 48 C-0.7425 48.474375 -1.485 48.94875 -2.25 49.4375 C-7.31025524 52.31264502 -12.2789976 52.51392055 -18 52 C-23.97199462 50.27925579 -27.68703088 47.16956591 -31 42 C-32.24788993 37.86830648 -32.12565278 33.79371262 -32.09765625 29.515625 C-32.0962413 28.70003113 -32.09482635 27.88443726 -32.09336853 27.04412842 C-32.08778303 24.44604788 -32.07523321 21.84805437 -32.0625 19.25 C-32.05748312 17.48567833 -32.05292054 15.72135531 -32.04882812 13.95703125 C-32.03781835 9.63798744 -32.02056369 5.31900846 -32 1 C-29.36 1 -26.72 1 -24 1 C-23.98018066 1.93271729 -23.96036133 2.86543457 -23.93994141 3.82641602 C-23.86146957 7.31364365 -23.77476486 10.80047062 -23.68261719 14.28735352 C-23.64452511 15.79150623 -23.60963908 17.29574392 -23.578125 18.80004883 C-23.53204105 20.97247523 -23.47412346 23.14432655 -23.4140625 25.31640625 C-23.3826416 26.62037354 -23.3512207 27.92434082 -23.31884766 29.26782227 C-22.92086456 33.92629663 -22.4933276 38.42959743 -19.18359375 41.91015625 C-15.24282197 43.8770173 -11.28655979 43.64506482 -7 43 C-4.06576805 41.20353146 -2.52794645 40.0558929 -1 37 C-0.84308093 34.23068632 -0.74156866 31.48265893 -0.68359375 28.7109375 C-0.66281265 27.89251373 -0.64203156 27.07408997 -0.62062073 26.23086548 C-0.55515188 23.61233034 -0.49625274 20.99369361 -0.4375 18.375 C-0.39431224 16.60155193 -0.35069786 14.82811419 -0.30664062 13.0546875 C-0.19947324 8.70322954 -0.09819831 4.35166923 0 0 Z " fill="#323232" transform="translate(883,1028)"/>
<path d="M0 0 C4.29949914 1.95795035 7.24131806 4.1593193 9.7265625 8.26953125 C11.55457624 13.54995911 11.99975341 18.106031 11.921875 23.609375 C11.9190451 24.37633194 11.91621521 25.14328888 11.91329956 25.93348694 C11.90219725 28.35816746 11.87711217 30.78246434 11.8515625 33.20703125 C11.8415198 34.86132275 11.83239622 36.5156201 11.82421875 38.16992188 C11.80229067 42.20327048 11.76783093 46.23633605 11.7265625 50.26953125 C8.7565625 50.26953125 5.7865625 50.26953125 2.7265625 50.26953125 C2.7172168 49.20516846 2.70787109 48.14080566 2.69824219 47.04418945 C2.65827593 43.08348214 2.59249951 39.12354618 2.51904297 35.16333008 C2.49087164 33.45151705 2.46963798 31.73957488 2.45556641 30.02758789 C2.43408285 27.56199206 2.38740834 25.09794264 2.3359375 22.6328125 C2.33470886 21.87116287 2.33348022 21.10951324 2.33221436 20.32478333 C2.19650682 15.36705708 1.28256096 12.74524102 -2.2734375 9.26953125 C-5.99312329 7.40968836 -10.22319942 7.69638435 -14.2734375 8.26953125 C-17.89406985 10.92958767 -19.51929193 12.91183525 -20.2734375 17.26953125 C-20.4233157 19.81229243 -20.52919097 22.33415775 -20.58984375 24.87890625 C-20.61062485 25.60571594 -20.63140594 26.33252563 -20.65281677 27.08135986 C-20.71799262 29.39399116 -20.7770479 31.70673218 -20.8359375 34.01953125 C-20.87915316 35.591157 -20.92276842 37.16277181 -20.96679688 38.734375 C-21.07364106 42.57931578 -21.17499774 46.42436649 -21.2734375 50.26953125 C-23.9134375 50.26953125 -26.5534375 50.26953125 -29.2734375 50.26953125 C-29.2734375 33.76953125 -29.2734375 17.26953125 -29.2734375 0.26953125 C-26.6334375 0.26953125 -23.9934375 0.26953125 -21.2734375 0.26953125 C-20.9434375 1.25953125 -20.6134375 2.24953125 -20.2734375 3.26953125 C-19.1596875 2.60953125 -18.0459375 1.94953125 -16.8984375 1.26953125 C-11.33685479 -1.48178175 -5.93638742 -1.90739596 0 0 Z " fill="#323232" transform="translate(789.2734375,1028.73046875)"/>
<path d="M0 0 C3.66995074 5.30178001 4.63250724 9.25152127 4.75 15.625 C4.77892334 16.43171143 4.80784668 17.23842285 4.83764648 18.06958008 C5.14107218 27.70818771 5.08634389 37.35826571 5 47 C2.03 47 -0.94 47 -4 47 C-4.01458252 45.93563721 -4.02916504 44.87127441 -4.04418945 43.7746582 C-4.1022978 39.81403531 -4.17952945 35.85397352 -4.26245117 31.89379883 C-4.29564169 30.18197762 -4.32369189 28.47004852 -4.34643555 26.75805664 C-4.38009032 24.29266521 -4.43240974 21.82825719 -4.48828125 19.36328125 C-4.49467117 18.60163162 -4.5010611 17.83998199 -4.50764465 17.05525208 C-4.6316023 12.54405779 -5.24341922 9.60772054 -8 6 C-11.51844665 3.26343039 -15.74522932 3.60522746 -20 4 C-22.36954287 4.39260542 -22.36954287 4.39260542 -24 6 C-26.60412189 11.10116973 -27.45987349 15.38007922 -27.51171875 21.12109375 C-27.52966995 21.86585464 -27.54762115 22.61061554 -27.56611633 23.37794495 C-27.6198231 25.73107423 -27.65398543 28.08400544 -27.6875 30.4375 C-27.72070829 32.04364713 -27.75520115 33.64976824 -27.79101562 35.25585938 C-27.87552574 39.17042899 -27.94252371 43.08494394 -28 47 C-30.64 47 -33.28 47 -36 47 C-36 30.17 -36 13.34 -36 -4 C-33.36 -4 -30.72 -4 -28 -4 C-27.67 -3.01 -27.34 -2.02 -27 -1 C-26.113125 -1.474375 -25.22625 -1.94875 -24.3125 -2.4375 C-15.88152216 -6.41437634 -7.46445713 -5.56175237 0 0 Z " fill="#323232" transform="translate(124,1034)"/>
<path d="M0 0 C1.11556274 0.01160156 1.11556274 0.01160156 2.25366211 0.0234375 C8.16286422 0.2093711 12.47244067 1.5021473 17.625 4.5 C17.625 7.5 17.625 7.5 15.625 9.6875 C14.965 10.285625 14.305 10.88375 13.625 11.5 C12.861875 11.190625 12.09875 10.88125 11.3125 10.5625 C7.39091599 9.01210632 4.39232683 8.34102664 0.1875 8.3125 C-0.75996094 8.29832031 -1.70742188 8.28414062 -2.68359375 8.26953125 C-5.48201628 8.50916395 -7.0934294 8.86880815 -9.375 10.5 C-10.19370185 14.06206661 -10.19370185 14.06206661 -10.375 17.5 C-6.83841532 20.86340141 -3.27815813 21.06993329 1.375 21.4375 C7.60355547 22.08597158 12.44265931 22.84187716 17.625 26.5 C20.8402674 30.92099268 21.3883059 35.19926456 20.625 40.5 C18.82501413 45.69995917 16.50880263 48.01370048 11.625 50.5 C2.31370184 53.5705707 -7.32129531 53.31448312 -16.125 48.9375 C-17.55292662 48.14495582 -18.97433261 47.33978067 -20.375 46.5 C-20.375 42.5 -20.375 42.5 -19.125 40.6875 C-17.375 39.5 -17.375 39.5 -15.5625 39.625 C-13.375 40.5 -13.375 40.5 -10.9375 42.0625 C-5.56927589 44.22862552 -0.09302717 44.22996091 5.625 43.5 C8.4591268 42.25612629 8.4591268 42.25612629 10.625 40.5 C11.78690374 37.18027502 11.74883849 35.87151546 10.625 32.5 C5.9813539 29.9543339 0.77360925 29.86128474 -4.40429688 29.46484375 C-10.37557097 28.86488635 -14.11339454 26.88114063 -18.22265625 22.5546875 C-20.36865508 18.72826246 -19.96592947 14.74394802 -19.375 10.5 C-15.50749707 2.14619367 -8.57653812 -0.2161747 0 0 Z " fill="#323232" transform="translate(1020.375,1027.5)"/>
<path d="M0 0 C2.97 0 5.94 0 9 0 C9.33 0.99 9.66 1.98 10 3 C11.0828125 2.2575 11.0828125 2.2575 12.1875 1.5 C18.24448655 -1.53572118 26.23384902 -0.88911996 32.5 1.125 C36.4614221 4.09606658 39.4035406 7.21062181 41 12 C41.085409 14.94964113 41.11582927 17.87503019 41.09765625 20.82421875 C41.0962413 21.68561966 41.09482635 22.54702057 41.09336853 23.43452454 C41.0877714 26.18555169 41.07521946 28.93649744 41.0625 31.6875 C41.05748463 33.5527332 41.05292179 35.41796767 41.04882812 37.28320312 C41.03780292 41.85550011 41.02054027 46.42773625 41 51 C38.36 51 35.72 51 33 51 C32.970271 49.49433472 32.970271 49.49433472 32.93994141 47.95825195 C32.86366251 44.22135034 32.77498014 40.48482683 32.68261719 36.74829102 C32.64441928 35.1334583 32.60955055 33.51854316 32.578125 31.90356445 C32.53227391 29.57733783 32.47431416 27.25167408 32.4140625 24.92578125 C32.40251129 24.20787918 32.39096008 23.48997711 32.37905884 22.75032043 C32.23797291 17.91961136 31.63124527 14.11544776 28.64453125 10.2421875 C25.51126415 7.87549168 21.81931871 7.89571826 18 8 C14.48716094 9.14965642 12.63627684 9.81742348 10.86572266 13.1081543 C9.76256451 16.79312562 9.64548868 20.33068567 9.5859375 24.14453125 C9.56657135 24.91431808 9.5472052 25.68410492 9.5272522 26.47721863 C9.46774377 28.92220171 9.42118705 31.36723262 9.375 33.8125 C9.33679369 35.47593134 9.29774043 37.13934347 9.2578125 38.80273438 C9.16206617 42.86833241 9.07792991 46.93402301 9 51 C6.36 51 3.72 51 1 51 C0.67 34.17 0.34 17.34 0 0 Z " fill="#323232" transform="translate(469,1029)"/>
<path d="M0 0 C2.97 0 5.94 0 9 0 C14.30802645 11.63682723 18.04762478 23.85561636 22 36 C25.22167264 28.22577065 28.02557011 20.33530492 30.75 12.375 C31.16121094 11.18003906 31.57242187 9.98507812 31.99609375 8.75390625 C32.99961551 5.83669184 34.00086769 2.91872006 35 0 C38.3 0 41.6 0 45 0 C39.22608989 16.75025117 33.1308185 33.37800364 27 50 C24.03 50 21.06 50 18 50 C15.75453048 44.0055959 13.51261629 38.00987857 11.27392578 32.01293945 C10.51252223 29.9748178 9.75016388 27.93705258 8.98681641 25.8996582 C7.88710795 22.96399579 6.79088731 20.02705092 5.6953125 17.08984375 C5.18582565 15.73317848 5.18582565 15.73317848 4.66604614 14.34910583 C2.90090843 9.60597488 1.31033109 4.8889909 0 0 Z " fill="#323232" transform="translate(248,1030)"/>
<path d="M0 0 C2.64 0 5.28 0 8 0 C8 5.28 8 10.56 8 16 C11.63 16 15.26 16 19 16 C19 17.98 19 19.96 19 22 C15.37 22 11.74 22 8 22 C8.06884472 26.64530679 8.15679304 31.28971059 8.26245117 35.93432617 C8.29570188 37.51430243 8.32373346 39.09439752 8.34643555 40.67456055 C8.37998016 42.94631579 8.43229227 45.21698203 8.48828125 47.48828125 C8.49467117 48.19463211 8.5010611 48.90098297 8.50764465 49.6287384 C8.59317674 52.48262922 8.67899748 54.52484882 10.30151367 56.92651367 C13.0130079 58.64024662 15.85960885 58.70373668 19 59 C19 61.31 19 63.62 19 66 C6.93962004 66.57028066 6.93962004 66.57028066 3 63 C-0.29691037 58.71015901 -0.39898588 54.85169286 -0.29296875 49.63671875 C-0.28872391 48.84473587 -0.28447906 48.05275299 -0.28010559 47.23677063 C-0.26338163 44.71999373 -0.22574225 42.20403276 -0.1875 39.6875 C-0.17244499 37.97592307 -0.15875801 36.26433351 -0.14648438 34.55273438 C-0.11349885 30.36817767 -0.06176098 26.18422693 0 22 C-2.31 22 -4.62 22 -7 22 C-7 20.02 -7 18.04 -7 16 C-4.69 16 -2.38 16 0 16 C0 10.72 0 5.44 0 0 Z " fill="#323232" transform="translate(357,1014)"/>
<path d="M0 0 C2.64 0 5.28 0 8 0 C8 5.28 8 10.56 8 16 C11.63 16 15.26 16 19 16 C19 17.98 19 19.96 19 22 C15.37 22 11.74 22 8 22 C8.06884472 26.64530679 8.15679304 31.28971059 8.26245117 35.93432617 C8.29570188 37.51430243 8.32373346 39.09439752 8.34643555 40.67456055 C8.37998016 42.94631579 8.43229227 45.21698203 8.48828125 47.48828125 C8.49467117 48.19463211 8.5010611 48.90098297 8.50764465 49.6287384 C8.59317674 52.48262922 8.67899748 54.52484882 10.30151367 56.92651367 C13.0130079 58.64024662 15.85960885 58.70373668 19 59 C19 61.31 19 63.62 19 66 C6.93962004 66.57028066 6.93962004 66.57028066 3 63 C-0.29691037 58.71015901 -0.39898588 54.85169286 -0.29296875 49.63671875 C-0.28872391 48.84473587 -0.28447906 48.05275299 -0.28010559 47.23677063 C-0.26338163 44.71999373 -0.22574225 42.20403276 -0.1875 39.6875 C-0.17244499 37.97592307 -0.15875801 36.26433351 -0.14648438 34.55273438 C-0.11349885 30.36817767 -0.06176098 26.18422693 0 22 C-2.31 22 -4.62 22 -7 22 C-7 20.02 -7 18.04 -7 16 C-4.69 16 -2.38 16 0 16 C0 10.72 0 5.44 0 0 Z " fill="#323232" transform="translate(819,1013)"/>
<path d="M0 0 C2.97 0 5.94 0 9 0 C9 24.09 9 48.18 9 73 C6.03 73 3.06 73 0 73 C0 48.91 0 24.82 0 0 Z " fill="#323232" transform="translate(60,1008)"/>
<path d="M0 0 C2.64 0 5.28 0 8 0 C8.33 1.32 8.66 2.64 9 4 C10.36125 3.01 10.36125 3.01 11.75 2 C16.88747043 -0.92376366 22.25876858 -0.80687577 28 0 C30.73644452 1.06519317 32.60289185 2.25664862 35 4 C33.70700306 6.88437779 32.34058637 8.87219421 30 11 C29.319375 10.690625 28.63875 10.38125 27.9375 10.0625 C23.25737855 8.36969011 19.62188713 7.56333808 14.75 8.875 C10.84715973 11.89083112 9.93155581 15.31809545 9 20 C8.65118138 25.36245691 8.71504265 30.69253855 8.8125 36.0625 C8.82757744 37.51496005 8.84126042 38.96743527 8.85351562 40.41992188 C8.88627139 43.94693457 8.93788336 47.47336785 9 51 C6.03 51 3.06 51 0 51 C0 34.17 0 17.34 0 0 Z " fill="#323232" transform="translate(909,1028)"/>
<path d="M0 0 C2.97 0 5.94 0 9 0 C9 16.83 9 33.66 9 51 C6.03 51 3.06 51 0 51 C0 34.17 0 17.34 0 0 Z " fill="#333333" transform="translate(389,1029)"/>
<path d="M0 0 C4.47797368 1.99909539 7.05691071 4.60116513 9.3046875 9.01171875 C10.82996567 13.37332879 10.82996567 17.62667121 9.3046875 21.98828125 C7.07490359 26.36352951 4.33897026 28.83051487 0 31 C-5.32261309 32.47428794 -9.89909089 32.26707071 -15 30 C-18.38903842 26.82468473 -21.76363226 23.37142718 -22.23828125 18.609375 C-22.39570274 12.54450493 -22.31851314 8.65944838 -18 4 C-12.72382301 -1.01236814 -6.89625398 -0.91886901 0 0 Z M-16.3125 8.125 C-18.66805832 12.13817343 -18.66964915 15.45299959 -18 20 C-16.59471779 23.59127675 -15.43148426 24.72193236 -12.1875 26.8125 C-8.71472323 28.10627958 -6.66458779 28.53441905 -3 28 C1.31646551 25.71481238 4.0976625 23.54447291 6 19 C6.53751218 14.77669003 6.28625223 12.57250446 4.375 8.75 C1.18814259 5.05995457 -1.72501286 3.33292495 -6.5625 2.625 C-10.76115629 3.27094712 -13.23687059 5.29874595 -16.3125 8.125 Z " fill="#898989" transform="translate(781,131)"/>
<path d="M0 0 C7.51953125 -0.390625 7.51953125 -0.390625 10 0 C11.83984375 1.85546875 11.83984375 1.85546875 13 4 C12.71814575 6.88900605 11.91884332 9.24347003 11 12 C11.87914688 14.6569191 11.87914688 14.6569191 13 17 C11.35 17 9.7 17 8 17 C7.34 15.02 6.68 13.04 6 11 C5.34 11 4.68 11 4 11 C4 12.98 4 14.96 4 17 C2.68 17 1.36 17 0 17 C0 11.39 0 5.78 0 0 Z M4 3 C4 4.32 4 5.64 4 7 C5.65 6.67 7.3 6.34 9 6 C8.67 5.01 8.34 4.02 8 3 C6.68 3 5.36 3 4 3 Z " fill="#898989" transform="translate(769,138)"/>
<path d="M0 0 C2.97 0 5.94 0 9 0 C9 2.97 9 5.94 9 9 C6.03 9 3.06 9 0 9 C0 6.03 0 3.06 0 0 Z " fill="#323232" transform="translate(389,1007)"/>
</svg>
