<?xml version="1.0" encoding="UTF-8"?>
<svg version="1.1" xmlns="http://www.w3.org/2000/svg" width="1000" height="1000">
<path d="M0 0 C3.53930385 0.00916036 7.07794599 0.00231387 10.6171875 -0.02050781 C54.58651191 -0.30226902 95.96521972 6.48677944 138.26489258 18.44604492 C139.22637207 18.71416992 140.18785156 18.98229492 141.1784668 19.25854492 C176.82716242 29.24876504 211.21751578 45.28827317 243.0222168 64.12182617 C245.07714707 65.33518801 247.13993021 66.53355709 249.20629883 67.72729492 C258.28451603 73.01449052 266.85049992 78.91571063 275.36108398 85.06958008 C277.04713931 86.28860802 278.73954192 87.49884636 280.43286133 88.70776367 C289.63034285 95.31075111 298.34024498 102.43070004 306.89892578 109.83422852 C309.66336857 112.22511796 312.43689572 114.58547678 315.27661133 116.88745117 C322.76940565 122.98942616 329.66854686 129.63430849 336.51489258 136.44604492 C337.8993457 137.81672119 337.8993457 137.81672119 339.31176758 139.21508789 C344.65820902 144.58553455 349.58607881 150.13297209 354.3215332 156.0480957 C356.55843671 158.80825478 358.91774602 161.33388882 361.38989258 163.88354492 C368.50898346 171.44005676 374.52350008 179.88018151 380.64819336 188.2434082 C381.9342532 189.99557249 383.23563761 191.73648643 384.54223633 193.47338867 C437.85687083 264.82257184 471.15751245 359.06248664 471.46801758 448.34448242 C471.47371765 449.65470367 471.47941772 450.96492493 471.48529053 452.31484985 C471.49572129 455.08319474 471.50161196 457.85151136 471.50512695 460.61987305 C471.50946018 463.38856559 471.5231639 466.15693743 471.54614258 468.92553711 C471.74822762 493.81343579 470.26598314 518.32337168 465.88989258 542.88354492 C465.67494141 544.12048096 465.45999023 545.35741699 465.23852539 546.63183594 C464.60039125 550.2405544 463.93975515 553.84403034 463.26489258 557.44604492 C462.98307129 558.95424805 462.98307129 558.95424805 462.69555664 560.49291992 C447.02160313 642.29922276 406.34535177 718.65711767 350.49536133 779.96948242 C349.24751848 781.35500321 348.00651002 782.74704155 346.79199219 784.16186523 C341.91515314 789.83244306 336.73777959 795.1566508 331.45239258 800.44604492 C330.61385742 801.29682617 329.77532227 802.14760742 328.91137695 803.02416992 C323.99098247 807.95591044 318.92632512 812.46068478 313.43261719 816.74389648 C310.99346142 818.65917906 308.71293076 820.69890704 306.45239258 822.82104492 C295.22218915 833.02398943 282.60021665 841.64814033 270.26489258 850.44604492 C269.65581055 850.88368164 269.04672852 851.32131836 268.41918945 851.7722168 C261.50054929 856.73679786 254.42943791 861.20699329 246.99145508 865.34838867 C243.63528033 867.220205 240.33894455 869.18246159 237.04345703 871.15869141 C228.31509958 876.37631173 219.44799676 881.08360851 210.26489258 885.44604492 C209.3196875 885.89737793 208.37448242 886.34871094 207.40063477 886.8137207 C195.72294821 892.36675929 183.99064316 897.71726993 171.95239258 902.44604492 C171.06543701 902.79530029 170.17848145 903.14455566 169.26464844 903.50439453 C133.22812273 917.35268289 94.46727677 925.56558612 56.26489258 930.44604492 C55.24616058 930.58200829 55.24616058 930.58200829 54.20684814 930.72071838 C45.73127178 931.72343297 37.21635625 931.64911244 28.69458008 931.68432617 C27.85005405 931.6884017 27.00552803 931.69247723 26.13541031 931.69667625 C21.64406847 931.71746644 17.15275631 931.73178491 12.66137695 931.74121094 C9.01959981 931.74996888 5.378217 931.77060683 1.73657227 931.80273438 C-42.57193359 932.1847632 -84.10001145 925.50014362 -126.73510742 913.44604492 C-127.69658691 913.17791992 -128.65806641 912.90979492 -129.64868164 912.63354492 C-148.83641981 907.25635721 -167.10283869 899.96738798 -185.17407227 891.61254883 C-187.78173381 890.42480747 -190.40507621 889.28071752 -193.03588867 888.14526367 C-206.31321171 882.3639365 -218.70870487 875.51825681 -231.09838867 868.0324707 C-233.3825496 866.65816721 -235.67764293 865.30802166 -237.98510742 863.97338867 C-246.96217955 858.75558859 -255.41980197 852.90473082 -263.83129883 846.82250977 C-265.51735415 845.60348182 -267.20975676 844.39324348 -268.90307617 843.18432617 C-278.10055769 836.58133873 -286.81045982 829.4613898 -295.36914062 822.05786133 C-298.13358341 819.66697188 -300.90711057 817.30661306 -303.74682617 815.00463867 C-311.23962049 808.90266369 -318.1387617 802.25778136 -324.98510742 795.44604492 C-325.90807617 794.53226074 -326.83104492 793.61847656 -327.78198242 792.67700195 C-333.12842387 787.30655529 -338.05629365 781.75911776 -342.79174805 775.84399414 C-345.02865156 773.08383506 -347.38796086 770.55820103 -349.86010742 768.00854492 C-356.9791983 760.45203308 -362.99371493 752.01190834 -369.1184082 743.64868164 C-370.40446804 741.89651736 -371.70585246 740.15560341 -373.01245117 738.41870117 C-426.32708567 667.06951801 -459.6277273 572.8296032 -459.93823242 483.54760742 C-459.94678253 481.58227554 -459.94678253 481.58227554 -459.95550537 479.57723999 C-459.96593613 476.80889511 -459.9718268 474.04057848 -459.9753418 471.2722168 C-459.97967503 468.50352425 -459.99337875 465.73515241 -460.01635742 462.96655273 C-460.21862073 438.05668855 -458.72245964 413.53022662 -454.36010742 388.94604492 C-454.14733154 387.71305664 -453.93455566 386.48006836 -453.71533203 385.2097168 C-451.77233224 374.19342964 -449.46764305 363.29264235 -446.73510742 352.44604492 C-446.40905518 351.14207764 -446.40905518 351.14207764 -446.07641602 349.81176758 C-427.34810606 275.86278447 -390.25923638 208.23301284 -338.96557617 151.92260742 C-337.71773332 150.53708664 -336.47672486 149.1450483 -335.26220703 147.73022461 C-330.38536798 142.05964678 -325.20799443 136.73543905 -319.92260742 131.44604492 C-319.08407227 130.59526367 -318.24553711 129.74448242 -317.3815918 128.86791992 C-312.46119731 123.93617941 -307.39653996 119.43140506 -301.90283203 115.14819336 C-299.46367626 113.23291078 -297.1831456 111.1931828 -294.92260742 109.07104492 C-283.692404 98.86810041 -271.0704315 90.24394951 -258.73510742 81.44604492 C-258.12602539 81.0084082 -257.51694336 80.57077148 -256.8894043 80.11987305 C-249.97076413 75.15529199 -242.89965275 70.68509655 -235.46166992 66.54370117 C-232.82527205 65.07332106 -230.22287287 63.55641624 -227.63354492 62.00463867 C-226.92294922 61.57981201 -226.21235352 61.15498535 -225.48022461 60.71728516 C-224.14236055 59.91509053 -222.80674932 59.10911546 -221.47436523 58.29785156 C-209.04686139 50.87837662 -195.71579025 44.91696141 -182.54760742 38.94604492 C-181.47385864 38.45914185 -181.47385864 38.45914185 -180.37841797 37.96240234 C-160.54789964 28.99454504 -140.81135923 21.94394246 -119.73510742 16.44604492 C-117.86338867 15.95056152 -117.86338867 15.95056152 -115.95385742 15.44506836 C-101.82545526 11.71155749 -87.68488211 8.2349679 -73.29760742 5.63354492 C-71.79460083 5.35969971 -71.79460083 5.35969971 -70.26123047 5.08032227 C-67.45942393 4.60001257 -64.65493842 4.16247734 -61.84158325 3.75558472 C-60.34239628 3.53528405 -58.84468992 3.3048044 -57.34811401 3.06741333 C-38.2579635 0.0874385 -19.26890413 -0.05220854 0 0 Z " fill="#E8E8E8" transform="translate(494.735107421875,34.553955078125)"/>
<path d="M0 0 C3.53930385 0.00916036 7.07794599 0.00231387 10.6171875 -0.02050781 C54.58651191 -0.30226902 95.96521972 6.48677944 138.26489258 18.44604492 C139.22637207 18.71416992 140.18785156 18.98229492 141.1784668 19.25854492 C176.82716242 29.24876504 211.21751578 45.28827317 243.0222168 64.12182617 C245.07714707 65.33518801 247.13993021 66.53355709 249.20629883 67.72729492 C258.28451603 73.01449052 266.85049992 78.91571063 275.36108398 85.06958008 C277.04713931 86.28860802 278.73954192 87.49884636 280.43286133 88.70776367 C289.63034285 95.31075111 298.34024498 102.43070004 306.89892578 109.83422852 C309.66336857 112.22511796 312.43689572 114.58547678 315.27661133 116.88745117 C322.76940565 122.98942616 329.66854686 129.63430849 336.51489258 136.44604492 C337.8993457 137.81672119 337.8993457 137.81672119 339.31176758 139.21508789 C344.65820902 144.58553455 349.58607881 150.13297209 354.3215332 156.0480957 C356.55843671 158.80825478 358.91774602 161.33388882 361.38989258 163.88354492 C368.50898346 171.44005676 374.52350008 179.88018151 380.64819336 188.2434082 C381.9342532 189.99557249 383.23563761 191.73648643 384.54223633 193.47338867 C437.85687083 264.82257184 471.15751245 359.06248664 471.46801758 448.34448242 C471.47371765 449.65470367 471.47941772 450.96492493 471.48529053 452.31484985 C471.49572129 455.08319474 471.50161196 457.85151136 471.50512695 460.61987305 C471.50946018 463.38856559 471.5231639 466.15693743 471.54614258 468.92553711 C471.74822762 493.81343579 470.26598314 518.32337168 465.88989258 542.88354492 C465.67494141 544.12048096 465.45999023 545.35741699 465.23852539 546.63183594 C464.60039125 550.2405544 463.93975515 553.84403034 463.26489258 557.44604492 C462.98307129 558.95424805 462.98307129 558.95424805 462.69555664 560.49291992 C447.02160313 642.29922276 406.34535177 718.65711767 350.49536133 779.96948242 C349.24751848 781.35500321 348.00651002 782.74704155 346.79199219 784.16186523 C341.91515314 789.83244306 336.73777959 795.1566508 331.45239258 800.44604492 C330.61385742 801.29682617 329.77532227 802.14760742 328.91137695 803.02416992 C323.99098247 807.95591044 318.92632512 812.46068478 313.43261719 816.74389648 C310.99346142 818.65917906 308.71293076 820.69890704 306.45239258 822.82104492 C295.22218915 833.02398943 282.60021665 841.64814033 270.26489258 850.44604492 C269.65581055 850.88368164 269.04672852 851.32131836 268.41918945 851.7722168 C261.50054929 856.73679786 254.42943791 861.20699329 246.99145508 865.34838867 C243.63528033 867.220205 240.33894455 869.18246159 237.04345703 871.15869141 C228.31509958 876.37631173 219.44799676 881.08360851 210.26489258 885.44604492 C209.3196875 885.89737793 208.37448242 886.34871094 207.40063477 886.8137207 C195.72294821 892.36675929 183.99064316 897.71726993 171.95239258 902.44604492 C171.06543701 902.79530029 170.17848145 903.14455566 169.26464844 903.50439453 C133.22812273 917.35268289 94.46727677 925.56558612 56.26489258 930.44604492 C55.24616058 930.58200829 55.24616058 930.58200829 54.20684814 930.72071838 C45.73127178 931.72343297 37.21635625 931.64911244 28.69458008 931.68432617 C27.85005405 931.6884017 27.00552803 931.69247723 26.13541031 931.69667625 C21.64406847 931.71746644 17.15275631 931.73178491 12.66137695 931.74121094 C9.01959981 931.74996888 5.378217 931.77060683 1.73657227 931.80273438 C-42.57193359 932.1847632 -84.10001145 925.50014362 -126.73510742 913.44604492 C-127.69658691 913.17791992 -128.65806641 912.90979492 -129.64868164 912.63354492 C-148.83641981 907.25635721 -167.10283869 899.96738798 -185.17407227 891.61254883 C-187.78173381 890.42480747 -190.40507621 889.28071752 -193.03588867 888.14526367 C-206.31321171 882.3639365 -218.70870487 875.51825681 -231.09838867 868.0324707 C-233.3825496 866.65816721 -235.67764293 865.30802166 -237.98510742 863.97338867 C-246.96217955 858.75558859 -255.41980197 852.90473082 -263.83129883 846.82250977 C-265.51735415 845.60348182 -267.20975676 844.39324348 -268.90307617 843.18432617 C-278.10055769 836.58133873 -286.81045982 829.4613898 -295.36914062 822.05786133 C-298.13358341 819.66697188 -300.90711057 817.30661306 -303.74682617 815.00463867 C-311.23962049 808.90266369 -318.1387617 802.25778136 -324.98510742 795.44604492 C-325.90807617 794.53226074 -326.83104492 793.61847656 -327.78198242 792.67700195 C-333.12842387 787.30655529 -338.05629365 781.75911776 -342.79174805 775.84399414 C-345.02865156 773.08383506 -347.38796086 770.55820103 -349.86010742 768.00854492 C-356.9791983 760.45203308 -362.99371493 752.01190834 -369.1184082 743.64868164 C-370.40446804 741.89651736 -371.70585246 740.15560341 -373.01245117 738.41870117 C-426.32708567 667.06951801 -459.6277273 572.8296032 -459.93823242 483.54760742 C-459.94678253 481.58227554 -459.94678253 481.58227554 -459.95550537 479.57723999 C-459.96593613 476.80889511 -459.9718268 474.04057848 -459.9753418 471.2722168 C-459.97967503 468.50352425 -459.99337875 465.73515241 -460.01635742 462.96655273 C-460.21862073 438.05668855 -458.72245964 413.53022662 -454.36010742 388.94604492 C-454.14733154 387.71305664 -453.93455566 386.48006836 -453.71533203 385.2097168 C-451.77233224 374.19342964 -449.46764305 363.29264235 -446.73510742 352.44604492 C-446.40905518 351.14207764 -446.40905518 351.14207764 -446.07641602 349.81176758 C-427.34810606 275.86278447 -390.25923638 208.23301284 -338.96557617 151.92260742 C-337.71773332 150.53708664 -336.47672486 149.1450483 -335.26220703 147.73022461 C-330.38536798 142.05964678 -325.20799443 136.73543905 -319.92260742 131.44604492 C-319.08407227 130.59526367 -318.24553711 129.74448242 -317.3815918 128.86791992 C-312.46119731 123.93617941 -307.39653996 119.43140506 -301.90283203 115.14819336 C-299.46367626 113.23291078 -297.1831456 111.1931828 -294.92260742 109.07104492 C-283.692404 98.86810041 -271.0704315 90.24394951 -258.73510742 81.44604492 C-258.12602539 81.0084082 -257.51694336 80.57077148 -256.8894043 80.11987305 C-249.97076413 75.15529199 -242.89965275 70.68509655 -235.46166992 66.54370117 C-232.82527205 65.07332106 -230.22287287 63.55641624 -227.63354492 62.00463867 C-226.92294922 61.57981201 -226.21235352 61.15498535 -225.48022461 60.71728516 C-224.14236055 59.91509053 -222.80674932 59.10911546 -221.47436523 58.29785156 C-209.04686139 50.87837662 -195.71579025 44.91696141 -182.54760742 38.94604492 C-181.47385864 38.45914185 -181.47385864 38.45914185 -180.37841797 37.96240234 C-160.54789964 28.99454504 -140.81135923 21.94394246 -119.73510742 16.44604492 C-117.86338867 15.95056152 -117.86338867 15.95056152 -115.95385742 15.44506836 C-101.82545526 11.71155749 -87.68488211 8.2349679 -73.29760742 5.63354492 C-71.79460083 5.35969971 -71.79460083 5.35969971 -70.26123047 5.08032227 C-67.45942393 4.60001257 -64.65493842 4.16247734 -61.84158325 3.75558472 C-60.34239628 3.53528405 -58.84468992 3.3048044 -57.34811401 3.06741333 C-38.2579635 0.0874385 -19.26890413 -0.05220854 0 0 Z M-54.73510742 13.44604492 C-55.99709961 13.62296875 -57.2590918 13.79989258 -58.55932617 13.98217773 C-117.82468582 22.58665197 -177.82386928 42.44666847 -228.73510742 74.44604492 C-230.48372633 75.52429806 -232.23242962 76.60241437 -233.98120117 77.68041992 C-246.34641403 85.36690359 -258.17385001 93.60098654 -269.73510742 102.44604492 C-270.69320312 103.17452637 -270.69320312 103.17452637 -271.6706543 103.91772461 C-293.44087551 120.51838956 -315.14905515 139.28049562 -332.85620117 160.22729492 C-334.40996093 162.06208815 -335.98719975 163.86662789 -337.58276367 165.66479492 C-345.76434017 174.92230477 -353.38530368 184.51719385 -360.73510742 194.44604492 C-361.40968994 195.35652588 -361.40968994 195.35652588 -362.09790039 196.28540039 C-378.13967305 218.06115011 -391.55560706 241.32964735 -403.73510742 265.44604492 C-404.40074707 266.76113037 -404.40074707 266.76113037 -405.07983398 268.1027832 C-428.34118991 314.44032125 -442.14115275 366.0029048 -447.73510742 417.44604492 C-447.83952148 418.35418945 -447.94393555 419.26233398 -448.05151367 420.19799805 C-451.43929642 450.53795111 -450.95649108 482.11097959 -447.73510742 512.44604492 C-447.61151855 513.61361328 -447.48792969 514.78118164 -447.3605957 515.98413086 C-440.08445946 581.76040248 -419.04811235 647.25794095 -383.73510742 703.44604492 C-383.30665527 704.13134277 -382.87820313 704.81664062 -382.43676758 705.52270508 C-367.5403673 729.23412223 -350.73595659 751.37140831 -331.88745117 772.07495117 C-330.49158636 773.61268246 -329.10791645 775.16160723 -327.73901367 776.72338867 C-322.90366393 782.21685785 -317.83598773 787.45051841 -312.67260742 792.63354492 C-312.01188232 793.2988623 -311.35115723 793.96417969 -310.67041016 794.6496582 C-306.78895118 798.51909433 -302.80328971 802.21133267 -298.65332031 805.79101562 C-296.87643058 807.32411165 -295.12313584 808.87952354 -293.37573242 810.44604492 C-283.99376715 818.78235078 -274.13745593 826.36365067 -264.01391602 833.77563477 C-262.06548353 835.20387293 -260.12714562 836.64425864 -258.19213867 838.09057617 C-183.61807646 892.86299945 -89.82516649 922.07343992 2.38989258 921.75854492 C4.0688562 921.7558107 4.0688562 921.7558107 5.78173828 921.75302124 C36.02323713 921.6708025 65.63527365 919.79133139 95.26489258 913.44604492 C97.06482666 913.06706055 97.06482666 913.06706055 98.90112305 912.68041992 C161.42028925 899.34125412 221.85820623 873.72147064 273.26489258 835.44604492 C273.97436035 834.91914062 274.68382812 834.39223633 275.41479492 833.84936523 C287.99368469 824.4646279 299.99408919 814.57174598 311.53442383 803.93041992 C313.69291464 801.9664712 315.87629494 800.05120675 318.08520508 798.14526367 C322.33920342 794.43295612 326.34780147 790.51129563 330.32739258 786.50854492 C330.99577148 785.8440332 331.66415039 785.17952148 332.3527832 784.49487305 C336.3044323 780.53554339 340.06798567 776.46549594 343.72167969 772.22998047 C345.60700822 770.05056335 347.55974475 767.93783883 349.51489258 765.82104492 C354.60829846 760.17419595 359.26455845 754.22314205 363.9050293 748.2043457 C365.19460368 746.53692835 366.495291 744.87893719 367.80004883 743.22338867 C383.63801081 723.03952997 397.29068536 701.11829668 409.26489258 678.44604492 C409.7325 677.56142578 410.20010742 676.67680664 410.68188477 675.76538086 C436.16116 627.14145087 451.58727661 574.23632741 458.51489258 519.88354492 C458.67820068 518.61285156 458.84150879 517.3421582 459.00976562 516.03295898 C461.00607817 499.57321846 461.47342155 483.1364218 461.45239258 466.57104492 C461.45178833 465.68074585 461.45118408 464.79044678 461.45056152 463.87316895 C461.30056271 381.85308401 439.20551283 298.12229927 395.26489258 228.44604492 C394.83789062 227.76364746 394.41088867 227.08125 393.97094727 226.37817383 C379.0737027 202.66319479 362.26809374 180.523265 343.41723633 159.81713867 C342.02137152 158.27940738 340.63770161 156.73048262 339.26879883 155.16870117 C334.43344908 149.67523199 329.36577288 144.44157144 324.20239258 139.25854492 C323.54166748 138.59322754 322.88094238 137.92791016 322.20019531 137.24243164 C317.71812624 132.77424582 313.06491423 128.56856191 308.26489258 124.44604492 C307.1938915 123.50802846 306.12353859 122.56927122 305.05395508 121.62963867 C284.21704438 103.48041119 261.96202648 87.62782803 238.26489258 73.44604492 C237.42474609 72.94073242 236.58459961 72.43541992 235.71899414 71.91479492 C194.78671708 47.44146773 149.86518458 30.36982364 103.35668945 20.12768555 C100.6487683 19.53067703 97.94903989 18.90668801 95.24926758 18.27416992 C84.42011777 15.83258141 73.46874296 14.52109067 62.45239258 13.25854492 C61.7121283 13.17359772 60.97186401 13.08865051 60.20916748 13.00112915 C41.72229411 10.90600491 23.4283658 10.20565884 4.82739258 10.19604492 C3.65159637 10.19537018 2.47580017 10.19469543 1.26437378 10.19400024 C-17.58656126 10.21113935 -36.04763786 10.82350915 -54.73510742 13.44604492 Z " fill="#9C9C9C" transform="translate(494.735107421875,34.553955078125)"/>
<path d="M0 0 C7.34465918 5.77080364 13.17684264 12.93549858 15.625 22.0625 C16.66221709 32.70000546 15.97905085 42.95485304 9.63671875 51.8515625 C1.63128408 61.22580206 -7.02935902 66.1799233 -19.39453125 67.34765625 C-30.20756541 67.66691143 -38.98995425 64.96691499 -47.375 58.0625 C-54.03598487 51.70428717 -58.97271171 44.27475949 -59.578125 34.92578125 C-59.7353401 23.01673772 -57.58830422 13.92647879 -49.47265625 4.9609375 C-35.33596567 -8.690044 -16.64439533 -9.55511584 0 0 Z " fill="#E8E8E8" transform="translate(760.375,472.9375)"/>
<path d="M0 0 C30.33333333 0 30.33333333 0 39.8125 5.6875 C43.80078136 9.90368315 45.63304991 14.7575272 46.5625 20.4375 C45.65775694 26.16753936 43.38480158 31.9064719 38.953125 35.796875 C37 37 37 37 35 37 C36.38076136 39.76152272 38.02183958 40.05813287 40.8125 41.3125 C44.96230784 43.33420125 47.5449553 44.9737267 50 49 C50.5775 49.9075 51.155 50.815 51.75 51.75 C54.11073445 57.88790956 53.70040433 64.00296802 51.0859375 70.0234375 C46.18383455 78.94597021 40.95029353 80.85404436 31 85 C20.77 85 10.54 85 0 85 C0 56.95 0 28.9 0 0 Z " fill="#787878" transform="translate(476,461)"/>
<path d="M0 0 C4.95 0 9.9 0 15 0 C18.31110729 7.8745134 21.50830347 15.77721139 24.57421875 23.75 C25.414701 25.9257861 26.25519615 28.1015672 27.09570312 30.27734375 C28.3997385 33.65879811 29.70310746 37.0405083 31.00610352 40.42236328 C32.27717738 43.71970771 33.55059995 47.0161379 34.82421875 50.3125 C35.21381271 51.32602539 35.60340668 52.33955078 36.00480652 53.38378906 C36.36891129 54.32577148 36.73301605 55.26775391 37.1081543 56.23828125 C37.58517036 57.4763855 37.58517036 57.4763855 38.07182312 58.73950195 C38.95320204 60.88602744 39.93317702 62.94031 41 65 C41.28148392 64.28891586 41.56296783 63.57783173 41.85298157 62.84519958 C44.51468862 56.12171153 47.17734372 49.39860005 49.84104633 42.67590237 C51.21022248 39.2202562 52.57904038 35.76446905 53.94702148 32.30834961 C55.26888177 28.96879099 56.59170667 25.62961593 57.91518211 22.2906971 C58.41823401 21.02109258 58.92094676 19.75135362 59.4233036 18.48147392 C61.87400094 12.28709902 64.32666069 6.10210246 67 0 C71.95 0 76.9 0 82 0 C82 28.05 82 56.1 82 85 C78.04 85 74.08 85 70 85 C69.505 56.29 69.505 56.29 69 27 C62.9225708 43.09296373 62.9225708 43.09296373 56.85449219 59.18945312 C56.08562246 61.22017933 55.31643754 63.25078624 54.546875 65.28125 C54.15709473 66.31991211 53.76731445 67.35857422 53.36572266 68.42871094 C51.1967305 74.13830384 48.84003627 79.5914847 46 85 C42.7 85 39.4 85 36 85 C35.47567383 83.6588916 34.95134766 82.3177832 34.41113281 80.93603516 C32.4509121 75.92253574 30.49017878 70.90923693 28.52929688 65.89599609 C27.68345559 63.73328971 26.83775015 61.57053018 25.9921875 59.40771484 C24.77119778 56.28468807 23.54970675 53.16185774 22.328125 50.0390625 C21.95504211 49.08448151 21.58195923 48.12990051 21.1975708 47.14639282 C18.8262699 41.08629109 16.42573123 35.03852024 14 29 C13.98969254 29.68682358 13.97938507 30.37364716 13.96876526 31.08128357 C13.86094405 38.20215857 13.74632717 45.32290074 13.62768555 52.44360352 C13.5842582 55.10438265 13.5425891 57.76519107 13.50268555 60.42602539 C13.44517128 64.24113815 13.38142332 68.05610242 13.31640625 71.87109375 C13.29133751 73.66793861 13.29133751 73.66793861 13.26576233 75.50108337 C13.24581711 76.6021492 13.22587189 77.70321503 13.20532227 78.83764648 C13.18977798 79.81249496 13.1742337 80.78734344 13.15821838 81.79173279 C13 84 13 84 12 85 C10.16884117 85.09851171 8.33380067 85.12972629 6.5 85.125 C5.4996875 85.12757813 4.499375 85.13015625 3.46875 85.1328125 C1 85 1 85 0 84 C-0.09509559 81.38311559 -0.12556 78.792711 -0.11352539 76.17553711 C-0.11367142 75.35609116 -0.11381744 74.5366452 -0.1139679 73.69236755 C-0.11326852 70.97066647 -0.10547501 68.24903295 -0.09765625 65.52734375 C-0.09579216 63.64547259 -0.09436821 61.76360094 -0.09336853 59.88172913 C-0.08954267 54.91851471 -0.07971181 49.95532936 -0.06866455 44.99212646 C-0.0584519 39.93160394 -0.05387122 34.87107673 -0.04882812 29.81054688 C-0.0380896 19.87368512 -0.02101236 9.93684497 0 0 Z " fill="#232323" transform="translate(553,342)"/>
<path d="M0 0 C1.32 0.33 2.64 0.66 4 1 C4.57515971 4.87697419 5.14462066 8.75473993 5.70898438 12.63330078 C5.99573533 14.59581276 6.28689713 16.55767863 6.578125 18.51953125 C6.75859375 19.76347656 6.9390625 21.00742187 7.125 22.2890625 C7.29257812 23.43068848 7.46015625 24.57231445 7.6328125 25.74853516 C7.98482125 28.8655914 8.06640559 31.86648615 8 35 C5.6875 35.2890625 5.6875 35.2890625 3 35 C1.375 33.0234375 1.375 33.0234375 0 30.375 C-0.51175781 29.45847656 -1.02351563 28.54195312 -1.55078125 27.59765625 C-2.02902344 26.74042969 -2.50726563 25.88320313 -3 25 C-7.17509308 18.91629295 -12.67166815 15.56982823 -19 12 C-19.63679688 11.63390625 -20.27359375 11.2678125 -20.9296875 10.890625 C-28.96432705 7.10541703 -40.60787965 7.87386951 -48.875 10.4375 C-60.58873418 15.52048675 -66.42744585 24.59459506 -71 36 C-75.67784601 49.13878226 -74.42415384 66.27154083 -69 79 C-67.22433609 82.51809346 -65.25388373 85.77046249 -63 89 C-62.401875 89.9075 -61.80375 90.815 -61.1875 91.75 C-53.5379661 99.61809201 -43.90331322 104.05354631 -33 104.3125 C-21.20847883 104.19231462 -11.66548709 100.60333803 -3.32421875 92.33984375 C3.20572672 85.22657809 5.7548316 77.25281521 8 68 C9.65 68 11.3 68 13 68 C14.81922018 79.37173891 16.57850927 90.45124086 16 102 C11.1953125 101.203125 11.1953125 101.203125 9.4375 99.375 C8.963125 98.92125 8.48875 98.4675 8 98 C4.67489151 98.44144909 2.48857443 99.8923656 -0.25 101.75 C-4.74114876 104.51943051 -9.17933432 106.26351117 -14.1875 107.8125 C-14.85233398 108.01907227 -15.51716797 108.22564453 -16.20214844 108.43847656 C-33.77176616 113.631682 -54.13377714 112.62663984 -70.375 103.875 C-82.86205498 95.83793887 -90.73017445 85.00841268 -94.9375 70.84375 C-95.4698928 68.21136338 -95.81120695 65.67742871 -96 63 C-96.05671875 62.2575 -96.1134375 61.515 -96.171875 60.75 C-96.7563236 44.38543915 -90.93458059 31.14195635 -80.265625 19.03125 C-71.33101721 10.33384419 -58.08724859 5.10528654 -46 3 C-45.28585937 2.87109375 -44.57171875 2.7421875 -43.8359375 2.609375 C-30.65410195 0.61371862 -17.52851777 2.75783823 -5 7 C-3.35 4.69 -1.7 2.38 0 0 Z " fill="#747474" transform="translate(469,567)"/>
<path d="M0 0 C-0.33 1.65 -0.66 3.3 -1 5 C-1.92232422 5.25523437 -1.92232422 5.25523437 -2.86328125 5.515625 C-3.67152344 5.75796875 -4.47976562 6.0003125 -5.3125 6.25 C-6.11300781 6.48203125 -6.91351563 6.7140625 -7.73828125 6.953125 C-10.67935921 8.31445297 -11.44887004 9.11488727 -13 12 C-13.43017118 15.33454722 -13.34658018 18.63935676 -13.27734375 21.99609375 C-13.26638168 23.0055455 -13.25541962 24.01499725 -13.24412537 25.05503845 C-13.04907874 37.7394681 -12.303974 50.40073592 -11.5625 63.0625 C-11.42586774 65.48890057 -11.28979796 67.91533287 -11.15429688 70.34179688 C-10.83931909 75.95125755 -10.50513302 81.55935258 -10.16436768 87.16729736 C-10.02023051 89.6513486 -9.89650178 92.13493681 -9.78466797 94.62060547 C-9.72037598 95.8582666 -9.65608398 97.09592773 -9.58984375 98.37109375 C-9.54593506 99.36939209 -9.50202637 100.36769043 -9.45678711 101.39624023 C-8.91226127 104.50012483 -7.83432254 106.4536174 -6 109 C-2.21101975 111.10498903 1.73221073 111.49790714 6 112 C6 113.65 6 115.3 6 117 C1.18468866 117.29129709 -3.6309676 117.57574037 -8.44702148 117.85449219 C-10.0770088 117.94972525 -11.70689762 118.04666337 -13.33666992 118.14550781 C-24.57267105 118.82542637 -35.74360791 119.12980864 -47 119 C-47 117.35 -47 115.7 -47 114 C-45.11197917 113.64192708 -43.22395833 113.28385417 -41.3359375 112.92578125 C-37.79601898 111.52283695 -35.62645391 109.75311978 -33 107 C-32.48640252 104.18328931 -32.37871424 102.28635739 -32.5625 99.5 C-32.58844238 98.72503174 -32.61438477 97.95006348 -32.64111328 97.15161133 C-32.70278963 95.3995648 -32.7781879 93.64796629 -32.86474609 91.89697266 C-33.00836581 88.82081452 -33.09672748 85.74644282 -33.17578125 82.66796875 C-33.53857768 69.36131751 -34.14033387 56.06221823 -34.81402588 42.76797485 C-34.89543173 41.14909286 -34.97454581 39.53009376 -35.0512085 37.91098022 C-34.78086342 23.8235473 -34.78086342 23.8235473 -39.38769531 11.30273438 C-41.77451503 9.37419561 -44.21794891 8.98304379 -47.1875 8.3125 C-48.27417969 8.06113281 -49.36085937 7.80976563 -50.48046875 7.55078125 C-51.31191406 7.36902344 -52.14335937 7.18726563 -53 7 C-53 5.35 -53 3.7 -53 2 C-47.38088698 1.71128908 -41.76158784 1.42662614 -36.14208984 1.14550781 C-34.23545977 1.04958079 -32.32888238 0.95260006 -30.42236328 0.85449219 C-10.11122115 -0.18928963 -10.11122115 -0.18928963 0 0 Z " fill="#737373" transform="translate(194,442)"/>
<path d="M0 0 C3 1 3 1 4.08830261 2.60656738 C4.42420914 3.30423218 4.76011566 4.00189697 5.10620117 4.72070312 C5.49533188 5.51618057 5.88446259 6.31165802 6.28538513 7.13124084 C6.70038773 8.00574387 7.11539032 8.88024689 7.54296875 9.78125 C7.98419571 10.69019516 8.42542267 11.59914032 8.88002014 12.53562927 C10.32552355 15.51918457 11.75660854 18.50941309 13.1875 21.5 C14.17650582 23.54934555 15.16641959 25.59825317 16.15722656 27.64672852 C18.15642071 31.78314621 20.15025138 35.92208492 22.14013672 40.06298828 C24.71964462 45.42601646 27.32452532 50.77622158 29.94140625 56.12109375 C31.03503154 58.35861101 32.12835003 60.59627792 33.22158813 62.83398438 C33.90238085 64.22647912 34.58398959 65.61857523 35.26644897 67.01025391 C36.20730171 68.93087352 37.1433277 70.85377122 38.078125 72.77734375 C38.59793945 73.84202881 39.11775391 74.90671387 39.65332031 76.00366211 C40.98117489 78.95811447 42.03290136 81.91065712 43 85 C40.03 85 37.06 85 34 85 C32.78664 82.7734536 31.57938526 80.54389743 30.375 78.3125 C30.04371094 77.70599609 29.71242188 77.09949219 29.37109375 76.47460938 C25.93402745 70.08685408 23.06161546 63.63350016 20 57 C7.46 57 -5.08 57 -18 57 C-22.62 66.24 -27.24 75.48 -32 85 C-34.97 85 -37.94 85 -41 85 C-38.96197373 78.41440053 -36.41491657 72.43633792 -33.28125 66.3046875 C-32.82648788 65.40209702 -32.37172577 64.49950653 -31.90318298 63.56956482 C-30.44067501 60.66870724 -28.97028226 57.77192361 -27.5 54.875 C-25.4980911 50.90916669 -23.50066504 46.94108464 -21.50390625 42.97265625 C-21.01874039 42.00956039 -20.53357452 41.04646454 -20.03370667 40.05418396 C-15.98400737 32.00213378 -12.04781331 23.90285039 -8.234375 15.73583984 C-5.71036144 10.3568127 -2.9475837 5.15923073 0 0 Z " fill="#767676" transform="translate(577,461)"/>
<path d="M0 0 C9.71690956 7.69982654 16.34519808 16.9002188 17.9375 29.3125 C19.14013843 41.35491947 16.60889212 52.96142456 9.3125 62.75 C0.59258154 72.60088533 -10.8976134 79.65260724 -24.19140625 80.515625 C-39.63952933 80.72652088 -51.71968639 76.92221256 -63.1796875 66.34375 C-72.18330756 56.63030097 -75.75305195 45.29831038 -75.34375 32.18359375 C-74.05796167 19.05783792 -67.12869538 7.62004227 -57.0625 -0.6875 C-40.3378517 -12.61238293 -16.55118548 -11.69271616 0 0 Z M-59.0625 13.3125 C-65.62077124 23.06308657 -66.9669745 31.65624417 -66.0625 43.3125 C-63.43294869 54.29651147 -56.31748245 62.22327071 -47.0625 68.3125 C-37.48666822 73.53046821 -26.63523137 73.58026542 -16.3125 70.6875 C-10.66698184 68.76074798 -6.38625959 66.4076908 -2.0625 62.3125 C-1.43601562 61.73757813 -0.80953125 61.16265625 -0.1640625 60.5703125 C6.99429566 53.29113817 9.12414492 44.70475444 9.4375 34.6875 C9.13249256 24.73409063 5.8955108 16.51901119 -1.0625 9.3125 C-10.40015719 1.43385175 -21.03428285 -1.70723255 -33.12890625 -1.125 C-43.8337384 0.06560695 -52.0664384 5.23534185 -59.0625 13.3125 Z " fill="#777777" transform="translate(767.0625,467.6875)"/>
<path d="M0 0 C3.92372096 1.96186048 5.4971199 3.39456386 8.3125 6.625 C9.1065625 7.52863281 9.900625 8.43226563 10.71875 9.36328125 C11.4715625 10.23339844 12.224375 11.10351562 13 12 C17.77157 17.49814998 22.64502107 22.88204661 27.59472656 28.21972656 C30.84586479 31.73177118 34.02969216 35.28983958 37.16015625 38.91015625 C39.56670889 41.64371391 42.0333943 44.32079875 44.5 47 C51.1206119 54.20803335 51.1206119 54.20803335 54.0625 57.5 C54.58972656 58.0878125 55.11695313 58.675625 55.66015625 59.28125 C57.07468301 61.09580328 58.04336604 62.91279864 59 65 C59.66 65 60.32 65 61 65 C61 43.55 61 22.1 61 0 C63.64 0 66.28 0 69 0 C69 28.05 69 56.1 69 85 C65.59363058 83.29681529 64.22192988 82.44811234 61.79296875 79.8046875 C61.2100708 79.1753833 60.62717285 78.5460791 60.02661133 77.89770508 C59.41970459 77.2302124 58.81279785 76.56271973 58.1875 75.875 C57.55803467 75.19139404 56.92856934 74.50778809 56.2800293 73.8034668 C52.71668735 69.92202711 49.20014174 66.00444671 45.76171875 62.01171875 C43.42528786 59.34373225 41.02580246 56.73488749 38.625 54.125 C30.64863343 45.45112707 22.75010956 36.71041299 15.08203125 27.76171875 C14.45683594 27.03597656 13.83164062 26.31023437 13.1875 25.5625 C12.62417969 24.90378906 12.06085937 24.24507813 11.48046875 23.56640625 C10.06530792 21.88980014 10.06530792 21.88980014 8 21 C8 41.79 8 62.58 8 84 C5.36 84 2.72 84 0 84 C0 56.28 0 28.56 0 0 Z " fill="#767676" transform="translate(800,461)"/>
<path d="M0 0 C1.98 0.99 1.98 0.99 4 2 C4.33 2.99 4.66 3.98 5 5 C5.66 5 6.32 5 7 5 C8.33984375 6.328125 8.33984375 6.328125 9.9375 8.25 C13.04568126 11.90973743 16.24241826 15.4733571 19.5 19 C22.51980007 22.27804574 25.5220352 25.56582555 28.4375 28.9375 C31.54964295 32.52958789 34.76875835 36.01548282 38 39.5 C42.41787603 44.26501423 46.73775147 49.0943932 51 54 C53.97 57.3 56.94 60.6 60 64 C60.33 42.88 60.66 21.76 61 0 C63.64 0 66.28 0 69 0 C69 28.05 69 56.1 69 85 C64.9370329 82.96851645 62.62277776 80.69349458 59.6875 77.375 C58.95466797 76.56095703 58.95466797 76.56095703 58.20703125 75.73046875 C55.0608704 72.22641129 51.95918189 68.68367141 48.875 65.125 C45.98080664 61.84491419 43.00781108 58.63731943 40.04467773 55.41967773 C37.51259884 52.66526572 35.00964732 49.89257501 32.5625 47.0625 C28.94540564 42.88758868 25.18351202 38.8506676 21.42456055 34.80395508 C17.96445678 31.07098802 14.58934524 27.27992123 11.3046875 23.390625 C10.02926389 21.87034042 10.02926389 21.87034042 8 21 C8 41.79 8 62.58 8 84 C5.36 84 2.72 84 0 84 C0 56.28 0 28.56 0 0 Z " fill="#757575" transform="translate(213,461)"/>
<path d="M0 0 C0.79494873 0.00894287 1.58989746 0.01788574 2.40893555 0.02709961 C15.89390163 0.29188732 27.65383056 3.3388831 37.5625 13.1875 C38.47533175 14.1931621 39.3789658 15.20792636 40.25 16.25 C39.1524777 19.24324263 38.57317108 20.09610901 35.625 21.5 C34.84125 21.7475 34.0575 21.995 33.25 22.25 C32.71632813 21.71890625 32.18265625 21.1878125 31.6328125 20.640625 C26.24953116 15.53675273 21.3460468 12.41925783 14.25 10.25 C13.64929688 10.05921875 13.04859375 9.8684375 12.4296875 9.671875 C0.23449298 7.31151477 -10.90728122 9.60838317 -21.5 15.875 C-29.39987702 21.50967931 -34.05845707 29.78650304 -35.75 39.25 C-36.94795363 48.78301129 -34.51774095 58.19963164 -29.1875 66.125 C-25.12901288 71.29305516 -20.70975867 74.54731874 -14.75 77.25 C-13.87674072 77.64844116 -13.87674072 77.64844116 -12.98583984 78.05493164 C-7.73220991 80.26082876 -3.04155145 80.75831048 2.625 80.6875 C3.45990967 80.68137695 4.29481934 80.67525391 5.1550293 80.66894531 C15.47799693 80.40737514 23.12308984 76.76656371 30.875 69.9375 C33.25 68.25 33.25 68.25 35.375 68.375 C37.25 69.25 37.25 69.25 40.25 71.25 C37.3879562 77.8413736 30.99682666 82.49461251 24.55859375 85.40625 C9.79340103 90.80266561 -6.45765304 91.33776072 -20.94921875 84.80859375 C-32.67588492 78.46707164 -39.56112031 69.52469937 -43.859375 57.0234375 C-46.41047098 46.21484663 -46.27480694 33.0610141 -40.75 23.25 C-31.48838419 8.75967451 -17.38560873 -0.22021154 0 0 Z " fill="#777777" transform="translate(342.75,458.75)"/>
<path d="M0 0 C22.44 0 44.88 0 68 0 C68 3.63 68 7.26 68 11 C58.76 11 49.52 11 40 11 C40 35.42 40 59.84 40 85 C36.04 85 32.08 85 28 85 C28 60.58 28 36.16 28 11 C18.76 11 9.52 11 0 11 C0 7.37 0 3.74 0 0 Z " fill="#212121" transform="translate(469,342)"/>
<path d="M0 0 C2.64 0 5.28 0 8 0 C8.00586624 0.77150391 8.01173248 1.54300781 8.01777649 2.33789062 C8.07585746 9.63481998 8.14802118 16.93141386 8.23571491 24.2280426 C8.28030241 27.97866639 8.31958339 31.72918446 8.34643555 35.47998047 C8.37258551 39.10471364 8.41306848 42.72903744 8.46318626 46.35351562 C8.47977647 47.73123046 8.49133936 49.10901597 8.49761391 50.48681641 C8.25030804 62.26315075 8.25030804 62.26315075 13.34516907 72.5090332 C18.84754743 77.42203764 24.0647954 78.46087004 31.2109375 78.31640625 C36.73832432 77.68934976 40.53233596 75.50628678 44.375 71.5625 C47.358789 66.85729427 48.2529683 63.12417878 48.31884766 57.55737305 C48.33871735 56.27642258 48.35858704 54.99547211 48.37905884 53.67570496 C48.39093344 52.28771131 48.4025964 50.89971583 48.4140625 49.51171875 C48.43278405 48.08395785 48.4523582 46.6562079 48.4727478 45.22846985 C48.52397101 41.48194854 48.56364894 37.73539139 48.60089111 33.9887085 C48.64099253 30.16100268 48.69205679 26.33344465 48.7421875 22.50585938 C48.83883049 15.00400783 48.92327213 7.50208448 49 0 C51.97 0 54.94 0 58 0 C58.04667382 7.22459919 58.08204498 14.44916501 58.10362434 21.67388535 C58.11398986 25.02989848 58.12912155 28.38572928 58.15087891 31.74169922 C58.1753434 35.61428501 58.18653247 39.48672558 58.1953125 43.359375 C58.20563507 44.544245 58.21595764 45.72911499 58.22659302 46.94989014 C58.22950506 68.93114247 58.22950506 68.93114247 52 77 C42.86511714 85.49560929 36.06030013 86.63934401 23.953125 86.375 C16.18817698 85.96784917 10.89013449 83.28472563 5.5625 77.6875 C-1.03703452 69.8665591 -0.40117593 60.38610047 -0.29296875 50.78125 C-0.28736451 49.31295203 -0.28309833 47.84464839 -0.28010559 46.37634277 C-0.26872184 42.53593099 -0.23931166 38.69586658 -0.20599365 34.85559082 C-0.17515211 30.92721249 -0.16157034 26.99877733 -0.14648438 23.0703125 C-0.11443467 15.380051 -0.0633182 7.69007441 0 0 Z " fill="#787878" transform="translate(399,461)"/>
<path d="M0 0 C14.85 0 29.7 0 45 0 C45 2.31 45 4.62 45 7 C32.79 7.33 20.58 7.66 8 8 C8 15.59 8 23.18 8 31 C26.315 31.495 26.315 31.495 45 32 C45 34.31 45 36.62 45 39 C32.46 39 19.92 39 7 39 C7 48.9 7 58.8 7 69 C19.54 69 32.08 69 45 69 C45 71.64 45 74.28 45 77 C30.15 77 15.3 77 0 77 C0 51.59 0 26.18 0 0 Z " fill="#484848" transform="translate(502,584)"/>
<path d="M0 0 C15.84 0 31.68 0 48 0 C48 2.64 48 5.28 48 8 C41.73 8 35.46 8 29 8 C29 33.41 29 58.82 29 85 C26.03 85 23.06 85 20 85 C20 59.59 20 34.18 20 8 C13.4 8 6.8 8 0 8 C0 5.36 0 2.72 0 0 Z " fill="#787878" transform="translate(613,461)"/>
<path d="M0 0 C3.96 0 7.92 0 12 0 C12 28.05 12 56.1 12 85 C8.04 85 4.08 85 0 85 C0 56.95 0 28.9 0 0 Z " fill="#1F1F1F" transform="translate(436,342)"/>
<path d="M0 0 C3.96 0 7.92 0 12 0 C12 28.05 12 56.1 12 85 C8.04 85 4.08 85 0 85 C0 56.95 0 28.9 0 0 Z " fill="#202020" transform="translate(399,342)"/>
<path d="M0 0 C23.90922401 -0.67349927 23.90922401 -0.67349927 30.66796875 5.53125 C34.51625898 9.92929598 35.35396116 13.02121247 35.28125 18.68359375 C34.71093185 23.38079739 31.93295087 26.11615181 28.625 29.25 C22.51991512 33.32005658 16.7009274 33.25520352 9.625 33.125 C6.44875 33.08375 3.2725 33.0425 0 33 C0 22.11 0 11.22 0 0 Z " fill="#E7E7E7" transform="translate(485,505)"/>
<path d="M0 0 C2.64 0 5.28 0 8 0 C8 23.1 8 46.2 8 70 C17.9 70 27.8 70 38 70 C38 72.31 38 74.62 38 77 C25.46 77 12.92 77 0 77 C0 51.59 0 26.18 0 0 Z " fill="#4B4B4B" transform="translate(625,584)"/>
<path d="M0 0 C2.31 0 4.62 0 7 0 C7.33 22.77 7.66 45.54 8 69 C22.85 69.495 22.85 69.495 38 70 C38 72.31 38 74.62 38 77 C25.46 77 12.92 77 0 77 C0 51.59 0 26.18 0 0 Z " fill="#474747" transform="translate(567,584)"/>
<path d="M0 0 C2.660625 -0.061875 5.32125 -0.12375 8.0625 -0.1875 C8.8862915 -0.21481201 9.71008301 -0.24212402 10.55883789 -0.27026367 C16.88179814 -0.34067863 21.54770958 0.86210579 26.4375 5.125 C28.63943369 9.17655798 28.88825132 12.48922808 28 17 C26.14032662 21.11502195 23.813816 23.491365 20 25.875 C12.97941876 28.50771797 7.92236242 28 0 28 C0 18.76 0 9.52 0 0 Z " fill="#E6E6E6" transform="translate(485,469)"/>
<path d="M0 0 C2.64 0 5.28 0 8 0 C8 27.72 8 55.44 8 84 C5.36 84 2.72 84 0 84 C0 56.28 0 28.56 0 0 Z " fill="#767676" transform="translate(670,461)"/>
<path d="M0 0 C0.66 0 1.32 0 2 0 C3.83794343 3.76963227 5.67087871 7.54164567 7.49926758 11.31591797 C8.12160289 12.59880643 8.74528765 13.8810412 9.37036133 15.16259766 C10.27002188 17.00772488 11.16475917 18.85516985 12.05859375 20.703125 C12.59798584 21.81333008 13.13737793 22.92353516 13.69311523 24.06738281 C15 27 15 27 16 31 C6.1 31 -3.8 31 -14 31 C-10.625 20.875 -10.625 20.875 -8.30078125 16.30859375 C-7.81416016 15.34501953 -7.32753906 14.38144531 -6.82617188 13.38867188 C-6.32666016 12.41478516 -5.82714844 11.44089844 -5.3125 10.4375 C-4.80138672 9.42880859 -4.29027344 8.42011719 -3.76367188 7.38085938 C-2.51459159 4.91771974 -1.25996389 2.45758499 0 0 Z " fill="#E5E5E5" transform="translate(577,479)"/>
</svg>
