<?xml version="1.0" encoding="UTF-8"?>
<svg version="1.1" xmlns="http://www.w3.org/2000/svg" width="1249" height="929">
<path d="M0 0 C1.31516602 0.00563965 2.63033203 0.0112793 3.98535156 0.01708984 C32.06615341 0.36714674 57.39251275 9.61253365 79.1875 27.3125 C80.58742188 28.37017578 80.58742188 28.37017578 82.015625 29.44921875 C82.73234375 30.06410156 83.4490625 30.67898437 84.1875 31.3125 C84.1875 31.9725 84.1875 32.6325 84.1875 33.3125 C84.77273438 33.57417969 85.35796875 33.83585937 85.9609375 34.10546875 C90.58951906 36.61464718 94.32168715 40.54323025 96.625 45.25 C96.810625 45.930625 96.99625 46.61125 97.1875 47.3125 C97.8475 47.3125 98.5075 47.3125 99.1875 47.3125 C100.95697406 49.56735063 102.58487513 51.81687043 104.1875 54.1875 C104.92009033 55.26692871 104.92009033 55.26692871 105.66748047 56.36816406 C127.97528802 89.77585261 138.95123964 127.29569001 146.77853394 166.28109741 C147.17381304 168.24451458 147.57903965 170.205921 147.98461914 172.16723633 C150.22174524 183.41566333 151.54088457 194.7252743 152.75 206.125 C152.85766693 207.13038818 152.96533386 208.13577637 153.07626343 209.17163086 C156.41906661 240.61067463 157.52952804 271.70647851 157.1875 303.3125 C154.64998022 304.25658299 153.4715619 304.41093759 150.87597656 303.51147461 C150.03518555 303.08358643 149.19439453 302.65569824 148.328125 302.21484375 C147.38622314 301.74594727 146.44432129 301.27705078 145.47387695 300.79394531 C144.47187256 300.28444336 143.46986816 299.77494141 142.4375 299.25 C85.58265935 271.361436 23.73475886 273.42608182 -35.46484375 293.12988281 C-42.37643298 295.57152066 -49.15870846 298.36101033 -55.89404297 301.25073242 C-56.87518066 301.66427979 -57.85631836 302.07782715 -58.8671875 302.50390625 C-59.72812012 302.87717041 -60.58905273 303.25043457 -61.47607422 303.63500977 C-64.05010999 304.38139945 -65.32476759 304.21441974 -67.8125 303.3125 C-69.09200582 295.97575917 -70.01799516 288.66295117 -70.6875 281.25 C-77.66064549 165.89212772 -77.66064549 165.89212772 -127.58203125 67.921875 C-128.31808594 67.39078125 -129.05414063 66.8596875 -129.8125 66.3125 C-130.05871094 66.84746094 -130.30492187 67.38242188 -130.55859375 67.93359375 C-132.12373346 70.90297095 -133.9952968 73.5935697 -135.875 76.375 C-140.99582799 84.1514986 -144.90157276 92.41842326 -148.71630859 100.89501953 C-149.48032558 102.57994073 -150.26059836 104.25754491 -151.05322266 105.92919922 C-154.14201553 112.50537682 -156.57599181 119.11363929 -158.6875 126.0625 C-159.19567261 127.72720337 -159.19567261 127.72720337 -159.71411133 129.42553711 C-163.81499181 143.2190603 -166.85002569 157.24121487 -169.8125 171.3125 C-170.16223877 172.95001221 -170.16223877 172.95001221 -170.51904297 174.62060547 C-174.23169038 192.0817782 -177.13318168 209.6676604 -179.8125 227.3125 C-179.99167969 228.48200195 -180.17085937 229.65150391 -180.35546875 230.85644531 C-181.53326914 238.63834072 -182.59425568 246.43046876 -183.55670166 254.24194336 C-183.73176831 255.6590183 -183.90891105 257.07583788 -184.08782959 258.49243164 C-186.85251683 280.43213619 -188.17736382 302.12950915 -188.125 324.25 C-188.12254272 325.32292297 -188.12008545 326.39584595 -188.11755371 327.50128174 C-188.07494498 337.8649592 -187.90174244 348.21602373 -187.35546875 358.56640625 C-187.2984655 359.66540504 -187.2984655 359.66540504 -187.24031067 360.78660583 C-187.04304738 364.0805658 -186.69022659 367.13434371 -185.8125 370.3125 C-185.65160935 371.70133771 -185.52187208 373.09402156 -185.41796875 374.48828125 C-184.3293247 387.93748825 -182.4393185 401.07875579 -179.8125 414.3125 C-179.5846582 415.47007812 -179.35681641 416.62765625 -179.12207031 417.8203125 C-176.04772784 433.12298414 -172.23214549 448.00019311 -167.3125 462.8125 C-167.09133514 463.48488708 -166.87017029 464.15727417 -166.64230347 464.85003662 C-158.16322228 490.42763499 -145.07222045 519.05277955 -125.8125 538.3125 C-125.09403701 543.22199713 -126.33405238 546.24693647 -129.05078125 550.19921875 C-144.76006728 569.04339557 -172.16240257 581.92902238 -194.8125 590.3125 C-195.96234375 590.75335937 -197.1121875 591.19421875 -198.296875 591.6484375 C-228.18831911 602.80700826 -260.70842626 606.33784633 -291.8125 598.3125 C-292.82546143 598.05557373 -292.82546143 598.05557373 -293.85888672 597.79345703 C-311.14220155 593.2141924 -326.2949112 584.20213839 -339.13964844 571.91210938 C-340.70971673 570.41078313 -342.3071185 568.94598282 -343.9140625 567.484375 C-372.69450324 540.71964832 -387.41331064 501.58218926 -396.8125 464.3125 C-397.11430176 463.11641113 -397.41610352 461.92032227 -397.72705078 460.68798828 C-421.79041589 364.06935904 -422.25434545 250.05824289 -370.8125 73.3125 C-370.17570312 72.21550781 -369.53890625 71.11851562 -368.8828125 69.98828125 C-362.89856145 59.96407862 -355.8665258 51.31834896 -347.98828125 42.734375 C-346.41795722 40.98643802 -344.90897211 39.18271801 -343.44140625 37.34765625 C-340.76356288 34.11905076 -337.74734897 31.56049352 -334.4375 29 C-333.83317139 28.52997559 -333.22884277 28.05995117 -332.60620117 27.57568359 C-326.02223991 22.56005762 -319.06850489 18.28026609 -311.8125 14.3125 C-310.91402344 13.82007812 -310.01554687 13.32765625 -309.08984375 12.8203125 C-293.52147853 5.07222347 -276.32278797 3.11574727 -259.18920898 3.07226562 C-256.91156128 3.06265428 -254.63485513 3.03160701 -252.35742188 3 C-238.6809536 2.90116072 -225.64591284 4.9924503 -212.4375 8.5625 C-211.65914795 8.77156982 -210.8807959 8.98063965 -210.07885742 9.19604492 C-195.26550098 13.30385061 -181.32626331 19.0162703 -167.8125 26.3125 C-167.21099121 26.63331543 -166.60948242 26.95413086 -165.98974609 27.28466797 C-151.98650215 34.80372642 -138.91018265 43.87852393 -127.8125 55.3125 C-127.46960938 54.86261719 -127.12671875 54.41273438 -126.7734375 53.94921875 C-106.13071871 28.57799541 -69.69124317 12.51067368 -38.6875 4.5625 C-37.91253174 4.36350098 -37.13756348 4.16450195 -36.33911133 3.95947266 C-24.30549272 1.04276285 -12.36417572 -0.05592481 0 0 Z " fill="#D0D0D0" transform="translate(587.8125,89.6875)"/>
<path d="M0 0 C74.25 0 148.5 0 225 0 C225.33 16.17 225.66 32.34 226 49 C226.31126428 60.1042603 226.31126428 60.1042603 228 71 C228.16089065 72.38883771 228.29062792 73.78152156 228.39453125 75.17578125 C229.4831753 88.62498825 231.3731815 101.76625579 234 115 C234.3417627 116.73636719 234.3417627 116.73636719 234.69042969 118.5078125 C237.76477216 133.81048414 241.58035451 148.68769311 246.5 163.5 C246.72116486 164.17238708 246.94232971 164.84477417 247.17019653 165.53753662 C255.64927772 191.11513499 268.74027955 219.74027955 288 239 C288.71846299 243.90949713 287.47844762 246.93443647 284.76171875 250.88671875 C269.05243272 269.73089557 241.65009743 282.61652238 219 291 C217.85015625 291.44085937 216.7003125 291.88171875 215.515625 292.3359375 C185.62418089 303.49450826 153.10407374 307.02534633 122 299 C121.32469238 298.82871582 120.64938477 298.65743164 119.95361328 298.48095703 C102.67029845 293.9016924 87.5175888 284.88963839 74.67285156 272.59960938 C73.10278327 271.09828313 71.5053815 269.63348282 69.8984375 268.171875 C41.11799676 241.40714832 26.39918936 202.26968926 17 165 C16.69819824 163.80391113 16.39639648 162.60782227 16.08544922 161.37548828 C5.96983655 120.75953013 1.84040077 79.46752531 0.375 37.6875 C0.33487793 36.55771729 0.29475586 35.42793457 0.25341797 34.26391602 C-0.09548237 22.83215592 0 11.4536318 0 0 Z " fill="#717171" transform="translate(174,389)"/>
<path d="M0 0 C1.31516602 0.00563965 2.63033203 0.0112793 3.98535156 0.01708984 C32.06615341 0.36714674 57.39251275 9.61253365 79.1875 27.3125 C80.58742188 28.37017578 80.58742188 28.37017578 82.015625 29.44921875 C82.73234375 30.06410156 83.4490625 30.67898437 84.1875 31.3125 C84.1875 31.9725 84.1875 32.6325 84.1875 33.3125 C84.77273438 33.57417969 85.35796875 33.83585937 85.9609375 34.10546875 C90.58951906 36.61464718 94.32168715 40.54323025 96.625 45.25 C96.810625 45.930625 96.99625 46.61125 97.1875 47.3125 C97.8475 47.3125 98.5075 47.3125 99.1875 47.3125 C100.95697406 49.56735063 102.58487513 51.81687043 104.1875 54.1875 C104.67589355 54.90711914 105.16428711 55.62673828 105.66748047 56.36816406 C127.97528802 89.77585261 138.95123964 127.29569001 146.77853394 166.28109741 C147.17381304 168.24451458 147.57903965 170.205921 147.98461914 172.16723633 C150.22174524 183.41566333 151.54088457 194.7252743 152.75 206.125 C152.85766693 207.13038818 152.96533386 208.13577637 153.07626343 209.17163086 C156.41906661 240.61067463 157.52952804 271.70647851 157.1875 303.3125 C154.64998022 304.25658299 153.4715619 304.41093759 150.87597656 303.51147461 C150.03518555 303.08358643 149.19439453 302.65569824 148.328125 302.21484375 C147.38622314 301.74594727 146.44432129 301.27705078 145.47387695 300.79394531 C144.47187256 300.28444336 143.46986816 299.77494141 142.4375 299.25 C85.58265935 271.361436 23.73475886 273.42608182 -35.46484375 293.12988281 C-42.37643298 295.57152066 -49.15870846 298.36101033 -55.89404297 301.25073242 C-56.87518066 301.66427979 -57.85631836 302.07782715 -58.8671875 302.50390625 C-59.72812012 302.87717041 -60.58905273 303.25043457 -61.47607422 303.63500977 C-64.05010999 304.38139945 -65.32476759 304.21441974 -67.8125 303.3125 C-69.09200582 295.97575917 -70.01799516 288.66295117 -70.6875 281.25 C-77.93720206 166.67694524 -77.93720206 166.67694524 -127.03125 68.21484375 C-129.18747474 65.91203355 -129.46193709 64.74747849 -129.5625 61.625 C-129.2910322 56.16370666 -127.25392894 53.43322774 -123.44921875 49.6484375 C-99.31527706 28.26755286 -69.93371743 12.5728348 -38.6875 4.5625 C-37.91253174 4.36350098 -37.13756348 4.16450195 -36.33911133 3.95947266 C-24.30549272 1.04276285 -12.36417572 -0.05592481 0 0 Z " fill="#464646" transform="translate(587.8125,89.6875)"/>
<path d="M0 0 C74.25 0 148.5 0 225 0 C225.33 16.17 225.66 32.34 226 49 C226.31126428 60.1042603 226.31126428 60.1042603 228 71 C228.16089065 72.38883771 228.29062792 73.78152156 228.39453125 75.17578125 C229.4831753 88.62498825 231.3731815 101.76625579 234 115 C234.3417627 116.73636719 234.3417627 116.73636719 234.69042969 118.5078125 C237.76477216 133.81048414 241.58035451 148.68769311 246.5 163.5 C246.72116486 164.17238708 246.94232971 164.84477417 247.17019653 165.53753662 C255.64927772 191.11513499 268.74027955 219.74027955 288 239 C288.74864342 244.11573004 287.20727538 247.10330708 284.4453125 251.23046875 C282.59945463 253.49039744 280.64306492 254.79174175 278 256 C279 254 280 252 281 250 C280.26394531 250.40992188 279.52789062 250.81984375 278.76953125 251.2421875 C277.79371094 251.78101563 276.81789063 252.31984375 275.8125 252.875 C274.84957031 253.40867187 273.88664062 253.94234375 272.89453125 254.4921875 C270.29800423 255.84476433 267.72416004 256.93887056 265 258 C264.39027344 258.33773438 263.78054688 258.67546875 263.15234375 259.0234375 C245.17825522 267.17865008 219.03387646 264.49633451 201.06274414 257.99926758 C187.43705197 252.73062083 177.07654974 243.36445116 167 233 C165.6078125 231.6696875 165.6078125 231.6696875 164.1875 230.3125 C162 228 162 228 162 226 C161.34 226 160.68 226 160 226 C158.44921875 224.05859375 158.44921875 224.05859375 156.6875 221.4375 C156.06746094 220.52355469 155.44742188 219.60960937 154.80859375 218.66796875 C154.21175781 217.78753906 153.61492187 216.90710938 153 216 C152.08755794 214.74691291 151.17151691 213.49642864 150.25 212.25 C148.15699249 209.22676693 146.55925485 206.32189077 145 203 C144.4225 201.865625 143.845 200.73125 143.25 199.5625 C140.61721023 194.29692046 138.14182711 188.95661986 135.671875 183.61328125 C134.71400112 181.5431099 133.74946063 179.47592872 132.765625 177.41796875 C130.51422969 172.61210569 129.03166451 167.81884744 127.71484375 162.6796875 C127.07400837 160.27743027 126.32808661 157.96766989 125.5 155.625 C123.26718244 149.10375507 121 141.92089049 121 135 C120.34 135 119.68 135 119 135 C118.91959473 134.42032471 118.83918945 133.84064941 118.75634766 133.2434082 C118.38576028 130.59880997 118.0054735 127.95569328 117.625 125.3125 C117.49867188 124.40048828 117.37234375 123.48847656 117.2421875 122.54882812 C117.11328125 121.66259766 116.984375 120.77636719 116.8515625 119.86328125 C116.73635254 119.05157471 116.62114258 118.23986816 116.50244141 117.40356445 C116.06168149 114.94580545 116.06168149 114.94580545 115.00927734 112.53100586 C113.94988848 109.87433331 113.44621636 107.46234589 113 104.640625 C112.835 103.60550781 112.67 102.57039063 112.5 101.50390625 C112.335 100.43011719 112.17 99.35632813 112 98.25 C111.835 97.22261719 111.67 96.19523437 111.5 95.13671875 C108.88839585 78.50814544 107.48631339 61.91432709 106.4375 45.125 C106.19079744 41.18979326 105.9386962 37.25498247 105.68359375 33.3203125 C105.60231483 31.97986374 105.60231483 31.97986374 105.51939392 30.61233521 C105.46586258 29.78651947 105.41233124 28.96070374 105.35717773 28.10986328 C105.31213608 27.38614532 105.26709442 26.66242737 105.22068787 25.91677856 C105.04140737 23.78148407 105.04140737 23.78148407 104 21 C104 14.73 104 8.46 104 2 C69.68 2 35.36 2 0 2 C0 1.34 0 0.68 0 0 Z " fill="#8E8E8E" transform="translate(174,389)"/>
<path d="M0 0 C2.08639061 -0.00218267 4.17224748 -0.02039612 6.25854492 -0.03930664 C37.84334548 -0.17551549 67.0982602 11.19721725 91.52612305 30.99389648 C94.31479543 33.28066195 94.31479543 33.28066195 97.64331055 35.34545898 C98.51600586 35.95260742 99.38870117 36.55975586 100.2878418 37.18530273 C100.2878418 37.84530273 100.2878418 38.50530273 100.2878418 39.18530273 C100.8653418 39.41217773 101.4428418 39.63905273 102.0378418 39.87280273 C105.89882679 42.12504398 107.78765236 44.97431779 109.4753418 49.06030273 C109.219129 53.33051597 107.42925797 54.54596272 104.32299805 57.30639648 C101.58713925 59.83220854 99.40976723 62.72332093 97.15893555 65.68139648 C95.2878418 67.18530273 95.2878418 67.18530273 92.45581055 67.74780273 C88.1933881 66.9909731 86.07475673 64.7354391 83.1628418 61.74780273 C82.0142775 60.63581274 80.86186348 59.52778656 79.70581055 58.42358398 C78.84415283 57.59721436 78.84415283 57.59721436 77.96508789 56.75415039 C54.78700902 35.07404343 22.86701168 28.08875792 -7.92797852 29.06420898 C-36.08033364 30.28865375 -60.77902479 42.74357244 -81.43481445 61.26733398 C-89.17486366 68.18530273 -89.17486366 68.18530273 -92.2746582 68.18530273 C-95.18012398 66.99331677 -96.73144145 65.60617876 -98.7121582 63.18530273 C-98.7121582 62.52530273 -98.7121582 61.86530273 -98.7121582 61.18530273 C-99.3721582 61.18530273 -100.0321582 61.18530273 -100.7121582 61.18530273 C-102.47387695 59.68139648 -102.47387695 59.68139648 -104.3996582 57.62280273 C-105.04290039 56.96151367 -105.68614258 56.30022461 -106.34887695 55.61889648 C-107.7121582 53.18530273 -107.7121582 53.18530273 -107.7746582 49.80249023 C-106.43462796 45.2404755 -104.43350623 43.06595075 -101.0246582 39.87280273 C-100.15333252 39.03313965 -100.15333252 39.03313965 -99.2644043 38.17651367 C-93.21476907 32.4852192 -86.67211968 27.6937798 -79.7121582 23.18530273 C-79.1061377 22.78827148 -78.50011719 22.39124023 -77.87573242 21.98217773 C-54.48793581 6.81304616 -27.72507926 -0.003234 0 0 Z " fill="#404040" transform="translate(632.712158203125,388.814697265625)"/>
<path d="M0 0 C1.70824234 1.28229874 3.4409023 2.52303815 5.18408203 3.75732422 C6.28722334 4.54990796 7.39009959 5.34286077 8.49267578 6.13623047 C9.46849609 6.83490234 10.44431641 7.53357422 11.44970703 8.25341797 C13.68017578 10.26123047 13.68017578 10.26123047 14.67626953 12.30029297 C14.68170009 15.026432 13.80158059 15.8039814 11.93017578 17.76123047 C9.53797186 20.29273943 7.18408721 22.82239198 4.93798828 25.48388672 C3.97732152 26.59740161 3.01638449 27.71068337 2.05517578 28.82373047 C1.37310059 29.64744141 1.37310059 29.64744141 0.67724609 30.48779297 C-0.67138672 32.01513672 -0.67138672 32.01513672 -3.31982422 34.26123047 C-6.15576172 34.10107422 -6.15576172 34.10107422 -8.31982422 33.26123047 C-8.31982422 32.60123047 -8.31982422 31.94123047 -8.31982422 31.26123047 C-8.91408203 30.99439453 -9.50833984 30.72755859 -10.12060547 30.45263672 C-12.35885876 29.24008387 -13.72066564 27.99387673 -15.50732422 26.19873047 C-31.60814101 11.91670965 -54.27725046 6.28888405 -75.31982422 7.26123047 C-93.74080544 9.24928718 -108.57264512 18.22894775 -123.16357422 28.96435547 C-129.51350011 33.58534114 -129.51350011 33.58534114 -132.31982422 35.26123047 C-135.19482422 34.51123047 -135.19482422 34.51123047 -137.31982422 33.26123047 C-137.31982422 32.60123047 -137.31982422 31.94123047 -137.31982422 31.26123047 C-137.97982422 31.26123047 -138.63982422 31.26123047 -139.31982422 31.26123047 C-140.88179536 29.54481069 -142.37121464 27.76184408 -143.81982422 25.94873047 C-144.61388672 24.96259766 -145.40794922 23.97646484 -146.22607422 22.96044922 C-150.30767695 17.69853227 -150.30767695 17.69853227 -150.38232422 15.01123047 C-148.7794993 10.86274245 -145.76579173 8.02277949 -142.31982422 5.26123047 C-141.65982422 5.26123047 -140.99982422 5.26123047 -140.31982422 5.26123047 C-140.31982422 4.60123047 -140.31982422 3.94123047 -140.31982422 3.26123047 C-101.14506088 -33.57100525 -41.15570196 -31.24941001 0 0 Z " fill="#404040" transform="translate(701.31982421875,451.73876953125)"/>
<path d="M0 0 C0.86367188 -0.02835938 1.72734375 -0.05671875 2.6171875 -0.0859375 C6.04184511 0.5435167 6.96300217 1.64881549 9.125 4.375 C10.74763801 6.95739194 12.189284 9.622649 13.625 12.3125 C14.49605398 13.91349121 15.36851391 15.51371807 16.2421875 17.11328125 C16.70334961 17.95971191 17.16451172 18.80614258 17.63964844 19.67822266 C20.2867155 24.48418958 23.02035278 29.24060467 25.75 34 C26.28302734 34.93062256 26.81605469 35.86124512 27.36523438 36.82006836 C28.61752046 39.00560379 29.87073869 41.19059773 31.125 43.375 C33.33563951 41.31661384 34.84885207 39.35703186 36.2890625 36.70703125 C36.68464355 35.98604248 37.08022461 35.26505371 37.48779297 34.5222168 C38.11258545 33.36653198 38.11258545 33.36653198 38.75 32.1875 C39.64035135 30.56495398 40.53098235 28.94256137 41.421875 27.3203125 C41.87111328 26.49821289 42.32035156 25.67611328 42.78320312 24.82910156 C44.84100928 21.06544299 46.91403796 17.31061657 49 13.5625 C49.35658691 12.91192627 49.71317383 12.26135254 50.08056641 11.59106445 C55.25009663 2.31245169 55.25009663 2.31245169 59.125 0.375 C60.62256871 0.28000497 62.12442932 0.24512802 63.625 0.25 C64.81609375 0.24613281 64.81609375 0.24613281 66.03125 0.2421875 C68.125 0.375 68.125 0.375 70.125 1.375 C70.14812376 11.65804538 70.16591525 21.94108462 70.17681217 32.22415066 C70.18204093 36.9984828 70.18913844 41.77279721 70.20043945 46.54711914 C70.2112686 51.15066262 70.21727689 55.75418899 70.21987724 60.35774422 C70.22173144 62.11809623 70.22535196 63.87844726 70.23073006 65.63879204 C70.23794086 68.09572277 70.23899093 70.55258195 70.23852539 73.00952148 C70.24212067 73.74463455 70.24571594 74.47974762 70.24942017 75.23713684 C70.23905216 80.26094784 70.23905216 80.26094784 69.125 81.375 C67.10535801 81.44744053 65.08332876 81.45877188 63.0625 81.4375 C61.95777344 81.42847656 60.85304688 81.41945313 59.71484375 81.41015625 C58.86019531 81.39855469 58.00554687 81.38695312 57.125 81.375 C55.90516252 78.93532503 56.00448473 77.37595476 56.01147461 74.64990234 C56.01155014 73.66903656 56.01162567 72.68817078 56.01170349 71.67758179 C56.01686478 70.61608917 56.02202606 69.55459656 56.02734375 68.4609375 C56.0287587 67.37616119 56.03017365 66.29138489 56.03163147 65.17373657 C56.03724198 61.69913 56.04979628 58.22458719 56.0625 54.75 C56.06751365 52.39843843 56.07207679 50.04687585 56.07617188 47.6953125 C56.08721482 41.92185314 56.10396321 36.14843112 56.125 30.375 C55.81599762 30.93798294 55.50699524 31.50096588 55.18862915 32.08100891 C53.76428554 34.67538112 52.33917844 37.26933321 50.9140625 39.86328125 C50.4281665 40.74858521 49.94227051 41.63388916 49.44165039 42.54602051 C37.83651177 63.66348823 37.83651177 63.66348823 36.125 65.375 C33.05155629 65.86749909 30.19392693 65.91179111 27.125 65.375 C25.05557863 63.24645231 24.31780189 62.00603628 23.125 59.375 C22.16887163 57.45723244 21.21030775 55.54067819 20.25 53.625 C19.74082031 52.58601562 19.23164062 51.54703125 18.70703125 50.4765625 C16.8190663 46.77521887 14.71741856 43.25044794 12.51953125 39.7265625 C10.90786533 37.00885134 9.52679268 34.20571526 8.125 31.375 C8.1095388 32.27035965 8.1095388 32.27035965 8.09376526 33.18380737 C7.98582612 39.38030229 7.87121812 45.57664807 7.75268555 51.77294922 C7.70929624 54.08737069 7.66762416 56.401825 7.62768555 58.71630859 C7.57007968 62.03753573 7.50635749 65.35859692 7.44140625 68.6796875 C7.41633751 70.23911575 7.41633751 70.23911575 7.39076233 71.83004761 C7.37081711 72.79089264 7.35087189 73.75173767 7.33032227 74.74169922 C7.31477798 75.58997284 7.2992337 76.43824646 7.28321838 77.31222534 C7.125 79.375 7.125 79.375 6.125 81.375 C4.33366022 81.42891993 2.54186101 81.46775571 0.75 81.5 C-0.24773438 81.52320313 -1.24546875 81.54640625 -2.2734375 81.5703125 C-4.875 81.375 -4.875 81.375 -6.875 79.375 C-7.07319282 76.91657078 -7.14781958 74.57080401 -7.13378906 72.11132812 C-7.1372937 71.36322372 -7.14079834 70.61511932 -7.14440918 69.84434509 C-7.1532309 67.36488641 -7.14737589 64.88571172 -7.140625 62.40625 C-7.14197153 60.68754013 -7.14391195 58.96883063 -7.14642334 57.25012207 C-7.1493752 53.6453896 -7.14507501 50.04075614 -7.13574219 46.43603516 C-7.12434759 41.8087094 -7.13090674 37.18161564 -7.14288712 32.5542984 C-7.15010407 29.00447838 -7.14781855 25.45471363 -7.14263153 21.90489197 C-7.14129458 20.19839958 -7.14294435 18.49190223 -7.14759064 16.78541565 C-7.15265322 14.40303195 -7.14494966 12.02102725 -7.13378906 9.63867188 C-7.13783752 8.92899765 -7.14188599 8.21932343 -7.14605713 7.48814392 C-7.09478786 1.5995474 -5.86874162 0.08707332 0 0 Z " fill="#292929" transform="translate(533.875,594.625)"/>
<path d="M0 0 C6.7158768 5.64278338 6.7158768 5.64278338 7.47265625 9.2578125 C6.776007 13.29952964 4.70279519 15.981568 2.3125 19.25 C1.87744141 19.88679688 1.44238281 20.52359375 0.99414062 21.1796875 C0.55908203 21.78554688 0.12402344 22.39140625 -0.32421875 23.015625 C-0.71697998 23.56508789 -1.10974121 24.11455078 -1.5144043 24.68066406 C-3.61983191 26.5504637 -5.2126309 26.81111475 -8 27 C-10.10888672 26.15136719 -10.10888672 26.15136719 -12.1796875 24.796875 C-12.94410156 24.31089844 -13.70851563 23.82492187 -14.49609375 23.32421875 C-15.28113281 22.80472656 -16.06617188 22.28523438 -16.875 21.75 C-29.65985327 13.45998735 -40.76464374 10.1390536 -56.26171875 12.49609375 C-64.53147722 14.37028997 -71.12572927 17.70931213 -77.75 22.9375 C-78.8225 23.618125 -79.895 24.29875 -81 25 C-85.12751577 23.92915026 -87.95052855 21.63579239 -91.1875 18.9375 C-94.41282987 16.19079836 -94.41282987 16.19079836 -98 14 C-98 13.34 -98 12.68 -98 12 C-98.66 12 -99.32 12 -100 12 C-100.42373841 8.60403935 -100.24340218 7.32678037 -98.1640625 4.53515625 C-71.83779727 -21.10257589 -28.87425817 -23.2584386 0 0 Z " fill="#404040" transform="translate(680,487)"/>
<path d="M0 0 C1.1859375 0.00257813 2.371875 0.00515625 3.59375 0.0078125 C4.7796875 0.00523437 5.965625 0.00265625 7.1875 0 C10.09375 0.1328125 10.09375 0.1328125 11.09375 1.1328125 C11.18158542 3.35136514 11.20069609 5.57269746 11.19140625 7.79296875 C11.18890869 9.00863525 11.18641113 10.22430176 11.18383789 11.47680664 C11.17473389 13.03391357 11.16562988 14.59102051 11.15625 16.1953125 C11.135625 21.1246875 11.115 26.0540625 11.09375 31.1328125 C27.42875 31.6278125 27.42875 31.6278125 44.09375 32.1328125 C44.05415178 21.97568158 44.05415178 21.97568158 44.00366211 11.81860352 C44.00116455 10.56233154 43.99866699 9.30605957 43.99609375 8.01171875 C43.99085693 6.7182251 43.98562012 5.42473145 43.98022461 4.09204102 C44.09375 1.1328125 44.09375 1.1328125 45.09375 0.1328125 C47.28014453 0.06022304 49.46875389 0.04907467 51.65625 0.0703125 C53.45255859 0.08384766 53.45255859 0.08384766 55.28515625 0.09765625 C56.21199219 0.10925781 57.13882813 0.12085938 58.09375 0.1328125 C58.11687376 10.41585788 58.13466525 20.69889712 58.14556217 30.98196316 C58.15079093 35.7562953 58.15788844 40.53060971 58.16918945 45.30493164 C58.1800186 49.90847512 58.18602689 54.51200149 58.18862724 59.11555672 C58.19048144 60.87590873 58.19410196 62.63625976 58.19948006 64.39660454 C58.20669086 66.85353527 58.20774093 69.31039445 58.20727539 71.76733398 C58.21087067 72.50244705 58.21446594 73.23756012 58.21817017 73.99494934 C58.20780216 79.01876034 58.20780216 79.01876034 57.09375 80.1328125 C55.07410801 80.20525303 53.05207876 80.21658438 51.03125 80.1953125 C49.92652344 80.18628906 48.82179688 80.17726563 47.68359375 80.16796875 C46.82894531 80.15636719 45.97429688 80.14476562 45.09375 80.1328125 C43.58768485 77.12068221 43.97214669 74.01998628 43.99609375 70.71875 C43.9975087 69.98911041 43.99892365 69.25947083 44.00038147 68.50772095 C44.00598469 66.17437665 44.01853765 63.84112786 44.03125 61.5078125 C44.03626459 59.92708472 44.04082757 58.34635543 44.04492188 56.765625 C44.05595516 52.88798396 44.07322189 49.01041443 44.09375 45.1328125 C43.31209473 45.37729126 43.31209473 45.37729126 42.51464844 45.62670898 C39.42011846 46.27363926 36.52121404 46.24433647 33.359375 46.23046875 C32.06386719 46.22724609 30.76835938 46.22402344 29.43359375 46.22070312 C28.07031183 46.21234848 26.70703058 46.20388354 25.34375 46.1953125 C23.96484535 46.19029418 22.58593896 46.18573185 21.20703125 46.18164062 C17.83589341 46.16985343 14.46484372 46.15339885 11.09375 46.1328125 C11.09898682 47.09171387 11.10422363 48.05061523 11.10961914 49.03857422 C11.12769679 52.59064809 11.13919215 56.14271787 11.14868164 59.69482422 C11.15371552 61.23324263 11.16054308 62.77165625 11.16918945 64.31005859 C11.18129639 66.51921776 11.18698769 68.72831376 11.19140625 70.9375 C11.19656754 71.62713837 11.20172882 72.31677673 11.20704651 73.02731323 C11.20762171 77.90506909 11.20762171 77.90506909 10.09375 80.1328125 C5.80375 80.1328125 1.51375 80.1328125 -2.90625 80.1328125 C-4.39502534 77.15526183 -4.04493512 74.11766651 -4.03564453 70.85327148 C-4.03739685 70.10356079 -4.03914917 69.3538501 -4.04095459 68.5814209 C-4.04536479 66.09722598 -4.04243833 63.61310193 -4.0390625 61.12890625 C-4.03973571 59.40780117 -4.04070587 57.68669618 -4.04196167 55.96559143 C-4.04343746 52.35669043 -4.04128764 48.74781415 -4.03662109 45.13891602 C-4.0309196 40.50258387 -4.03420622 35.86630955 -4.04019356 31.22997952 C-4.04379874 27.67592428 -4.04266086 24.12188287 -4.04006577 20.56782722 C-4.0393966 18.85771745 -4.04022457 17.14760643 -4.04254532 15.43749809 C-4.0450716 13.05261765 -4.04123182 10.6678323 -4.03564453 8.28295898 C-4.03766876 7.56968948 -4.03969299 6.85641998 -4.04177856 6.12153625 C-4.01587382 0.18352112 -4.01587382 0.18352112 0 0 Z " fill="#282828" transform="translate(896.90625,693.8671875)"/>
<path d="M0 0 C2.4375 0.1875 2.4375 0.1875 3.4375 1.1875 C3.50976502 3.04037502 3.5213122 4.89583878 3.5 6.75 C3.49097656 7.76191406 3.48195313 8.77382813 3.47265625 9.81640625 C3.46105469 10.59886719 3.44945312 11.38132812 3.4375 12.1875 C4.035625 11.548125 4.63375 10.90875 5.25 10.25 C8.68026182 7.01575314 11.82388774 6.90547742 16.4375 6.96484375 C19.35473773 7.28961436 21.16201303 8.38049564 23.4375 10.1875 C24.4275 11.6725 24.4275 11.6725 25.4375 13.1875 C26.0975 11.5375 26.7575 9.8875 27.4375 8.1875 C29.66441371 7.93738655 31.89425122 7.71321648 34.125 7.5 C35.36636719 7.37238281 36.60773438 7.24476563 37.88671875 7.11328125 C41.76650767 7.19437695 43.41322466 7.82531091 46.4375 10.1875 C49.29359102 15.89968204 47.1937686 23.40214461 45.4375 29.1875 C44.4375 30.1875 44.4375 30.1875 41.875 30.25 C41.070625 30.229375 40.26625 30.20875 39.4375 30.1875 C37.96556688 27.24363377 38.58813827 24.81359964 38.875 21.5625 C38.97683594 20.37398437 39.07867188 19.18546875 39.18359375 17.9609375 C39.26738281 17.04570313 39.35117188 16.13046875 39.4375 15.1875 C36.93476526 15.73994367 36.93476526 15.73994367 34.4375 17.1875 C33.21802877 19.99932948 33.21802877 19.99932948 32.6875 23.25 C31.48234305 29.14265695 31.48234305 29.14265695 30.4375 30.1875 C28.77132885 30.22813832 27.10361905 30.230221 25.4375 30.1875 C24.4475 27.2175 24.4475 27.2175 23.4375 24.1875 C22.839375 24.991875 22.24125 25.79625 21.625 26.625 C19.24180861 29.41673849 17.93255838 29.99151856 14.3515625 30.4609375 C9.88596673 30.65906974 8.06836953 30.68693837 4.4375 27.8125 C2.4375 25.1875 2.4375 25.1875 1.4375 23.1875 C0.4475 25.4975 -0.5425 27.8075 -1.5625 30.1875 C-4.22916667 30.1875 -6.89583333 30.1875 -9.5625 30.1875 C-11.5115625 30.31125 -11.5115625 30.31125 -13.5 30.4375 C-16.41222931 30.41068389 -17.46094591 30.2458936 -20.0625 28.75 C-22.26847045 24.98146714 -22.04213408 21.45702964 -21.5625 17.1875 C-21.0675 15.7025 -21.0675 15.7025 -20.5625 14.1875 C-21.2225 14.5175 -21.8825 14.8475 -22.5625 15.1875 C-23.19102934 17.51997815 -23.71785246 19.88041467 -24.1875 22.25 C-24.44789063 23.54035156 -24.70828125 24.83070313 -24.9765625 26.16015625 C-25.16992188 27.15917969 -25.36328125 28.15820312 -25.5625 29.1875 C-31.90184344 30.60007109 -38.69054851 31.65278137 -44.625 28.625 C-47.0143633 25.61902682 -47.7735117 22.9172629 -48.5625 19.1875 C-50.8725 22.8175 -53.1825 26.4475 -55.5625 30.1875 C-57.2125 29.8575 -58.8625 29.5275 -60.5625 29.1875 C-62.26254794 25.90883612 -63.3973895 22.68283149 -64.5625 19.1875 C-65.03429687 20.00154297 -65.03429687 20.00154297 -65.515625 20.83203125 C-65.94359375 21.54746094 -66.3715625 22.26289062 -66.8125 23 C-67.43898438 24.06154297 -67.43898438 24.06154297 -68.078125 25.14453125 C-70.29668151 28.19796561 -72.19478832 29.94064472 -75.96484375 30.62109375 C-80.30011317 30.62777367 -82.8508288 30.62321706 -86.625 28.3125 C-88.5625 26.1875 -88.5625 26.1875 -89.5625 24.1875 C-89.8925 25.8375 -90.2225 27.4875 -90.5625 29.1875 C-92.8725 29.5175 -95.1825 29.8475 -97.5625 30.1875 C-97.58965383 28.43758666 -97.60896551 26.68755055 -97.625 24.9375 C-97.63660156 23.96296875 -97.64820313 22.9884375 -97.66015625 21.984375 C-97.57445577 19.52991322 -97.26956066 17.52581086 -96.5625 15.1875 C-98.99967258 15.45784634 -98.99967258 15.45784634 -101.5625 16.1875 C-103.56827798 19.19616697 -104.02128503 20.83226075 -104.625 24.3125 C-105.46232425 29.08732425 -105.46232425 29.08732425 -106.5625 30.1875 C-108.22867115 30.22813832 -109.89638095 30.230221 -111.5625 30.1875 C-112.76615583 25.8051756 -112.34817356 21.92308075 -111.6875 17.5 C-111.59597656 16.82388672 -111.50445313 16.14777344 -111.41015625 15.45117188 C-110.70737257 10.47724515 -110.70737257 10.47724515 -109.5625 8.1875 C-106.578125 7.66796875 -106.578125 7.66796875 -102.8125 7.375 C-101.58015625 7.26542969 -100.3478125 7.15585937 -99.078125 7.04296875 C-95.2552045 7.20013326 -93.5427811 7.84545415 -90.5625 10.1875 C-89.75 12.375 -89.75 12.375 -89.5625 14.1875 C-88.9025 14.1875 -88.2425 14.1875 -87.5625 14.1875 C-87.253125 13.2903125 -87.253125 13.2903125 -86.9375 12.375 C-84.97326615 9.25008251 -82.98884728 8.48046124 -79.5625 7.1875 C-74.2930664 6.62291783 -71.11465455 7.52282416 -66.5625 10.1875 C-66.5625 9.5275 -66.5625 8.8675 -66.5625 8.1875 C-64.2525 8.1875 -61.9425 8.1875 -59.5625 8.1875 C-58.5725 10.8275 -57.5825 13.4675 -56.5625 16.1875 C-56.23378906 15.61 -55.90507813 15.0325 -55.56640625 14.4375 C-54.04328715 12.05994823 -52.63935525 10.10816898 -50.5625 8.1875 C-48.08066073 7.65145648 -46.12781934 7.72161786 -43.61328125 8.00390625 C-41.3631069 8.34301317 -41.3631069 8.34301317 -38.5625 7.1875 C-37.08126453 7.1068378 -35.59667796 7.07988807 -34.11328125 7.08984375 C-33.26572266 7.09306641 -32.41816406 7.09628906 -31.54492188 7.09960938 C-30.66384766 7.10798828 -29.78277344 7.11636719 -28.875 7.125 C-27.98232422 7.12951172 -27.08964844 7.13402344 -26.16992188 7.13867188 C-23.96738013 7.15045017 -21.76497401 7.16689836 -19.5625 7.1875 C-18.9025 5.8675 -18.2425 4.5475 -17.5625 3.1875 C-15.9125 3.1875 -14.2625 3.1875 -12.5625 3.1875 C-12.0675 5.6625 -12.0675 5.6625 -11.5625 8.1875 C-10.593125 8.166875 -9.62375 8.14625 -8.625 8.125 C-5.5625 8.1875 -5.5625 8.1875 -4.5625 9.1875 C-4.60375 8.07375 -4.645 6.96 -4.6875 5.8125 C-4.54401352 1.6513922 -4.29839149 0.31451645 0 0 Z M-78.5625 14.1875 C-79.8825 15.8375 -81.2025 17.4875 -82.5625 19.1875 C-81.9025 20.5075 -81.2425 21.8275 -80.5625 23.1875 C-77.62806598 22.92093428 -77.62806598 22.92093428 -74.5625 22.1875 C-72.25578085 19.47200846 -72.25578085 19.47200846 -72.9375 17 C-73.14375 16.401875 -73.35 15.80375 -73.5625 15.1875 C-75.2125 14.8575 -76.8625 14.5275 -78.5625 14.1875 Z M-39.4375 15.9375 C-40.78949219 18.11085329 -40.78949219 18.11085329 -40.25 20.4375 C-39.73631893 22.34669339 -39.73631893 22.34669339 -37.875 22.9375 C-35.32199064 23.47103676 -35.32199064 23.47103676 -32.8125 21.25 C-32.07 20.569375 -31.3275 19.88875 -30.5625 19.1875 C-31.06006092 16.43108584 -31.06006092 16.43108584 -32.5625 14.1875 C-35.76749153 13.76579059 -37.02586829 13.68664374 -39.4375 15.9375 Z M-12.5625 14.1875 C-13.91689668 16.89629335 -13.62751451 19.19683268 -13.5625 22.1875 C-12.758125 22.31125 -11.95375 22.435 -11.125 22.5625 C-10.279375 22.76875 -9.43375 22.975 -8.5625 23.1875 C-8.2325 23.8475 -7.9025 24.5075 -7.5625 25.1875 C-6.9025 21.5575 -6.2425 17.9275 -5.5625 14.1875 C-7.8725 14.1875 -10.1825 14.1875 -12.5625 14.1875 Z M10.0625 15.875 C8.16854884 18.02803203 8.16854884 18.02803203 8.6875 20.4375 C8.935 21.015 9.1825 21.5925 9.4375 22.1875 C11.22949472 22.97032648 11.22949472 22.97032648 13.4375 23.1875 C15.78376504 22.17783641 15.78376504 22.17783641 17.4375 20.1875 C17.77175735 17.56124861 17.77175735 17.56124861 17.4375 15.1875 C14.08735382 14.07078461 13.02015059 13.77351143 10.0625 15.875 Z " fill="#272727" transform="translate(1010.5625,804.8125)"/>
<path d="M0 0 C4.61746066 2.91100781 6.76856523 6.10800838 9 11 C9.1875 13.75 9.1875 13.75 8 16 C4.11755603 18.16520913 0.47423834 19.86999079 -4 19 C-5.97610386 16.95575462 -7 15.8823175 -7 13 C-12.55478443 10.99082265 -17.20605576 10.60765681 -23 12 C-26.21262767 13.70976172 -26.21262767 13.70976172 -27 16.8125 C-27.29218249 20.06768788 -27.29218249 20.06768788 -25.3125 22.5625 C-21.82067742 25.59131848 -17.52473781 27.00931622 -13.2734375 28.68359375 C1.9451325 34.8037108 1.9451325 34.8037108 7 41 C7.86625 41.9590625 7.86625 41.9590625 8.75 42.9375 C12.17197459 48.58375807 12.00304965 57.77455464 10.50390625 64.08984375 C8.87300245 68.30070835 6.34454776 71.05361269 3 74 C1.824375 75.0828125 1.824375 75.0828125 0.625 76.1875 C-5.89985889 80.69275971 -13.30991685 80.74268529 -21 80 C-30.43151107 78.07449591 -36.15397921 74.59159631 -41.56640625 66.72265625 C-45.06425964 60.99456392 -45.06425964 60.99456392 -44.828125 57.33984375 C-44 55 -44 55 -40.75 53.1875 C-37.38463377 52.12180069 -35.43601809 51.51928523 -32 52 C-30.33984375 53.86328125 -30.33984375 53.86328125 -28.9375 56.3125 C-26.29659342 60.85544456 -24.05556914 63.31481029 -19 65 C-13.76125095 65.39537729 -10.46863417 64.80588657 -6 62 C-3.65831236 58.48746854 -3.50376323 57.13530644 -4 53 C-6.67743317 48.9527173 -8.990315 47.19719328 -13.5 45.5 C-14.55316406 45.08878906 -15.60632813 44.67757812 -16.69140625 44.25390625 C-18.32916016 43.63322266 -18.32916016 43.63322266 -20 43 C-22.15018255 42.15684141 -24.29621765 41.30301215 -26.4375 40.4375 C-27.38496094 40.06496094 -28.33242188 39.69242188 -29.30859375 39.30859375 C-35.78692035 36.15875426 -39.60037754 31.72089379 -42 25 C-43.10060356 18.35531135 -42.98825885 12.71777363 -39.3125 6.9375 C-29.39831858 -5.73319448 -13.98190071 -7.69670344 0 0 Z " fill="#292929" transform="translate(567,696)"/>
<path d="M0 0 C4.29 0 8.58 0 13 0 C13.33 8.58 13.66 17.16 14 26 C15.65 25.01 17.3 24.02 19 23 C25.89200556 20.66605389 33.81453304 21.03076906 40.375 24.0625 C47.382007 28.08254568 51.54660608 33.48912964 54.30859375 41.05859375 C56.79972117 51.65644093 55.30149851 61.52906291 50.4375 71.0625 C49.963125 71.701875 49.48875 72.34125 49 73 C48.34 73 47.68 73 47 73 C47 73.66 47 74.32 47 75 C40.77230456 80.74864195 34.15754077 82.45720007 25.828125 82.33203125 C21.42565946 81.8151672 17.85354958 80.1088656 14 78 C13.34 77.67 12.68 77.34 12 77 C12 77.99 12 78.98 12 80 C8.04 80 4.08 80 0 80 C-1.47545406 77.04909188 -1.13874367 74.06264796 -1.12939453 70.828125 C-1.13114685 70.08977417 -1.13289917 69.35142334 -1.13470459 68.59069824 C-1.13911512 66.1437751 -1.13618792 63.69692391 -1.1328125 61.25 C-1.13348577 59.5537108 -1.13445599 57.85742169 -1.13571167 56.16113281 C-1.13718756 52.60350629 -1.13503757 49.04590486 -1.13037109 45.48828125 C-1.12467387 40.92154952 -1.12795345 36.35487655 -1.13394356 31.78814697 C-1.1375521 28.28466344 -1.13640923 24.78119391 -1.13381577 21.27770996 C-1.13314731 19.59354648 -1.13397209 17.90938174 -1.13629532 16.22521973 C-1.13882662 13.87407043 -1.13497447 11.52301713 -1.12939453 9.171875 C-1.13141876 8.47155151 -1.13344299 7.77122803 -1.13552856 7.04968262 C-1.11426458 2.22852915 -1.11426458 2.22852915 0 0 Z M14.625 41.5625 C11.39040626 46.41439061 11.3814129 51.34680118 12 57 C13.68705695 61.85945753 16.7489161 65.16594407 21 68 C24.72367292 69.24122431 27.07332966 69.45060151 31 69 C35.51403785 66.68086129 38.41506139 63.98708391 41 59.625 C42.90039864 52.73605492 42.68063317 47.93534647 39.1875 41.76171875 C36.93835318 38.42499107 34.83528717 36.52881156 30.92578125 35.40234375 C23.71929897 34.14212699 19.61633289 36.17711452 14.625 41.5625 Z " fill="#292929" transform="translate(1022,694)"/>
<path d="M0 0 C2.9375 1.625 2.9375 1.625 5.9375 3.625 C5.9375 4.285 5.9375 4.945 5.9375 5.625 C6.53175781 5.83382812 7.12601563 6.04265625 7.73828125 6.2578125 C10.7762888 8.14644952 11.59999408 10.29317521 13.125 13.5 C13.63417969 14.54929687 14.14335938 15.59859375 14.66796875 16.6796875 C18.13821418 24.73065689 17.7403141 32.98465924 14.98046875 41.23828125 C11.83202863 48.44313861 6.32652135 54.48152446 -0.75 57.9375 C-9.98328513 59.8538422 -16.54267766 58.32334885 -25.0625 54.625 C-25.08755615 55.34679443 -25.1126123 56.06858887 -25.13842773 56.81225586 C-25.25401302 60.062535 -25.37690774 63.31249688 -25.5 66.5625 C-25.53931641 67.69880859 -25.57863281 68.83511719 -25.61914062 70.00585938 C-25.66103516 71.08544922 -25.70292969 72.16503906 -25.74609375 73.27734375 C-25.80108032 74.77769165 -25.80108032 74.77769165 -25.85717773 76.30834961 C-26.0625 78.625 -26.0625 78.625 -27.0625 79.625 C-29.06049572 79.72373816 -31.06207158 79.75471799 -33.0625 79.75 C-34.155625 79.75257813 -35.24875 79.75515625 -36.375 79.7578125 C-39.0625 79.625 -39.0625 79.625 -40.0625 78.625 C-40.16275884 76.26265248 -40.19868937 73.92953142 -40.19189453 71.56665039 C-40.19364685 70.82844559 -40.19539917 70.09024078 -40.19720459 69.32966614 C-40.20162366 66.87730594 -40.19868464 64.42501725 -40.1953125 61.97265625 C-40.1959856 60.27493781 -40.19695567 58.57721946 -40.19821167 56.87950134 C-40.19968878 53.31589849 -40.19753395 49.75232065 -40.19287109 46.1887207 C-40.18717812 41.61411322 -40.19044999 37.03956446 -40.19644356 32.46495914 C-40.20005252 28.9571844 -40.19890896 25.44942364 -40.19631577 21.94164848 C-40.1956472 20.25469391 -40.19647247 18.56773809 -40.19879532 16.88078499 C-40.20132685 14.52473706 -40.19747396 12.16878491 -40.19189453 9.81274414 C-40.19391876 9.11084961 -40.19594299 8.40895508 -40.19802856 7.68579102 C-40.17676364 2.85352728 -40.17676364 2.85352728 -39.0625 0.625 C-36.6640625 0.10546875 -36.6640625 0.10546875 -33.6875 -0.1875 C-32.22183594 -0.35185547 -32.22183594 -0.35185547 -30.7265625 -0.51953125 C-28.0625 -0.375 -28.0625 -0.375 -26.2109375 1.11328125 C-25.64246094 1.86158203 -25.64246094 1.86158203 -25.0625 2.625 C-24.29679688 2.191875 -24.29679688 2.191875 -23.515625 1.75 C-16.11253017 -2.03030374 -7.88465564 -3.25054514 0 0 Z M-22.8125 16 C-27.19555666 21.69797365 -26.76626253 28.80193647 -26.0625 35.625 C-24.58440537 39.67071263 -21.70508138 42.39245012 -18.0625 44.625 C-14.44319302 45.83143566 -11.87018995 45.94768559 -8.0625 45.625 C-3.43401482 43.17462549 0.90094277 39.93374559 2.52734375 34.7421875 C3.74255215 28.46939746 3.52462678 23.06753718 -0.0625 17.625 C-3.71598053 13.5148344 -5.8146399 11.79464982 -11.375 11.375 C-16.07048537 11.69333799 -19.1330108 13.10897277 -22.8125 16 Z " fill="#292929" transform="translate(847.0625,717.375)"/>
<path d="M0 0 C5.72564979 4.175612 9.77886318 9.50303253 11.12109375 16.546875 C11.34593088 20.89372621 11.3000396 25.19915368 11.12109375 29.546875 C7.16995827 30.85038887 3.18284632 30.67299781 -0.92578125 30.64453125 C-1.69698303 30.6431163 -2.46818481 30.64170135 -3.26275635 30.64024353 C-5.71817963 30.63466034 -8.17351067 30.62211095 -10.62890625 30.609375 C-12.29687368 30.60435783 -13.96484254 30.5997953 -15.6328125 30.59570312 C-19.71487912 30.58469641 -23.79687706 30.56744336 -27.87890625 30.546875 C-27.44402947 31.84209243 -26.99620753 33.13296825 -26.54296875 34.421875 C-26.29498535 35.14117188 -26.04700195 35.86046875 -25.79150391 36.6015625 C-24.93016963 38.82778161 -24.93016963 38.82778161 -22.25390625 40.546875 C-16.41841276 42.27591011 -11.9072432 42.61636175 -6.44140625 39.734375 C-3.73334725 37.62394195 -3.73334725 37.62394195 -1.87890625 34.546875 C2.78686488 35.00430354 6.47453093 35.4528217 10.12109375 38.546875 C10.57678577 41.66338939 10.36066436 43.15004436 8.72265625 45.86328125 C2.80749351 52.58505709 -2.32523075 55.88298735 -11.27734375 56.953125 C-20.94650605 57.37261143 -27.00111722 54.79873435 -34.87890625 49.546875 C-34.87890625 48.886875 -34.87890625 48.226875 -34.87890625 47.546875 C-35.53890625 47.546875 -36.19890625 47.546875 -36.87890625 47.546875 C-42.37268315 39.62073885 -44.66661274 30.86338933 -43.46484375 21.2265625 C-41.35533804 11.9771913 -37.85687069 4.9751807 -29.87890625 -0.453125 C-20.96107134 -5.78378587 -8.7836135 -5.1345918 0 0 Z M-24.87890625 12.546875 C-26.76022194 15.09476353 -26.76022194 15.09476353 -27.87890625 17.546875 C-22.96387867 18.83923215 -18.10600523 18.65823017 -13.06640625 18.609375 C-12.18275391 18.60486328 -11.29910156 18.60035156 -10.38867188 18.59570312 C-8.21872066 18.58397366 -6.04880453 18.56603995 -3.87890625 18.546875 C-3.54344959 15.32765113 -3.54344959 15.32765113 -6.25390625 12.921875 C-9.88172076 9.63956664 -11.86987104 9.25180909 -16.78125 9.33203125 C-20.02752581 9.6645176 -22.1910762 10.73415241 -24.87890625 12.546875 Z " fill="#292929" transform="translate(653.87890625,621.453125)"/>
<path d="M0 0 C4.70708382 3.41734285 7.24773553 7.92011168 8.953125 13.41796875 C9.3439418 16.55896145 9.32796135 19.65477944 9.28125 22.81640625 C9.27937683 23.69197174 9.27750366 24.56753723 9.27557373 25.46963501 C9.26888731 27.30678151 9.25504132 29.1439146 9.234375 30.98095703 C9.20298967 33.80514623 9.19337691 36.62877802 9.1875 39.453125 C9.17833843 41.24089229 9.16796537 43.02865387 9.15625 44.81640625 C9.14987518 46.08815201 9.14987518 46.08815201 9.14337158 47.3855896 C9.07034014 53.30075361 9.07034014 53.30075361 7.953125 54.41796875 C6.14385219 54.54284633 4.32916393 54.59367721 2.515625 54.60546875 C1.52691406 54.61964844 0.53820312 54.63382813 -0.48046875 54.6484375 C-3.046875 54.41796875 -3.046875 54.41796875 -5.046875 52.41796875 C-5.789375 52.89234375 -6.531875 53.36671875 -7.296875 53.85546875 C-13.29519873 57.26360723 -20.06716943 57.33411798 -26.7109375 55.8046875 C-33.14018516 53.60009654 -36.74832359 50.34562386 -40.046875 44.41796875 C-41.86266684 38.97059323 -42.19357665 33.21490524 -39.98828125 27.8359375 C-36.24434229 21.71779335 -31.90352828 18.93884138 -25.17578125 16.83203125 C-22.45694466 16.30323 -19.87823536 16.2859855 -17.109375 16.29296875 C-16.08972656 16.29039062 -15.07007813 16.2878125 -14.01953125 16.28515625 C-11.25098775 16.40884939 -8.74147965 16.79270137 -6.046875 17.41796875 C-6.00397745 15.48687294 -6.00397745 15.48687294 -7.046875 13.41796875 C-10.89779022 11.18443792 -13.09093387 10.41796875 -17.546875 10.41796875 C-20.82073042 11.35335601 -22.06078476 12.06099526 -24.609375 14.10546875 C-26.35546875 15.45703125 -26.35546875 15.45703125 -28.046875 16.41796875 C-32.69731964 15.7669065 -35.57582274 13.48066192 -39.046875 10.41796875 C-38.76650177 7.14694775 -38.10771691 5.49843709 -36.109375 2.85546875 C-25.85777949 -5.30396441 -11.41966917 -6.74970512 0 0 Z M-24.046875 30.41796875 C-24.046875 31.07796875 -24.046875 31.73796875 -24.046875 32.41796875 C-24.706875 32.41796875 -25.366875 32.41796875 -26.046875 32.41796875 C-26.9832671 35.71742466 -26.9832671 35.71742466 -27.046875 39.41796875 C-24.31402326 42.85607255 -22.51770081 43.35721703 -18.171875 43.91796875 C-13.53278336 43.65488227 -10.76597645 42.18906395 -7.046875 39.41796875 C-4.96942396 36.13425581 -4.046875 34.3013749 -4.046875 30.41796875 C-11.19562271 28.08368378 -16.85909469 27.61298131 -24.046875 30.41796875 Z " fill="#292929" transform="translate(656.046875,719.58203125)"/>
<path d="M0 0 C4.23866257 4.35303918 6.85972588 9.16166865 9.5625 14.5625 C12.01761848 19.44305504 14.37693808 23.85114224 18 28 C19.56392188 25.35499813 21.12628865 22.70910136 22.6875 20.0625 C23.14648682 19.28575928 23.60547363 18.50901855 24.07836914 17.70874023 C26.8217488 13.05166934 29.49066532 8.37365027 31.96484375 3.56640625 C33 2 33 2 36 0 C38.84765625 -0.23046875 38.84765625 -0.23046875 42.0625 -0.1875 C43.65771484 -0.17783203 43.65771484 -0.17783203 45.28515625 -0.16796875 C48 0 48 0 50 1 C49.49534674 6.22161643 46.79876184 9.98736639 44.0625 14.3125 C43.33075562 15.49150879 43.33075562 15.49150879 42.58422852 16.69433594 C40.12116658 20.65525411 37.62415791 24.59411278 35.1171875 28.52734375 C34.66593506 29.23914795 34.21468262 29.95095215 33.74975586 30.68432617 C32.89756356 32.02579576 32.03932889 33.36345281 31.17407227 34.6965332 C27.10946462 41.08112623 25.7101517 46.47762075 25.62109375 53.98828125 C25.60409927 54.73208542 25.5871048 55.47588959 25.56959534 56.24223328 C25.51680642 58.59890451 25.47628844 60.95556009 25.4375 63.3125 C25.39357279 65.68720964 25.34696576 68.06178409 25.29469299 70.43632507 C25.26271873 71.90970107 25.23583388 73.38319782 25.21446228 74.85676575 C25.11182104 79.88817896 25.11182104 79.88817896 24 81 C22.00200428 81.09873816 20.00042842 81.12971799 18 81.125 C16.906875 81.12757813 15.81375 81.13015625 14.6875 81.1328125 C12 81 12 81 11 80 C10.91395809 77.62116054 10.88737003 75.26572927 10.89453125 72.88671875 C10.88104979 71.39516805 10.86602211 69.90363069 10.84960938 68.41210938 C10.82699243 66.06651289 10.81231197 63.72239682 10.82495117 61.37670898 C10.86662293 50.83600737 9.86123327 43.12966119 4 34 C3.51217041 33.23598877 3.02434082 32.47197754 2.52172852 31.68481445 C1.62611614 30.32222507 0.7106739 28.97256717 -0.21875 27.6328125 C-3.12813507 23.3325372 -5.83363856 18.90476701 -8.57324219 14.49511719 C-8.98735352 13.82899414 -9.40146484 13.16287109 -9.828125 12.4765625 C-10.1984082 11.87924316 -10.56869141 11.28192383 -10.95019531 10.66650391 C-11.94064557 9.0942217 -12.96923284 7.54615074 -14 6 C-14.125 3.3125 -14.125 3.3125 -14 1 C-9.39336248 -0.95782095 -4.72206412 -2.03803924 0 0 Z " fill="#292929" transform="translate(741,595)"/>
<path d="M0 0 C2.00664935 2.00664935 1.20857249 6.0412615 1.24609375 8.796875 C1.27904728 10.41146345 1.31225866 12.02604665 1.34570312 13.640625 C1.39302678 16.19266957 1.43741813 18.74469519 1.47680664 21.296875 C1.51665338 23.75544274 1.56818442 26.21355847 1.62109375 28.671875 C1.6295079 29.43038757 1.63792206 30.18890015 1.64659119 30.97039795 C1.74077137 35.02883726 1.96658323 38.43224295 4 42 C8.67428381 43.5580946 13.11994845 43.40870686 17.875 42.375 C20.93612403 40.39427269 21.08540599 38.49785952 22 35 C22.22675628 32.29594009 22.37022235 29.68161819 22.4140625 26.9765625 C22.43342865 26.23038666 22.4527948 25.48421082 22.4727478 24.71542358 C22.53212065 22.35206223 22.5787578 19.98865103 22.625 17.625 C22.66321884 16.01430268 22.7022728 14.40362494 22.7421875 12.79296875 C22.83778676 8.86213984 22.921972 4.93121537 23 1 C27.35230594 -1.28805642 30.08454331 -1.31712624 35 -1 C37 1 37 1 37.24723816 3.28382874 C37.24581314 4.23567551 37.24438812 5.18752228 37.24291992 6.16821289 C37.24753487 7.78482567 37.24753487 7.78482567 37.25224304 9.43409729 C37.24505753 10.60182175 37.23787201 11.7695462 37.23046875 12.97265625 C37.23001053 14.16604111 37.22955231 15.35942596 37.2290802 16.588974 C37.22605506 19.11507154 37.218161 21.64116717 37.20581055 24.16723633 C37.18756013 28.04970858 37.18530076 31.93194248 37.18554688 35.81445312 C37.1806317 38.26302291 37.17480338 40.71159107 37.16796875 43.16015625 C37.16685593 44.32990494 37.1657431 45.49965363 37.16459656 46.70484924 C37.15821671 47.77943893 37.15183685 48.85402863 37.14526367 49.96118164 C37.13954597 51.38775841 37.13954597 51.38775841 37.13371277 52.84315491 C37 55 37 55 36 56 C34.19072719 56.12487758 32.37603893 56.17570846 30.5625 56.1875 C29.57378906 56.20167969 28.58507812 56.21585938 27.56640625 56.23046875 C25 56 25 56 23 54 C22.2575 54.474375 21.515 54.94875 20.75 55.4375 C14.64863596 58.90418412 7.18271822 59.12438662 0.45703125 57.31640625 C-4.80875569 55.19068657 -7.91549936 52.76695554 -11 48 C-13.00050973 42.41434897 -13.28073178 37.44721934 -13.23046875 31.6015625 C-13.23001053 30.72599701 -13.22955231 29.85043152 -13.2290802 28.94833374 C-13.22607545 27.11121248 -13.2182429 25.27409337 -13.20581055 23.43701172 C-13.18742098 20.61286508 -13.18530202 17.78904434 -13.18554688 14.96484375 C-13.18063604 13.17708048 -13.17480963 11.38931943 -13.16796875 9.6015625 C-13.16685593 8.75373199 -13.1657431 7.90590149 -13.16459656 7.03237915 C-13.1160911 1.1160911 -13.1160911 1.1160911 -12 0 C-7.71284881 -0.82445215 -4.22050749 -1.24132573 0 0 Z " fill="#292929" transform="translate(976,718)"/>
<path d="M0 0 C1.19109375 -0.00386719 1.19109375 -0.00386719 2.40625 -0.0078125 C4.5 0.125 4.5 0.125 6.5 1.125 C6.51981934 2.07753662 6.53963867 3.03007324 6.56005859 4.01147461 C6.63679437 7.58447332 6.72539978 11.15710034 6.81738281 14.72973633 C6.85539443 16.26872355 6.89029293 17.80779124 6.921875 19.34692383 C7.09055048 27.46706682 7.29530481 35.24724767 9.5 43.125 C14.50647353 44.51878439 19.27949858 44.46290239 24.375 43.6875 C27.22979666 41.58838481 27.4121094 39.44348135 28.09375 36.07788086 C28.95712759 29.80230877 28.94584563 23.45042027 29.0625 17.125 C29.10648437 14.98442722 29.15305097 12.84400058 29.20530701 10.70361328 C29.25160391 8.78301133 29.28923682 6.86220633 29.32641602 4.94140625 C29.5 2.125 29.5 2.125 30.5 1.125 C32.3056894 0.86414599 34.12057806 0.66538951 35.9375 0.5 C36.92621094 0.40460937 37.91492188 0.30921875 38.93359375 0.2109375 C41.5 0.125 41.5 0.125 43.5 1.125 C43.52526563 8.93952752 43.54283105 16.75404458 43.55493164 24.56860352 C43.55997383 27.22941481 43.56680736 29.89022332 43.57543945 32.55102539 C43.58751009 36.36605516 43.59322929 40.18104844 43.59765625 43.99609375 C43.60281754 45.19399033 43.60797882 46.3918869 43.61329651 47.62608337 C43.61337204 48.7271492 43.61344757 49.82821503 43.61352539 50.96264648 C43.615746 51.93749496 43.61796661 52.91234344 43.62025452 53.91673279 C43.5 56.125 43.5 56.125 42.5 57.125 C40.48035801 57.19744053 38.45832876 57.20877188 36.4375 57.1875 C34.78041016 57.17396484 34.78041016 57.17396484 33.08984375 57.16015625 C32.23519531 57.14855469 31.38054688 57.13695312 30.5 57.125 C30.17 56.135 29.84 55.145 29.5 54.125 C28.571875 54.764375 27.64375 55.40375 26.6875 56.0625 C20.82795241 59.85397197 15.29784195 59.60993036 8.5 59.125 C2.30316051 57.70698448 -1.75210919 53.8506049 -5.12231445 48.59521484 C-6.97321585 43.9330294 -6.87553709 39.88121262 -6.79296875 34.9140625 C-6.78872391 33.94592621 -6.78447906 32.97778992 -6.78010559 31.98031616 C-6.76337956 28.90325527 -6.72573831 25.82686128 -6.6875 22.75 C-6.67244532 20.65756158 -6.65875829 18.56511283 -6.64648438 16.47265625 C-6.61349588 11.35651582 -6.56175528 6.24087079 -6.5 1.125 C-4.13386544 -0.05806728 -2.63219264 -0.00854608 0 0 Z " fill="#282828" transform="translate(756.5,716.875)"/>
<path d="M0 0 C0.5465625 0.47308594 1.093125 0.94617188 1.65625 1.43359375 C1.65625 2.09359375 1.65625 2.75359375 1.65625 3.43359375 C2.31625 3.43359375 2.97625 3.43359375 3.65625 3.43359375 C3.13525411 7.84627109 1.63221329 10.13276874 -1.21875 13.49609375 C-2.4253125 14.92308594 -2.4253125 14.92308594 -3.65625 16.37890625 C-6.90825803 20.1075851 -10.24400715 23.76088313 -13.62451172 27.37329102 C-16.03541256 29.9555182 -18.29022754 32.55730236 -20.34375 35.43359375 C-25.54180276 35.09800186 -28.22938469 32.12928773 -31.703125 28.60546875 C-32.2929718 28.01944885 -32.8828186 27.43342896 -33.49053955 26.82965088 C-34.73250292 25.59040434 -35.96944974 24.34611251 -37.20166016 23.09716797 C-39.08727635 21.19014091 -40.99326198 19.30537773 -42.90234375 17.421875 C-44.10805543 16.21352001 -45.31252565 15.00392474 -46.515625 13.79296875 C-47.08537048 13.23132019 -47.65511597 12.66967163 -48.24212646 12.09100342 C-51.25055927 9.01022862 -53.06110802 6.81149429 -53.34375 2.43359375 C-34.76968718 -10.13744496 -19.52624676 -13.05004158 0 0 Z " fill="#3F3F3F" transform="translate(658.34375,518.56640625)"/>
<path d="M0 0 C1.48306641 0.02126953 1.48306641 0.02126953 2.99609375 0.04296875 C3.98738281 0.04941406 4.97867188 0.05585937 6 0.0625 C8.43359375 0.23046875 8.43359375 0.23046875 9.43359375 1.23046875 C9.50672942 3.76096277 9.52606902 6.26351712 9.49609375 8.79296875 C9.49158203 9.50388672 9.48707031 10.21480469 9.48242188 10.94726562 C9.47060239 12.70836888 9.45266638 14.46942911 9.43359375 16.23046875 C10.01882813 16.06804688 10.6040625 15.905625 11.20703125 15.73828125 C14.94511879 14.88573497 18.95185459 14.48959917 22.43359375 16.23046875 C22.43359375 20.52046875 22.43359375 24.81046875 22.43359375 29.23046875 C18.14359375 29.23046875 13.85359375 29.23046875 9.43359375 29.23046875 C9.57406988 33.50154076 9.7207319 37.77224326 9.87109375 42.04296875 C9.91041016 43.25791016 9.94972656 44.47285156 9.99023438 45.72460938 C10.03212891 46.88798828 10.07402344 48.05136719 10.1171875 49.25 C10.15384521 50.32354736 10.19050293 51.39709473 10.22827148 52.50317383 C10.32901222 55.32358428 10.32901222 55.32358428 11.43359375 58.23046875 C14.40359375 58.56046875 17.37359375 58.89046875 20.43359375 59.23046875 C23.86216518 66.51618304 23.86216518 66.51618304 23.43359375 71.23046875 C18.43820883 74.23008984 13.07798132 73.72227196 7.43359375 73.23046875 C3.18610766 71.71350943 0.25544785 69.75778637 -2.56640625 66.23046875 C-4.40650896 61.7190643 -4.80318875 57.93402126 -4.76171875 53.08203125 C-4.75888885 52.42463959 -4.75605896 51.76724792 -4.75314331 51.0899353 C-4.74204072 49.01158642 -4.71695611 46.93368509 -4.69140625 44.85546875 C-4.68136356 43.43750627 -4.67223998 42.01953696 -4.6640625 40.6015625 C-4.6421343 37.14438838 -4.60767443 33.68747233 -4.56640625 30.23046875 C-5.86578125 30.08609375 -7.16515625 29.94171875 -8.50390625 29.79296875 C-12.44140625 29.35546875 -12.44140625 29.35546875 -13.56640625 28.23046875 C-13.63867127 26.37759373 -13.65021845 24.52212997 -13.62890625 22.66796875 C-13.61988281 21.65605469 -13.61085938 20.64414062 -13.6015625 19.6015625 C-13.58996094 18.81910156 -13.57835937 18.03664063 -13.56640625 17.23046875 C-10.43142333 15.3727011 -8.19169193 15.02906399 -4.56640625 15.23046875 C-4.58960938 14.31523438 -4.6128125 13.4 -4.63671875 12.45703125 C-4.65476562 11.26851562 -4.6728125 10.08 -4.69140625 8.85546875 C-4.71460938 7.67210937 -4.7378125 6.48875 -4.76171875 5.26953125 C-4.514357 1.42058245 -3.91087922 0.35120529 0 0 Z " fill="#292929" transform="translate(591.56640625,701.76953125)"/>
<path d="M0 0 C1.97909398 -0.02686553 3.95828971 -0.04633375 5.9375 -0.0625 C7.03964844 -0.07410156 8.14179687 -0.08570313 9.27734375 -0.09765625 C12 0 12 0 13 1 C13.07313567 3.53049402 13.09247527 6.03304837 13.0625 8.5625 C13.05798828 9.27341797 13.05347656 9.98433594 13.04882812 10.71679688 C13.03700864 12.47790013 13.01907263 14.23896036 13 16 C16.63 15.67 20.26 15.34 24 15 C26.12949649 19.25899298 26.25401187 21.34311578 26 26 C25.505 27.485 25.505 27.485 25 29 C21.04 29 17.08 29 13 29 C13.14047613 33.27107201 13.28713815 37.54177451 13.4375 41.8125 C13.47681641 43.02744141 13.51613281 44.24238281 13.55664062 45.49414062 C13.59853516 46.65751953 13.64042969 47.82089844 13.68359375 49.01953125 C13.72025146 50.09307861 13.75690918 51.16662598 13.79467773 52.27270508 C13.89541847 55.09311553 13.89541847 55.09311553 15 58 C17.97 58.33 20.94 58.66 24 59 C27.70680628 66.87696335 27.70680628 66.87696335 27 71 C22.11666638 74.25555575 16.71188805 73.44371017 11 73 C5.69254876 71.29403353 3.20032646 68.38901915 0 64 C-1.08016249 60.75951252 -1.12926557 58.38415129 -1.1328125 54.9765625 C-1.13410156 53.790625 -1.13539063 52.6046875 -1.13671875 51.3828125 C-1.13285156 50.14273438 -1.12898437 48.90265625 -1.125 47.625 C-1.12886719 46.39265625 -1.13273438 45.1603125 -1.13671875 43.890625 C-1.13542969 42.70210937 -1.13414062 41.51359375 -1.1328125 40.2890625 C-1.13168457 39.20318848 -1.13055664 38.11731445 -1.12939453 36.99853516 C-1.00944976 34.21898487 -0.63109979 31.70426572 0 29 C-0.63808594 29.01160156 -1.27617188 29.02320313 -1.93359375 29.03515625 C-3.17302734 29.04869141 -3.17302734 29.04869141 -4.4375 29.0625 C-5.67306641 29.07990234 -5.67306641 29.07990234 -6.93359375 29.09765625 C-9 29 -9 29 -10 28 C-10.12487758 26.19072719 -10.17570846 24.37603893 -10.1875 22.5625 C-10.20167969 21.57378906 -10.21585938 20.58507812 -10.23046875 19.56640625 C-10 17 -10 17 -8 15 C-4.375 15.375 -4.375 15.375 -1 16 C-1.01160156 15.01257813 -1.02320313 14.02515625 -1.03515625 13.0078125 C-1.04417969 11.72648438 -1.05320312 10.44515625 -1.0625 9.125 C-1.07410156 7.84882812 -1.08570313 6.57265625 -1.09765625 5.2578125 C-1 2 -1 2 0 0 Z " fill="#292929" transform="translate(700,604)"/>
<path d="M0 0 C1.51400391 0.01740234 1.51400391 0.01740234 3.05859375 0.03515625 C4.07050781 0.04417969 5.08242188 0.05320312 6.125 0.0625 C7.29869141 0.07990234 7.29869141 0.07990234 8.49609375 0.09765625 C9.99766249 3.10079373 9.58890579 5.88833147 9.55859375 9.22265625 C9.54957031 10.50398437 9.54054688 11.7853125 9.53125 13.10546875 C9.51964844 14.09289062 9.50804687 15.0803125 9.49609375 16.09765625 C10.08132813 15.93523438 10.6665625 15.7728125 11.26953125 15.60546875 C15.00761879 14.75292247 19.01435459 14.35678667 22.49609375 16.09765625 C22.52295928 18.07675023 22.5424275 20.05594596 22.55859375 22.03515625 C22.57019531 23.13730469 22.58179688 24.23945312 22.59375 25.375 C22.49609375 28.09765625 22.49609375 28.09765625 21.49609375 29.09765625 C19.48014793 29.33193403 17.45761975 29.51101749 15.43359375 29.66015625 C13.77650391 29.78583984 13.77650391 29.78583984 12.0859375 29.9140625 C11.23128906 29.97464844 10.37664063 30.03523437 9.49609375 30.09765625 C9.63509062 34.01459696 9.78347508 37.93112727 9.93359375 41.84765625 C9.97291016 42.95882812 10.01222656 44.07 10.05273438 45.21484375 C10.09462891 46.28476562 10.13652344 47.3546875 10.1796875 48.45703125 C10.21634521 49.44155273 10.25300293 50.42607422 10.29077148 51.44042969 C10.44130205 54.35186944 10.44130205 54.35186944 11.49609375 58.09765625 C14.46609375 58.42765625 17.43609375 58.75765625 20.49609375 59.09765625 C24.18642038 67.8068271 24.18642038 67.8068271 22.49609375 72.09765625 C19.57148946 73.5599584 16.93956551 73.30674352 13.68359375 73.34765625 C12.46027344 73.3734375 11.23695313 73.39921875 9.9765625 73.42578125 C5.32238917 72.98700397 2.87511239 71.20087116 -0.69140625 68.34765625 C-5.58307197 62.27524363 -4.77683836 54.42278596 -4.69140625 47.03515625 C-4.69076172 45.97232422 -4.69011719 44.90949219 -4.68945312 43.81445312 C-4.66131322 38.8086772 -4.56884309 34.01340472 -3.50390625 29.09765625 C-6.47390625 29.09765625 -9.44390625 29.09765625 -12.50390625 29.09765625 C-14.71864701 24.05296896 -14.35462778 21.23854938 -12.50390625 16.09765625 C-9.53390625 16.09765625 -6.56390625 16.09765625 -3.50390625 16.09765625 C-3.51550781 15.02644531 -3.52710938 13.95523438 -3.5390625 12.8515625 C-3.54843924 11.45442882 -3.55753956 10.05729326 -3.56640625 8.66015625 C-3.57897461 7.59958008 -3.57897461 7.59958008 -3.59179688 6.51757812 C-3.60044213 4.71072066 -3.55610636 2.90378022 -3.50390625 1.09765625 C-2.50390625 0.09765625 -2.50390625 0.09765625 0 0 Z " fill="#282828" transform="translate(722.50390625,701.90234375)"/>
<path d="M0 0 C3.125 0.375 3.125 0.375 6 1 C6 2.98 6 4.96 6 7 C6.94875 7.20625 7.8975 7.4125 8.875 7.625 C12 9 12 9 13.375 12.125 C13.58125 13.07375 13.7875 14.0225 14 15 C14.86625 13.8553125 14.86625 13.8553125 15.75 12.6875 C19.44 8.28 19.44 8.28 22 7 C24.02112831 7.22456981 26.04406609 7.45624774 28.046875 7.80859375 C30.73529709 8.07205911 32.5569151 7.05646915 35 6 C40.3620138 6.40215104 44.44424884 9.06995924 48 13 C48.33 11.35 48.66 9.7 49 8 C53.95 8 58.9 8 64 8 C63.505 5.525 63.505 5.525 63 3 C63.66 2.01 64.32 1.02 65 0 C67.97 0.495 67.97 0.495 71 1 C69.98713235 22.02573529 69.98713235 22.02573529 66 30 C64.33388095 30.042721 62.66617115 30.04063832 61 30 C60.67 29.67 60.34 29.34 60 29 C60.09086451 26.46458702 60.2370945 23.96445216 60.4375 21.4375 C60.48970703 20.72658203 60.54191406 20.01566406 60.59570312 19.28320312 C60.72574107 17.52178001 60.86226897 15.76083827 61 14 C57.64433241 15.56817145 56.24655807 16.35929629 54.890625 19.8828125 C54.67921875 20.95273437 54.4678125 22.02265625 54.25 23.125 C53.04833837 28.95166163 53.04833837 28.95166163 52 30 C50.33382885 30.04063832 48.66611905 30.042721 47 30 C46.34 28.35 45.68 26.7 45 25 C44.21625 25.825 43.4325 26.65 42.625 27.5 C39.0418702 30.478849 35.90319005 30.72845737 31.33984375 30.48828125 C27.66321262 29.72103769 26.13427978 28.00133094 24 25 C23.30428043 23.34525032 22.63245127 21.67994869 22 20 C21.62488281 20.63808594 21.24976563 21.27617188 20.86328125 21.93359375 C20.35152344 22.75988281 19.83976563 23.58617187 19.3125 24.4375 C18.56419922 25.67306641 18.56419922 25.67306641 17.80078125 26.93359375 C15.61900552 29.43719323 14.24519666 29.69593558 11 30 C8.02931839 25.6147081 6.54058233 21.01508715 5 16 C4.80664062 16.84304688 4.61328125 17.68609375 4.4140625 18.5546875 C4.15367187 19.65039062 3.89328125 20.74609375 3.625 21.875 C3.36976563 22.96554687 3.11453125 24.05609375 2.8515625 25.1796875 C2 28 2 28 0 30 C-2.625 29.625 -2.625 29.625 -5 29 C-5.34301431 22.25405186 -4.36045104 16.54839567 -2.65625 10.015625 C-1.89616838 7.06390967 -1.89616838 7.06390967 -2.03125 4.234375 C-2 2 -2 2 0 0 Z M34 14 C33.67 14.66 33.34 15.32 33 16 C34.65 15.67 36.3 15.34 38 15 C36.68 14.67 35.36 14.34 34 14 Z " fill="#262626" transform="translate(739,805)"/>
<path d="M0 0 C2.4375 0.1875 2.4375 0.1875 3.4375 1.1875 C3.36406768 10.47668797 2.15222655 23.04388141 -2.5625 31.1875 C-4.2125 30.8575 -5.8625 30.5275 -7.5625 30.1875 C-7.8925 28.5375 -8.2225 26.8875 -8.5625 25.1875 C-9.160625 25.991875 -9.75875 26.79625 -10.375 27.625 C-12.76333914 30.4227687 -14.05416535 31.06805545 -17.68359375 31.35546875 C-18.83021484 31.36513672 -18.83021484 31.36513672 -20 31.375 C-20.76183594 31.38917969 -21.52367187 31.40335938 -22.30859375 31.41796875 C-24.85365947 31.15772806 -26.40777485 30.55447617 -28.5625 29.1875 C-29.58554948 27.53488161 -30.58866054 25.86958635 -31.5625 24.1875 C-32.2225 24.1875 -32.8825 24.1875 -33.5625 24.1875 C-33.871875 25.0846875 -33.871875 25.0846875 -34.1875 26 C-36.15394544 29.12843592 -38.14492529 29.81502688 -41.5625 31.1875 C-44.34860282 31.54765307 -47.07067312 31.51915465 -49.875 31.4375 C-50.60267578 31.43234375 -51.33035156 31.4271875 -52.08007812 31.421875 C-57.40756563 31.34243437 -57.40756563 31.34243437 -58.5625 30.1875 C-59.84424942 21.11019261 -56.99592618 11.85596998 -54.5625 3.1875 C-52.22948408 0.85448408 -46.32917951 1.75924979 -43.08398438 1.72558594 C-38.68683121 1.80921734 -35.56502037 2.00395446 -32.0625 4.9375 C-29.91179001 7.20260945 -29.14675467 9.13344147 -28.5625 12.1875 C-27.964375 11.713125 -27.36625 11.23875 -26.75 10.75 C-22.77007504 7.90719646 -19.33960398 7.86362854 -14.5625 8.1875 C-11.25 9.375 -11.25 9.375 -8.5625 11.1875 C-7.39453125 13.80078125 -7.39453125 13.80078125 -6.5625 16.1875 C-6.38074219 14.70636719 -6.38074219 14.70636719 -6.1953125 13.1953125 C-6.02773438 11.91398438 -5.86015625 10.63265625 -5.6875 9.3125 C-5.52507813 8.03632812 -5.36265625 6.76015625 -5.1953125 5.4453125 C-4.44879837 1.60214716 -4.02540079 0.29454152 0 0 Z M-48.5625 9.1875 C-48.90201619 10.74866819 -49.23382544 12.31151338 -49.5625 13.875 C-49.748125 14.74511719 -49.93375 15.61523438 -50.125 16.51171875 C-50.55222047 19.12462964 -50.63866201 21.54563038 -50.5625 24.1875 C-45.82763401 23.72329745 -42.37232842 23.1265105 -38.5625 20.1875 C-36.74854156 17.71392031 -36.52015867 16.632084 -36.8125 13.5625 C-37.4109338 11.03149771 -37.4109338 11.03149771 -39.5625 9.1875 C-41.77322977 8.94496187 -41.77322977 8.94496187 -44.1875 9.0625 C-45.41339844 9.08957031 -45.41339844 9.08957031 -46.6640625 9.1171875 C-47.60378906 9.15199219 -47.60378906 9.15199219 -48.5625 9.1875 Z M-20.5625 15.1875 C-20.8925 15.8475 -21.2225 16.5075 -21.5625 17.1875 C-19.9125 16.8575 -18.2625 16.5275 -16.5625 16.1875 C-17.8825 15.8575 -19.2025 15.5275 -20.5625 15.1875 Z " fill="#262626" transform="translate(732.5625,803.8125)"/>
<path d="M0 0 C2.57000788 4.68648495 2.03696417 8.93039739 1 14 C-0.74554679 15.74554679 -3.37339012 15.46016953 -5.75 15.75 C-9.90483814 16.4120075 -11.75233248 16.81546342 -15.1875 19.375 C-18.493477 24.16296669 -18.08899763 28.77996207 -18 34.4375 C-17.93959356 41.97912899 -17.97373957 49.51209983 -19 57 C-20 58 -20 58 -22.6875 58.1328125 C-23.780625 58.13023437 -24.87375 58.12765625 -26 58.125 C-27.093125 58.12757813 -28.18625 58.13015625 -29.3125 58.1328125 C-32 58 -32 58 -33 57 C-33.09353163 55.31198015 -33.11744791 53.62004793 -33.11352539 51.92944336 C-33.11344986 50.84839828 -33.11337433 49.76735321 -33.11329651 48.65354919 C-33.10813522 47.4775264 -33.10297394 46.3015036 -33.09765625 45.08984375 C-33.0962413 43.89267227 -33.09482635 42.69550079 -33.09336853 41.46205139 C-33.08774979 37.62050934 -33.07519411 33.77902457 -33.0625 29.9375 C-33.05748741 27.34049563 -33.05292409 24.74349035 -33.04882812 22.14648438 C-33.03777427 15.76430321 -33.02101792 9.3821557 -33 3 C-29.19155753 0.87767413 -26.36795019 0.7573361 -22 1 C-21.34 1.33 -20.68 1.66 -20 2 C-20 2.99 -20 3.98 -20 5 C-18.948125 4.360625 -17.89625 3.72125 -16.8125 3.0625 C-11.20409765 -0.11185573 -6.32431567 -0.10719179 0 0 Z " fill="#282828" transform="translate(705,716)"/>
<path d="M0 0 C1.0209375 1.2065625 1.0209375 1.2065625 2.0625 2.4375 C2.7225 1.633125 3.3825 0.82875 4.0625 0 C8.53490289 -3.82017747 12.42450647 -3.71910911 18.0234375 -3.38671875 C20.71013214 -3.1553453 23.38505617 -2.88241516 26.0625 -2.5625 C26.19993809 2.50307545 25.73652355 7.09446859 24.75 12.0625 C24.50636719 13.33351563 24.26273438 14.60453125 24.01171875 15.9140625 C22.83930942 20.26596873 21.39294831 23.26831815 18 26.25 C13.67063995 28.00016683 9.66682777 28.125503 5.0625 27.4375 C2.02307768 25.70068724 0.61539735 24.5432947 -0.9375 21.4375 C-0.9375 18.65382375 0.25145264 17.46587304 2.0625 15.4375 C1.4025 14.4475 0.7425 13.4575 0.0625 12.4375 C-0.5975 14.4175 -1.2575 16.3975 -1.9375 18.4375 C-3.59364657 18.81968767 -5.26207024 19.15145102 -6.9375 19.4375 C-7.9375 18.4375 -7.9375 18.4375 -8.03515625 15.27734375 C-8.02355469 13.98957031 -8.01195312 12.70179688 -8 11.375 C-7.99097656 10.08464844 -7.98195313 8.79429687 -7.97265625 7.46484375 C-7.96105469 6.46582031 -7.94945312 5.46679688 -7.9375 4.4375 C-9.89858293 4.42465597 -9.89858293 4.42465597 -11.9375 5.4375 C-13.31031781 8.43840086 -13.31031781 8.43840086 -14.1875 12 C-14.52265625 13.19753906 -14.8578125 14.39507813 -15.203125 15.62890625 C-15.44546875 16.55574219 -15.6878125 17.48257813 -15.9375 18.4375 C-17.5875 18.7675 -19.2375 19.0975 -20.9375 19.4375 C-23.66604739 15.54830186 -22.82227951 11.74802183 -22.1875 7.3125 C-22.09984375 6.58417969 -22.0121875 5.85585938 -21.921875 5.10546875 C-21.20285848 -0.29714152 -21.20285848 -0.29714152 -18.9375 -2.5625 C-12.32388696 -4.11151324 -5.30564157 -4.62832562 0 0 Z M9.1875 5.1875 C7.83550781 7.36085329 7.83550781 7.36085329 8.375 9.6875 C8.601875 10.265 8.82875 10.8425 9.0625 11.4375 C11.93663125 11.77147787 11.93663125 11.77147787 15.0625 11.4375 C16.97506712 9.55672127 16.97506712 9.55672127 18.0625 7.4375 C17.4025 6.1175 16.7425 4.7975 16.0625 3.4375 C12.23257244 3.02069287 12.23257244 3.02069287 9.1875 5.1875 Z " fill="#272727" transform="translate(830.9375,815.5625)"/>
<path d="M0 0 C4.29 0 8.58 0 13 0 C13.02463956 7.81453214 13.04283105 15.62904188 13.05493164 23.44360352 C13.05997383 26.10441481 13.06680736 28.76522332 13.07543945 31.42602539 C13.08751009 35.24105516 13.09322929 39.05604844 13.09765625 42.87109375 C13.10281754 44.06899033 13.10797882 45.2668869 13.11329651 46.50108337 C13.11337204 47.6021492 13.11344757 48.70321503 13.11352539 49.83764648 C13.115746 50.81249496 13.11796661 51.78734344 13.12025452 52.79173279 C13 55 13 55 12 56 C8.04 56 4.08 56 0 56 C0 37.52 0 19.04 0 0 Z " fill="#282828" transform="translate(672,620)"/>
<path d="M0 0 C2.14130827 2.19122222 2.93459297 3.53441444 3.36328125 6.5859375 C3.13980029 18.86019971 3.13980029 18.86019971 0 22 C-2.5 22.125 -2.5 22.125 -5 22 C-6 21 -6 21 -6.09765625 18.05859375 C-6.08605469 16.86363281 -6.07445312 15.66867187 -6.0625 14.4375 C-6.05347656 13.23996094 -6.04445313 12.04242187 -6.03515625 10.80859375 C-6.02355469 9.88175781 -6.01195312 8.95492187 -6 8 C-7.32 8.33 -8.64 8.66 -10 9 C-10.20496094 9.85464844 -10.40992188 10.70929687 -10.62109375 11.58984375 C-10.89050781 12.69457031 -11.15992188 13.79929687 -11.4375 14.9375 C-11.83775391 16.59072266 -11.83775391 16.59072266 -12.24609375 18.27734375 C-13 21 -13 21 -14 22 C-16.5 22.125 -16.5 22.125 -19 22 C-20.60207352 20.39792648 -20.17042472 18.7129564 -20.1875 16.5 C-20.06240929 4.06240929 -20.06240929 4.06240929 -16 0 C-10.72466614 -1.23556699 -5.24154356 -1.36280133 0 0 Z " fill="#272727" transform="translate(895,813)"/>
<path d="M0 0 C2.39286884 2.39286884 2.32050616 3.09447094 2.375 6.375 C2.30982816 9.75307372 2.21347457 10.71536724 0.125 13.5 C-3.44173048 16.0176921 -5.61141008 16.43025391 -10 16 C-12.69990662 14.20006226 -14.5418865 12.916227 -16 10 C-16.23333333 3.46666667 -16.23333333 3.46666667 -15 1 C-14.34 1 -13.68 1 -13 1 C-13 0.34 -13 -0.32 -13 -1 C-7.66600138 -3.47185302 -5.10333847 -2.74795149 0 0 Z " fill="#292929" transform="translate(685,597)"/>
<path d="M0 0 C0.99 0.33 1.98 0.66 3 1 C2.67 1.33 2.34 1.66 2 2 C1.88652135 4.15110644 1.84312471 6.30592818 1.82641602 8.45996094 C1.819729 9.13482544 1.81304199 9.80968994 1.80615234 10.50500488 C1.79207007 11.9755241 1.78018622 13.44606558 1.77020454 14.91661835 C1.75382946 17.24529533 1.73059104 19.57380855 1.70530701 21.90240479 C1.63445074 28.52502301 1.57451036 35.14771004 1.52319336 41.77050781 C1.49135048 45.81772055 1.45005509 49.8647488 1.40299797 53.91181183 C1.38700196 55.45390746 1.37466931 56.99604565 1.36609077 58.53820038 C1.35389813 60.69981021 1.32973035 62.86098912 1.30297852 65.02246094 C1.28751732 66.86659576 1.28751732 66.86659576 1.27174377 68.74798584 C1.0073589 71.91193455 0.35480359 74.14984473 -1 77 C-1.33 77 -1.66 77 -2 77 C-2 51.92 -2 26.84 -2 1 C-1.34 0.67 -0.68 0.34 0 0 Z " fill="#222222" transform="translate(1023,695)"/>
<path d="M0 0 C1.4540625 0.0309375 1.4540625 0.0309375 2.9375 0.0625 C3.08688166 6.00381582 2.57071203 11.52446192 1.5625 17.375 C1.43617188 18.17228516 1.30984375 18.96957031 1.1796875 19.79101562 C1.05078125 20.55736328 0.921875 21.32371094 0.7890625 22.11328125 C0.61624756 23.14449097 0.61624756 23.14449097 0.43994141 24.1965332 C-0.0625 26.0625 -0.0625 26.0625 -2.0625 29.0625 C-4.625 29.3125 -4.625 29.3125 -7.0625 29.0625 C-8.0625 28.0625 -8.0625 28.0625 -8.24609375 24.62109375 C-8.18282183 19.6470325 -7.20503461 14.96460147 -6.125 10.125 C-5.85139648 8.83239258 -5.85139648 8.83239258 -5.57226562 7.51367188 C-3.96152748 0.0808475 -3.96152748 0.0808475 0 0 Z " fill="#272727" transform="translate(873.0625,805.9375)"/>
<path d="M0 0 C1.98 0 3.96 0 6 0 C6.19984353 6.09522768 5.64053265 11.50707749 4.4375 17.48046875 C3.9002014 20.14852739 3.9002014 20.14852739 4 23.5 C4 26 4 26 2 29 C-0.5 29.3125 -0.5 29.3125 -3 29 C-5 27 -5 27 -5.125 23.875 C-5.08375 22.92625 -5.0425 21.9775 -5 21 C-4.34 21 -3.68 21 -3 21 C-3.02320313 20.29875 -3.04640625 19.5975 -3.0703125 18.875 C-3.19704365 12.21256237 -3.04271405 6.0854281 0 0 Z " fill="#262626" transform="translate(1063,806)"/>
<path d="M0 0 C2 3 2 3 2 7 C-1.82745723 8.24006181 -5.63345592 8.12692202 -9.609375 8.09765625 C-10.33618469 8.0962413 -11.06299438 8.09482635 -11.81182861 8.09336853 C-14.12459494 8.08778792 -16.43726312 8.07523904 -18.75 8.0625 C-20.32161318 8.05748249 -21.89322789 8.05292002 -23.46484375 8.04882812 C-27.30993343 8.03782485 -31.1549501 8.02057361 -35 8 C-35 7.34 -35 6.68 -35 6 C-36.32 5.67 -37.64 5.34 -39 5 C-26.13 5 -13.26 5 0 5 C0 3.35 0 1.7 0 0 Z " fill="#222222" transform="translate(663,644)"/>
<path d="M0 0 C3.9166043 -0.0580966 7.83309763 -0.09362893 11.75 -0.125 C12.86117187 -0.14175781 13.97234375 -0.15851563 15.1171875 -0.17578125 C16.72207031 -0.18544922 16.72207031 -0.18544922 18.359375 -0.1953125 C19.34389648 -0.20578613 20.32841797 -0.21625977 21.34277344 -0.22705078 C24.05973111 0.00510382 25.68112513 0.60963727 28 2 C28 2.33 28 2.66 28 3 C18.30472178 3.19219715 8.67132568 2.59581324 -1 2 C-0.67 1.34 -0.34 0.68 0 0 Z " fill="#474747" transform="translate(627,389)"/>
<path d="M0 0 C4.29 0 8.58 0 13 0 C13.33 0.99 13.66 1.98 14 3 C9.05 3 4.1 3 -1 3 C-0.67 2.01 -0.34 1.02 0 0 Z " fill="#4C4C4C" transform="translate(629,428)"/>
<path d="M0 0 C1 2 1 2 0.375 4.9375 C-1.21652215 8.48225388 -2.55084038 9.36618755 -6 11 C-3.76687117 3.98159509 -3.76687117 3.98159509 -2 1 C-1.34 0.67 -0.68 0.34 0 0 Z " fill="#828282" transform="translate(458,634)"/>
<path d="M0 0 C0.99 0 1.98 0 3 0 C3 5.28 3 10.56 3 16 C2.67 16 2.34 16 2 16 C1.34 10.72 0.68 5.44 0 0 Z " fill="#898989" transform="translate(174,409)"/>
<path d="M0 0 C0.66 0 1.32 0 2 0 C2 2.64 2 5.28 2 8 C1.01 8 0.02 8 -1 8 C-1.125 2.25 -1.125 2.25 0 0 Z " fill="#7B7B7B" transform="translate(179,474)"/>
<path d="M0 0 C0.66 0 1.32 0 2 0 C1.8864371 1.64666203 1.75882619 3.29236082 1.625 4.9375 C1.52058594 6.31228516 1.52058594 6.31228516 1.4140625 7.71484375 C1.27742188 8.46894531 1.14078125 9.22304687 1 10 C0.01 10.495 0.01 10.495 -1 11 C-1.02688151 9.35425434 -1.04634123 7.70838587 -1.0625 6.0625 C-1.07410156 5.14597656 -1.08570313 4.22945312 -1.09765625 3.28515625 C-1 1 -1 1 0 0 Z " fill="#5B5B5B" transform="translate(460,145)"/>
<path d="" fill="#1E1E1E" transform="translate(0,0)"/>
<path d="" fill="#E7E7E7" transform="translate(0,0)"/>
<path d="" fill="#222222" transform="translate(0,0)"/>
<path d="" fill="#E8E8E8" transform="translate(0,0)"/>
</svg>
