<?xml version="1.0" encoding="UTF-8" standalone="no"?>
<!-- Created with Inkscape (http://www.inkscape.org/) -->

<svg
   width="25mm"
   height="24.999962mm"
   viewBox="0 0 25 24.999962"
   version="1.1"
   id="svg1"
   xml:space="preserve"
   inkscape:version="1.4.3 (0d15f75, 2025-12-25)"
   sodipodi:docname="product_catalogue_wireframe.svg"
   xmlns:inkscape="http://www.inkscape.org/namespaces/inkscape"
   xmlns:sodipodi="http://sodipodi.sourceforge.net/DTD/sodipodi-0.dtd"
   xmlns:xlink="http://www.w3.org/1999/xlink"
   xmlns="http://www.w3.org/2000/svg"
   xmlns:svg="http://www.w3.org/2000/svg"><sodipodi:namedview
     id="namedview1"
     pagecolor="#505050"
     bordercolor="#ffffff"
     borderopacity="1"
     inkscape:showpageshadow="0"
     inkscape:pageopacity="0"
     inkscape:pagecheckerboard="1"
     inkscape:deskcolor="#505050"
     inkscape:document-units="mm"
     inkscape:zoom="1.4"
     inkscape:cx="487.85714"
     inkscape:cy="1934.2857"
     inkscape:window-width="1920"
     inkscape:window-height="1051"
     inkscape:window-x="-9"
     inkscape:window-y="-9"
     inkscape:window-maximized="1"
     inkscape:current-layer="layer1"><inkscape:page
       x="0"
       y="1.5924031e-36"
       width="25"
       height="24.999962"
       id="page2"
       margin="0"
       bleed="0" /></sodipodi:namedview><defs
     id="defs1"><rect
       id="SVGID_3_"
       x="641.02002"
       y="235.09"
       width="584.22998"
       height="609.70001" /><clipPath
       id="SVGID_1_">
		<use
   xlink:href="#SVGID_3_"
   style="overflow:visible"
   id="use1" />
	</clipPath></defs><g
     inkscape:label="Layer 1"
     inkscape:groupmode="layer"
     id="layer1"
     transform="translate(-24.001486,-583.02831)">
		
	<g
   id="g63"
   transform="matrix(0.13696653,0,0,0.13696653,-3.6684649,520.33225)"
   style="stroke-width:1.93174">
	<g
   id="g61"
   style="fill:#ffffff;fill-opacity:1;stroke-width:1.93174">
		<path
   class="st0"
   d="m 859.27,583.51 h -7.63 v -29.02 h 7.63 v 11.02 h 32.65 v -11.02 h 7.63 v 29.02 h -7.63 v -11.02 h -32.65 z"
   id="path56"
   style="fill:#ffffff;fill-opacity:1;stroke-width:1.93174"
   clip-path="url(#SVGID_1_)" />
		<path
   class="st0"
   d="m 948.7,578.25 h -30.88 l -4.98,5.26 h -10.05 l 26.18,-29.11 h 4.28 4.28 l 26.18,29.11 h -10.09 z m -5.91,-6.27 -9.53,-10.09 -9.53,10.09 c 5.53,0 13.06,0 19.06,0 z"
   id="path57"
   style="fill:#ffffff;fill-opacity:1;stroke-width:1.93174"
   clip-path="url(#SVGID_1_)" />
		<polygon
   class="st0"
   points="952.83,571.69 981.52,571.69 981.52,565.42 947.23,565.42 "
   id="polygon57"
   style="fill:#ffffff;fill-opacity:1;stroke-width:1.93174"
   clip-path="url(#SVGID_1_)" />
		<polygon
   class="st0"
   points="991.79,554.4 937.45,554.4 943.02,560.63 991.8,560.63 "
   id="polygon58"
   style="fill:#ffffff;fill-opacity:1;stroke-width:1.93174"
   clip-path="url(#SVGID_1_)" />
		<polygon
   class="st0"
   points="991.76,577.23 958.03,577.23 963.38,583.51 991.76,583.51 "
   id="polygon59"
   style="fill:#ffffff;fill-opacity:1;stroke-width:1.93174"
   clip-path="url(#SVGID_1_)" />
		<path
   class="st0"
   d="m 1006.81,583.51 h -7.67 v -29.02 h 9.12 l 17.77,17.72 17.77,-17.72 h 9.12 v 29.02 h -7.67 v -20.14 l -19.21,19.25 -19.21,-19.25 v 20.14 z"
   id="path59"
   style="fill:#ffffff;fill-opacity:1;stroke-width:1.93174"
   clip-path="url(#SVGID_1_)" />
		<path
   class="st0"
   d="m 1067.02,563.28 v 20.23 h -7.63 v -29.02 h 7.95 l 32.09,20.23 v -20.23 h 7.63 v 29.02 h -7.67 z"
   id="path60"
   style="fill:#ffffff;fill-opacity:1;stroke-width:1.93174"
   clip-path="url(#SVGID_1_)" />
		<path
   class="st0"
   d="m 1119.33,568.81 c 0,4.05 3.3,7.67 7.39,7.67 0.19,0 22.32,0 27.44,0 v -4.88 h -27.9 v -6.28 h 35.53 v 11.16 5.49 1.53 h -36.37 c -7.58,-0.19 -13.72,-7.07 -13.72,-14.7 0,-7.49 5.81,-14.19 13.16,-14.7 0.28,0 20.88,0 31.07,0 l 5.86,6.98 c -4,0 -35.25,0 -35.44,0.05 -3.9,0.2 -7.02,3.73 -7.02,7.68 z"
   id="path61"
   style="fill:#ffffff;fill-opacity:1;stroke-width:1.93174"
   clip-path="url(#SVGID_1_)" />
	</g>
	<g
   id="g62"
   style="fill:#ffffff;fill-opacity:1;stroke-width:1.93174">
		<path
   class="st0"
   d="m 891.42,540.32 c 0,0 -28.99,-23.34 -39.7,-21.65 -5.62,0.88 -7.39,3.22 -7.26,9.22 0.13,6 -1.16,17.76 -23.67,29.41 -1.96,1.02 1.26,2.98 2.07,3.55 2.72,1.89 5.07,4.31 6.97,7.01 1.91,2.71 3.8,5.86 4.17,9.22 0.02,0.18 0.03,0.36 0.04,0.54 0.03,1.61 -0.28,2.23 -0.28,2.23 0,0 -0.9,0.28 -1.75,-0.66 -0.85,-0.95 -3.65,-3.98 -4.02,-2.84 -0.38,1.14 4.44,9.64 4.02,16.66 -0.19,3.22 0.05,2.98 -1.18,2.65 -1.23,-0.33 -3.03,-2.65 -3.6,-1.89 -0.57,0.76 3.69,24.57 2.08,30.16 -1.61,5.59 -7.01,-5.02 -7.01,-5.02 0,0 -24.24,-33.9 -11.36,-87.68 0,0 0.28,-1.8 -1.14,-1.51 -1.42,0.28 -19.41,1.8 -25.66,-14.82 0,0 6.53,0.99 9.52,-0.47 0,0 -21.6,-2.82 -26.65,-28.2 0,0 0.11,0.01 0.94,0.82 0.83,0.8 3.98,2.55 6.3,2.46 0,0 -15.2,-15.84 -16.71,-39.13 0,0 36.61,9.47 51.76,30.8 15.15,21.33 20.77,22.22 26.35,22.12 5.59,-0.09 15.15,-5.68 19.41,-2.18 4.26,3.5 5.68,7.64 5.49,12.56 0,0 28.41,22.41 30.87,26.64 z"
   id="path62"
   style="fill:#ffffff;fill-opacity:1;stroke-width:1.93174"
   clip-path="url(#SVGID_1_)" />
		<circle
   class="st1"
   cx="852.78998"
   cy="510.73001"
   r="1.8"
   id="circle62"
   style="fill:#000000;fill-opacity:1;stroke-width:1.93174" />
	</g>
<rect
   style="opacity:1;fill:#ffffff;fill-opacity:0;stroke-width:3.81182"
   id="rect57"
   width="182.52634"
   height="182.52634"
   x="202.01981"
   y="457.74719"
   inkscape:label="t_bg"
   inkscape:export-filename="C:\Users\lokes\OneDrive\Documents\Desktop\haemng_logo-128.svg"
   inkscape:export-xdpi="130.048"
   inkscape:export-ydpi="130.048" /><g
   id="g10"
   style="fill:#ffffff;fill-opacity:1;stroke-width:1.93174"
   transform="matrix(1.0419547,0,0,1.0419547,-565.78783,-11.52837)">
		<path
   id="path10"
   clip-path="url(#SVGID_1_)"
   style="fill:#000000;fill-opacity:1;stroke-width:1.93174"
   class="st0"
   d="m 757.53959,450.38141 c 1.51,23.29 16.71094,39.12859 16.71094,39.12859 -2.32,0.09 -5.47055,-1.65866 -6.30055,-2.45866 -0.72625,-0.70875 -0.90182,-0.80536 -0.93422,-0.81835 l -0.004,-0.004 h -0.004 c 5.05,25.38 26.6506,28.20039 26.6506,28.20039 -2.99,1.46 -9.51962,0.47073 -9.51962,0.47073 6.25,16.62 24.24207,15.10078 25.66207,14.82078 1.42,-0.29 1.13699,1.50996 1.13699,1.50996 -12.88,53.78 11.36272,87.67904 11.36272,87.67904 0,0 5.40027,10.60871 7.01027,5.01871 1.61,-5.59 -2.65208,-29.39936 -2.08208,-30.15936 0.57,-0.76 2.36928,1.56017 3.59928,1.89017 1.23,0.33 0.99045,0.56942 1.18045,-2.65058 0.42,-7.02 -4.39932,-15.52025 -4.01932,-16.66025 0.37,-1.14 3.16932,1.89249 4.01932,2.84249 0.85,0.94 1.75256,0.65903 1.75256,0.65903 0,0 0.30882,-0.62054 0.27882,-2.23054 -0.01,-0.18 -0.0198,-0.35953 -0.0398,-0.53953 -0.37,-3.36 -2.2614,-6.50908 -4.1714,-9.21908 -1.9,-2.7 -4.25044,-5.12027 -6.97044,-7.01027 -0.81,-0.57 -4.02759,-2.53221 -2.06759,-3.55221 22.51,-11.65 23.7969,-23.40981 23.6669,-29.40981 -0.13,-6 1.64011,-8.33908 7.26011,-9.21908 10.71,-1.69 39.70071,21.65 39.70071,21.65 -2.46,-4.23 -30.86907,-26.63975 -30.86907,-26.63975 0.19,-4.92 -1.22945,-9.06126 -5.48945,-12.56126 -4.26,-3.5 -13.82221,2.08984 -19.41221,2.17984 -5.58,0.1 -11.20006,-0.7871 -26.35006,-22.1171 -15.15,-21.33 -51.75866,-30.80028 -51.75866,-30.80028 z m 95.25056,58.54805 a 1.8,1.8 0 0 1 1.79964,1.79964 1.8,1.8 0 0 1 -1.79964,1.79963 1.8,1.8 0 0 1 -1.79964,-1.79963 1.8,1.8 0 0 1 1.79964,-1.79964 z" />
		
	</g><g
   id="g16471"
   transform="matrix(1.9317371,0,0,1.9317371,-2077.3669,3086.6226)">
		<g
   id="g16470">
			<g
   id="g16469">
				<path
   d="m 799.912,-1595.142 h -8.659 v -32.748 h 10.285 l 20.047,19.997 20.047,-19.997 h 10.285 v 32.748 h -8.659 v -22.724 l -21.672,21.728 -21.672,-21.728 v 22.724 z"
   id="path16464" />
				<path
   d="m 905.32,-1601.073 h -34.844 l -5.617,5.931 h -11.334 l 29.545,-32.85 h 4.826 4.828 l 29.545,32.85 h -11.387 z m -6.664,-7.084 -10.759,-11.387 -10.757,11.387 c 6.244,0 14.745,0 21.516,0 z"
   id="path16465" />
				<polygon
   points="948.658,-1627.89 892.556,-1627.89 892.556,-1620.856 955.27,-1620.856 "
   id="polygon16465" />
				<rect
   x="912.84802"
   y="-1602.226"
   width="42.422001"
   height="7.085"
   id="rect16465" />
				<rect
   x="901.30701"
   y="-1615.451"
   width="45.672001"
   height="7.085"
   id="rect16466" />
				<path
   d="m 1005.854,-1603.012 6.612,7.871 h -52.739 v -32.748 h 8.659 v 24.877 z"
   id="path16466" />
				<path
   d="m 1065.865,-1601.073 h -34.844 l -5.615,5.931 h -11.336 l 29.545,-32.85 h 4.826 4.828 l 29.545,32.85 h -11.387 z m -6.663,-7.084 -10.759,-11.387 -10.757,11.387 c 6.244,0 14.745,0 21.516,0 z"
   id="path16467" />
				<path
   d="m 1093.402,-1595.142 h -8.606 v -32.748 h 41.877 c 6.717,0.107 12.122,5.619 12.122,12.387 0,5.508 -3.517,10.127 -8.45,11.806 l 8.45,8.554 h -12.018 l -7.819,-7.922 c -4.566,0 -25.557,0 -25.557,0 v 7.923 z m 0,-15.797 c 4.356,0 28.757,0 32.536,0 2.519,0 4.566,-2.047 4.566,-4.563 0,-2.465 -1.993,-4.568 -4.619,-4.568 -0.105,0 -32.378,0 -32.483,0 z"
   id="path16468" />
				<path
   d="M 1183.538,-1595.142 H 1142.5 v -32.748 c 0,0 40.828,0 41.668,0 8.343,0 14.851,7.926 14.851,16.323 0,8.657 -6.926,16.216 -15.481,16.425 z m -1.47,-7.922 c 4.619,0 8.345,-3.884 8.345,-8.503 0,-4.461 -3.517,-8.238 -7.924,-8.448 -0.263,-0.056 -26.868,0 -31.434,0 v 16.951 c 5.824,0 30.646,0 31.013,0 z"
   id="path16469" />
			</g>
			<path
   d="m 1061.66,-1645.253 c -0.367,-0.149 -0.764,-0.232 -1.151,-0.331 -2.268,-0.579 -4.165,-1.52 -5.55,-3.648 -1.729,-2.662 -4.626,-3.25 -7.517,-1.926 -2.025,0.929 -3.778,2.288 -5.501,3.68 0.015,0.01 0.021,0.014 0.035,0.021 -0.014,-0.01 -0.02,-0.014 -0.035,-0.02 -0.078,0.01 -0.138,0.042 -0.18,0.108 -0.037,0.064 -0.091,0.105 -0.163,0.124 0,0 -0.048,0.033 -0.048,0.033 -1.087,0.646 -2.18,1.281 -3.259,1.938 -3.339,2.031 -6.621,1.63 -9.9,-0.17 -1.791,-0.983 -2.773,-2.458 -3.077,-4.471 -0.217,-1.438 -0.552,-2.894 -1.584,-3.994 -2.256,-2.405 -4.639,-4.682 -7.176,-6.795 0,0 -0.063,-0.048 -0.063,-0.048 -2.075,-2.132 -4.39,-3.989 -6.712,-5.838 -0.793,-0.631 -1.598,-1.249 -2.504,-1.718 -0.153,-0.079 -0.306,-0.239 -0.488,-0.087 -0.183,0.153 -0.05,0.323 0.01,0.489 0.098,0.285 0.553,0.656 -0.182,0.751 -0.823,0.107 -0.668,0.56 -0.387,1.084 0.134,0.249 0.467,0.617 -0.148,0.71 -0.714,0.108 -0.487,0.483 -0.244,0.829 0.291,0.414 0.625,0.797 0.94,1.195 -0.041,0.06 -0.083,0.121 -0.125,0.183 -0.683,-0.195 -0.85,0.114 -0.638,0.701 0.139,0.386 0.277,0.806 0.74,0.956 0,0 0.081,0.044 0.081,0.044 0.125,0.379 0.747,0.547 0.601,0.975 -0.408,1.199 1.275,1.812 0.779,2.999 0.992,0.464 0.854,1.933 2.009,2.264 0.116,0.033 0.255,0.186 0.279,0.305 0.304,1.484 1.527,2.348 2.447,3.339 1.686,1.817 3.309,3.613 4.203,5.981 0.323,0.858 0.624,1.805 1.562,2.274 0.152,0.266 0.385,0.418 0.678,0.487 1.267,0.93 2.81,0.864 4.43,1.097 -0.249,0.16 -0.329,0.254 -0.416,0.261 -0.649,0.055 -1.304,0.159 -1.951,0.126 -3.999,-0.207 -6.834,-2.328 -8.937,-5.571 -0.808,-1.246 -1.441,-2.61 -2.28,-3.833 -2.878,-4.191 -6.849,-7.142 -11.195,-9.634 -1.568,-0.899 -3.118,-1.856 -4.889,-2.339 -0.084,-0.067 -0.168,-0.134 -0.251,-0.201 -0.054,-0.01 -0.108,-0.016 -0.163,-0.019 h -0.008 c -0.066,-0.025 -0.134,-0.042 -0.204,-0.05 -0.095,-0.096 -0.176,-0.224 -0.29,-0.274 -3.02,-1.314 -6.089,-2.49 -9.297,-3.27 -0.422,-0.155 -0.831,-0.359 -1.3,-0.338 -0.339,-0.119 -0.673,-0.26 -1.02,-0.35 -0.443,-0.115 -1.017,-0.506 -1.322,-0.163 -0.45,0.505 0.345,0.837 0.462,1.297 0.015,0.058 -0.029,0.13 -0.059,0.253 -0.277,-0.021 -0.562,-0.047 -0.847,-0.064 -0.433,-0.026 -1.021,-0.146 -1.206,0.245 -0.204,0.43 0.38,0.67 0.664,0.957 0.306,0.309 0.613,0.626 0.962,0.88 0.434,0.314 0.199,0.603 0.039,0.914 -0.331,-0.03 -0.703,-0.036 -0.821,0.325 -0.119,0.366 0.271,0.521 0.467,0.761 0.338,0.415 1.119,0.094 1.261,0.792 l 0.017,0.065 c 0,0 0.066,0 0.066,0 0.013,0.067 0.055,0.104 0.124,0.109 0.016,0.179 0.066,0.429 -0.117,0.49 -1.357,0.45 -0.554,1.083 -0.119,1.619 0.34,0.418 0.809,0.713 1.317,0.929 0.616,0.262 1.224,0.541 2.053,0.91 -1.333,0.48 -0.759,0.986 -0.253,1.446 0.345,0.314 0.75,0.562 1.125,0.844 0.196,0.148 0.559,0.264 0.485,0.525 -0.409,1.446 0.716,1.361 1.533,1.593 l 0.029,0.01 c 0.341,1.406 1.444,1.746 2.672,1.912 0.139,0.034 0.278,0.067 0.417,0.101 0.101,0.423 -0.194,0.901 0.352,1.267 1.278,0.856 2.588,1.68 3.865,2.527 1.183,0.785 2.393,1.747 3.89,2.023 0,0 0.057,0.03 0.057,0.03 1.397,0.945 2.478,2.188 3.441,3.561 0.493,0.704 0.973,1.442 1.718,1.932 0,0 -10e-4,0 -10e-4,0 0.01,0.14 0.09,0.208 0.219,0.229 -10e-4,0 0,0 0,0 0.177,0.357 0.487,0.561 0.831,0.726 -0.02,0.09 -0.039,0.18 -0.058,0.27 -2.706,0.788 -5.101,2.204 -7.464,3.686 0.001,0 0.003,0 0.005,-0.01 -1.861,0.44 -3.726,0.861 -5.581,1.326 -1.642,0.412 -3.323,0.695 -4.876,1.414 0,0 -0.029,0 -0.029,0 -0.585,0.185 -1.178,0.346 -1.753,0.561 -0.54,0.202 -1.252,0.397 -1.251,1.056 0.001,0.745 0.828,0.496 1.279,0.685 0.536,0.225 0.957,0.293 0.345,0.98 -0.551,0.618 -0.296,1.126 0.603,1.221 2.486,0.263 4.909,1.267 7.492,0.513 0.851,-0.249 1.835,-0.132 2.565,0.554 0.886,0.832 1.939,1.096 3.109,1.033 1.558,-0.085 3.118,-0.138 4.672,-0.275 1.709,-0.15 3.283,0.615 4.918,0.71 4.84,0.281 9.534,-0.526 13.972,-2.543 0.899,-0.409 1.938,-0.652 2.548,-1.558 0.084,-0.01 0.168,-0.011 0.253,-0.017 3.509,-1.867 6.198,-4.61 8.415,-7.861 0,0 0.053,-0.022 0.053,-0.022 v -0.057 c 1.233,-1.279 2.263,-2.715 3.252,-4.184 0,0 0,-0.018 0,-0.018 0.362,-0.175 0.547,-0.507 0.74,-0.833 0.062,-0.082 0.125,-0.165 0.187,-0.247 1.298,-1.481 2.595,-2.962 3.892,-4.443 -0.031,-0.031 -0.062,-0.062 -0.091,-0.094 -0.012,-0.194 0.104,-0.41 0.141,-0.613 -0.036,0.203 -0.152,0.418 -0.14,0.612 0.028,0.033 0.059,0.064 0.091,0.095 0.819,-0.71 1.64,-1.42 2.461,-2.133 0.5,-0.687 1.16,-1.302 1.9,-1.799 -0.74,0.496 -1.4,1.112 -1.899,1.799 0.034,0.082 0.069,0.162 0.104,0.242 -1.035,0.88 -1.886,1.915 -2.577,3.083 0,0 0.011,0 0.011,0 -0.424,0.281 -0.675,0.681 -0.804,1.166 -10e-4,-10e-4 0.01,0.057 0.01,0.057 -0.153,-0.01 -0.195,0.095 -0.214,0.22 -10e-4,0 0,0 0,0 -0.958,0.758 -1.361,1.848 -1.753,2.943 0,0 0.015,0 0.015,0 -0.099,0.146 -0.219,0.282 -0.293,0.44 -0.201,0.425 -0.516,0.991 -0.229,1.319 0.379,0.434 0.866,-0.102 1.228,-0.302 2.952,-1.628 5.802,-3.453 9.014,-4.571 0.086,-0.03 0.135,-0.163 0.202,-0.248 0.152,0.01 0.305,0.012 0.458,0.018 0,0 10e-4,0 10e-4,0 3.278,-0.736 6.54,-0.731 9.789,0.191 0.632,0.18 1.309,0.149 1.943,-0.03 0.416,-0.117 0.889,-0.335 0.894,-0.836 0,-0.447 -0.513,-0.458 -0.828,-0.587 z m -5.8,-1.74 c 0,0 0,0 0,0 -0.311,0.241 -0.684,0.084 -1.013,0.142 0.328,-0.059 0.7,0.097 1.013,-0.142 z m -1.54,-1.304 c 0.037,-0.041 0.064,-0.083 0.094,-0.124 -0.03,0.041 -0.057,0.083 -0.093,0.123 -0.23,0.254 -0.326,0.534 -0.058,0.865 0.298,-0.348 0.499,-0.439 0.658,-0.414 -0.159,-0.025 -0.361,0.067 -0.658,0.415 -0.269,-0.333 -0.173,-0.612 0.057,-0.865 z m 0.336,1.54 c -0.04,0.022 -0.083,0.024 -0.12,0.059 0,0 0,0 0,0 0.037,-0.035 0.08,-0.037 0.12,-0.059 z m -1.405,-3.14 c -0.351,0.194 -0.267,0.629 -0.206,1.022 0.083,0.532 -0.202,0.804 -0.644,0.87 0.442,-0.066 0.726,-0.338 0.643,-0.871 -0.061,-0.393 -0.144,-0.828 0.207,-1.021 z m -1.478,1.228 c -0.349,-0.038 -0.47,-0.297 -0.441,-0.619 0.033,-0.35 0.261,-0.492 0.59,-0.469 0.333,0.021 0.526,0.196 0.516,0.589 -0.079,0.316 -0.288,0.539 -0.665,0.499 z m -0.888,-0.562 c 0.073,-0.572 0.474,-1.021 1.146,-1.232 0.163,-0.051 0.355,-0.092 0.413,-0.301 -0.976,-0.629 -2.148,-0.74 -3.313,-0.5 1.165,-0.24 2.338,-0.129 3.314,0.5 -0.058,0.21 -0.251,0.25 -0.413,0.301 -0.672,0.212 -1.073,0.661 -1.147,1.232 z m 7.021,4.471 c -1.972,-0.134 -3.928,-0.639 -5.955,-0.203 -0.232,0.05 -0.448,0.112 -0.656,0.181 0.208,-0.07 0.424,-0.132 0.657,-0.182 2.027,-0.434 3.982,0.07 5.954,0.204 0.165,0.01 0.325,0.058 0.485,0.12 -0.16,-0.062 -0.32,-0.109 -0.485,-0.12 z m 2.31,0.721 c -0.063,0 -0.122,0 -0.182,-0.01 0.06,0 0.12,0.01 0.182,0.01 0.357,-0.027 0.705,-0.018 1.055,-0.191 -0.35,0.173 -0.698,0.164 -1.055,0.191 z m -4.602,-2.227 c 1.979,0.607 4.19,0.394 5.946,1.753 -1.757,-1.357 -3.968,-1.145 -5.946,-1.753 z"
   id="path16470" />
		</g>
	</g><rect
   style="opacity:1;fill:#000000;fill-opacity:1;stroke-width:3.81182"
   id="rect58"
   width="182.52634"
   height="182.52634"
   x="-335.65207"
   y="457.74719"
   inkscape:label="t_bg"
   inkscape:export-filename="C:\Users\lokes\OneDrive\Documents\Desktop\haemng_logo-128.svg"
   inkscape:export-xdpi="130.048"
   inkscape:export-ydpi="130.048" /><path
   d="m 59.72621,306.36414 c -0.708948,-0.28783 -1.475848,-0.44816 -2.22343,-0.6394 -4.38118,-1.11848 -8.045685,-2.93624 -10.721141,-7.04698 -3.339973,-5.14229 -8.936216,-6.27815 -14.520868,-3.72053 -3.911767,1.79459 -7.298102,4.41982 -10.626485,7.1088 0.02898,0.0193 0.04057,0.027 0.06761,0.0406 -0.02704,-0.0193 -0.03863,-0.027 -0.06761,-0.0386 -0.150676,0.0193 -0.26658,0.0811 -0.347713,0.20863 -0.07147,0.12363 -0.175788,0.20283 -0.314873,0.23953 0,0 -0.09272,0.0638 -0.09272,0.0638 -2.099799,1.2479 -4.211187,2.47455 -6.295532,3.7437 -6.4500699,3.92336 -12.790031,3.14874 -19.124197,-0.32839 -3.4597411,-1.8989 -5.356707,-4.74821 -5.943955,-8.6368 -0.419187,-2.77784 -1.066319,-5.59044 -3.059872,-7.71536 -4.357999,-4.64582 -8.961328,-9.04439 -13.862145,-13.12615 0,0 -0.121699,-0.0927 -0.121699,-0.0927 -4.008355,-4.11847 -8.480326,-7.7057 -12.96582,-11.27748 -1.531867,-1.21893 -3.086916,-2.41274 -4.83707,-3.31873 -0.295555,-0.15261 -0.591111,-0.46168 -0.942687,-0.16806 -0.353508,0.29556 -0.09659,0.62395 0.01932,0.94462 0.18931,0.55055 1.068251,1.26722 -0.351576,1.45074 -1.58982,0.20669 -1.2904,1.08177 -0.747582,2.094 0.258852,0.481 0.902121,1.19188 -0.285897,1.37153 -1.379261,0.20863 -0.940756,0.93303 -0.471344,1.60141 0.562135,0.79974 1.207335,1.5396 1.815833,2.30843 -0.0792,0.1159 -0.160335,0.23374 -0.241468,0.35351 -1.319376,-0.37669 -1.641976,0.22021 -1.232448,1.35414 0.268512,0.74565 0.535091,1.55698 1.429486,1.84674 0,0 0.15647,0.085 0.15647,0.085 0.241467,0.73213 1.443008,1.05666 1.160974,1.88344 -0.788148,2.31616 2.462965,3.50031 1.504824,5.79328 1.916283,0.89633 1.649703,3.73405 3.880859,4.37346 0.224082,0.0637 0.492593,0.3593 0.538955,0.58918 0.587248,2.86669 2.949763,4.53571 4.726961,6.45007 3.256908,3.50996 6.392118,6.97936 8.119091,11.55372 0.623951,1.65743 1.205404,3.48678 3.017373,4.39277 0.293624,0.51384 0.743719,0.80746 1.309718,0.94075 2.447511,1.79652 5.428181,1.66902 8.557595,2.11912 -0.481002,0.30908 -0.635541,0.49066 -0.803602,0.50418 -1.253698,0.10625 -2.518986,0.30715 -3.76882,0.2434 -7.725016,-0.39987 -13.201491,-4.49708 -17.263934,-10.76171 -1.560844,-2.40694 -2.783633,-5.04183 -4.404361,-7.40435 -5.559539,-8.09591 -13.230467,-13.79646 -21.625796,-18.61035 -3.028964,-1.73663 -6.023157,-3.58531 -9.444263,-4.51833 -0.162266,-0.12943 -0.324532,-0.25886 -0.484866,-0.38828 -0.104314,-0.0193 -0.208628,-0.0309 -0.314873,-0.0367 h -0.01545 c -0.127495,-0.0483 -0.258853,-0.0811 -0.394075,-0.0966 -0.183515,-0.18545 -0.339985,-0.43271 -0.560203,-0.5293 -5.833846,-2.5383 -11.762347,-4.81002 -17.95936,-6.31678 -0.815193,-0.29942 -1.605274,-0.69349 -2.511258,-0.65293 -0.654859,-0.22987 -1.300059,-0.50225 -1.970372,-0.6761 -0.85576,-0.22215 -1.964577,-0.97746 -2.553757,-0.31488 -0.869281,0.97553 0.66645,1.61687 0.892463,2.50547 0.02898,0.11204 -0.05602,0.25112 -0.113973,0.48872 -0.535091,-0.0406 -1.085636,-0.0908 -1.636181,-0.12363 -0.836442,-0.0502 -1.972306,-0.28203 -2.329676,0.47328 -0.39407,0.83065 0.734061,1.29426 1.282675,1.84867 0.591111,0.59691 1.184154,1.20927 1.858331,1.69993 0.838374,0.60657 0.384415,1.16484 0.07534,1.76561 -0.639405,-0.058 -1.358011,-0.0695 -1.585956,0.62781 -0.229876,0.70702 0.523501,1.00644 0.902122,1.47005 0.652927,0.80168 2.161613,0.18159 2.43592,1.52994 l 0.03284,0.12556 c 0,0 0.127494,0 0.127494,0 0.02511,0.12943 0.106246,0.2009 0.239536,0.21056 0.03091,0.34578 0.127494,0.82872 -0.226014,0.94655 -2.621367,0.86929 -1.070182,2.09207 -0.229876,3.12749 0.65679,0.80746 1.562775,1.37732 2.544097,1.79458 1.18995,0.50611 2.364447,1.04507 3.965857,1.75788 -2.575006,0.92723 -1.466189,1.90469 -0.48873,2.79329 0.666449,0.60657 1.448803,1.08564 2.173204,1.63039 0.378621,0.2859 1.079841,0.50998 0.936893,1.01416 -0.790081,2.79329 1.383124,2.62909 2.961353,3.07726 l 0.05602,0.0193 c 0.658723,2.71603 2.789429,3.37282 5.161602,3.69349 0.268511,0.0657 0.537023,0.12942 0.805534,0.1951 0.195106,0.81713 -0.374757,1.7405 0.679972,2.44751 2.46876,1.65357 4.999335,3.24532 7.466163,4.8815 2.285245,1.51642 4.622647,3.37475 7.514458,3.90791 0,0 0.110109,0.058 0.110109,0.058 2.698637,1.82549 4.786844,4.22664 6.647107,6.87891 0.952347,1.35995 1.87958,2.78557 3.318725,3.73212 0,0 -0.0019,0 -0.0019,0 0.01932,0.27044 0.173856,0.4018 0.42305,0.44237 -0.0019,0 0,0 0,0 0.341918,0.68963 0.940756,1.0837 1.605274,1.40244 -0.03864,0.17386 -0.07534,0.34771 -0.112041,0.52157 -5.227281,1.52221 -9.853791,4.25755 -14.418486,7.12038 0.0019,0 0.0058,0 0.0097,-0.0193 -3.594963,0.84997 -7.197652,1.66323 -10.781025,2.56149 -3.171912,0.79587 -6.419162,1.34255 -9.41915,2.73147 0,0 -0.05602,0 -0.05602,0 -1.130066,0.35737 -2.275587,0.66838 -3.386335,1.08371 -1.043138,0.39021 -2.418535,0.7669 -2.416604,2.03991 0.0019,1.43915 1.599479,0.95814 2.470692,1.32324 1.035411,0.43464 1.848673,0.566 0.66645,1.8931 -1.064388,1.19382 -0.571795,2.17514 1.164837,2.35866 4.802298,0.50804 9.482897,2.44751 14.472574,0.99098 1.643909,-0.48101 3.544738,-0.25499 4.954906,1.07018 1.711519,1.6072 3.745638,2.11718 6.005771,1.99548 3.009646,-0.16419 6.023156,-0.26658 9.025075,-0.53122 3.301339,-0.28976 6.341893,1.18801 9.500283,1.37153 9.349608,0.54282 18.417182,-1.01609 26.990231,-4.91241 1.736632,-0.79008 3.743707,-1.25949 4.922066,-3.00964 0.162266,-0.0193 0.3245322,-0.0213 0.4887298,-0.0328 6.7784655,-3.60656 11.9729066,-8.90531 16.2555677,-15.18539 0,0 0.1023821,-0.0425 0.1023821,-0.0425 v -0.11011 c 2.3818318,-2.47069 4.3715214,-5.24466 6.2820094,-8.08238 0,0 0,-0.0348 0,-0.0348 0.699288,-0.33805 1.05666,-0.97939 1.429485,-1.60913 0.119768,-0.15841 0.241467,-0.31874 0.361235,-0.47714 2.507395,-2.8609 5.012858,-5.72181 7.518321,-8.58271 -0.05988,-0.0599 -0.119768,-0.11977 -0.175788,-0.18158 -0.02318,-0.37476 0.2009,-0.79202 0.272375,-1.18416 -0.06954,0.39214 -0.293624,0.80747 -0.270444,1.18222 0.05409,0.0638 0.113973,0.12364 0.175788,0.18352 1.582093,-1.37153 3.168049,-2.74307 4.754005,-4.1204 0.965869,-1.3271 2.240816,-2.51512 3.670301,-3.47519 -1.429485,0.95814 -2.704432,2.14809 -3.668369,3.47519 0.06568,0.15841 0.13329,0.31295 0.200901,0.46749 -1.999348,1.69992 -3.643256,3.69927 -4.978087,5.95554 0,0 0.02125,0 0.02125,0 -0.819056,0.54282 -1.303922,1.31551 -1.553116,2.25241 -0.0019,-0.002 0.01932,0.11011 0.01932,0.11011 -0.295556,-0.0193 -0.376689,0.18351 -0.413392,0.42498 -0.0019,0 0,0 0,0 -1.850604,1.46425 -2.629094,3.56985 -3.386335,5.6851 0,0 0.02898,0 0.02898,0 -0.191242,0.28203 -0.42305,0.54475 -0.565999,0.84996 -0.388279,0.82099 -0.996776,1.91436 -0.442367,2.54797 0.732128,0.83837 1.672884,-0.19704 2.372173,-0.58339 5.702488,-3.14487 11.207938,-6.67029 17.412678,-8.82997 0.166129,-0.058 0.260785,-0.31487 0.390211,-0.47907 0.293624,0.0193 0.58918,0.0232 0.884735,0.0348 0,0 0.0019,0 0.0019,0 6.332234,-1.42176 12.633561,-1.4121 18.909775,0.36896 1.220858,0.34772 2.528644,0.28783 3.753365,-0.058 0.803603,-0.22601 1.717314,-0.64713 1.726973,-1.61493 0,-0.86349 -0.990981,-0.88474 -1.599478,-1.13393 z m -11.204076,-3.36122 c 0,0 0,0 0,0 -0.60077,0.46555 -1.321308,0.16226 -1.956849,0.27431 0.633609,-0.11398 1.352216,0.18737 1.956849,-0.27431 z m -2.974875,-2.51899 c 0.07148,-0.0792 0.123631,-0.16033 0.181584,-0.23953 -0.05795,0.0792 -0.110109,0.16033 -0.179652,0.2376 -0.4443,0.49066 -0.629746,1.03155 -0.112041,1.67095 0.575658,-0.67224 0.963937,-0.84803 1.271083,-0.79974 -0.307146,-0.0483 -0.697357,0.12943 -1.271083,0.80168 -0.519637,-0.64327 -0.33419,-1.18223 0.110109,-1.67096 z m 0.649064,2.97488 c -0.07727,0.0425 -0.160334,0.0464 -0.231809,0.11397 0,0 0,0 0,0 0.07147,-0.0676 0.154539,-0.0715 0.231809,-0.11397 z m -2.714091,-6.06566 c -0.678039,0.37476 -0.515773,1.21507 -0.397938,1.97424 0.160335,1.02768 -0.39021,1.55312 -1.244038,1.68061 0.853828,-0.12749 1.402441,-0.65293 1.242107,-1.68254 -0.117836,-0.75918 -0.27817,-1.59948 0.399869,-1.97231 z m -2.855107,2.37218 c -0.674176,-0.0734 -0.907917,-0.57373 -0.851896,-1.19575 0.06375,-0.67611 0.504183,-0.95041 1.139725,-0.90598 0.643268,0.0406 1.016093,0.37862 0.996776,1.13779 -0.152607,0.61043 -0.55634,1.04121 -1.284605,0.96394 z m -1.715383,-1.08564 c 0.141017,-1.10495 0.915644,-1.9723 2.213771,-2.3799 0.314873,-0.0985 0.685767,-0.17772 0.797807,-0.58145 -1.885375,-1.21506 -4.149371,-1.42949 -6.399845,-0.96587 2.250474,-0.46362 4.516402,-0.24919 6.401777,0.96587 -0.112041,0.40566 -0.484866,0.48293 -0.797807,0.58145 -1.298128,0.40953 -2.072754,1.27688 -2.215703,2.3799 z m 13.562727,8.6368 c -3.809386,-0.25886 -7.587864,-1.23438 -11.503495,-0.39215 -0.448163,0.0966 -0.865418,0.21636 -1.267219,0.34965 0.401801,-0.13522 0.819056,-0.25499 1.269151,-0.35158 3.915631,-0.83837 7.692177,0.13522 11.501563,0.39408 0.318736,0.0193 0.627814,0.11204 0.936892,0.23181 -0.309078,-0.11977 -0.618156,-0.21056 -0.936892,-0.23181 z m 4.462312,1.39278 c -0.121699,0 -0.235672,0 -0.351576,-0.0193 0.115904,0 0.231809,0.0193 0.351576,0.0193 0.68963,-0.0522 1.361875,-0.0348 2.037983,-0.36896 -0.676108,0.33419 -1.348353,0.3168 -2.037983,0.36896 z m -8.889854,-4.30198 c 3.822908,1.17257 8.093979,0.76111 11.486109,3.38634 -3.394062,-2.62137 -7.665133,-2.21184 -11.486109,-3.38634 z"
   id="path16470-1"
   style="stroke-width:3.73161" /><rect
   style="opacity:1;fill:#ffffff;fill-opacity:1;stroke-width:3.81182"
   id="rect64"
   width="182.52634"
   height="182.52634"
   x="202.01981"
   y="744.953"
   inkscape:label="t_bg"
   inkscape:export-filename="C:\Users\lokes\OneDrive\Documents\Desktop\haemng_logo-128.svg"
   inkscape:export-xdpi="130.048"
   inkscape:export-ydpi="130.048" /><g
   id="g64"
   style="fill:#ffffff;fill-opacity:1;stroke-width:1.93174"
   transform="matrix(1.0419547,0,0,1.0419547,-565.78783,275.67742)">
		<path
   class="st0"
   d="m 891.42,540.32 c 0,0 -28.99,-23.34 -39.7,-21.65 -5.62,0.88 -7.39,3.22 -7.26,9.22 0.13,6 -1.16,17.76 -23.67,29.41 -1.96,1.02 1.26,2.98 2.07,3.55 2.72,1.89 5.07,4.31 6.97,7.01 1.91,2.71 3.8,5.86 4.17,9.22 0.02,0.18 0.03,0.36 0.04,0.54 0.03,1.61 -0.28,2.23 -0.28,2.23 0,0 -0.9,0.28 -1.75,-0.66 -0.85,-0.95 -3.65,-3.98 -4.02,-2.84 -0.38,1.14 4.44,9.64 4.02,16.66 -0.19,3.22 0.05,2.98 -1.18,2.65 -1.23,-0.33 -3.03,-2.65 -3.6,-1.89 -0.57,0.76 3.69,24.57 2.08,30.16 -1.61,5.59 -7.01,-5.02 -7.01,-5.02 0,0 -24.24,-33.9 -11.36,-87.68 0,0 0.28,-1.8 -1.14,-1.51 -1.42,0.28 -19.41,1.8 -25.66,-14.82 0,0 6.53,0.99 9.52,-0.47 0,0 -21.6,-2.82 -26.65,-28.2 0,0 0.11,0.01 0.94,0.82 0.83,0.8 3.98,2.55 6.3,2.46 0,0 -15.2,-15.84 -16.71,-39.13 0,0 36.61,9.47 51.76,30.8 15.15,21.33 20.77,22.22 26.35,22.12 5.59,-0.09 15.15,-5.68 19.41,-2.18 4.26,3.5 5.68,7.64 5.49,12.56 0,0 28.41,22.41 30.87,26.64 z"
   id="path64"
   style="fill:#000000;fill-opacity:1;stroke-width:1.93174"
   clip-path="url(#SVGID_1_)" />
		<circle
   class="st1"
   cx="852.78998"
   cy="510.73001"
   r="1.8"
   id="circle64"
   style="fill:#ffffff;fill-opacity:1;stroke-width:1.93174" />
	</g></g></g><style
     type="text/css"
     id="style1">
	.st0{clip-path:url(#SVGID_1_);}
	.st1{fill:#FFC812;}
</style><style
     type="text/css"
     id="style1-3">
	.st0{fill:#231F20;}
</style></svg>
