<?xml version="1.0" encoding="UTF-8" standalone="no"?>
<!-- Created with Inkscape (http://www.inkscape.org/) -->

<svg
   width="24.999998mm"
   height="24.999962mm"
   viewBox="0 0 24.999998 24.999962"
   version="1.1"
   id="svg1"
   xml:space="preserve"
   inkscape:version="1.4.3 (0d15f75, 2025-12-25)"
   sodipodi:docname="product_catalogue_wireframe.svg"
   xmlns:inkscape="http://www.inkscape.org/namespaces/inkscape"
   xmlns:sodipodi="http://sodipodi.sourceforge.net/DTD/sodipodi-0.dtd"
   xmlns:xlink="http://www.w3.org/1999/xlink"
   xmlns="http://www.w3.org/2000/svg"
   xmlns:svg="http://www.w3.org/2000/svg"><sodipodi:namedview
     id="namedview1"
     pagecolor="#505050"
     bordercolor="#ffffff"
     borderopacity="1"
     inkscape:showpageshadow="0"
     inkscape:pageopacity="0"
     inkscape:pagecheckerboard="1"
     inkscape:deskcolor="#505050"
     inkscape:document-units="mm"
     inkscape:zoom="1.4"
     inkscape:cx="487.85714"
     inkscape:cy="1934.2857"
     inkscape:window-width="1920"
     inkscape:window-height="1051"
     inkscape:window-x="-9"
     inkscape:window-y="-9"
     inkscape:window-maximized="1"
     inkscape:current-layer="layer1"><inkscape:page
       x="0"
       y="1.5924031e-36"
       width="24.999998"
       height="24.999962"
       id="page2"
       margin="0"
       bleed="0" /></sodipodi:namedview><defs
     id="defs1"><rect
       id="SVGID_3_"
       x="641.02002"
       y="235.09"
       width="584.22998"
       height="609.70001" /><clipPath
       id="SVGID_1_">
		<use
   xlink:href="#SVGID_3_"
   style="overflow:visible"
   id="use1" />
	</clipPath></defs><g
     inkscape:label="Layer 1"
     inkscape:groupmode="layer"
     id="layer1"
     transform="translate(49.641564,-583.02831)">
		
	<g
   id="g63"
   transform="matrix(0.13696653,0,0,0.13696653,-3.6684649,520.33225)"
   style="stroke-width:1.93174">
	<g
   id="g61"
   style="fill:#ffffff;fill-opacity:1;stroke-width:1.93174">
		<path
   class="st0"
   d="m 859.27,583.51 h -7.63 v -29.02 h 7.63 v 11.02 h 32.65 v -11.02 h 7.63 v 29.02 h -7.63 v -11.02 h -32.65 z"
   id="path56"
   style="fill:#ffffff;fill-opacity:1;stroke-width:1.93174"
   clip-path="url(#SVGID_1_)" />
		<path
   class="st0"
   d="m 948.7,578.25 h -30.88 l -4.98,5.26 h -10.05 l 26.18,-29.11 h 4.28 4.28 l 26.18,29.11 h -10.09 z m -5.91,-6.27 -9.53,-10.09 -9.53,10.09 c 5.53,0 13.06,0 19.06,0 z"
   id="path57"
   style="fill:#ffffff;fill-opacity:1;stroke-width:1.93174"
   clip-path="url(#SVGID_1_)" />
		<polygon
   class="st0"
   points="952.83,571.69 981.52,571.69 981.52,565.42 947.23,565.42 "
   id="polygon57"
   style="fill:#ffffff;fill-opacity:1;stroke-width:1.93174"
   clip-path="url(#SVGID_1_)" />
		<polygon
   class="st0"
   points="991.79,554.4 937.45,554.4 943.02,560.63 991.8,560.63 "
   id="polygon58"
   style="fill:#ffffff;fill-opacity:1;stroke-width:1.93174"
   clip-path="url(#SVGID_1_)" />
		<polygon
   class="st0"
   points="991.76,577.23 958.03,577.23 963.38,583.51 991.76,583.51 "
   id="polygon59"
   style="fill:#ffffff;fill-opacity:1;stroke-width:1.93174"
   clip-path="url(#SVGID_1_)" />
		<path
   class="st0"
   d="m 1006.81,583.51 h -7.67 v -29.02 h 9.12 l 17.77,17.72 17.77,-17.72 h 9.12 v 29.02 h -7.67 v -20.14 l -19.21,19.25 -19.21,-19.25 v 20.14 z"
   id="path59"
   style="fill:#ffffff;fill-opacity:1;stroke-width:1.93174"
   clip-path="url(#SVGID_1_)" />
		<path
   class="st0"
   d="m 1067.02,563.28 v 20.23 h -7.63 v -29.02 h 7.95 l 32.09,20.23 v -20.23 h 7.63 v 29.02 h -7.67 z"
   id="path60"
   style="fill:#ffffff;fill-opacity:1;stroke-width:1.93174"
   clip-path="url(#SVGID_1_)" />
		<path
   class="st0"
   d="m 1119.33,568.81 c 0,4.05 3.3,7.67 7.39,7.67 0.19,0 22.32,0 27.44,0 v -4.88 h -27.9 v -6.28 h 35.53 v 11.16 5.49 1.53 h -36.37 c -7.58,-0.19 -13.72,-7.07 -13.72,-14.7 0,-7.49 5.81,-14.19 13.16,-14.7 0.28,0 20.88,0 31.07,0 l 5.86,6.98 c -4,0 -35.25,0 -35.44,0.05 -3.9,0.2 -7.02,3.73 -7.02,7.68 z"
   id="path61"
   style="fill:#ffffff;fill-opacity:1;stroke-width:1.93174"
   clip-path="url(#SVGID_1_)" />
	</g>
	<g
   id="g62"
   style="fill:#ffffff;fill-opacity:1;stroke-width:1.93174">
		<path
   class="st0"
   d="m 891.42,540.32 c 0,0 -28.99,-23.34 -39.7,-21.65 -5.62,0.88 -7.39,3.22 -7.26,9.22 0.13,6 -1.16,17.76 -23.67,29.41 -1.96,1.02 1.26,2.98 2.07,3.55 2.72,1.89 5.07,4.31 6.97,7.01 1.91,2.71 3.8,5.86 4.17,9.22 0.02,0.18 0.03,0.36 0.04,0.54 0.03,1.61 -0.28,2.23 -0.28,2.23 0,0 -0.9,0.28 -1.75,-0.66 -0.85,-0.95 -3.65,-3.98 -4.02,-2.84 -0.38,1.14 4.44,9.64 4.02,16.66 -0.19,3.22 0.05,2.98 -1.18,2.65 -1.23,-0.33 -3.03,-2.65 -3.6,-1.89 -0.57,0.76 3.69,24.57 2.08,30.16 -1.61,5.59 -7.01,-5.02 -7.01,-5.02 0,0 -24.24,-33.9 -11.36,-87.68 0,0 0.28,-1.8 -1.14,-1.51 -1.42,0.28 -19.41,1.8 -25.66,-14.82 0,0 6.53,0.99 9.52,-0.47 0,0 -21.6,-2.82 -26.65,-28.2 0,0 0.11,0.01 0.94,0.82 0.83,0.8 3.98,2.55 6.3,2.46 0,0 -15.2,-15.84 -16.71,-39.13 0,0 36.61,9.47 51.76,30.8 15.15,21.33 20.77,22.22 26.35,22.12 5.59,-0.09 15.15,-5.68 19.41,-2.18 4.26,3.5 5.68,7.64 5.49,12.56 0,0 28.41,22.41 30.87,26.64 z"
   id="path62"
   style="fill:#ffffff;fill-opacity:1;stroke-width:1.93174"
   clip-path="url(#SVGID_1_)" />
		<circle
   class="st1"
   cx="852.78998"
   cy="510.73001"
   r="1.8"
   id="circle62"
   style="fill:#000000;fill-opacity:1;stroke-width:1.93174" />
	</g>
<rect
   style="opacity:1;fill:#ffffff;fill-opacity:1;stroke-width:3.81182"
   id="rect57"
   width="182.52634"
   height="182.52634"
   x="202.01981"
   y="457.74719"
   inkscape:label="t_bg"
   inkscape:export-filename="C:\Users\lokes\OneDrive\Documents\Desktop\haemng_logo-64.svg"
   inkscape:export-xdpi="65.024002"
   inkscape:export-ydpi="65.024002" /><g
   id="g10"
   style="fill:#ffffff;fill-opacity:1;stroke-width:1.93174"
   transform="matrix(1.0419547,0,0,1.0419547,-565.78783,-11.52837)">
		<path
   id="path10"
   clip-path="url(#SVGID_1_)"
   style="fill:#000000;fill-opacity:1;stroke-width:1.93174"
   class="st0"
   d="m 757.53959,450.38141 c 1.51,23.29 16.71094,39.12859 16.71094,39.12859 -2.32,0.09 -5.47055,-1.65866 -6.30055,-2.45866 -0.72625,-0.70875 -0.90182,-0.80536 -0.93422,-0.81835 l -0.004,-0.004 h -0.004 c 5.05,25.38 26.6506,28.20039 26.6506,28.20039 -2.99,1.46 -9.51962,0.47073 -9.51962,0.47073 6.25,16.62 24.24207,15.10078 25.66207,14.82078 1.42,-0.29 1.13699,1.50996 1.13699,1.50996 -12.88,53.78 11.36272,87.67904 11.36272,87.67904 0,0 5.40027,10.60871 7.01027,5.01871 1.61,-5.59 -2.65208,-29.39936 -2.08208,-30.15936 0.57,-0.76 2.36928,1.56017 3.59928,1.89017 1.23,0.33 0.99045,0.56942 1.18045,-2.65058 0.42,-7.02 -4.39932,-15.52025 -4.01932,-16.66025 0.37,-1.14 3.16932,1.89249 4.01932,2.84249 0.85,0.94 1.75256,0.65903 1.75256,0.65903 0,0 0.30882,-0.62054 0.27882,-2.23054 -0.01,-0.18 -0.0198,-0.35953 -0.0398,-0.53953 -0.37,-3.36 -2.2614,-6.50908 -4.1714,-9.21908 -1.9,-2.7 -4.25044,-5.12027 -6.97044,-7.01027 -0.81,-0.57 -4.02759,-2.53221 -2.06759,-3.55221 22.51,-11.65 23.7969,-23.40981 23.6669,-29.40981 -0.13,-6 1.64011,-8.33908 7.26011,-9.21908 10.71,-1.69 39.70071,21.65 39.70071,21.65 -2.46,-4.23 -30.86907,-26.63975 -30.86907,-26.63975 0.19,-4.92 -1.22945,-9.06126 -5.48945,-12.56126 -4.26,-3.5 -13.82221,2.08984 -19.41221,2.17984 -5.58,0.1 -11.20006,-0.7871 -26.35006,-22.1171 -15.15,-21.33 -51.75866,-30.80028 -51.75866,-30.80028 z m 95.25056,58.54805 a 1.8,1.8 0 0 1 1.79964,1.79964 1.8,1.8 0 0 1 -1.79964,1.79963 1.8,1.8 0 0 1 -1.79964,-1.79963 1.8,1.8 0 0 1 1.79964,-1.79964 z" />
		
	</g><g
   id="g16471"
   transform="matrix(1.9317371,0,0,1.9317371,-2077.3669,3086.6226)">
		<g
   id="g16470">
			<g
   id="g16469">
				<path
   d="m 799.912,-1595.142 h -8.659 v -32.748 h 10.285 l 20.047,19.997 20.047,-19.997 h 10.285 v 32.748 h -8.659 v -22.724 l -21.672,21.728 -21.672,-21.728 v 22.724 z"
   id="path16464" />
				<path
   d="m 905.32,-1601.073 h -34.844 l -5.617,5.931 h -11.334 l 29.545,-32.85 h 4.826 4.828 l 29.545,32.85 h -11.387 z m -6.664,-7.084 -10.759,-11.387 -10.757,11.387 c 6.244,0 14.745,0 21.516,0 z"
   id="path16465" />
				<polygon
   points="948.658,-1627.89 892.556,-1627.89 892.556,-1620.856 955.27,-1620.856 "
   id="polygon16465" />
				<rect
   x="912.84802"
   y="-1602.226"
   width="42.422001"
   height="7.085"
   id="rect16465" />
				<rect
   x="901.30701"
   y="-1615.451"
   width="45.672001"
   height="7.085"
   id="rect16466" />
				<path
   d="m 1005.854,-1603.012 6.612,7.871 h -52.739 v -32.748 h 8.659 v 24.877 z"
   id="path16466" />
				<path
   d="m 1065.865,-1601.073 h -34.844 l -5.615,5.931 h -11.336 l 29.545,-32.85 h 4.826 4.828 l 29.545,32.85 h -11.387 z m -6.663,-7.084 -10.759,-11.387 -10.757,11.387 c 6.244,0 14.745,0 21.516,0 z"
   id="path16467" />
				<path
   d="m 1093.402,-1595.142 h -8.606 v -32.748 h 41.877 c 6.717,0.107 12.122,5.619 12.122,12.387 0,5.508 -3.517,10.127 -8.45,11.806 l 8.45,8.554 h -12.018 l -7.819,-7.922 c -4.566,0 -25.557,0 -25.557,0 v 7.923 z m 0,-15.797 c 4.356,0 28.757,0 32.536,0 2.519,0 4.566,-2.047 4.566,-4.563 0,-2.465 -1.993,-4.568 -4.619,-4.568 -0.105,0 -32.378,0 -32.483,0 z"
   id="path16468" />
				<path
   d="M 1183.538,-1595.142 H 1142.5 v -32.748 c 0,0 40.828,0 41.668,0 8.343,0 14.851,7.926 14.851,16.323 0,8.657 -6.926,16.216 -15.481,16.425 z m -1.47,-7.922 c 4.619,0 8.345,-3.884 8.345,-8.503 0,-4.461 -3.517,-8.238 -7.924,-8.448 -0.263,-0.056 -26.868,0 -31.434,0 v 16.951 c 5.824,0 30.646,0 31.013,0 z"
   id="path16469" />
			</g>
			<path
   d="m 1061.66,-1645.253 c -0.367,-0.149 -0.764,-0.232 -1.151,-0.331 -2.268,-0.579 -4.165,-1.52 -5.55,-3.648 -1.729,-2.662 -4.626,-3.25 -7.517,-1.926 -2.025,0.929 -3.778,2.288 -5.501,3.68 0.015,0.01 0.021,0.014 0.035,0.021 -0.014,-0.01 -0.02,-0.014 -0.035,-0.02 -0.078,0.01 -0.138,0.042 -0.18,0.108 -0.037,0.064 -0.091,0.105 -0.163,0.124 0,0 -0.048,0.033 -0.048,0.033 -1.087,0.646 -2.18,1.281 -3.259,1.938 -3.339,2.031 -6.621,1.63 -9.9,-0.17 -1.791,-0.983 -2.773,-2.458 -3.077,-4.471 -0.217,-1.438 -0.552,-2.894 -1.584,-3.994 -2.256,-2.405 -4.639,-4.682 -7.176,-6.795 0,0 -0.063,-0.048 -0.063,-0.048 -2.075,-2.132 -4.39,-3.989 -6.712,-5.838 -0.793,-0.631 -1.598,-1.249 -2.504,-1.718 -0.153,-0.079 -0.306,-0.239 -0.488,-0.087 -0.183,0.153 -0.05,0.323 0.01,0.489 0.098,0.285 0.553,0.656 -0.182,0.751 -0.823,0.107 -0.668,0.56 -0.387,1.084 0.134,0.249 0.467,0.617 -0.148,0.71 -0.714,0.108 -0.487,0.483 -0.244,0.829 0.291,0.414 0.625,0.797 0.94,1.195 -0.041,0.06 -0.083,0.121 -0.125,0.183 -0.683,-0.195 -0.85,0.114 -0.638,0.701 0.139,0.386 0.277,0.806 0.74,0.956 0,0 0.081,0.044 0.081,0.044 0.125,0.379 0.747,0.547 0.601,0.975 -0.408,1.199 1.275,1.812 0.779,2.999 0.992,0.464 0.854,1.933 2.009,2.264 0.116,0.033 0.255,0.186 0.279,0.305 0.304,1.484 1.527,2.348 2.447,3.339 1.686,1.817 3.309,3.613 4.203,5.981 0.323,0.858 0.624,1.805 1.562,2.274 0.152,0.266 0.385,0.418 0.678,0.487 1.267,0.93 2.81,0.864 4.43,1.097 -0.249,0.16 -0.329,0.254 -0.416,0.261 -0.649,0.055 -1.304,0.159 -1.951,0.126 -3.999,-0.207 -6.834,-2.328 -8.937,-5.571 -0.808,-1.246 -1.441,-2.61 -2.28,-3.833 -2.878,-4.191 -6.849,-7.142 -11.195,-9.634 -1.568,-0.899 -3.118,-1.856 -4.889,-2.339 -0.084,-0.067 -0.168,-0.134 -0.251,-0.201 -0.054,-0.01 -0.108,-0.016 -0.163,-0.019 h -0.008 c -0.066,-0.025 -0.134,-0.042 -0.204,-0.05 -0.095,-0.096 -0.176,-0.224 -0.29,-0.274 -3.02,-1.314 -6.089,-2.49 -9.297,-3.27 -0.422,-0.155 -0.831,-0.359 -1.3,-0.338 -0.339,-0.119 -0.673,-0.26 -1.02,-0.35 -0.443,-0.115 -1.017,-0.506 -1.322,-0.163 -0.45,0.505 0.345,0.837 0.462,1.297 0.015,0.058 -0.029,0.13 -0.059,0.253 -0.277,-0.021 -0.562,-0.047 -0.847,-0.064 -0.433,-0.026 -1.021,-0.146 -1.206,0.245 -0.204,0.43 0.38,0.67 0.664,0.957 0.306,0.309 0.613,0.626 0.962,0.88 0.434,0.314 0.199,0.603 0.039,0.914 -0.331,-0.03 -0.703,-0.036 -0.821,0.325 -0.119,0.366 0.271,0.521 0.467,0.761 0.338,0.415 1.119,0.094 1.261,0.792 l 0.017,0.065 c 0,0 0.066,0 0.066,0 0.013,0.067 0.055,0.104 0.124,0.109 0.016,0.179 0.066,0.429 -0.117,0.49 -1.357,0.45 -0.554,1.083 -0.119,1.619 0.34,0.418 0.809,0.713 1.317,0.929 0.616,0.262 1.224,0.541 2.053,0.91 -1.333,0.48 -0.759,0.986 -0.253,1.446 0.345,0.314 0.75,0.562 1.125,0.844 0.196,0.148 0.559,0.264 0.485,0.525 -0.409,1.446 0.716,1.361 1.533,1.593 l 0.029,0.01 c 0.341,1.406 1.444,1.746 2.672,1.912 0.139,0.034 0.278,0.067 0.417,0.101 0.101,0.423 -0.194,0.901 0.352,1.267 1.278,0.856 2.588,1.68 3.865,2.527 1.183,0.785 2.393,1.747 3.89,2.023 0,0 0.057,0.03 0.057,0.03 1.397,0.945 2.478,2.188 3.441,3.561 0.493,0.704 0.973,1.442 1.718,1.932 0,0 -10e-4,0 -10e-4,0 0.01,0.14 0.09,0.208 0.219,0.229 -10e-4,0 0,0 0,0 0.177,0.357 0.487,0.561 0.831,0.726 -0.02,0.09 -0.039,0.18 -0.058,0.27 -2.706,0.788 -5.101,2.204 -7.464,3.686 0.001,0 0.003,0 0.005,-0.01 -1.861,0.44 -3.726,0.861 -5.581,1.326 -1.642,0.412 -3.323,0.695 -4.876,1.414 0,0 -0.029,0 -0.029,0 -0.585,0.185 -1.178,0.346 -1.753,0.561 -0.54,0.202 -1.252,0.397 -1.251,1.056 0.001,0.745 0.828,0.496 1.279,0.685 0.536,0.225 0.957,0.293 0.345,0.98 -0.551,0.618 -0.296,1.126 0.603,1.221 2.486,0.263 4.909,1.267 7.492,0.513 0.851,-0.249 1.835,-0.132 2.565,0.554 0.886,0.832 1.939,1.096 3.109,1.033 1.558,-0.085 3.118,-0.138 4.672,-0.275 1.709,-0.15 3.283,0.615 4.918,0.71 4.84,0.281 9.534,-0.526 13.972,-2.543 0.899,-0.409 1.938,-0.652 2.548,-1.558 0.084,-0.01 0.168,-0.011 0.253,-0.017 3.509,-1.867 6.198,-4.61 8.415,-7.861 0,0 0.053,-0.022 0.053,-0.022 v -0.057 c 1.233,-1.279 2.263,-2.715 3.252,-4.184 0,0 0,-0.018 0,-0.018 0.362,-0.175 0.547,-0.507 0.74,-0.833 0.062,-0.082 0.125,-0.165 0.187,-0.247 1.298,-1.481 2.595,-2.962 3.892,-4.443 -0.031,-0.031 -0.062,-0.062 -0.091,-0.094 -0.012,-0.194 0.104,-0.41 0.141,-0.613 -0.036,0.203 -0.152,0.418 -0.14,0.612 0.028,0.033 0.059,0.064 0.091,0.095 0.819,-0.71 1.64,-1.42 2.461,-2.133 0.5,-0.687 1.16,-1.302 1.9,-1.799 -0.74,0.496 -1.4,1.112 -1.899,1.799 0.034,0.082 0.069,0.162 0.104,0.242 -1.035,0.88 -1.886,1.915 -2.577,3.083 0,0 0.011,0 0.011,0 -0.424,0.281 -0.675,0.681 -0.804,1.166 -10e-4,-10e-4 0.01,0.057 0.01,0.057 -0.153,-0.01 -0.195,0.095 -0.214,0.22 -10e-4,0 0,0 0,0 -0.958,0.758 -1.361,1.848 -1.753,2.943 0,0 0.015,0 0.015,0 -0.099,0.146 -0.219,0.282 -0.293,0.44 -0.201,0.425 -0.516,0.991 -0.229,1.319 0.379,0.434 0.866,-0.102 1.228,-0.302 2.952,-1.628 5.802,-3.453 9.014,-4.571 0.086,-0.03 0.135,-0.163 0.202,-0.248 0.152,0.01 0.305,0.012 0.458,0.018 0,0 10e-4,0 10e-4,0 3.278,-0.736 6.54,-0.731 9.789,0.191 0.632,0.18 1.309,0.149 1.943,-0.03 0.416,-0.117 0.889,-0.335 0.894,-0.836 0,-0.447 -0.513,-0.458 -0.828,-0.587 z m -5.8,-1.74 c 0,0 0,0 0,0 -0.311,0.241 -0.684,0.084 -1.013,0.142 0.328,-0.059 0.7,0.097 1.013,-0.142 z m -1.54,-1.304 c 0.037,-0.041 0.064,-0.083 0.094,-0.124 -0.03,0.041 -0.057,0.083 -0.093,0.123 -0.23,0.254 -0.326,0.534 -0.058,0.865 0.298,-0.348 0.499,-0.439 0.658,-0.414 -0.159,-0.025 -0.361,0.067 -0.658,0.415 -0.269,-0.333 -0.173,-0.612 0.057,-0.865 z m 0.336,1.54 c -0.04,0.022 -0.083,0.024 -0.12,0.059 0,0 0,0 0,0 0.037,-0.035 0.08,-0.037 0.12,-0.059 z m -1.405,-3.14 c -0.351,0.194 -0.267,0.629 -0.206,1.022 0.083,0.532 -0.202,0.804 -0.644,0.87 0.442,-0.066 0.726,-0.338 0.643,-0.871 -0.061,-0.393 -0.144,-0.828 0.207,-1.021 z m -1.478,1.228 c -0.349,-0.038 -0.47,-0.297 -0.441,-0.619 0.033,-0.35 0.261,-0.492 0.59,-0.469 0.333,0.021 0.526,0.196 0.516,0.589 -0.079,0.316 -0.288,0.539 -0.665,0.499 z m -0.888,-0.562 c 0.073,-0.572 0.474,-1.021 1.146,-1.232 0.163,-0.051 0.355,-0.092 0.413,-0.301 -0.976,-0.629 -2.148,-0.74 -3.313,-0.5 1.165,-0.24 2.338,-0.129 3.314,0.5 -0.058,0.21 -0.251,0.25 -0.413,0.301 -0.672,0.212 -1.073,0.661 -1.147,1.232 z m 7.021,4.471 c -1.972,-0.134 -3.928,-0.639 -5.955,-0.203 -0.232,0.05 -0.448,0.112 -0.656,0.181 0.208,-0.07 0.424,-0.132 0.657,-0.182 2.027,-0.434 3.982,0.07 5.954,0.204 0.165,0.01 0.325,0.058 0.485,0.12 -0.16,-0.062 -0.32,-0.109 -0.485,-0.12 z m 2.31,0.721 c -0.063,0 -0.122,0 -0.182,-0.01 0.06,0 0.12,0.01 0.182,0.01 0.357,-0.027 0.705,-0.018 1.055,-0.191 -0.35,0.173 -0.698,0.164 -1.055,0.191 z m -4.602,-2.227 c 1.979,0.607 4.19,0.394 5.946,1.753 -1.757,-1.357 -3.968,-1.145 -5.946,-1.753 z"
   id="path16470" />
		</g>
	</g><rect
   style="opacity:1;fill:#ffffff;fill-opacity:0;stroke-width:3.81182"
   id="rect58"
   width="182.52634"
   height="182.52634"
   x="-335.65207"
   y="457.74719"
   inkscape:label="t_bg"
   inkscape:export-filename="C:\Users\lokes\OneDrive\Documents\Desktop\haemng_logo-128.svg"
   inkscape:export-xdpi="130.048"
   inkscape:export-ydpi="130.048" /><path
   d="m -154.93644,545.69149 c -0.79856,-0.32421 -1.66239,-0.50481 -2.50446,-0.72022 -4.93494,-1.25985 -9.06262,-3.30737 -12.07624,-7.93768 -3.76213,-5.79225 -10.06572,-7.07168 -16.35624,-4.19079 -4.40619,2.02142 -8.22054,4.97846 -11.96961,8.00732 0.0327,0.0217 0.0457,0.0304 0.0761,0.0457 -0.0304,-0.0217 -0.0435,-0.0304 -0.0761,-0.0435 -0.16973,0.0217 -0.30028,0.0914 -0.39167,0.235 -0.0805,0.13926 -0.198,0.22847 -0.35467,0.2698 0,0 -0.10442,0.0719 -0.10442,0.0719 -2.3652,1.40563 -4.74346,2.78732 -7.09125,4.21688 -7.26533,4.41926 -14.40663,3.54673 -21.54141,-0.36989 -3.89703,-2.13891 -6.03376,-5.34836 -6.69524,-9.72845 -0.47217,-3.12895 -1.20109,-6.29705 -3.44662,-8.69055 -4.90883,-5.23303 -10.094,-10.18755 -15.61426,-14.78523 0,0 -0.13708,-0.10441 -0.13708,-0.10441 -4.51498,-4.63903 -9.55219,-8.67967 -14.60463,-12.7029 -1.7255,-1.373 -3.47709,-2.7177 -5.44846,-3.7382 -0.3329,-0.1719 -0.66582,-0.52004 -1.06184,-0.18931 -0.39818,0.33292 -0.10881,0.70282 0.0217,1.06402 0.21324,0.62014 1.20328,1.42739 -0.39601,1.63411 -1.79076,0.23281 -1.4535,1.2185 -0.84207,2.35867 0.29157,0.54179 1.01615,1.34252 -0.32203,1.54488 -1.55359,0.235 -1.05967,1.05096 -0.53092,1.80382 0.63318,0.90083 1.35993,1.7342 2.04534,2.60021 -0.0892,0.13055 -0.1806,0.26328 -0.27199,0.39819 -1.48614,-0.4243 -1.84951,0.24804 -1.38822,1.5253 0.30245,0.83989 0.60272,1.75377 1.61017,2.08015 0,0 0.17625,0.0958 0.17625,0.0958 0.27199,0.82467 1.6254,1.19021 1.30771,2.1215 -0.88777,2.60891 2.77427,3.94273 1.69503,6.52552 2.15849,1.00962 1.85821,4.20601 4.37138,4.92624 0.2524,0.0718 0.55485,0.40472 0.60707,0.66365 0.66148,3.22903 3.3226,5.109 5.32443,7.26533 3.66856,3.9536 7.20005,7.86152 9.1453,13.01405 0.70281,1.86692 1.35777,3.92749 3.39876,4.948 0.33073,0.57878 0.83771,0.90952 1.47525,1.05965 2.75687,2.02359 6.11428,1.87998 9.63924,2.38697 -0.54179,0.34815 -0.71587,0.55268 -0.90517,0.56791 -1.41216,0.11968 -2.83738,0.34597 -4.24518,0.27416 -8.70142,-0.45041 -14.87009,-5.06549 -19.44602,-12.12194 -1.75812,-2.71116 -3.13546,-5.67909 -4.96105,-8.34022 -6.26224,-9.11919 -14.90273,-15.54027 -24.35918,-20.96261 -3.41182,-1.95613 -6.78446,-4.03847 -10.63798,-5.08942 -0.18277,-0.14579 -0.36555,-0.29158 -0.54614,-0.43736 -0.11751,-0.0217 -0.235,-0.0348 -0.35468,-0.0413 h -0.0173 c -0.1436,-0.0544 -0.29157,-0.0913 -0.44388,-0.10881 -0.20672,-0.20889 -0.38296,-0.4874 -0.63101,-0.5962 -6.57122,-2.85913 -13.24905,-5.41798 -20.22933,-7.11519 -0.91824,-0.33727 -1.80818,-0.78114 -2.82867,-0.73546 -0.73763,-0.25892 -1.46438,-0.56573 -2.21942,-0.76155 -0.96392,-0.25023 -2.21289,-1.10101 -2.87654,-0.35468 -0.97915,1.09883 0.75069,1.82123 1.00526,2.82215 0.0327,0.1262 -0.0631,0.28286 -0.12837,0.55049 -0.60273,-0.0457 -1.22286,-0.10228 -1.84299,-0.13926 -0.94216,-0.0565 -2.2216,-0.31767 -2.62414,0.5331 -0.44388,0.93564 0.82684,1.45785 1.44481,2.08234 0.66582,0.67235 1.33382,1.36211 2.09321,1.91479 0.94434,0.68324 0.433,1.31207 0.0848,1.98877 -0.72023,-0.0653 -1.52966,-0.0783 -1.78642,0.70717 -0.25892,0.79638 0.58967,1.13364 1.01614,1.65585 0.73546,0.90301 2.43484,0.20454 2.74381,1.72332 l 0.037,0.14143 c 0,0 0.14361,0 0.14361,0 0.0283,0.14579 0.11967,0.22629 0.26981,0.23717 0.0348,0.38949 0.14361,0.93347 -0.25458,1.06619 -2.9527,0.97917 -1.20544,2.3565 -0.25893,3.52279 0.7398,0.90952 1.7603,1.55141 2.86566,2.02141 1.34035,0.57008 2.6633,1.17716 4.46712,1.98007 -2.90048,1.04442 -1.65151,2.14543 -0.5505,3.14634 0.75069,0.68324 1.63192,1.22286 2.44788,1.83647 0.42648,0.32203 1.21633,0.57444 1.05531,1.14234 -0.88994,3.14635 1.55795,2.9614 3.33566,3.46621 l 0.0631,0.0217 c 0.74198,3.05933 3.142,3.79913 5.814,4.16033 0.30245,0.074 0.6049,0.14578 0.90735,0.21976 0.21977,0.92041 -0.42212,1.96049 0.76592,2.75686 2.7808,1.86258 5.63122,3.65552 8.40985,5.4985 2.57408,1.70809 5.20693,3.8013 8.46425,4.40185 0,0 0.12403,0.0653 0.12403,0.0653 3.03972,2.05623 5.39187,4.76087 7.48726,7.74837 1.07272,1.53185 2.11715,3.13766 3.7382,4.20385 0,0 -0.002,0 -0.002,0 0.0217,0.30462 0.19582,0.45258 0.47652,0.49828 -0.002,0 0,0 0,0 0.38514,0.7768 1.05965,1.22067 1.80817,1.5797 -0.0435,0.19584 -0.0848,0.39166 -0.1262,0.5875 -5.88799,1.71461 -11.09927,4.79568 -16.24092,8.02036 0.002,0 0.007,0 0.0113,-0.0217 -4.04934,0.9574 -8.1074,1.87345 -12.14369,2.88525 -3.57282,0.89646 -7.23051,1.51224 -10.60968,3.07671 0,0 -0.0631,0 -0.0631,0 -1.2729,0.40254 -2.56321,0.75286 -3.81436,1.22069 -1.17497,0.43953 -2.72422,0.86383 -2.72204,2.29774 0.002,1.62105 1.80164,1.07925 2.78297,1.49049 1.16628,0.48958 2.08235,0.63754 0.75069,2.13238 -1.19893,1.34471 -0.64406,2.45007 1.31207,2.65678 5.40928,0.57226 10.68149,2.75687 16.30183,1.11624 1.85169,-0.54181 3.99278,-0.28722 5.58119,1.20545 1.92784,1.81034 4.21907,2.38478 6.76487,2.24769 3.39005,-0.18494 6.78445,-0.30027 10.1658,-0.59836 3.7186,-0.32638 7.14348,1.33817 10.70107,1.54489 10.53136,0.61143 20.74502,-1.14452 30.40166,-5.53332 1.95614,-0.88994 4.2169,-1.41868 5.5442,-3.39004 0.18277,-0.0217 0.36555,-0.024 0.5505,-0.037 7.63523,-4.06241 13.48622,-10.0309 18.31019,-17.10475 0,0 0.11533,-0.0479 0.11533,-0.0479 v -0.12403 c 2.68288,-2.78297 4.92406,-5.90756 7.07601,-9.10395 0,0 0,-0.0392 0,-0.0392 0.78768,-0.38078 1.19022,-1.10318 1.61017,-1.81252 0.13491,-0.17843 0.27199,-0.35902 0.40689,-0.53744 2.82432,-3.22251 5.64646,-6.44502 8.46861,-9.66753 -0.0675,-0.0675 -0.13491,-0.1349 -0.19801,-0.20453 -0.0261,-0.42213 0.22629,-0.89212 0.3068,-1.33383 -0.0783,0.44171 -0.33073,0.90953 -0.30462,1.33165 0.0609,0.0719 0.12837,0.13927 0.19801,0.20671 1.78205,-1.54488 3.56847,-3.08978 5.35488,-4.64119 1.08795,-1.49484 2.52405,-2.83302 4.13421,-3.91444 -1.61016,1.07924 -3.04626,2.4196 -4.13204,3.91444 0.074,0.17843 0.15014,0.3525 0.22629,0.52657 -2.25204,1.91479 -4.10373,4.16684 -5.60728,6.70829 0,0 0.0239,0 0.0239,0 -0.92259,0.61143 -1.46873,1.48179 -1.74943,2.53711 -0.002,-0.002 0.0217,0.12403 0.0217,0.12403 -0.3329,-0.0217 -0.4243,0.2067 -0.46564,0.47869 -0.002,0 0,0 0,0 -2.08451,1.64933 -2.96139,4.02106 -3.81436,6.40367 0,0 0.0327,0 0.0327,0 -0.21541,0.31768 -0.47652,0.6136 -0.63753,0.95739 -0.43736,0.92476 -1.12277,2.15633 -0.49828,2.87002 0.82467,0.94434 1.88432,-0.22194 2.672,-0.65713 6.42326,-3.54236 12.62457,-7.51338 19.61356,-9.94603 0.18712,-0.0653 0.29374,-0.35467 0.43953,-0.53962 0.33073,0.0217 0.66365,0.0261 0.99656,0.0392 0,0 0.002,0 0.002,0 7.13259,-1.60147 14.23038,-1.59059 21.29987,0.41559 1.37517,0.39167 2.84825,0.32421 4.22778,-0.0653 0.90517,-0.25458 1.93437,-0.72892 1.94525,-1.81905 0,-0.97263 -1.11624,-0.99657 -1.80165,-1.27725 z m -12.62021,-3.78607 c 0,0 0,0 0,0 -0.67671,0.5244 -1.48832,0.18277 -2.20419,0.30899 0.7137,-0.12839 1.52313,0.21105 2.20419,-0.30899 z m -3.35089,-2.83737 c 0.0805,-0.0892 0.13925,-0.1806 0.20453,-0.26981 -0.0653,0.0892 -0.12402,0.1806 -0.20236,0.26763 -0.50045,0.55268 -0.70933,1.16194 -0.1262,1.88215 0.64842,-0.75721 1.08578,-0.95521 1.43174,-0.90082 -0.34596,-0.0544 -0.78549,0.14579 -1.43174,0.90301 -0.58532,-0.72458 -0.37643,-1.33166 0.12403,-1.88216 z m 0.7311,3.35089 c -0.0871,0.0479 -0.1806,0.0523 -0.2611,0.12837 0,0 0,0 0,0 0.0805,-0.0761 0.17406,-0.0805 0.2611,-0.12837 z m -3.05714,-6.83233 c -0.76374,0.42213 -0.58096,1.36865 -0.44823,2.22377 0.1806,1.15758 -0.43953,1.74943 -1.40128,1.89303 0.96175,-0.1436 1.5797,-0.73545 1.3991,-1.8952 -0.13273,-0.85514 -0.31333,-1.80165 0.45041,-2.2216 z m -3.21597,2.67201 c -0.75939,-0.0827 -1.02268,-0.64625 -0.95958,-1.34689 0.0717,-0.76156 0.56791,-1.07053 1.28379,-1.02049 0.72456,0.0457 1.14452,0.42648 1.12276,1.2816 -0.1719,0.68759 -0.62666,1.17282 -1.44697,1.08578 z m -1.93221,-1.22286 c 0.15885,-1.24461 1.03138,-2.22159 2.49358,-2.68071 0.35468,-0.11095 0.77245,-0.20018 0.89865,-0.65494 -2.12367,-1.36864 -4.67383,-1.61017 -7.20875,-1.08795 2.53492,-0.52222 5.08725,-0.28069 7.21092,1.08795 -0.1262,0.45693 -0.54614,0.54397 -0.89863,0.65494 -1.46221,0.46129 -2.33475,1.43827 -2.49577,2.68071 z m 15.27699,9.72845 c -4.29087,-0.29158 -8.54692,-1.3904 -12.95747,-0.44172 -0.50482,0.10881 -0.97481,0.24371 -1.42739,0.39385 0.45258,-0.15231 0.92257,-0.28722 1.42956,-0.39602 4.41055,-0.94434 8.66443,0.15231 12.9553,0.44389 0.35903,0.0217 0.70717,0.1262 1.05531,0.26111 -0.34814,-0.13491 -0.69628,-0.23718 -1.05531,-0.26111 z m 5.02633,1.56882 c -0.13708,0 -0.26546,0 -0.39601,-0.0217 0.13055,0 0.26111,0.0217 0.39601,0.0217 0.77679,-0.0588 1.53401,-0.0392 2.29558,-0.4156 -0.76157,0.37643 -1.51879,0.35685 -2.29558,0.4156 z m -10.01349,-4.84573 c 4.30611,1.32078 9.11702,0.85731 12.9379,3.81436 -3.82305,-2.9527 -8.63397,-2.49141 -12.9379,-3.81436 z"
   id="path16470-1"
   style="stroke-width:4.20327" /><rect
   style="opacity:1;fill:#ffffff;fill-opacity:1;stroke-width:3.81182"
   id="rect64"
   width="182.52634"
   height="182.52634"
   x="202.01981"
   y="744.953"
   inkscape:label="t_bg"
   inkscape:export-filename="C:\Users\lokes\OneDrive\Documents\Desktop\haemng_logo-128.svg"
   inkscape:export-xdpi="130.048"
   inkscape:export-ydpi="130.048" /><g
   id="g64"
   style="fill:#ffffff;fill-opacity:1;stroke-width:1.93174"
   transform="matrix(1.0419547,0,0,1.0419547,-565.78783,275.67742)">
		<path
   class="st0"
   d="m 891.42,540.32 c 0,0 -28.99,-23.34 -39.7,-21.65 -5.62,0.88 -7.39,3.22 -7.26,9.22 0.13,6 -1.16,17.76 -23.67,29.41 -1.96,1.02 1.26,2.98 2.07,3.55 2.72,1.89 5.07,4.31 6.97,7.01 1.91,2.71 3.8,5.86 4.17,9.22 0.02,0.18 0.03,0.36 0.04,0.54 0.03,1.61 -0.28,2.23 -0.28,2.23 0,0 -0.9,0.28 -1.75,-0.66 -0.85,-0.95 -3.65,-3.98 -4.02,-2.84 -0.38,1.14 4.44,9.64 4.02,16.66 -0.19,3.22 0.05,2.98 -1.18,2.65 -1.23,-0.33 -3.03,-2.65 -3.6,-1.89 -0.57,0.76 3.69,24.57 2.08,30.16 -1.61,5.59 -7.01,-5.02 -7.01,-5.02 0,0 -24.24,-33.9 -11.36,-87.68 0,0 0.28,-1.8 -1.14,-1.51 -1.42,0.28 -19.41,1.8 -25.66,-14.82 0,0 6.53,0.99 9.52,-0.47 0,0 -21.6,-2.82 -26.65,-28.2 0,0 0.11,0.01 0.94,0.82 0.83,0.8 3.98,2.55 6.3,2.46 0,0 -15.2,-15.84 -16.71,-39.13 0,0 36.61,9.47 51.76,30.8 15.15,21.33 20.77,22.22 26.35,22.12 5.59,-0.09 15.15,-5.68 19.41,-2.18 4.26,3.5 5.68,7.64 5.49,12.56 0,0 28.41,22.41 30.87,26.64 z"
   id="path64"
   style="fill:#000000;fill-opacity:1;stroke-width:1.93174"
   clip-path="url(#SVGID_1_)" />
		<circle
   class="st1"
   cx="852.78998"
   cy="510.73001"
   r="1.8"
   id="circle64"
   style="fill:#ffffff;fill-opacity:1;stroke-width:1.93174" />
	</g></g></g><style
     type="text/css"
     id="style1">
	.st0{clip-path:url(#SVGID_1_);}
	.st1{fill:#FFC812;}
</style><style
     type="text/css"
     id="style1-3">
	.st0{fill:#231F20;}
</style></svg>
