<?xml version="1.0" encoding="UTF-8" standalone="no"?>
<!-- Created with Inkscape (http://www.inkscape.org/) -->

<svg
   width="50.00005mm"
   height="50.000004mm"
   viewBox="0 0 50.00005 50.000004"
   version="1.1"
   id="svg1"
   xml:space="preserve"
   inkscape:version="1.4.3 (0d15f75, 2025-12-25)"
   sodipodi:docname="stork_series_logo.svg"
   xmlns:inkscape="http://www.inkscape.org/namespaces/inkscape"
   xmlns:sodipodi="http://sodipodi.sourceforge.net/DTD/sodipodi-0.dtd"
   xmlns="http://www.w3.org/2000/svg"
   xmlns:svg="http://www.w3.org/2000/svg"><sodipodi:namedview
     id="namedview1"
     pagecolor="#505050"
     bordercolor="#ffffff"
     borderopacity="1"
     inkscape:showpageshadow="0"
     inkscape:pageopacity="0"
     inkscape:pagecheckerboard="1"
     inkscape:deskcolor="#505050"
     inkscape:document-units="mm"
     inkscape:zoom="0.22627417"
     inkscape:cx="3986.3145"
     inkscape:cy="470.66795"
     inkscape:window-width="1920"
     inkscape:window-height="1051"
     inkscape:window-x="-9"
     inkscape:window-y="-9"
     inkscape:window-maximized="1"
     inkscape:current-layer="layer1"><inkscape:page
       x="0"
       y="0"
       width="50.00005"
       height="50.000004"
       id="page2"
       margin="0"
       bleed="0" /></sodipodi:namedview><defs
     id="defs1" /><g
     inkscape:label="Layer 1"
     inkscape:groupmode="layer"
     id="layer1"
     transform="translate(-1012.1992,34.549667)"><rect
       style="opacity:1;fill:#ffffff;fill-opacity:0;stroke-width:0.118977;stroke-linecap:round"
       id="rect2"
       width="50"
       height="50"
       x="1012.1993"
       y="-34.549667"
       inkscape:export-filename="C:\Users\lokes\OneDrive\Documents\Desktop\stoaek-128.svg"
       inkscape:export-xdpi="457.34833"
       inkscape:export-ydpi="457.34833" /><path
       id="path2"
       style="opacity:1;fill:#000000;fill-opacity:1;stroke-width:0.156849"
       d="m 1039.5946,-22.170073 c 0.043,-6.09e-4 0.092,0.02104 0.1633,0.08357 0.1043,0.09098 0.2571,0.267679 0.4463,0.567001 0.1892,0.299323 0.4151,0.721294 0.6446,1.181581 0.2295,0.460281 0.4628,0.958914 0.5631,1.088174 0.1005,0.129259 0.068,-0.110971 0.011,-0.348591 -0.057,-0.237608 -0.1375,-0.47274 -0.1901,-0.766495 -0.052,-0.29376 -0.077,-0.646126 -0.073,-0.942259 0.01,-0.296133 0.035,-0.535888 0.1066,-0.660738 0.072,-0.124856 0.1845,-0.134699 0.3015,-0.01427 0.117,0.120374 0.2385,0.371057 0.4082,0.780088 0.1697,0.40903 0.3873,0.976281 0.5919,1.653479 0.2045,0.677203 0.3961,1.464316 0.4858,2.141141 0.09,0.676825 0.077,1.243405 0.083,1.871444 0.01,0.628033 0.029,1.317372 0.058,1.845923 0.029,0.528551 0.063,0.896376 -0.02,1.192234 -0.084,0.295859 -0.2851,0.519636 -0.4699,0.822819 -0.1848,0.303176 -0.3528,0.685649 -0.532,1.067994 -0.1792,0.382338 -0.3692,0.7645301 -0.5237,1.1571631 -0.1545,0.392632 -0.2734,0.795687 -0.3844,1.1833554 -0.1111,0.3876806 -0.2146,0.7601522 -0.2618,1.160804 -0.047,0.4006456 -0.039,0.8294471 -7e-4,1.0899723 0.037,0.2605313 0.1036,0.3525423 0.2284,0.4397601 0.1248,0.087212 0.3083,0.1695143 0.4587,0.2465967 0.1504,0.077088 0.2675,0.148963 0.4245,0.2847842 0.1571,0.1358272 0.3538,0.335711 0.611,0.5356862 0.2571,0.1999814 0.5747,0.4002676 0.912,0.5443459 0.3373,0.1440843 0.6943,0.2320705 1.0541,0.2868759 0.3598,0.054824 0.7224,0.076338 1.1438,0.044579 0.4212,-0.031772 0.9015,-0.1168494 1.4329,-0.2556222 0.5315,-0.1386447 1.114,-0.330625 1.6535,-0.5636957 0.5394,-0.2330767 1.0356,-0.5073353 1.4548,-0.6718794 0.4193,-0.1645441 0.7617,-0.2193617 1.1855,-0.2460356 0.4239,-0.02665 0.9294,-0.025003 1.3325,0.027442 0.4032,0.052384 0.704,0.1555125 1.1504,0.2642146 0.4464,0.1087143 1.0384,0.2229048 1.8574,0.3762464 0.819,0.1533477 1.8648,0.3456086 2.8214,0.5638726 0.9566,0.218264 1.8516,0.3976575 2.4059,0.6724648 0.5346,0.2649953 0.7286,0.3546951 0.869,0.4942667 0.1404,0.1395716 0.2747,0.2739719 0.2667,0.3256184 -0.01,0.051652 -0.01,0.051896 -0.092,0.033053 -0.085,-0.018722 -0.282,-0.084291 -0.5668,-0.1611596 -0.2849,-0.076875 -0.6575,-0.1652393 -1.0797,-0.2419559 -0.4223,-0.076716 -0.8662,-0.1139832 -1.1827,-0.1252467 -0.3166,-0.011282 -0.5056,0.00366 -1.1452,0.01427 -0.6396,0.010611 -1.7295,0.017197 -2.6064,0.015551 -0.877,-0.00183 -1.5408,-0.011404 -2.1102,0.021161 -0.5694,0.032565 -1.0445,0.1075617 -1.4942,0.2171359 -0.4497,0.1095802 -0.8684,0.2590981 -1.3171,0.3362781 -0.4444,0.076399 -1.0335,0.1317537 -1.5558,0.2029756 -0.5223,0.071222 -0.9766,0.1639465 -1.5871,0.2793506 -0.6106,0.1153736 -1.2491,0.2255881 -1.8543,0.2618973 -0.6052,0.036285 -1.1767,-0.00122 -1.8506,2.806e-4 -0.674,0.00183 -1.4504,0.042505 -2.0864,0.13612 -0.636,0.093639 -1.1316,0.2398888 -1.6427,0.3888088 -0.5111,0.148921 -1.0374,0.300597 -1.6571,0.486174 -0.6197,0.185578 -1.3329,0.405092 -1.9424,0.603469 -0.6096,0.198378 -1.1155,0.375497 -1.5422,0.459604 -0.4266,0.08409 -0.7738,0.07525 -1.1247,0.05873 -0.351,-0.01647 -0.7055,-0.04062 -1.1163,-0.112154 -0.4108,-0.07157 -0.8777,-0.190559 -1.351,-0.272551 -0.4733,-0.08199 -0.9532,-0.127137 -1.3833,-0.138779 -0.4301,-0.01165 -0.8104,0.01012 -1.1922,0.04842 -0.3817,0.0383 -0.7648,0.09326 -1.3027,0.231857 -0.5379,0.138626 -1.2306,0.360866 -1.8898,0.53227704 -0.6592,0.171399 -1.2851,0.29206 -2.2828,0.53892496 -0.9978,0.246865 -2.3672,0.620105 -3.4161,0.923611 -1.049,0.303499 -1.7775,0.53721 -2.4488,0.681138 -0.6712,0.143919 -1.2852,0.198054 -1.9503,0.237955 -0.6652,0.03988 -1.3813,0.06546 -1.9085,0.05861 -0.5271,-0.0069 -0.8654,-0.04623 -1.0771,-0.08844 -0.2118,-0.0422 -0.2972,-0.08722 -0.3429,-0.160141 -0.046,-0.07291 -0.052,-0.173717 0.046,-0.276778 0.098,-0.103074 0.3001,-0.208318 0.4662,-0.259458 0.1661,-0.05117 0.2963,-0.04824 0.4203,-0.08098 0.1239,-0.03281 0.2415,-0.101237 0.4065,-0.199615 0.165,-0.09837 0.3772,-0.226564 0.6014,-0.304957 0.2243,-0.07837 0.4605,-0.107129 0.5993,-0.186413 0.1388,-0.07928 0.1801,-0.209245 0.3589,-0.246944 0.1789,-0.03769 0.495,0.01689 0.9314,0.05793 0.4365,0.04104 0.9931,0.06835 1.5484,0.06001 0.5553,-0.0084 1.1092,-0.05226 2.1951,-0.303945 1.0858,-0.25167696 2.7033,-0.710866 3.5556,-0.977368 0.8523,-0.266501 0.9393,-0.340291 1.0583,-0.393505 0.1188,-0.05324 0.2696,-0.08606 0.46,-0.163287 0.1905,-0.07723 0.4207,-0.198847 0.7033,-0.353628 0.2826,-0.154787 0.6176,-0.34259 0.9614,-0.494621 0.3439,-0.15203 0.6965,-0.2684406 0.9764,-0.3683489 0.2799,-0.099908 0.4869,-0.1832781 0.641,-0.2340586 0.1541,-0.050799 0.2553,-0.06899 0.2881,-0.1267896 0.033,-0.057812 -0.01,-0.1553296 -0.028,-0.2564698 -0.025,-0.1011768 -0.039,-0.2059577 0,-0.3330034 0.037,-0.1270519 0.1247,-0.2764479 0.082,-0.3207763 -0.043,-0.044335 -0.2169,0.016465 -0.3727,0.030004 -0.1557,0.013538 -0.2935,-0.020063 -0.412,-0.079186 -0.1185,-0.059092 -0.2176,-0.1437306 -0.2874,-0.2524632 -0.07,-0.1087265 -0.1104,-0.2417181 -0.1023,-0.3961451 0.01,-0.154421 0.065,-0.330369 0.051,-0.42871 -0.013,-0.098353 -0.098,-0.1189838 -0.237,-0.1475239 -0.139,-0.02854 -0.3332,-0.065038 -0.4531,-0.090962 -0.1198,-0.025918 -0.1658,-0.041225 -0.1911,-0.097438 -0.026,-0.056287 -0.03,-0.1533782 -0.024,-0.2503715 0.01,-0.096993 0.021,-0.1937855 0.016,-0.3099641 -0.01,-0.1161847 -0.03,-0.251579 -0.06,-0.3895711 -0.03,-0.1379617 -0.065,-0.2785274 -0.06,-0.4202334 0.01,-0.1416633 0.052,-0.2845768 0.1328,-0.3953584 0.081,-0.1107755 0.196,-0.1893277 0.3036,-0.2872601 0.1075,-0.097926 0.2075,-0.2151783 0.2371,-0.286565 0.029,-0.071387 -0.012,-0.096975 -0.1173,-0.1088362 -0.1058,-0.011831 -0.2767,-0.00994 -0.4019,0.00878 -0.1251,0.018905 -0.2044,0.054214 -0.2452,0.0372 -0.041,-0.016709 -0.043,-0.085461 -0.051,-0.2041891 -0.01,-0.1187338 -0.019,-0.2873699 -0.069,-0.3883759 -0.049,-0.101006 -0.1361,-0.1344796 -0.2061,-0.1998106 -0.07,-0.065331 -0.1232,-0.1625256 -0.1293,-0.2684773 -0.01,-0.105964 0.035,-0.2207582 0.2308,-0.3120192 0.1956,-0.091255 0.5455,-0.1589581 0.6758,-0.2057564 0.1304,-0.046835 0.041,-0.072515 -0.099,-0.094688 -0.1403,-0.022198 -0.3316,-0.04092 -0.4693,-0.087334 -0.1377,-0.04641 -0.2219,-0.120466 -0.1732,-0.159879 0.049,-0.03946 0.2297,-0.04403 0.6846,-0.0547 0.4548,-0.01067 1.1833,-0.02744 1.4464,-0.05245 0.084,-0.0081 0.1206,-0.01714 0.1236,-0.02622 l 3e-4,-3.05e-4 v -3.05e-4 -3.11e-4 -3.05e-4 -3.05e-4 c -0.01,-0.01884 -0.1446,-0.03933 -0.301,-0.05647 -0.2382,-0.0261 -0.5126,-0.04525 -0.8103,-0.08235 -0.2978,-0.03708 -0.6189,-0.09224 -0.7777,-0.132479 -0.1587,-0.04025 -0.1548,-0.06547 -0.1384,-0.09972 0.016,-0.03427 0.045,-0.07751 0.1121,-0.102555 0.067,-0.02506 0.1716,-0.03183 0.3322,-0.02586 0.1606,0.0061 0.3773,0.0247 0.6607,0.03464 0.2834,0.01 0.6335,0.01104 0.9422,0.01567 0.3087,0.0049 0.5757,0.01275 0.8788,0.03726 0.3032,0.02445 0.6424,0.06534 0.8554,0.07147 0.213,0.0061 0.2999,-0.0225 0.2422,-0.06966 -0.057,-0.04708 -0.2594,-0.112605 -0.53,-0.176692 -0.2705,-0.06407 -0.6097,-0.126698 -0.9272,-0.194548 -0.3175,-0.06784 -0.6134,-0.141212 -0.8767,-0.214294 -0.2633,-0.07308 -0.4941,-0.145932 -0.6887,-0.247676 -0.1947,-0.101744 -0.353,-0.232204 -0.3942,-0.318989 -0.041,-0.08678 0.035,-0.129796 0.1972,-0.147311 0.1625,-0.01769 0.4116,-0.0094 0.6733,0.02214 0.2616,0.03159 0.5359,0.08646 1.0283,0.212654 0.4924,0.126192 1.2027,0.323533 1.7311,0.476917 0.5284,0.153396 0.8747,0.262958 0.9974,0.277808 0.1227,0.01482 0.022,-0.06487 -0.171,-0.166612 -0.1928,-0.101726 -0.4773,-0.225576 -0.726,-0.363598 -0.2486,-0.138017 -0.4612,-0.290304 -0.6576,-0.419124 -0.1963,-0.128814 -0.3766,-0.234095 -0.5404,-0.353792 -0.1639,-0.119685 -0.3113,-0.253708 -0.4282,-0.402122 -0.1168,-0.148408 -0.2031,-0.31111 -0.2118,-0.417641 -0.01,-0.106556 0.06,-0.156867 0.156,-0.185431 0.096,-0.02854 0.2184,-0.03561 0.3825,0.02268 0.164,0.0583 0.3696,0.181919 0.5442,0.314276 0.1747,0.132363 0.3186,0.273539 0.4879,0.398652 0.1693,0.125118 0.3637,0.233985 0.5944,0.366525 0.2306,0.132553 0.4972,0.288724 0.8053,0.475685 0.308,0.18695 0.6577,0.404811 0.8108,0.477527 0.1532,0.07272 0.1101,3.3e-4 0.033,-0.104659 -0.077,-0.104957 -0.1888,-0.242547 -0.302,-0.389144 -0.1133,-0.146597 -0.2284,-0.302158 -0.3535,-0.483668 -0.125,-0.181515 -0.2601,-0.388827 -0.3657,-0.552639 -0.1057,-0.163813 -0.1818,-0.284028 -0.2465,-0.397847 -0.065,-0.113818 -0.1179,-0.221118 -0.1558,-0.309317 -0.038,-0.0882 -0.061,-0.157306 -0.064,-0.24284 -0.01,-0.08554 0.012,-0.187736 0.039,-0.248927 0.027,-0.06118 0.065,-0.08142 0.1252,-0.06975 0.06,0.01165 0.1418,0.0555 0.208,0.09658 0.066,0.04104 0.1171,0.07942 0.1923,0.133284 0.075,0.05385 0.1743,0.123168 0.2697,0.214118 0.095,0.09095 0.187,0.203628 0.2684,0.275374 0.081,0.07175 0.1528,0.102573 0.2154,0.08619 0.063,-0.01634 0.1166,-0.08009 0.1424,-0.166794 0.026,-0.08671 0.024,-0.196548 0.054,-0.281961 0.031,-0.08542 0.095,-0.146481 0.1576,-0.244553 0.063,-0.09808 0.1247,-0.233175 0.1596,-0.359428 0.035,-0.126253 0.043,-0.243535 -0.01,-0.343443 -0.05,-0.0999 -0.157,-0.182278 -0.1989,-0.269021 -0.042,-0.08674 -0.018,-0.177923 0.071,-0.24484 0.089,-0.06696 0.2437,-0.10983 0.3161,-0.154268 0.1439,-0.08833 -0.029,-0.271094 0.1575,-0.408141 0.095,-0.06965 0.2802,-0.10783 0.3431,-0.1505 0.063,-0.04269 0.01,-0.08981 -0.028,-0.160312 -0.031,-0.0705 -0.035,-0.164416 -0.01,-0.253683 0.026,-0.08927 0.08,-0.174155 0.1227,-0.229966 0.043,-0.0558 0.073,-0.08274 0.083,-0.131449 0.01,-0.04866 -6e-4,-0.118959 -0.01,-0.208342 -0.01,-0.08935 -0.013,-0.197755 0.045,-0.287815 0.057,-0.09007 0.1764,-0.162087 0.2137,-0.245901 0.037,-0.08382 -0.01,-0.179473 -0.013,-0.326607 -0.01,-0.147145 0.027,-0.3457 0.099,-0.475429 0.072,-0.129735 0.1819,-0.190815 0.3968,-0.204543 0.2148,-0.01372 0.5344,0.01988 0.6338,0.0037 0.099,-0.01616 -0.021,-0.08127 -0.1529,-0.183705 -0.1314,-0.102427 -0.2736,-0.241803 -0.3563,-0.348578 -0.083,-0.106781 -0.106,-0.180979 -0.1049,-0.258598 0,-0.07763 0.027,-0.158794 0.1318,-0.202671 0.1048,-0.04391 0.289,-0.05043 0.5173,-0.0461 0.2284,0.0043 0.5007,0.01964 0.7823,0.04946 0.2815,0.02982 0.5721,0.07432 0.6642,0.0647 0.092,-0.0097 -0.015,-0.07331 -0.18,-0.211983 -0.1657,-0.138644 -0.3904,-0.352188 -0.4784,-0.510433 -0.088,-0.158238 -0.038,-0.261202 0.046,-0.330387 0.085,-0.0692 0.2062,-0.104818 0.3425,-0.110684 0.1363,-0.0061 0.2879,0.01805 0.4223,0.0483 0.1344,0.03025 0.2516,0.06686 0.4345,0.160434 0.1829,0.09358 0.4315,0.24409 0.8205,0.515251 0.389,0.271166 0.9184,0.66289 1.1256,0.79626 0.07,0.04476 0.1028,0.06043 0.1104,0.05458 l 4e-4,-3.05e-4 3e-4,-3.05e-4 c 0.01,-0.01512 -0.073,-0.109348 -0.1721,-0.226966 -0.153,-0.181382 -0.344,-0.419063 -0.4814,-0.589175 -0.1375,-0.170112 -0.2215,-0.272557 -0.3447,-0.446572 -0.1233,-0.174008 -0.2859,-0.419568 -0.4101,-0.67655 -0.1242,-0.256976 -0.2099,-0.525368 -0.2552,-0.734857 -0.045,-0.209482 -0.05,-0.360305 -0.015,-0.463555 0.035,-0.103269 0.1093,-0.159142 0.2089,-0.169021 0.1,-0.01006 0.2245,0.02628 0.3761,0.114904 0.1516,0.08858 0.3298,0.229583 0.5142,0.415282 0.1845,0.185693 0.3752,0.416032 0.5874,0.700114 0.2122,0.284077 0.4461,0.621831 0.6685,0.921263 0.2224,0.299433 0.4332,0.560623 0.5223,0.642614 0.026,0.02433 0.042,0.03281 0.05,0.02927 3e-4,-2.25e-4 0,-6.1e-4 0,-0.0012 2e-4,-1.65e-4 5e-4,-6.1e-4 0,-6.1e-4 0.011,-0.0161 -0.015,-0.08896 -0.053,-0.177863 -0.057,-0.135491 -0.138,-0.309256 -0.2532,-0.577691 -0.1153,-0.268434 -0.2649,-0.631441 -0.3979,-0.935685 -0.1331,-0.304232 -0.2497,-0.549694 -0.3345,-0.759317 -0.085,-0.209623 -0.1376,-0.383595 -0.1651,-0.570044 -0.027,-0.186431 -0.03,-0.385327 0,-0.557543 0.031,-0.172221 0.096,-0.317568 0.1586,-0.41947 0.063,-0.101909 0.1244,-0.160575 0.1832,-0.187188 0.018,-0.0086 0.037,-0.01348 0.055,-0.0139 z m 12.7707,17.3167377 c -0.1474,-5.244e-4 -0.2673,0.118557 -0.2677,0.2659344 -6e-4,0.1473836 0.1185,0.2672638 0.2659,0.2677151 0.1474,5.244e-4 0.2672,-0.1185569 0.2677,-0.2659405 5e-4,-0.1473774 -0.1185,-0.2672516 -0.2659,-0.267709 z"
       sodipodi:nodetypes="csssssscssssssssssssscssssssssssssssssssssssssssssssssssssssssssssssssssssssssssssssssssssccsssssssssccscssssssssssssssssscccccssssssssssssssssssssssssssssssssssssssssscssssssssssssssssssssscsssssssscssssssssssssscssssssssssssssscssssssssccsssss" /></g></svg>
